<svg width="165" height="34" viewBox="0 0 165 34" fill="none" xmlns="http://www.w3.org/2000/svg">
<path d="M8.72 27H0.6L4.24 9.8H12.44L8.72 27ZM13.48 4.56C13.48 5.17333 13.3467 5.70667 13.08 6.16C12.84 6.61333 12.5067 7 12.08 7.32C11.68 7.64 11.2133 7.88 10.68 8.04C10.1467 8.2 9.6 8.28 9.04 8.28C7.97333 8.28 7.08 8.02667 6.36 7.52C5.64 7.01333 5.28 6.21333 5.28 5.12C5.28 4.53333 5.4 4.01333 5.64 3.56C5.88 3.08 6.2 2.69333 6.6 2.4C7.02667 2.08 7.50667 1.84 8.04 1.68C8.6 1.52 9.17333 1.44 9.76 1.44C10.8 1.44 11.68 1.69333 12.4 2.2C13.12 2.70667 13.48 3.49333 13.48 4.56ZM35.2788 24.84C34.6121 25.16 33.9188 25.48 33.1988 25.8C32.5054 26.0933 31.7588 26.36 30.9588 26.6C30.1588 26.8133 29.2788 26.9867 28.3188 27.12C27.3854 27.2533 26.3588 27.32 25.2388 27.32C21.6654 27.32 18.9054 26.52 16.9588 24.92C15.0388 23.32 14.0788 20.6533 14.0788 16.92C14.0788 14.76 14.4121 12.7333 15.0788 10.84C15.7454 8.92 16.7321 7.25333 18.0388 5.84C19.3454 4.4 20.9588 3.26667 22.8788 2.44C24.7988 1.61333 26.9988 1.2 29.4788 1.2C30.6521 1.2 31.7188 1.28 32.6788 1.44C33.6654 1.6 34.5454 1.81333 35.3187 2.08C36.1188 2.32 36.8254 2.58667 37.4388 2.88C38.0788 3.17333 38.6521 3.45333 39.1588 3.72L37.7188 11.16H30.5188C30.5454 10.8933 30.5721 10.5467 30.5988 10.12C30.6521 9.69333 30.6921 9.26667 30.7188 8.84C30.7454 8.38667 30.7721 7.94667 30.7988 7.52C30.8254 7.09333 30.8388 6.73333 30.8388 6.44C30.8388 6.22667 30.8254 5.98667 30.7988 5.72C30.7721 5.42667 30.7054 5.14667 30.5988 4.88C30.4921 4.61333 30.3188 4.4 30.0788 4.24C29.8654 4.05333 29.5721 3.96 29.1988 3.96C28.5054 3.96 27.8654 4.25333 27.2788 4.84C26.7188 5.4 26.2121 6.16 25.7588 7.12C25.3054 8.05333 24.9054 9.12 24.5588 10.32C24.2121 11.52 23.9188 12.7467 23.6788 14C23.4654 15.2267 23.2921 16.44 23.1588 17.64C23.0521 18.84 22.9987 19.8933 22.9987 20.8C22.9987 21.0667 23.0121 21.4 23.0388 21.8C23.0654 22.2 23.1454 22.5867 23.2787 22.96C23.4121 23.3333 23.6121 23.6533 23.8788 23.92C24.1721 24.1867 24.5588 24.32 25.0388 24.32C25.8654 24.32 26.6654 23.8133 27.4388 22.8C28.2121 21.76 28.8921 19.92 29.4788 17.28H36.8788L35.2788 24.84ZM41.1456 11.28C42.5056 10.6133 43.8923 10.1333 45.3056 9.84C46.7456 9.52 48.3456 9.36 50.1056 9.36C51.8123 9.36 53.2256 9.49333 54.3456 9.76C55.4656 10.0267 56.359 10.4133 57.0256 10.92C57.6923 11.4267 58.159 12.0267 58.4256 12.72C58.6923 13.4133 58.8256 14.2 58.8256 15.08C58.8256 15.5867 58.7856 16.1333 58.7056 16.72C58.6523 17.3067 58.5856 17.8 58.5056 18.2L56.6256 27H50.1856L49.4656 24.44H49.2256C48.3723 25.3733 47.3723 26.0933 46.2256 26.6C45.1056 27.08 43.9856 27.32 42.8656 27.32C42.2256 27.32 41.599 27.2267 40.9856 27.04C40.3723 26.8533 39.8256 26.5733 39.3456 26.2C38.8656 25.8 38.479 25.3067 38.1856 24.72C37.8923 24.1067 37.7456 23.3733 37.7456 22.52C37.7456 21.1333 38.119 20.04 38.8656 19.24C39.639 18.4133 40.639 17.8 41.8656 17.4C43.119 16.9733 44.519 16.7067 46.0656 16.6C47.639 16.4933 49.2123 16.44 50.7856 16.44C50.839 16.1733 50.9056 15.8 50.9856 15.32C51.0656 14.8133 51.1056 14.3733 51.1056 14C51.1056 13.52 50.9723 13.08 50.7056 12.68C50.4656 12.2533 49.9456 12.04 49.1456 12.04C48.2123 12.04 47.519 12.32 47.0656 12.88C46.639 13.4133 46.359 14.0667 46.2256 14.84H40.3856L41.1456 11.28ZM50.3456 18.32H49.6256C48.8523 18.32 48.1856 18.4267 47.6256 18.64C47.0923 18.8267 46.6523 19.08 46.3056 19.4C45.9856 19.72 45.7456 20.08 45.5856 20.48C45.4256 20.88 45.3456 21.28 45.3456 21.68C45.3456 22.32 45.5056 22.8 45.8256 23.12C46.1723 23.44 46.5723 23.6 47.0256 23.6C47.5856 23.6 48.1323 23.4 48.6656 23C49.2256 22.6 49.5723 22.0667 49.7056 21.4L50.3456 18.32ZM61.5509 9.8C62.5376 9.58667 63.4043 9.34667 64.1509 9.08C64.8976 8.81333 65.5776 8.48 66.1909 8.08C66.8309 7.68 67.4309 7.18667 67.9909 6.6C68.5776 6.01333 69.2043 5.29333 69.8709 4.44H73.9909L72.8309 9.8H75.9509L75.4309 12.48H72.2709L70.6309 20.28C70.4976 20.8933 70.3909 21.44 70.3109 21.92C70.2309 22.4 70.1909 22.7733 70.1909 23.04C70.1909 23.5733 70.3776 23.9067 70.7509 24.04C71.1509 24.1733 71.8843 24.24 72.9509 24.24L72.3509 27C72.1643 27.0533 71.8709 27.0933 71.4709 27.12C71.0976 27.1467 70.6709 27.1733 70.1909 27.2C69.7376 27.2533 69.2576 27.28 68.7509 27.28C68.2709 27.3067 67.8443 27.32 67.4709 27.32C66.8043 27.32 66.1509 27.2667 65.5109 27.16C64.8709 27.08 64.2976 26.9067 63.7909 26.64C63.2843 26.3467 62.8709 25.9333 62.5509 25.4C62.2576 24.8667 62.1109 24.1467 62.1109 23.24C62.1109 22.92 62.1243 22.52 62.1509 22.04C62.2043 21.56 62.2976 21.0267 62.4309 20.44L64.1109 12.48H60.9909L61.5509 9.8ZM78.255 11.28C79.615 10.6133 81.0017 10.1333 82.415 9.84C83.855 9.52 85.455 9.36 87.215 9.36C88.9217 9.36 90.335 9.49333 91.455 9.76C92.575 10.0267 93.4683 10.4133 94.135 10.92C94.8017 11.4267 95.2683 12.0267 95.535 12.72C95.8017 13.4133 95.935 14.2 95.935 15.08C95.935 15.5867 95.895 16.1333 95.815 16.72C95.7617 17.3067 95.695 17.8 95.615 18.2L93.735 27H87.295L86.575 24.44H86.335C85.4817 25.3733 84.4817 26.0933 83.335 26.6C82.215 27.08 81.095 27.32 79.975 27.32C79.335 27.32 78.7083 27.2267 78.095 27.04C77.4817 26.8533 76.935 26.5733 76.455 26.2C75.975 25.8 75.5883 25.3067 75.295 24.72C75.0017 24.1067 74.855 23.3733 74.855 22.52C74.855 21.1333 75.2283 20.04 75.975 19.24C76.7483 18.4133 77.7483 17.8 78.975 17.4C80.2283 16.9733 81.6283 16.7067 83.175 16.6C84.7483 16.4933 86.3217 16.44 87.895 16.44C87.9483 16.1733 88.015 15.8 88.095 15.32C88.175 14.8133 88.215 14.3733 88.215 14C88.215 13.52 88.0817 13.08 87.815 12.68C87.575 12.2533 87.055 12.04 86.255 12.04C85.3217 12.04 84.6283 12.32 84.175 12.88C83.7483 13.4133 83.4683 14.0667 83.335 14.84H77.495L78.255 11.28ZM87.455 18.32H86.735C85.9617 18.32 85.295 18.4267 84.735 18.64C84.2017 18.8267 83.7617 19.08 83.415 19.4C83.095 19.72 82.855 20.08 82.695 20.48C82.535 20.88 82.455 21.28 82.455 21.68C82.455 22.32 82.615 22.8 82.935 23.12C83.2817 23.44 83.6817 23.6 84.135 23.6C84.695 23.6 85.2417 23.4 85.775 23C86.335 22.6 86.6817 22.0667 86.815 21.4L87.455 18.32ZM105.205 27H97.0453L102.725 0.119998H110.925L105.205 27ZM119.204 9.8L120.404 21.56L126.724 9.8H130.964L121.324 27C120.364 28.68 119.391 29.9733 118.404 30.88C117.417 31.7867 116.337 32.4533 115.164 32.88C114.017 33.3067 112.737 33.5467 111.324 33.6C109.937 33.68 108.351 33.72 106.564 33.72L107.164 30.96C108.044 30.96 108.857 30.9467 109.604 30.92C110.377 30.8933 110.991 30.8133 111.444 30.68C112.057 30.52 112.497 30.2267 112.764 29.8C113.031 29.4 113.164 28.8 113.164 28C113.164 27.4667 113.111 26.8533 113.004 26.16C112.924 25.4667 112.831 24.7333 112.724 23.96L110.764 9.8H119.204ZM141.678 14.84C141.705 14.7067 141.732 14.5733 141.758 14.44C141.785 14.3067 141.798 14.16 141.798 14C141.798 13.52 141.705 13.08 141.518 12.68C141.358 12.2533 141.025 12.04 140.518 12.04C140.065 12.04 139.612 12.24 139.158 12.64C138.705 13.0133 138.478 13.52 138.478 14.16C138.478 14.5867 138.585 14.9333 138.798 15.2C139.038 15.44 139.345 15.64 139.718 15.8C140.092 15.96 140.505 16.0933 140.958 16.2C141.438 16.3067 141.905 16.4133 142.358 16.52C142.998 16.68 143.598 16.88 144.158 17.12C144.745 17.3333 145.265 17.6267 145.718 18C146.172 18.3733 146.532 18.84 146.798 19.4C147.065 19.9333 147.198 20.6 147.198 21.4C147.198 22.52 146.932 23.4667 146.398 24.24C145.892 24.9867 145.172 25.6 144.238 26.08C143.332 26.5333 142.252 26.8533 140.998 27.04C139.772 27.2267 138.452 27.32 137.038 27.32C134.878 27.32 133.092 27.16 131.678 26.84C130.265 26.52 129.278 26.2133 128.718 25.92L129.558 21.92H134.958C134.932 22.0533 134.918 22.1867 134.918 22.32C134.918 22.4267 134.918 22.5467 134.918 22.68C134.918 23.2933 135.052 23.7867 135.318 24.16C135.612 24.5067 136.105 24.68 136.798 24.68C137.572 24.68 138.118 24.4667 138.438 24.04C138.785 23.5867 138.958 23.1733 138.958 22.8C138.958 22.4267 138.812 22.1067 138.518 21.84C138.252 21.5467 137.905 21.3067 137.478 21.12C137.052 20.9067 136.572 20.7333 136.038 20.6C135.532 20.44 135.038 20.2933 134.558 20.16C134.212 20.08 133.812 19.9467 133.358 19.76C132.932 19.5733 132.518 19.3067 132.118 18.96C131.718 18.6133 131.385 18.1733 131.118 17.64C130.852 17.08 130.718 16.3867 130.718 15.56C130.718 14.3867 130.998 13.4133 131.558 12.64C132.145 11.84 132.892 11.2 133.798 10.72C134.732 10.24 135.772 9.89333 136.918 9.68C138.092 9.46667 139.265 9.36 140.438 9.36C141.905 9.36 143.292 9.49333 144.598 9.76C145.905 10.0267 146.972 10.3733 147.798 10.8L146.878 14.84H141.678ZM150.418 9.8C151.405 9.58667 152.271 9.34667 153.018 9.08C153.765 8.81333 154.445 8.48 155.058 8.08C155.698 7.68 156.298 7.18667 156.858 6.6C157.445 6.01333 158.071 5.29333 158.738 4.44H162.858L161.698 9.8H164.818L164.298 12.48H161.138L159.498 20.28C159.365 20.8933 159.258 21.44 159.178 21.92C159.098 22.4 159.058 22.7733 159.058 23.04C159.058 23.5733 159.245 23.9067 159.618 24.04C160.018 24.1733 160.751 24.24 161.818 24.24L161.218 27C161.031 27.0533 160.738 27.0933 160.338 27.12C159.965 27.1467 159.538 27.1733 159.058 27.2C158.605 27.2533 158.125 27.28 157.618 27.28C157.138 27.3067 156.711 27.32 156.338 27.32C155.671 27.32 155.018 27.2667 154.378 27.16C153.738 27.08 153.165 26.9067 152.658 26.64C152.151 26.3467 151.738 25.9333 151.418 25.4C151.125 24.8667 150.978 24.1467 150.978 23.24C150.978 22.92 150.991 22.52 151.018 22.04C151.071 21.56 151.165 21.0267 151.298 20.44L152.978 12.48H149.858L150.418 9.8Z" fill="#FF6A3E"/>
</svg>
