<?xml version="1.0" standalone="no"?>
<!DOCTYPE svg PUBLIC "-//W3C//DTD SVG 20010904//EN"
 "http://www.w3.org/TR/2001/REC-SVG-20010904/DTD/svg10.dtd">
<svg version="1.0" xmlns="http://www.w3.org/2000/svg"
 width="896.000000pt" height="896.000000pt" viewBox="0 0 896.000000 896.000000"
 preserveAspectRatio="xMidYMid meet">
<metadata>
Created by potrace 1.11, written by Peter Selinger 2001-2013
</metadata>
<g transform="translate(0.000000,896.000000) scale(0.100000,-0.100000)"
fill="#000000" stroke="none">
<path d="M2897 6994 c-1 -1 -65 -4 -142 -8 -77 -3 -153 -8 -170 -11 -16 -3
-50 -7 -75 -10 -109 -12 -222 -31 -268 -44 -18 -5 -35 -10 -37 -10 -3 0 -18
-2 -33 -5 -15 -4 -36 -8 -47 -10 -104 -21 -519 -173 -535 -196 -3 -4 -16 -11
-29 -15 -13 -4 -46 -20 -73 -36 -27 -16 -53 -29 -58 -29 -6 0 -10 -4 -10 -10
0 -5 -5 -10 -10 -10 -12 0 -158 -89 -218 -133 -163 -121 -191 -145 -327 -282
-123 -123 -185 -193 -269 -307 -99 -135 -246 -383 -246 -415 0 -6 -4 -13 -8
-15 -4 -1 -25 -43 -46 -93 -20 -49 -41 -99 -46 -110 -24 -55 -77 -215 -84
-252 -3 -11 -12 -42 -20 -68 -9 -26 -19 -63 -22 -83 -3 -19 -10 -46 -15 -60
-5 -13 -7 -27 -4 -32 3 -5 1 -11 -4 -15 -5 -3 -10 -13 -10 -23 1 -9 -6 -53
-14 -97 -9 -44 -18 -104 -22 -134 -4 -30 -9 -63 -11 -75 -17 -84 -25 -567 -12
-726 11 -123 28 -250 45 -325 3 -11 6 -29 8 -40 17 -108 81 -295 153 -445 77
-159 266 -390 386 -470 20 -14 43 -30 49 -35 24 -21 144 -92 222 -132 121 -61
338 -141 435 -159 14 -2 36 -9 50 -13 14 -5 57 -15 95 -22 39 -6 79 -13 90
-15 11 -3 43 -7 70 -10 28 -3 61 -7 75 -9 29 -5 141 -16 220 -20 71 -5 406 -4
490 0 78 4 188 14 250 22 25 3 61 7 80 8 19 2 36 4 38 5 3 4 13 6 77 14 33 4
76 11 95 16 19 5 49 11 65 14 30 5 132 25 150 30 6 2 24 6 40 10 38 10 243 75
270 86 11 4 47 18 80 30 70 27 96 38 188 79 38 17 70 31 72 31 4 0 259 121
263 125 4 3 47 199 57 257 3 17 8 35 10 39 3 4 7 24 10 44 2 21 7 46 11 57 3
11 7 30 9 41 5 32 15 80 21 99 3 10 7 28 9 40 9 50 14 75 23 116 5 23 8 42 6
42 -3 0 0 8 5 18 5 9 12 34 15 54 3 21 10 57 15 80 6 24 12 54 15 68 2 14 16
79 30 145 15 66 28 131 31 145 2 14 13 64 24 113 10 48 16 88 13 89 -4 0 -323
2 -709 3 -627 1 -703 -1 -708 -14 -2 -9 -9 -38 -15 -66 -14 -61 -15 -65 -36
-140 -9 -33 -17 -67 -19 -75 -7 -36 -37 -136 -44 -150 -5 -9 -12 -31 -16 -50
-10 -45 -62 -189 -100 -275 -82 -184 -155 -297 -265 -405 -78 -77 -178 -145
-229 -155 -9 -2 -34 -7 -56 -12 -53 -12 -122 -8 -190 12 -112 32 -222 187
-249 352 -25 149 -26 567 -1 803 2 19 6 64 9 100 5 60 9 88 21 180 2 19 7 58
11 85 3 28 8 59 10 69 3 18 23 152 29 202 2 11 8 45 14 75 5 30 12 70 15 89 3
19 17 89 31 155 15 66 29 131 31 145 3 14 12 52 21 85 8 33 17 69 19 80 2 11
15 61 29 110 14 50 28 101 31 114 8 40 135 415 144 426 4 5 11 20 15 33 4 13
22 56 40 95 18 40 33 74 33 77 1 3 12 25 26 50 13 25 37 68 52 95 83 154 205
301 312 376 143 101 330 122 433 47 82 -59 106 -96 137 -214 16 -61 18 -102
16 -275 -2 -112 -5 -224 -8 -249 -2 -25 -7 -92 -11 -150 -3 -58 -8 -118 -10
-135 -9 -83 -15 -148 -20 -227 l-6 -86 692 1 c684 2 692 2 694 22 2 11 5 31 8
45 9 45 56 284 60 310 3 14 19 99 37 190 18 91 34 175 36 188 9 50 13 69 23
112 5 25 12 61 16 80 3 19 8 49 12 65 3 17 7 39 9 50 2 11 5 31 8 45 12 53 16
76 21 110 3 19 14 75 24 123 l18 88 -171 84 c-237 115 -292 138 -494 205 -259
87 -524 149 -702 165 -30 3 -73 7 -95 10 -96 11 -469 26 -478 19z"/>
<path d="M6546 6866 c-13 -28 -55 -116 -91 -196 -164 -353 -179 -386 -247
-528 -32 -68 -58 -129 -58 -135 0 -7 -9 -23 -20 -37 -11 -14 -20 -30 -20 -37
0 -6 -11 -33 -24 -60 -25 -49 -72 -149 -124 -263 -16 -36 -60 -130 -97 -210
-37 -80 -81 -174 -97 -210 -30 -64 -65 -140 -138 -295 -21 -44 -63 -136 -94
-205 -31 -69 -61 -132 -66 -140 -6 -8 -13 -22 -16 -30 -6 -16 -154 -335 -212
-460 -20 -41 -36 -77 -37 -80 0 -3 -16 -36 -34 -75 -65 -136 -81 -174 -81
-184 0 -6 -4 -11 -10 -11 -5 0 -10 -5 -10 -10 0 -6 -22 -58 -50 -116 -27 -58
-50 -107 -50 -109 0 -1 -22 -49 -49 -106 -49 -106 -146 -314 -208 -449 -19
-41 -50 -106 -68 -145 -18 -38 -47 -99 -63 -135 -16 -36 -46 -101 -67 -145
-20 -44 -48 -105 -62 -135 -14 -30 -52 -111 -84 -179 -33 -68 -59 -127 -59
-131 0 -8 -13 -8 245 -9 121 0 228 0 238 0 33 -1 53 -2 155 -2 97 0 103 1 111
23 5 13 25 57 44 98 19 41 49 109 67 150 18 41 43 98 55 125 48 106 96 214
100 225 1 3 16 36 33 73 18 38 32 70 32 72 0 2 18 43 41 92 22 48 49 106 58
128 20 46 43 96 79 178 l25 57 76 0 c570 3 1332 1 1340 -4 6 -4 10 -17 10 -29
0 -12 2 -49 6 -82 3 -33 8 -82 10 -110 2 -27 6 -75 9 -105 4 -30 8 -86 11
-125 3 -38 8 -91 10 -116 3 -26 7 -75 10 -110 2 -35 7 -82 10 -104 2 -22 7
-71 10 -110 20 -260 25 -309 33 -317 7 -7 80 -10 142 -7 17 1 375 0 405 -1 11
0 31 0 45 1 32 1 384 1 433 -1 27 0 48 0 106 0 30 0 56 -2 58 -4 3 -2 17 -1
31 3 15 4 38 5 52 1 14 -4 37 -3 53 1 15 4 27 4 27 -1 0 -5 12 -5 28 -1 15 4
38 5 52 1 14 -4 37 -3 53 1 15 4 27 4 27 -1 0 -5 12 -5 28 -1 15 4 38 5 52 1
14 -4 37 -3 53 1 16 5 27 4 27 -2 0 -6 5 -7 11 -3 6 3 33 6 60 5 l49 -1 -5 43
c-5 39 -8 69 -20 192 -11 107 -15 141 -19 175 -3 19 -10 82 -16 140 -6 58 -13
119 -15 135 -2 17 -7 62 -10 100 -4 39 -8 80 -10 93 -2 13 -7 53 -10 90 -3 37
-8 83 -11 102 -3 19 -7 55 -10 80 -2 25 -7 65 -10 90 -3 25 -7 63 -9 85 -2 22
-7 72 -11 110 -4 39 -8 82 -9 98 0 15 -2 27 -5 27 -3 0 -5 15 -6 33 0 33 -8
112 -29 292 -9 74 -13 112 -20 190 -4 39 -9 81 -11 95 -3 14 -7 48 -9 75 -5
60 -12 133 -20 198 -3 26 -7 66 -10 90 -2 23 -6 58 -9 77 -3 19 -8 62 -11 95
-2 33 -7 74 -9 90 -2 17 -7 62 -11 100 -3 39 -8 81 -10 95 -5 35 -16 136 -21
190 -3 43 -10 107 -19 180 -6 44 -12 108 -20 185 -3 33 -8 78 -11 100 -3 22
-7 60 -10 85 -2 25 -7 65 -10 90 -3 25 -7 63 -9 85 -3 22 -6 60 -9 85 -3 25
-7 72 -11 105 -5 57 -12 121 -19 175 -2 14 -6 57 -10 95 -4 39 -9 86 -11 105
-3 19 -7 55 -10 80 -5 47 -10 93 -21 195 -4 33 -7 75 -8 92 -1 18 -5 34 -11
35 -5 0 -416 2 -912 3 l-902 1 -25 -50z m249 -1066 c4 -47 8 -107 10 -135 4
-54 12 -152 20 -225 3 -25 7 -81 10 -125 3 -44 8 -96 10 -115 2 -19 6 -71 10
-115 3 -44 8 -105 11 -135 2 -30 6 -77 9 -105 2 -27 7 -81 10 -120 3 -38 8
-95 10 -125 3 -30 8 -77 10 -105 8 -83 16 -176 20 -245 4 -72 12 -161 19 -230
3 -25 8 -79 11 -121 l6 -77 -556 1 c-305 0 -555 1 -555 3 0 1 14 32 30 68 17
36 44 96 60 132 17 36 30 67 30 69 0 2 17 41 39 87 21 46 55 121 76 168 21 47
50 112 65 145 15 33 47 105 71 160 24 55 46 102 49 105 3 3 6 10 7 15 1 8 45
108 178 400 7 17 54 122 105 235 51 113 105 233 121 268 16 35 29 65 29 68 0
2 14 32 30 66 17 34 30 68 30 77 0 9 3 11 9 6 5 -6 12 -48 16 -95z"/>
</g>
</svg>
