<?xml version="1.0" standalone="no"?>
<!DOCTYPE svg PUBLIC "-//W3C//DTD SVG 20010904//EN"
 "http://www.w3.org/TR/2001/REC-SVG-20010904/DTD/svg10.dtd">
<svg version="1.0" xmlns="http://www.w3.org/2000/svg"
 width="700.000000pt" height="700.000000pt" viewBox="0 0 700.000000 700.000000"
 preserveAspectRatio="xMidYMid meet">
<metadata>
Created by potrace 1.11, written by Peter Selinger 2001-2013
</metadata>
<g transform="translate(0.000000,700.000000) scale(0.100000,-0.100000)"
fill="#000000" stroke="none">
<path d="M2170 5783 c-37 -6 -171 -44 -189 -53 -9 -4 -47 -23 -86 -41 -98 -48
-144 -87 -410 -345 -302 -292 -399 -384 -403 -380 -1 2 -5 25 -8 52 -8 74 -48
149 -97 183 -55 38 -121 51 -237 46 -284 -10 -471 -119 -466 -270 2 -55 16
-115 27 -115 5 0 9 -7 9 -16 0 -9 33 -50 74 -90 73 -72 172 -132 268 -163 l38
-13 -176 -171 c-96 -94 -197 -198 -223 -231 -98 -126 -172 -269 -230 -446 -59
-180 -61 -199 -58 -820 3 -552 4 -567 25 -638 35 -113 105 -244 170 -315 l26
-27 2 -213 c2 -232 7 -259 64 -341 16 -25 49 -60 73 -79 100 -81 132 -87 481
-86 266 0 293 2 345 21 166 61 250 187 255 380 l1 53 2055 2 2056 3 1 -71 c4
-183 100 -317 263 -369 64 -20 83 -21 371 -18 l304 3 55 27 c103 51 170 124
205 223 14 41 18 88 19 255 l2 205 46 56 c39 49 138 225 137 247 0 4 8 36 18
72 16 59 18 118 18 640 0 613 0 607 -52 779 -48 157 -126 312 -219 436 -46 62
-139 158 -352 364 -37 36 -57 63 -50 65 160 46 312 155 373 268 23 42 29 65
29 119 1 59 -3 72 -29 111 -70 99 -239 159 -460 163 -110 2 -169 -12 -222 -53
-40 -29 -80 -110 -88 -177 -3 -27 -7 -51 -9 -52 -2 -3 -63 55 -422 402 -276
268 -329 307 -500 374 -135 52 -102 51 -1501 50 -714 -1 -1309 -4 -1323 -6z
m2689 -388 c104 -35 174 -81 276 -179 44 -43 192 -187 329 -320 136 -132 287
-278 335 -323 l86 -83 -2385 0 -2385 0 95 91 c52 50 202 195 333 323 459 445
421 412 577 486 18 9 111 29 150 32 14 2 583 2 1265 2 l1240 -1 84 -28z
m-4067 -1499 c115 -38 386 -173 396 -198 2 -4 8 -8 13 -8 6 0 15 -4 22 -10 7
-5 50 -38 97 -72 155 -113 260 -240 260 -313 0 -71 -75 -125 -210 -150 -116
-21 -194 -26 -420 -26 -318 1 -361 5 -435 40 -170 79 -260 267 -218 454 17 74
41 120 93 180 103 117 247 153 402 103z m5692 -9 c202 -93 287 -337 189 -544
-46 -96 -150 -183 -248 -208 -46 -11 -131 -15 -360 -16 -258 0 -324 5 -482 37
-86 17 -163 81 -163 135 0 98 141 246 380 401 146 95 347 193 447 218 64 16
175 5 237 -23z m-1383 -489 c4 -37 -4 -122 -17 -187 -21 -100 -58 -192 -111
-273 -53 -80 -108 -131 -183 -167 l-55 -26 -1230 -2 -1230 -2 -60 28 c-112 52
-200 154 -258 301 -37 95 -66 255 -58 328 1 9 328 12 1601 12 1273 0 1600 -3
1601 -12z m-3689 -916 c70 -81 137 -158 150 -172 65 -71 208 -239 208 -244 0
-3 -207 -6 -460 -6 l-460 0 -68 27 c-282 113 -377 281 -276 491 l25 52 377 0
377 0 127 -148z m5074 110 c27 -45 51 -128 49 -162 -11 -162 -104 -259 -333
-349 -51 -20 -71 -21 -512 -21 -253 0 -460 3 -460 8 0 4 15 23 33 42 18 19 59
67 92 105 33 39 62 72 65 75 3 3 34 39 70 80 36 41 70 80 75 86 6 6 35 39 65
74 30 35 63 72 73 82 16 17 44 18 390 18 l372 0 21 -38z m-1514 -170 c-10
-134 -102 -260 -240 -325 l-67 -32 -1137 -3 c-1262 -3 -1207 -5 -1312 62 -68
45 -106 84 -139 144 -31 56 -56 145 -50 176 l4 21 1472 0 1472 0 -3 -43z"/>
</g>
</svg>
