<svg width="500" height="500" viewBox="0 0 500 500" fill="none" xmlns="http://www.w3.org/2000/svg">
<path d="M250 500C112.144 500 0 387.856 0 250C0 112.144 112.144 0 250 0C387.856 0 500 112.144 500 250C500 387.856 387.856 500 250 500ZM250 31.25C129.375 31.25 31.25 129.375 31.25 250C31.25 370.625 129.375 468.75 250 468.75C370.625 468.75 468.75 370.625 468.75 250C468.75 129.375 370.625 31.25 250 31.25Z" fill="#FF6A3E"/>
<path d="M226.563 333.332C222.561 333.332 218.563 331.814 215.519 328.751L147.812 261.044C141.708 254.936 141.708 245.041 147.812 238.937C153.916 232.834 163.811 232.834 169.918 238.937L226.582 295.605L350.96 171.23C357.063 165.127 366.959 165.127 373.062 171.23C379.166 177.334 379.166 187.229 373.062 193.333L237.644 328.751C234.562 331.814 230.564 333.332 226.563 333.332Z" fill="#FF6A3E"/>
</svg>
