<?xml version="1.0" encoding="UTF-8"?>
<svg width="68px" height="68px" viewBox="0 0 68 68" version="1.1" xmlns="http://www.w3.org/2000/svg" xmlns:xlink="http://www.w3.org/1999/xlink">
    <!-- Generator: Sketch 47.1 (45422) - http://www.bohemiancoding.com/sketch -->
    <title>time-is-money</title>
    <desc>Created with Sketch.</desc>
    <defs></defs>
    <g id="Page-1" stroke="none" stroke-width="1" fill="none" fill-rule="evenodd">
        <g id="Главная-страница" transform="translate(-492.000000, -3314.000000)" fill-rule="nonzero">
            <g id="Услуги-и-преимущества" transform="translate(0.000000, 2768.000000)">
                <g id="4" transform="translate(364.000000, 497.000000)">
                    <g id="time-is-money" transform="translate(128.000000, 49.000000)">
                        <path d="M68,34 C68,52.7773793 52.7773793,68 34,68 C15.2226207,68 0,52.7773793 0,34 C0,15.2226207 15.2226207,0 34,0 C52.7773793,0 68,15.2226207 68,34" id="XMLID_117_" fill="#F5EFCA"></path>
                        <path d="M56.2758621,65.9166207 C53.0435172,65.9166207 50.4137931,63.2868966 50.4137931,60.0545517 C50.4137931,59.4062069 50.9390345,58.8821379 51.5862069,58.8821379 C52.2333793,58.8821379 52.7586207,59.4062069 52.7586207,60.0545517 C52.7586207,61.9937241 54.3366897,63.5717931 56.2758621,63.5717931 C57.3122759,63.5717931 58.2924138,63.1168966 58.9630345,62.3243448 C59.2631724,61.9691034 59.4015172,61.5083448 59.3511034,61.0276552 C59.2971724,60.5141379 59.0322069,60.0346207 58.6218621,59.7168966 L52.4901379,54.9475172 C51.5791724,54.2382069 50.9871034,53.1736552 50.8686897,52.0258621 C50.7514483,50.9050345 51.082069,49.8205517 51.7995862,48.974069 C52.9157241,47.653931 54.5477241,46.8965517 56.2758621,46.8965517 C59.5082069,46.8965517 62.137931,49.5274483 62.137931,52.7586207 C62.137931,53.4069655 61.6126897,53.9310345 60.9655172,53.9310345 C60.3183448,53.9310345 59.7931034,53.4069655 59.7931034,52.7586207 C59.7931034,50.8194483 58.2150345,49.2413793 56.2758621,49.2413793 C55.2394483,49.2413793 54.2593103,49.6962759 53.5886897,50.4888276 C53.2885517,50.844069 53.1502069,51.3024828 53.2006207,51.7831724 C53.2545517,52.2978621 53.5195172,52.7773793 53.9298621,53.0962759 L60.0615862,57.8668276 C60.9725517,58.5749655 61.5634483,59.6383448 61.6830345,60.7837931 C61.8002759,61.9057931 61.4696552,62.9902759 60.7533103,63.8391034 C59.636,65.1592414 58.004,65.9166207 56.2758621,65.9166207" id="XMLID_116_" fill="#56B46F"></path>
                        <path d="M56.2758621,68 C55.6286897,68 55.1034483,67.475931 55.1034483,66.8275862 L55.1034483,45.7241379 C55.1034483,45.0757931 55.6286897,44.5517241 56.2758621,44.5517241 C56.9230345,44.5517241 57.4482759,45.0757931 57.4482759,45.7241379 L57.4482759,66.8275862 C57.4482759,67.475931 56.9230345,68 56.2758621,68" id="XMLID_115_" fill="#56B46F"></path>
                        <path d="M35.1724138,29.3349655 L35.1724138,17.4443448 C35.1724138,16.796 34.6471724,16.271931 34,16.271931 C33.3528276,16.271931 32.8275862,16.796 32.8275862,17.4443448 L32.8275862,29.3349655 C31.1873793,29.7617241 29.9035862,31.0455172 29.4768276,32.6857241 L21.1034483,32.6857241 C20.4562759,32.6857241 19.9310345,33.2097931 19.9310345,33.8581379 C19.9310345,34.5064828 20.4562759,35.0305517 21.1034483,35.0305517 L29.4768276,35.0305517 C30.0008966,37.0471034 31.8216552,38.5477931 34,38.5477931 C36.5863448,38.5477931 38.6896552,36.4444828 38.6896552,33.8581379 C38.6896552,31.6786207 37.1889655,29.8590345 35.1724138,29.3349655 M34,36.2029655 C32.7068276,36.2029655 31.6551724,35.1513103 31.6551724,33.8581379 C31.6551724,32.5649655 32.7068276,31.5133103 34,31.5133103 C35.2931724,31.5133103 36.3448276,32.5649655 36.3448276,33.8581379 C36.3448276,35.1513103 35.2931724,36.2029655 34,36.2029655" id="XMLID_112_" fill="#F0C41B"></path>
                        <path d="M34,10.4098621 C33.3528276,10.4098621 32.8275862,9.8857931 32.8275862,9.23744828 L32.8275862,8.06503448 C32.8275862,7.41668966 33.3528276,6.89262069 34,6.89262069 C34.6471724,6.89262069 35.1724138,7.41668966 35.1724138,8.06503448 L35.1724138,9.23744828 C35.1724138,9.8857931 34.6471724,10.4098621 34,10.4098621" id="XMLID_111_" fill="#806F5E"></path>
                        <path d="M34,60.8236552 C33.3528276,60.8236552 32.8275862,60.2995862 32.8275862,59.6512414 L32.8275862,58.4788276 C32.8275862,57.8304828 33.3528276,57.3064138 34,57.3064138 C34.6471724,57.3064138 35.1724138,57.8304828 35.1724138,58.4788276 L35.1724138,59.6512414 C35.1724138,60.2995862 34.6471724,60.8236552 34,60.8236552" id="XMLID_110_" fill="#806F5E"></path>
                        <path d="M59.7931034,35.0305517 L58.6206897,35.0305517 C57.9735172,35.0305517 57.4482759,34.5064828 57.4482759,33.8581379 C57.4482759,33.2097931 57.9735172,32.6857241 58.6206897,32.6857241 L59.7931034,32.6857241 C60.4402759,32.6857241 60.9655172,33.2097931 60.9655172,33.8581379 C60.9655172,34.5064828 60.4402759,35.0305517 59.7931034,35.0305517" id="XMLID_109_" fill="#806F5E"></path>
                        <path d="M9.37931034,35.0305517 L8.20689655,35.0305517 C7.55972414,35.0305517 7.03448276,34.5064828 7.03448276,33.8581379 C7.03448276,33.2097931 7.55972414,32.6857241 8.20689655,32.6857241 L9.37931034,32.6857241 C10.0264828,32.6857241 10.5517241,33.2097931 10.5517241,33.8581379 C10.5517241,34.5064828 10.0264828,35.0305517 9.37931034,35.0305517" id="XMLID_108_" fill="#806F5E"></path>
                        <path d="M51.4091724,17.6202069 C51.1090345,17.6202069 50.8088966,17.5053103 50.5802759,17.2766897 C50.1218621,16.8182759 50.1218621,16.0773103 50.5802759,15.6188966 L51.4091724,14.79 C51.8675862,14.3315862 52.6085517,14.3315862 53.0669655,14.79 C53.5253793,15.2484138 53.5253793,15.9893793 53.0669655,16.4477931 L52.238069,17.2766897 C52.0094483,17.5064828 51.7093103,17.6202069 51.4091724,17.6202069" id="XMLID_107_" fill="#806F5E"></path>
                        <path d="M15.761931,53.2686207 C15.4617931,53.2686207 15.1616552,53.1537241 14.9330345,52.9251034 C14.4746207,52.4666897 14.4746207,51.7257241 14.9330345,51.2673103 L15.761931,50.4384138 C16.2203448,49.98 16.9613103,49.98 17.4197241,50.4384138 C17.8781379,50.8968276 17.8781379,51.6377931 17.4197241,52.0962069 L16.5908276,52.9251034 C16.3622069,53.1537241 16.062069,53.2686207 15.761931,53.2686207" id="XMLID_106_" fill="#806F5E"></path>
                        <path d="M16.5908276,17.6202069 C16.2906897,17.6202069 15.9905517,17.5053103 15.761931,17.2766897 L14.9330345,16.4477931 C14.4746207,15.9893793 14.4746207,15.2484138 14.9330345,14.79 C15.3914483,14.3315862 16.1324138,14.3315862 16.5908276,14.79 L17.4197241,15.6188966 C17.8781379,16.0773103 17.8781379,16.8182759 17.4197241,17.2766897 C17.1911034,17.5064828 16.8909655,17.6202069 16.5908276,17.6202069" id="XMLID_105_" fill="#806F5E"></path>
                    </g>
                </g>
            </g>
        </g>
    </g>
</svg>