<svg width="500" height="500" viewBox="0 0 500 500" fill="none" xmlns="http://www.w3.org/2000/svg">
<path d="M469.018 190.845C468.682 190.457 468.396 190.079 467.998 189.702L450.477 172.793C465.008 169.497 480.652 157.323 480.652 144.832C480.652 130.281 460.457 125.117 443.221 125.117C425.199 125.117 423.108 137.465 422.893 146.19L377.686 102.606C368.502 93.514 351.083 86.3607 338.061 86.3607H250.015H249.995H161.928C148.917 86.3607 131.508 93.514 122.314 102.606L77.117 146.19C76.8823 137.465 74.7903 125.117 56.7892 125.117C39.533 125.117 19.3481 130.281 19.3481 144.832C19.3481 157.323 35.0021 169.497 49.5336 172.793L32.0122 189.702C31.6142 190.079 31.3387 190.457 30.9917 190.845C12.2456 206.866 0 236.581 0 258.143V322.217C0 337.769 6.13303 351.882 16.0418 362.403V387.25C16.0418 401.782 28.2058 413.629 43.1659 413.629H75.9638C90.9239 413.629 103.078 401.802 103.078 387.25V380.893H249.995H250.015H396.922V387.25C396.922 401.802 409.066 413.629 424.046 413.629H456.834C471.804 413.629 483.948 401.782 483.948 387.25V362.403C493.867 351.882 499.99 337.769 499.99 322.217V258.143C500.01 236.581 487.765 206.866 469.018 190.845ZM138.917 121.974C145.274 116.678 156.387 112.658 161.928 112.658H249.995H250.015H338.082C343.623 112.658 354.736 116.678 361.094 121.974L420.373 179.426H250.015H249.995H79.6477L138.917 121.974ZM20.338 248.449C20.338 232.673 32.6857 219.866 47.9315 219.866C63.1671 219.866 112.956 249.092 112.956 264.868C112.956 280.644 63.1671 276.991 47.9315 276.991C32.6857 276.991 20.338 264.235 20.338 248.449ZM103.088 352.8H97.8325H92.5771L61.4017 352.851C52.7481 350.157 46.6457 347.014 42.3291 343.636C40.1453 341.932 38.4717 340.157 37.1655 338.391C35.8491 336.606 34.8899 334.85 34.2674 333.095C30.3896 322.136 38.4003 312.064 38.4003 312.064H91.6076L127.079 352.78L103.088 352.8ZM326.51 352.821H250.015H249.995H173.5C157.55 352.821 144.601 339.871 144.601 323.932H249.995H250.015H355.409C355.409 339.891 342.46 352.821 326.51 352.821ZM333.224 304.216H250.015H249.995H166.786C149.438 304.216 135.355 282.828 135.355 256.449H249.995H250.015H364.655C364.655 282.838 350.572 304.216 333.224 304.216ZM465.753 333.116C465.12 334.871 464.161 336.626 462.845 338.402C461.549 340.167 459.875 341.942 457.681 343.647C453.375 347.024 447.262 350.188 438.608 352.861L407.433 352.81H402.178H396.922H372.911L408.403 312.094H461.6C461.6 312.084 469.621 322.136 465.753 333.116ZM452.079 276.991C436.853 276.991 387.065 280.624 387.065 264.868C387.065 249.112 436.853 219.866 452.079 219.866C467.325 219.866 479.672 232.673 479.672 248.449C479.672 264.215 467.325 276.991 452.079 276.991Z" fill="#FF6A3E"/>
</svg>
