<svg width="500" height="500" viewBox="0 0 500 500" fill="none" xmlns="http://www.w3.org/2000/svg">
<g clip-path="url(#clip0)">
<path d="M62.7341 129.733C26.5712 132.611 -3.12057 164.289 0.263044 201.497C3.16726 233.436 31.4023 259.645 64.4481 256.137C92.1575 253.198 114.89 228.383 111.212 199.489C108.222 176.017 86.7804 156.724 62.0159 160.665C42.7897 163.724 26.8915 181.901 31.2783 202.577C32.8683 210.068 37.17 216.568 43.295 220.977C49.4199 225.386 57.9586 227.548 66.2769 224.9C71.7263 223.165 76.0761 219.683 79.0247 214.68C81.9734 209.675 82.9303 201.877 78.9877 195.685C75.8096 190.691 72.8924 189.703 68.3149 188.933C66.027 188.548 62.8267 188.405 59.4208 190.621C56.015 192.837 54.2103 197.418 54.2103 200.657C54.1788 203.13 55.1358 205.512 56.872 207.273C55.9632 207.012 55.0617 206.645 54.1066 205.956C51.8762 204.35 49.9548 201.435 49.381 198.734C47.4208 189.494 55.3598 180.47 64.9202 178.947C78.5213 176.781 91.1006 188.111 92.848 201.823C95.1265 219.724 80.3667 235.83 62.4916 237.725C40.326 240.078 20.7017 221.862 18.6971 199.817C16.2945 173.409 37.9771 150.271 64.202 148.185C64.4352 148.167 64.6703 148.155 64.9035 148.143H435.102C435.336 148.161 435.569 148.168 435.8 148.185C462.025 150.271 483.708 173.409 481.305 199.82C479.301 221.868 459.676 240.081 437.511 237.729C419.634 235.832 404.874 219.726 407.154 201.827C408.9 188.113 421.479 176.785 435.082 178.95C444.642 180.472 452.581 189.496 450.619 198.738C450.046 201.438 448.124 204.355 445.894 205.96C444.939 206.647 444.043 207.015 443.136 207.276C444.868 205.514 445.823 203.132 445.79 200.661C445.79 197.422 443.989 192.84 440.585 190.625C437.179 188.409 433.981 188.552 431.691 188.937C427.114 189.707 424.195 190.697 421.015 195.689C417.074 201.879 418.033 209.679 420.981 214.684C423.93 219.689 428.28 223.171 433.729 224.903C442.047 227.55 450.582 225.39 456.707 220.981C462.832 216.572 467.134 210.071 468.724 202.58C473.111 181.907 457.213 163.73 437.988 160.668C413.224 156.727 391.78 176.02 388.792 199.493C385.113 228.387 407.85 253.199 435.56 256.141C468.604 259.646 496.837 233.44 499.741 201.499C503.125 164.291 473.433 132.611 437.27 129.734C436.518 129.62 435.824 129.666 435.104 129.651H64.9053C64.1853 129.607 63.4245 129.69 62.736 129.738L62.7341 129.733ZM27.8817 37.1365C22.7711 37.1365 18.6268 41.2809 18.6268 46.3915V64.9014C18.6268 67.3559 19.6022 69.7103 21.3385 71.4447L58.3584 108.465C60.0946 110.201 62.4472 111.176 64.9016 111.176H435.101C437.555 111.176 439.91 110.201 441.644 108.465L478.664 71.4447C480.4 69.7085 481.375 67.3559 481.375 64.9014V46.3915C481.375 41.2809 477.231 37.1365 472.121 37.1365C472.121 37.1365 27.8817 37.1365 27.8817 37.1365ZM37.1367 55.6465H462.866V61.0662L431.265 92.6664H68.7332L37.1367 61.0662V55.6465V55.6465ZM138.941 185.216C133.831 185.216 129.686 189.36 129.686 194.471V453.61C129.688 458.723 133.833 462.865 138.945 462.863C140.772 462.863 142.556 462.323 144.076 461.31L196.72 426.21C199.249 424.526 200.789 421.707 200.842 418.669L203.724 250.156C203.724 250.105 203.724 250.053 203.724 250.001C203.724 243.93 222.342 243.758 222.234 249.834C222.234 249.89 222.234 249.945 222.234 250.001V398.08C222.236 403.193 226.381 407.335 231.493 407.334C233.32 407.334 235.104 406.793 236.624 405.781L292.154 368.761C294.729 367.045 296.274 364.155 296.276 361.061V250.001C296.276 243.82 314.786 243.82 314.786 250.001V342.551C314.788 347.663 318.934 351.806 324.046 351.802C325.481 351.802 326.897 351.467 328.182 350.825L365.201 332.315C368.335 330.747 370.316 327.545 370.318 324.039V194.469C370.318 189.359 366.173 185.214 361.063 185.214H138.943H138.941V185.216ZM148.196 203.726H351.806V318.317L333.296 327.572V250.001C333.296 219.149 277.766 219.149 277.766 250.001V356.107L240.746 380.788V250.001V250.164C241.296 219.208 185.22 219.039 185.22 250.001V249.842L182.421 413.503L148.2 436.318V203.726H148.196Z" fill="#2F7BED"/>
</g>
<defs>
<clipPath id="clip0">
<rect width="500" height="500" fill="white"/>
</clipPath>
</defs>
</svg>
