<svg width="508" height="500" viewBox="0 0 508 500" fill="none" xmlns="http://www.w3.org/2000/svg">
<g filter="url(#filter0_d)">
<path d="M473.018 190.845C472.682 190.457 472.396 190.079 471.998 189.702L454.477 172.793C469.008 169.497 484.652 157.323 484.652 144.832C484.652 130.281 464.457 125.117 447.221 125.117C429.199 125.117 427.108 137.465 426.893 146.19L381.686 102.606C372.502 93.514 355.083 86.3607 342.061 86.3607H254.015H253.995H165.928C152.917 86.3607 135.508 93.514 126.314 102.606L81.117 146.19C80.8823 137.465 78.7903 125.117 60.7892 125.117C43.533 125.117 23.3481 130.281 23.3481 144.832C23.3481 157.323 39.0021 169.497 53.5336 172.793L36.0122 189.702C35.6142 190.079 35.3387 190.457 34.9917 190.845C16.2456 206.866 4 236.581 4 258.143V322.217C4 337.769 10.133 351.882 20.0418 362.403V387.25C20.0418 401.782 32.2058 413.629 47.1659 413.629H79.9638C94.9239 413.629 107.078 401.802 107.078 387.25V380.893H253.995H254.015H400.922V387.25C400.922 401.802 413.066 413.629 428.046 413.629H460.834C475.804 413.629 487.948 401.782 487.948 387.25V362.403C497.867 351.882 503.99 337.769 503.99 322.217V258.143C504.01 236.581 491.765 206.866 473.018 190.845ZM142.917 121.974C149.274 116.678 160.387 112.658 165.928 112.658H253.995H254.015H342.082C347.623 112.658 358.736 116.678 365.094 121.974L424.373 179.426H254.015H253.995H83.6477L142.917 121.974ZM24.338 248.449C24.338 232.673 36.6857 219.866 51.9315 219.866C67.1671 219.866 116.956 249.092 116.956 264.868C116.956 280.644 67.1671 276.991 51.9315 276.991C36.6857 276.991 24.338 264.235 24.338 248.449ZM107.088 352.8H101.833H96.5771L65.4017 352.851C56.7481 350.157 50.6457 347.014 46.3291 343.636C44.1453 341.932 42.4717 340.157 41.1655 338.391C39.8491 336.606 38.8899 334.85 38.2674 333.095C34.3896 322.136 42.4003 312.064 42.4003 312.064H95.6077L131.079 352.78L107.088 352.8ZM330.51 352.821H254.015H253.995H177.5C161.55 352.821 148.601 339.871 148.601 323.932H253.995H254.015H359.409C359.409 339.891 346.46 352.821 330.51 352.821ZM337.224 304.216H254.015H253.995H170.786C153.438 304.216 139.355 282.828 139.355 256.449H253.995H254.015H368.655C368.655 282.838 354.572 304.216 337.224 304.216ZM469.753 333.116C469.12 334.871 468.161 336.626 466.845 338.402C465.549 340.167 463.875 341.942 461.681 343.647C457.375 347.024 451.262 350.188 442.608 352.861L411.433 352.81H406.178H400.922H376.911L412.403 312.094H465.6C465.6 312.084 473.621 322.136 469.753 333.116ZM456.079 276.991C440.853 276.991 391.065 280.624 391.065 264.868C391.065 249.112 440.853 219.866 456.079 219.866C471.324 219.866 483.672 232.673 483.672 248.449C483.672 264.215 471.324 276.991 456.079 276.991Z" fill="white"/>
</g>
<defs>
<filter id="filter0_d" x="0" y="0" width="508" height="508" filterUnits="userSpaceOnUse" color-interpolation-filters="sRGB">
<feFlood flood-opacity="0" result="BackgroundImageFix"/>
<feColorMatrix in="SourceAlpha" type="matrix" values="0 0 0 0 0 0 0 0 0 0 0 0 0 0 0 0 0 0 127 0"/>
<feOffset dy="4"/>
<feGaussianBlur stdDeviation="2"/>
<feColorMatrix type="matrix" values="0 0 0 0 0 0 0 0 0 0 0 0 0 0 0 0 0 0 0.25 0"/>
<feBlend mode="normal" in2="BackgroundImageFix" result="effect1_dropShadow"/>
<feBlend mode="normal" in="SourceGraphic" in2="effect1_dropShadow" result="shape"/>
</filter>
</defs>
</svg>
