<?xml version="1.0" standalone="no"?>
<!DOCTYPE svg PUBLIC "-//W3C//DTD SVG 20010904//EN"
 "http://www.w3.org/TR/2001/REC-SVG-20010904/DTD/svg10.dtd">
<svg version="1.0" xmlns="http://www.w3.org/2000/svg"
 width="700.000000pt" height="700.000000pt" viewBox="0 0 700.000000 700.000000"
 preserveAspectRatio="xMidYMid meet">
<metadata>
Created by potrace 1.11, written by Peter Selinger 2001-2013
</metadata>
<g transform="translate(0.000000,700.000000) scale(0.100000,-0.100000)"
fill="#000000" stroke="none">
<path d="M330 6462 c-60 -32 -70 -66 -70 -239 0 -83 4 -163 10 -178 14 -37
553 -573 593 -589 26 -11 527 -13 2647 -12 2537 1 2617 2 2644 20 47 30 552
539 570 573 13 26 16 63 16 183 0 171 -10 208 -64 241 -30 18 -117 19 -3171
19 -3027 0 -3142 -1 -3175 -18z m6150 -280 c0 -35 -11 -48 -222 -259 l-223
-221 -2535 0 -2535 0 -222 221 c-212 211 -223 224 -223 259 l0 38 2980 0 2980
0 0 -38z"/>
<path d="M795 5172 c-378 -63 -694 -359 -774 -725 -20 -90 -24 -254 -10 -334
75 -407 432 -712 824 -702 336 8 625 233 706 547 23 91 24 234 2 321 -52 205
-216 385 -408 450 -285 95 -605 -65 -689 -343 -19 -63 -20 -185 -1 -249 84
-290 440 -400 623 -192 90 103 97 249 15 344 -53 62 -153 85 -227 52 -77 -33
-118 -140 -82 -210 16 -31 16 -32 -1 -23 -51 28 -83 85 -83 149 1 89 58 173
150 216 64 30 177 29 245 -4 67 -31 150 -116 183 -186 24 -52 27 -70 27 -163
0 -99 -2 -109 -34 -175 -141 -289 -511 -363 -774 -155 -230 183 -294 527 -144
783 94 159 257 282 442 333 68 18 141 19 2705 19 1449 -1 2653 -4 2675 -8 268
-50 483 -243 556 -502 22 -80 18 -246 -8 -330 -36 -114 -119 -234 -215 -308
-36 -28 -158 -85 -208 -96 -161 -37 -335 14 -456 134 -177 175 -181 439 -9
592 128 115 303 119 415 11 98 -96 91 -253 -13 -310 -17 -9 -17 -8 -3 21 22
42 20 89 -6 141 -38 75 -121 103 -216 75 -51 -16 -75 -35 -111 -90 -23 -35
-26 -50 -26 -125 0 -75 3 -91 27 -132 124 -210 432 -213 591 -5 58 77 81 144
84 247 4 152 -37 253 -146 360 -106 104 -221 152 -371 153 -142 1 -233 -27
-345 -107 -166 -119 -265 -312 -266 -521 -1 -272 169 -529 427 -646 204 -93
441 -90 651 7 114 53 256 176 332 287 46 68 105 199 126 282 35 136 27 344
-19 479 -114 335 -402 577 -761 642 -22 4 -1228 8 -2681 8 -2126 1 -2656 -1
-2719 -12z"/>
<path d="M1903 4398 c-19 -5 -44 -24 -60 -45 l-28 -36 0 -1853 0 -1853 21 -28
c32 -44 83 -67 128 -59 54 10 810 516 831 555 16 31 19 108 30 836 4 204 8
460 10 570 2 110 6 382 10 605 3 223 8 413 11 423 8 25 53 45 110 50 51 4 123
-15 136 -36 4 -7 8 -484 8 -1062 1 -786 4 -1059 13 -1085 18 -51 70 -83 127
-78 39 4 97 40 455 279 330 220 413 281 427 308 15 31 17 103 17 829 1 880 -4
822 65 838 70 17 158 2 179 -29 12 -18 14 -132 14 -688 0 -666 0 -667 22 -702
21 -34 51 -52 103 -61 21 -4 99 31 320 142 279 140 294 149 313 187 20 39 20
57 20 976 l0 936 -28 36 c-18 24 -40 40 -65 46 -47 12 -3144 11 -3189 -1z
m3022 -1053 l0 -800 -120 -62 c-66 -34 -124 -61 -129 -59 -6 1 -10 220 -11
567 0 516 -2 568 -19 616 -81 237 -499 294 -680 92 -35 -38 -64 -90 -71 -129
-2 -8 -4 -361 -4 -785 l-1 -770 -258 -171 -257 -171 -5 956 -5 956 -24 48
c-111 226 -521 258 -682 54 -65 -82 -66 -88 -74 -617 -3 -223 -8 -497 -10
-610 -3 -175 -8 -463 -19 -1122 -1 -70 -4 -129 -7 -131 -34 -25 -452 -299
-462 -302 -10 -4 -12 310 -11 1612 1 890 2 1621 3 1625 0 4 641 6 1424 5
l1422 -2 0 -800z"/>
</g>
</svg>
