<svg width="28" height="36" viewBox="0 0 28 36" fill="none" xmlns="http://www.w3.org/2000/svg">
<path d="M27.6645 27.3399C27.453 28.7934 24.4886 32.5667 23.124 33.1111C22.6549 33.2923 22.2094 33.2518 21.8471 32.9762C21.6188 32.795 21.378 32.4249 18.1796 27.2341L17.2301 25.6873C16.8611 25.1304 16.9309 24.398 17.3888 23.8412C17.8343 23.3023 18.4845 23.1032 19.0526 23.3192C19.0819 23.3372 21.4489 24.11 21.4489 24.11C26.8275 25.8797 27.0041 25.9494 27.2325 26.1193C27.5723 26.4005 27.7309 26.8337 27.66 27.3377L27.6645 27.3399ZM16.8836 19.4413C16.4966 18.8608 16.509 18.1757 16.9016 17.7065L18.3956 15.6669C21.6773 11.1905 21.864 10.9554 22.0868 10.7979C22.4681 10.5403 22.9418 10.5279 23.3929 10.7507C24.6934 11.384 27.3248 15.2912 27.4823 16.7919V16.8448C27.5295 17.3544 27.3236 17.7707 26.967 18.0227C26.7206 18.1813 26.4923 18.269 20.3756 19.7574C19.4093 20.0038 18.8693 20.1388 18.5531 20.2502L18.5936 20.2029C17.9906 20.384 17.3168 20.0915 16.9298 19.4885L16.8836 19.4413ZM13.1216 17.1215C12.8348 17.2093 11.9438 17.4849 10.848 15.7153C10.848 15.7153 3.44775 4.07265 3.27788 3.7149C3.17213 3.31103 3.29588 2.85315 3.65925 2.48415C4.76063 1.34115 10.731 -0.328349 12.2959 0.053026C12.8055 0.188026 13.1576 0.504151 13.2803 0.960901C13.3736 1.4649 14.1004 12.2638 14.2061 14.6837C14.3063 16.7525 13.4153 17.0338 13.1216 17.1215ZM14.1004 28.9577C14.0824 34.6175 14.0711 34.811 13.9778 35.081C13.8259 35.4973 13.4625 35.7841 12.9585 35.8719C11.5174 36.1183 7.01175 34.4544 6.06788 33.3406C5.88675 33.0943 5.77538 32.8479 5.75175 32.597C5.72732 32.422 5.75185 32.2437 5.82263 32.0818C5.934 31.7893 6.09263 31.5598 10.1415 26.8145L11.3306 25.4027C11.7413 24.8807 12.4556 24.7232 13.1295 24.992C13.7854 25.2384 14.1904 25.8009 14.1431 26.4095V28.9295L14.1004 28.9577ZM1.82438 25.3363C1.3845 25.325 0.986254 25.055 0.752254 24.6152C0.588004 24.2934 0.471004 23.7658 0.394504 23.1155C0.189754 21.1648 0.441754 18.2173 1.02788 17.2858C1.29788 16.8583 1.70175 16.6299 2.14163 16.6468C2.43413 16.6468 2.6985 16.7345 8.48775 19.1195L10.1809 19.7934C10.7906 20.0218 11.1653 20.6484 11.1304 21.3695C11.0831 22.067 10.6793 22.6059 10.0875 22.7645L7.67888 23.5318C2.29463 25.2665 2.11238 25.307 1.83113 25.2834L1.82438 25.3363ZM24.2895 35.9945H24.2839L24.2783 36.0002L24.2895 35.9945Z" fill="black"/>
</svg>
