<svg width="178" height="178" viewBox="0 0 178 178" fill="none" xmlns="http://www.w3.org/2000/svg">
<path fill-rule="evenodd" clip-rule="evenodd" d="M24.9844 58.9133L22.3886 65.4053L21.0734 64.8664L23.0808 59.8577L20.7421 58.9034L18.8929 63.5264L17.6419 63.0122L19.4912 58.3892L16.7866 57.2816L14.7198 62.4584L13.3749 61.9096L16.035 55.2544L24.9844 58.9133ZM21.8299 67.1408L21.4492 68.8219L13.3897 71.6057L20.4356 73.2472L20.0845 74.7849L10.6703 72.5847L11.051 70.9134L19.1154 68.105L12.0696 66.4635L12.4157 64.9406L21.8299 67.1408ZM20.0449 76.3622L19.862 78.1076L11.941 79.7393L19.3577 82.9977L19.1797 84.7233L9.91873 80.3425L10.0868 78.7207L20.0449 76.3622ZM19.4121 86.6714L19.3577 88.3031L9.70117 87.9619L9.75556 86.3302L19.4121 86.6714ZM18.5764 92.7283L15.6147 92.936L15.7729 95.2599C15.8224 95.9323 15.9707 96.4169 16.2278 96.6888C16.48 96.9707 16.8756 97.0893 17.3997 97.0498C17.9139 97.0152 18.2798 96.8471 18.4874 96.5405C18.7001 96.2339 18.7841 95.7444 18.7347 95.0819L18.5764 92.7283ZM19.8175 91.0373L20.1142 95.2352C20.1191 95.3637 20.129 95.5121 20.129 95.6604C20.129 95.7098 20.1241 95.7395 20.129 95.7494C20.1883 96.6147 19.9955 97.3019 19.5554 97.8211C19.1154 98.3452 18.4776 98.632 17.6419 98.6913C17.0981 98.7309 16.6184 98.6419 16.2179 98.4293C15.8076 98.2117 15.5109 97.8903 15.3082 97.4602C15.2043 97.8607 15.0263 98.1672 14.7692 98.3551C14.5072 98.5479 14.0721 98.6814 13.4589 98.7606L12.0794 98.9386H12.0696C11.4713 99.0078 11.1153 99.166 10.9966 99.4231L10.7148 99.4429L10.5912 97.6283C10.7148 97.5492 10.8582 97.4849 11.0312 97.4354C11.1993 97.386 11.4713 97.3366 11.8471 97.2921L12.9942 97.1684C13.6122 97.0844 14.0127 96.9212 14.2056 96.6839C14.3984 96.4416 14.4726 96.0461 14.433 95.5071L14.4132 95.1956L14.2649 93.0547L10.2994 93.3365L10.1808 91.7197L19.8175 91.0373ZM20.5443 104.778C20.3317 103.848 19.8521 103.201 19.1006 102.825C18.3441 102.454 17.4046 102.4 16.2674 102.662C15.1351 102.929 14.3143 103.389 13.8001 104.061C13.2859 104.729 13.1376 105.53 13.3502 106.454C13.5578 107.379 14.0424 108.022 14.7939 108.397C15.5455 108.773 16.4899 108.827 17.6222 108.56C18.7544 108.298 19.5752 107.834 20.0944 107.161C20.6037 106.499 20.7569 105.703 20.5443 104.778ZM21.8991 104.462C22.2205 105.871 22.0326 107.087 21.3404 108.111C20.6383 109.129 19.5208 109.821 17.9831 110.177C16.4454 110.533 15.1401 110.415 14.0721 109.806C12.9991 109.193 12.3019 108.185 11.9806 106.775C11.6592 105.356 11.8471 104.14 12.5393 103.117C13.2364 102.103 14.3539 101.411 15.8966 101.05C17.4392 100.694 18.7446 100.812 19.8126 101.421C20.8806 102.034 21.5777 103.042 21.8991 104.462ZM23.8274 110.523L24.4702 112.125L19.4516 119.072L26.1563 116.343L26.7397 117.802L17.7804 121.456L17.1475 119.868L22.1562 112.892L15.4516 115.631L14.878 114.187L23.8274 110.523ZM27.5308 119.671L28.7323 121.693L23.3033 127.73L31.1403 125.752L32.3418 127.775L24.0598 132.803L23.2737 131.483L30.1168 127.32L22.0425 129.401L21.2316 128.042L26.8584 121.836L20.0153 125.995L19.2489 124.704L27.5308 119.671ZM34.0822 129.896L38.2504 135.493L37.1181 136.353L33.9042 132.037L31.8869 133.574L34.8536 137.555L33.7757 138.38L30.8041 134.39L28.4752 136.17L31.7979 140.625L30.6409 141.51L26.3639 135.78L34.0822 129.896ZM39.4272 136.531L40.6929 137.688L39.1997 146.158L44.0403 140.724L45.1973 141.777L38.73 149.036L37.4741 147.894L38.9476 139.404L34.1069 144.833L32.9598 143.79L39.4272 136.531ZM46.5076 143.013L52.614 147.493L51.7833 148.65L49.3853 146.89L44.5397 153.634L43.2492 152.68L48.0898 145.94L45.6769 144.17L46.5076 143.013ZM56.1789 151.602L52.7871 154.484L55.2494 155.983L56.1789 151.602ZM56.2482 149.723L57.7958 150.667L55.8625 160.883L54.3891 159.988L54.9329 157.377L51.7141 155.419L49.7017 157.15L48.2579 156.274L56.2482 149.723ZM62.0035 152.625L63.4967 153.238L60.4262 160.922L64.8515 162.722L64.3027 164.096L58.3891 161.684L62.0035 152.625ZM76.8962 158.821L76.4709 161.876L78.5377 162.173C79.1854 162.267 79.6601 162.213 79.9667 162.015C80.2782 161.817 80.471 161.451 80.5402 160.907C80.6144 160.383 80.5303 159.973 80.293 159.686C80.0557 159.399 79.6453 159.211 79.0569 159.132L76.8962 158.821ZM75.4969 157.204L79.1409 157.718C79.7293 157.802 80.1644 157.886 80.4364 157.985C80.7133 158.084 80.9556 158.208 81.1583 158.366C81.5637 158.667 81.8456 159.053 82.0087 159.523C82.1719 160.002 82.2164 160.551 82.1274 161.169C82.0532 161.684 81.8999 162.129 81.6577 162.509C81.4104 162.89 81.094 163.187 80.7083 163.404C80.4364 163.548 80.1348 163.642 79.7986 163.671C79.4623 163.706 79.0074 163.681 78.4388 163.597L76.2682 163.286L75.7392 167.098L74.152 166.87L75.4969 157.204ZM86.1027 159.691V162.692H88.4068C89.0793 162.692 89.5638 162.579 89.8556 162.336C90.1473 162.099 90.2907 161.713 90.2907 161.179C90.2907 160.66 90.1522 160.279 89.8654 160.047C89.5787 159.815 89.104 159.696 88.4414 159.696H86.1027V159.691ZM84.5254 158.316H88.6887C88.8172 158.316 88.9557 158.321 89.1089 158.331C89.1584 158.331 89.1881 158.336 89.1979 158.336C90.0484 158.336 90.7208 158.578 91.1955 159.058C91.685 159.538 91.9174 160.2 91.9174 161.046C91.9174 161.595 91.8037 162.069 91.5614 162.46C91.3191 162.855 90.9779 163.137 90.5379 163.31C90.9334 163.439 91.2153 163.642 91.3883 163.918C91.5564 164.195 91.6652 164.64 91.6949 165.268L91.7839 166.663V166.677C91.8086 167.286 91.9421 167.656 92.1844 167.795V168.082H90.3846C90.3104 167.953 90.261 167.795 90.2214 167.622C90.1819 167.454 90.1572 167.172 90.1374 166.791L90.083 165.629C90.0484 165.001 89.9198 164.581 89.6973 164.378C89.4699 164.166 89.0892 164.067 88.5502 164.067H86.1175V168.087H84.5254V158.316ZM98.538 158.826C97.6084 158.959 96.9261 159.384 96.491 160.111C96.0559 160.838 95.9224 161.778 96.0806 162.944C96.2438 164.101 96.6294 164.972 97.2475 165.55C97.8606 166.124 98.627 166.346 99.5664 166.213C100.491 166.084 101.168 165.659 101.604 164.927C102.034 164.205 102.172 163.261 102.014 162.104C101.851 160.937 101.465 160.067 100.852 159.493C100.244 158.91 99.4725 158.692 98.538 158.826ZM98.3402 157.431C99.7642 157.229 100.941 157.525 101.895 158.311C102.835 159.108 103.418 160.289 103.641 161.876C103.858 163.454 103.621 164.759 102.929 165.783C102.236 166.806 101.178 167.419 99.7593 167.622C98.3353 167.82 97.1486 167.528 96.1993 166.737C95.2598 165.946 94.6714 164.764 94.4539 163.177C94.2314 161.595 94.4687 160.289 95.1609 159.266C95.8631 158.247 96.9162 157.629 98.3402 157.431ZM103.843 156.942L111.062 154.712L111.478 156.081L108.644 156.957L111.052 164.927L109.52 165.402L107.112 157.431L104.259 158.316L103.843 156.942ZM112.961 154.025L119.389 151.404L119.913 152.734L114.958 154.756L115.898 157.12L120.472 155.256L120.981 156.522L116.407 158.391L117.505 161.13L122.622 159.038L123.166 160.393L116.58 163.083L112.961 154.025ZM129.629 149.135L128.269 149.96C127.893 149.5 127.443 149.248 126.909 149.194C126.38 149.135 125.816 149.288 125.223 149.649C124.432 150.128 123.982 150.771 123.873 151.577C123.769 152.378 124.002 153.278 124.595 154.267C125.189 155.261 125.871 155.913 126.652 156.225C127.428 156.531 128.2 156.452 128.966 155.988C129.574 155.622 129.965 155.132 130.143 154.529C130.326 153.926 130.262 153.318 129.955 152.695L131.3 151.874C131.829 152.838 131.943 153.832 131.631 154.84C131.32 155.844 130.667 156.66 129.653 157.278C128.472 157.995 127.305 158.168 126.163 157.792C125.015 157.421 124.032 156.551 123.216 155.182C122.395 153.797 122.093 152.502 122.321 151.305C122.548 150.114 123.28 149.139 124.506 148.393C125.505 147.79 126.454 147.552 127.364 147.686C128.269 147.814 129.025 148.299 129.629 149.135ZM129.416 145.95L135.448 141.357L136.299 142.499L133.93 144.304L138.89 150.959L137.614 151.933L132.65 145.273L130.271 147.088L129.416 145.95ZM136.932 139.745L138.128 138.652L144.595 145.906L143.399 147.004L136.932 139.745ZM143.399 134.593C142.796 135.32 142.573 136.101 142.731 136.932C142.885 137.762 143.409 138.558 144.299 139.31C145.189 140.062 146.049 140.447 146.89 140.462C147.73 140.472 148.447 140.121 149.055 139.384C149.654 138.662 149.876 137.886 149.723 137.05C149.56 136.215 149.041 135.424 148.151 134.672C147.261 133.921 146.4 133.54 145.565 133.525C144.724 133.51 144.002 133.866 143.399 134.593ZM142.331 133.688C143.256 132.576 144.324 131.997 145.55 131.943C146.776 131.893 147.992 132.378 149.199 133.406C150.41 134.435 151.097 135.562 151.261 136.788C151.424 138.019 151.048 139.191 150.128 140.299C149.199 141.416 148.126 142 146.9 142.049C145.678 142.104 144.462 141.609 143.251 140.586C142.034 139.557 141.347 138.425 141.189 137.199C141.021 135.977 141.401 134.801 142.331 133.688ZM146.786 129.035L147.666 127.557L156.18 127.424L149.985 123.661L150.786 122.316L159.068 127.344L158.193 128.813L149.664 128.966L155.859 132.734L155.068 134.074L146.786 129.035ZM156.502 109.628L159.997 112.387L160.932 109.638L156.502 109.628ZM154.672 109.955L155.261 108.219L165.55 108.007L164.991 109.648L162.351 109.658L161.125 113.248L163.211 114.879L162.667 116.486L154.672 109.955ZM161.085 95.9571L160.808 97.5442C160.225 97.564 159.73 97.7618 159.34 98.1326C158.954 98.5034 158.697 99.0127 158.588 99.6604C158.42 100.62 158.603 101.426 159.147 102.068C159.681 102.706 160.522 103.131 161.674 103.334C162.796 103.537 163.726 103.433 164.462 103.008C165.199 102.588 165.654 101.915 165.817 100.99C165.951 100.199 165.822 99.5171 165.426 98.9484C165.026 98.3699 164.428 97.9991 163.622 97.8162L163.167 100.447L161.857 100.209L162.573 96.1103L167.711 97.0251L167.523 98.0832L166.277 98.1376C166.692 98.5826 166.979 99.0721 167.132 99.6258C167.295 100.185 167.315 100.778 167.206 101.421C166.969 102.751 166.326 103.74 165.263 104.402C164.195 105.065 162.915 105.263 161.426 104.996C159.899 104.719 158.756 104.086 157.995 103.097C157.238 102.103 156.971 100.916 157.214 99.522C157.416 98.365 157.861 97.4701 158.544 96.8471C159.221 96.2142 160.067 95.9175 161.085 95.9571ZM158.395 93.1189L158.638 86.1176L160.052 86.1671L159.869 91.5713L162.391 91.6653L162.559 86.6813L163.908 86.7307L163.74 91.7098L166.658 91.8136L166.85 86.2313L168.299 86.2857L168.047 93.4601L158.395 93.1189ZM158.301 84.2981L158.123 82.5823L164.838 77.2967L157.649 78.0631L157.491 76.4957L167.098 75.4772L167.271 77.183L160.556 82.4933L167.745 81.7319L167.909 83.2795L158.301 84.2981ZM158.212 65.0988L158.568 66.6612C158.02 66.8837 157.639 67.2348 157.421 67.7292C157.204 68.2237 157.169 68.8121 157.327 69.4845C157.535 70.3943 158 71.0272 158.722 71.3881C159.444 71.7392 160.358 71.7837 161.471 71.5216C162.598 71.2645 163.424 70.8047 163.948 70.152C164.472 69.4993 164.645 68.7379 164.442 67.8528C164.284 67.1557 163.948 66.6316 163.439 66.2706C162.925 65.9146 162.331 65.7811 161.654 65.8899L161.303 64.3423C162.371 64.1297 163.335 64.3275 164.19 64.9356C165.046 65.5388 165.604 66.4288 165.876 67.5957C166.188 68.9456 165.985 70.1223 165.283 71.1063C164.576 72.1001 163.459 72.7726 161.916 73.1286C160.358 73.4944 159.048 73.3807 157.995 72.7923C156.937 72.2089 156.25 71.2052 155.928 69.796C155.666 68.6489 155.74 67.66 156.146 66.8293C156.546 65.9888 157.238 65.4152 158.212 65.0988ZM155.172 65.5685L154.425 63.6946L157.619 59.8231L152.69 59.3484L151.992 57.603L158.657 58.5029L162.198 57.0542L162.801 58.5721L159.33 59.9862L155.172 65.5685Z" fill="#0050B8"/>
<path d="M88.575 126.004H86.0483V127.977H88.575V126.004Z" fill="#00CC33"/>
<path fill-rule="evenodd" clip-rule="evenodd" d="M60.1147 71.4424C59.4274 83.9766 74.0234 100.748 89.0693 100.748C104.115 100.748 119.438 82.0383 118.024 71.4424H60.1147Z" fill="#00CC33"/>
<path fill-rule="evenodd" clip-rule="evenodd" d="M60.1494 74.5671C61.7514 89.257 74.1274 100.748 89.0744 100.748C104.165 100.748 116.625 89.0444 118.044 74.1616H117.925C117.49 77.8996 114.326 80.8168 110.518 80.8168C107.136 80.8168 104.274 78.5226 103.364 75.4027C102.449 78.5226 99.5863 80.8168 96.2092 80.8168C92.8322 80.8168 89.9644 78.5226 89.0546 75.4027C88.1399 78.5226 85.2771 80.8168 81.8951 80.8168C78.4636 80.8168 75.5563 78.4485 74.696 75.2494C73.8356 78.4485 70.9332 80.8168 67.4969 80.8168C63.8231 80.8168 60.7576 78.1073 60.1494 74.5671Z" fill="#0050B8"/>
<path fill-rule="evenodd" clip-rule="evenodd" d="M139.878 83.7591C140.101 83.7739 139.547 83.7393 139.868 83.8629C139.493 94.3995 133.07 105.248 126.395 112.19C124.793 114.138 123.092 115.863 121.757 117.317C121.732 117.624 121.549 117.095 121.866 117.322C128.397 117.96 136.57 117.574 142.904 120.753C140.565 125.006 134.39 126.959 129.989 129.03C117.772 134.069 104.422 133.599 91.9567 130.42C91.9567 130.42 90.77 129.93 90.6711 129.718L90.6365 134.43C89.4103 134.454 88.2879 134.484 87.4028 134.425C86.7452 134.276 87.3633 130.627 86.9677 129.99L86.0382 130.44C69.3358 134.365 48.4703 131.562 36.2229 121.223C35.501 120.457 34.9818 120.012 34.7939 119.488C34.8088 119.28 34.7939 119.488 34.9126 119.389C41.3404 117.04 49.6569 116.259 56.2528 116.076C56.3616 116.086 56.4457 116.501 56.4605 116.294C47.0512 106.756 41.5085 96.3526 38.8187 83.5663L38.9522 83.2646C51.9611 85.2474 63.3827 90.4044 71.635 99.0473C78.4534 106.054 83.7687 116.551 86.6117 125.861C88.4263 128.338 86.8342 127.31 86.7699 126.692C86.8342 123.008 86.6562 108.13 86.6167 104.338C87.8379 104.422 89.7514 104.234 90.5178 104.392L90.6167 126.024C90.9332 126.252 90.2558 126.41 90.6019 126.232C92.1643 123.359 94.3794 116.437 96.4907 113.599C101.316 103.255 110.8 94.6566 121.594 89.2128C126.597 86.6813 133.658 84.7875 139.878 83.7591ZM134.42 89.4946C130.874 100.639 124.392 108.002 114.568 115.245C109.999 118.024 105.47 120.289 100.001 121.772C99.7788 121.757 99.7887 121.653 99.576 121.535C100.135 117.164 103.032 112.951 105.109 109.193C108.59 104.6 112.847 100.066 117.915 96.6048C122.731 93.5392 127.942 91.0126 134.429 89.3908C134.612 89.9149 133.89 89.1535 134.42 89.4946ZM44.49 88.1646C56.7077 91.7345 66.8735 100.091 73.326 110.355C74.9824 113.436 76.5646 117.436 77.8502 121.001C77.8452 121.104 77.6573 120.58 77.5238 120.882C71.6449 120.496 66.4038 116.15 61.9241 113.5C53.3504 106.172 47.0611 98.0733 44.3763 88.1547C44.3961 87.952 44.1538 88.1399 44.49 88.1646Z" fill="#00CC33"/>
<path d="M25.5035 49.5779C26.9781 49.5779 28.1735 48.3715 28.1735 46.8832C28.1735 45.3949 26.9781 44.1885 25.5035 44.1885C24.0289 44.1885 22.8335 45.3949 22.8335 46.8832C22.8335 48.3715 24.0289 49.5779 25.5035 49.5779Z" fill="#0050B8"/>
<path d="M151.181 49.5633C152.653 49.5633 153.846 48.3568 153.846 46.8685C153.846 45.3803 152.653 44.1738 151.181 44.1738C149.709 44.1738 148.516 45.3803 148.516 46.8685C148.516 48.3568 149.709 49.5633 151.181 49.5633Z" fill="#0050B8"/>
<path fill-rule="evenodd" clip-rule="evenodd" d="M91.9469 71.4965H117.979C117.979 55.2985 104.956 42.082 88.9951 42.082C73.0295 42.082 60.0107 55.2985 60.0107 71.4965H87.5909C84.3325 70.5423 81.9394 67.4866 81.9394 63.8969C81.9394 59.5359 85.4549 55.9759 89.7714 55.9759C94.0829 55.9759 97.6034 59.5359 97.6034 63.8969C97.6034 67.4866 95.2102 70.5373 91.9469 71.4965Z" fill="#3399FF"/>
<path fill-rule="evenodd" clip-rule="evenodd" d="M32.4009 34.1168L33.5529 32.9845L37.7063 37.3307C38.2848 37.9339 38.8385 38.2602 39.3676 38.2948C39.9016 38.3344 40.4356 38.0872 40.9745 37.5631C41.5184 37.0389 41.7805 36.5 41.7607 35.9611C41.7409 35.4172 41.4443 34.8436 40.8707 34.2453L36.7174 29.8942L37.8744 28.7718L42.092 33.1872C42.9375 34.0723 43.3528 34.987 43.338 35.9363C43.3232 36.8807 42.8732 37.7806 41.998 38.636C41.0982 39.5112 40.1983 39.9413 39.2885 39.9265C38.3787 39.9117 37.4887 39.4419 36.6185 38.5322L32.4009 34.1168ZM41.5432 25.9337L42.9375 24.9498L50.7299 28.312L46.6063 22.349L47.872 21.4491L53.39 29.4097L52.0105 30.3837L44.1884 27.0462L48.317 33.0043L47.0612 33.8943L41.5432 25.9337ZM51.8078 19.2538L53.2417 18.5171L57.6077 27.1797L56.1738 27.9164L51.8078 19.2538ZM56.2034 16.9843L63.2196 14.2648L63.7239 15.5949L60.9649 16.6678L63.9069 24.4059L62.4186 24.9844L59.4816 17.2414L56.7078 18.3193L56.2034 16.9843ZM66.0775 13.2364L72.703 11.313L73.0937 12.6826L67.9762 14.1659L68.6684 16.6036L73.3903 15.2389L73.7612 16.5492L69.0442 17.9138L69.8452 20.7371L75.1258 19.2043L75.5263 20.6036L68.7277 22.5764L66.0775 13.2364ZM78.7847 11.8272L79.6154 18.6852L81.5684 18.4429C82.5128 18.3292 83.1754 17.9534 83.5561 17.3254C83.9319 16.6975 84.0505 15.7778 83.9022 14.5813C83.7687 13.4886 83.4424 12.6826 82.9232 12.1783C82.409 11.6641 81.7118 11.4613 80.8465 11.5701L78.7847 11.8272ZM77.0591 10.6554L80.7427 10.1956C82.142 10.0225 83.2446 10.2944 84.0407 11.0064C84.8367 11.7184 85.3361 12.8754 85.5289 14.4676C85.7168 16.0251 85.4795 17.2711 84.812 18.2056C84.1445 19.1401 83.0864 19.6988 81.6426 19.8768L78.221 20.302L77.0591 10.6554ZM98.958 13.3204L97.4401 13.1968C97.4549 12.6431 97.2868 12.1981 96.9358 11.8519C96.5897 11.5108 96.1002 11.313 95.4722 11.2537C94.953 11.2092 94.5179 11.2932 94.1619 11.5108C93.8059 11.7283 93.623 12.0201 93.5884 12.381C93.5587 12.7469 93.6774 13.0683 93.9444 13.3204C94.2163 13.5825 94.8047 13.8742 95.7095 14.1956C97.0841 14.6851 97.9741 15.1548 98.3697 15.6147C98.7603 16.0745 98.9234 16.6777 98.8641 17.4293C98.785 18.344 98.3845 19.0461 97.6626 19.5406C96.9407 20.035 96.0161 20.2328 94.8888 20.1339C93.7021 20.0301 92.7973 19.6543 92.1891 19.0164C91.576 18.3786 91.2942 17.5133 91.3387 16.4256L92.8863 16.564C92.8764 17.1919 93.0643 17.6963 93.4598 18.0869C93.8504 18.4676 94.4092 18.6951 95.131 18.7593C95.6799 18.8088 96.1397 18.7148 96.5105 18.4726C96.8814 18.2352 97.0841 17.9287 97.1187 17.5381C97.1335 17.3848 97.0989 17.2068 97.0149 17.0041C96.9308 16.8013 96.827 16.6233 96.6885 16.4701C96.4562 16.2129 95.9172 15.9459 95.0668 15.6493C94.8838 15.585 94.7503 15.5405 94.6514 15.5108C93.6082 15.1301 92.8813 14.6999 92.4808 14.2203C92.0754 13.7407 91.9073 13.1177 91.9715 12.3612C92.0408 11.5602 92.4215 10.9323 93.1088 10.4823C93.8059 10.0324 94.686 9.85439 95.759 9.95327C96.8072 10.0472 97.6132 10.3983 98.1867 11.0064C98.7603 11.6146 99.0322 12.381 98.958 13.3204ZM102.661 10.9817L109.979 12.6925L109.663 14.0819L106.79 13.4094L104.941 21.4887L103.388 21.1277L105.233 13.0485L102.34 12.3711L102.661 10.9817ZM115.477 16.3613L112.649 19.7779L115.319 20.8113L115.477 16.3613ZM115.225 14.5071L116.906 15.1647L116.758 25.5184L115.161 24.9003L115.25 22.2402L111.759 20.8854L110.083 22.9275L108.521 22.3243L115.225 14.5071ZM121.762 17.2266L128.457 20.6728L127.814 21.9436L125.183 20.5937L121.46 27.9807L120.041 27.2539L123.764 19.8619L121.119 18.5022L121.762 17.2266ZM131.453 22.6506L137.104 26.6507L136.294 27.8176L131.933 24.7322L130.494 26.8138L134.514 29.6569L133.742 30.7743L129.722 27.9263L128.056 30.3343L132.556 33.5234L131.725 34.7101L125.935 30.6112L131.453 22.6506ZM143.503 36.2874L142.405 35.2243C142.756 34.8041 142.909 34.3492 142.85 33.8597C142.795 33.3702 142.538 32.9103 142.088 32.4653C141.713 32.0994 141.322 31.8868 140.912 31.8324C140.506 31.7781 140.175 31.8769 139.928 32.139C139.671 32.406 139.572 32.7274 139.616 33.0982C139.666 33.474 139.938 34.0723 140.442 34.898C141.213 36.1539 141.604 37.0834 141.629 37.6916C141.648 38.2948 141.401 38.8733 140.882 39.4172C140.254 40.0798 139.507 40.3665 138.637 40.2973C137.767 40.2182 136.921 39.7831 136.111 38.992C135.25 38.1514 134.781 37.2911 134.706 36.411C134.632 35.5309 134.949 34.6755 135.661 33.8547L136.778 34.9474C136.378 35.432 136.209 35.9462 136.274 36.4951C136.343 37.0439 136.635 37.5779 137.159 38.0822C137.554 38.4679 137.97 38.6854 138.405 38.7398C138.845 38.7942 139.196 38.6805 139.468 38.3987C139.572 38.2899 139.656 38.1267 139.72 37.9141C139.789 37.7064 139.814 37.4988 139.799 37.2911C139.779 36.9499 139.527 36.3863 139.053 35.6248C138.949 35.4567 138.875 35.3331 138.82 35.2491C138.247 34.2898 137.945 33.4987 137.93 32.8658C137.91 32.2329 138.163 31.6446 138.692 31.0957C139.245 30.5172 139.933 30.27 140.748 30.3639C141.569 30.4579 142.365 30.8782 143.142 31.6396C143.893 32.3714 144.304 33.1674 144.373 34.003C144.437 34.8387 144.15 35.6001 143.503 36.2874Z" fill="#0050B8"/>
<path d="M89 0C113.569 0 135.819 9.968 151.928 26.0671C168.032 42.1761 178 64.4261 178 89C178 113.574 168.032 135.824 151.928 151.933C135.819 168.032 113.569 178 89 178C64.436 178 42.186 168.032 26.0721 151.933C9.96305 135.824 0 113.574 0 89C0 64.4261 9.968 42.1761 26.0721 26.0671C42.186 9.96305 64.436 0 89 0ZM150.375 27.6493C134.667 11.9458 112.966 2.22994 89 2.22994C65.0343 2.22994 43.3282 11.9458 27.6246 27.6493C11.9211 43.3479 2.20522 65.0392 2.20522 89C2.20522 112.961 11.9211 134.652 27.6246 150.356C43.3331 166.059 65.0293 175.775 89 175.775C112.971 175.775 134.667 166.059 150.375 150.356C166.079 134.652 175.8 112.961 175.8 89C175.8 65.0392 166.079 43.3479 150.375 27.6493Z" fill="#0050B8"/>
</svg>
