<svg width="25" height="16" viewBox="0 0 25 16" fill="none" xmlns="http://www.w3.org/2000/svg">
<path d="M4.56667 16C3.14444 16 2.1 15.6587 1.43333 14.976C0.811111 14.2507 0.5 13.3333 0.5 12.224V11.328C0.5 9.57867 1.03333 7.65866 2.1 5.568C3.16667 3.43467 4.65556 1.57867 6.56667 0H11.0333C9.7 1.36533 8.61111 2.66667 7.76667 3.904C6.96667 5.09867 6.38889 6.44266 6.03333 7.936C6.92222 8.14933 7.56667 8.55467 7.96667 9.152C8.41111 9.74933 8.63333 10.4747 8.63333 11.328V12.224C8.63333 13.3333 8.3 14.2507 7.63333 14.976C7.01111 15.6587 5.98889 16 4.56667 16ZM18.0333 16C16.6111 16 15.5667 15.6587 14.9 14.976C14.2778 14.2507 13.9667 13.3333 13.9667 12.224V11.328C13.9667 9.57867 14.5 7.65866 15.5667 5.568C16.6333 3.43467 18.1222 1.57867 20.0333 0H24.5C23.1667 1.36533 22.0778 2.66667 21.2333 3.904C20.4333 5.09867 19.8556 6.44266 19.5 7.936C20.3889 8.14933 21.0333 8.55467 21.4333 9.152C21.8778 9.74933 22.1 10.4747 22.1 11.328V12.224C22.1 13.3333 21.7667 14.2507 21.1 14.976C20.4778 15.6587 19.4556 16 18.0333 16Z" fill="#0F4C75"/>
</svg>
