<svg width="500" height="500" viewBox="0 0 500 500" fill="none" xmlns="http://www.w3.org/2000/svg">
<g clip-path="url(#clip0)">
<path d="M473.974 219.676L433.811 201.336L398.36 144.778C388.114 128.385 370.081 118.446 350.716 118.549H199.692C182.172 118.549 165.573 126.643 154.918 140.578L109.119 200.516L32.7868 221.418C13.4221 226.745 0 244.471 0 264.553V293.754C0 318.446 19.6721 338.835 44.3647 338.835H50.922C58.8114 369.266 89.8564 387.503 120.287 379.614C140.266 374.389 155.942 358.815 161.065 338.835H333.196C341.085 369.266 372.13 387.503 402.561 379.614C422.54 374.389 438.216 358.815 443.339 338.835H455.634C480.327 338.835 499.999 318.446 499.999 293.754V260.454C500.101 242.934 489.856 226.95 473.974 219.676ZM105.942 360.762C85.8605 360.762 69.5695 344.471 69.5695 324.389C69.5695 304.307 85.8605 288.016 105.942 288.016C126.024 288.016 142.315 304.307 142.315 324.389C142.418 344.368 126.127 360.659 105.942 360.762ZM388.216 360.762C368.134 360.762 351.844 344.471 351.844 324.389C351.844 304.307 368.134 288.016 388.216 288.016C408.298 288.016 424.589 304.307 424.589 324.389C424.692 344.368 408.401 360.659 388.216 360.762ZM455.634 318.344H444.774C441.393 287.094 413.216 264.553 381.966 268.036C355.43 270.905 334.528 291.909 331.659 318.344H162.5C159.119 287.094 130.942 264.553 99.6924 268.036C73.1556 270.905 52.254 291.909 49.3851 318.344H44.2622C30.8401 318.344 20.3893 307.176 20.3893 293.754V264.553C20.2868 253.59 27.5614 244.061 38.1147 241.09L117.93 219.266C120.082 218.651 122.028 217.422 123.36 215.577L171.106 152.975C177.971 144.164 188.524 139.041 199.692 139.041H350.716C363.012 138.938 374.589 145.188 381.044 155.639L418.134 214.86C419.159 216.602 420.798 217.934 422.54 218.754L465.368 238.323C473.974 242.319 479.507 250.926 479.405 260.454V293.754H479.507C479.507 307.176 469.056 318.344 455.634 318.344Z" fill="#2F7BED"/>
</g>
<defs>
<clipPath id="clip0">
<rect width="500" height="500" fill="white"/>
</clipPath>
</defs>
</svg>
