<svg id="Capa_1" enable-background="new 0 0 511.998 511.998" height="512" viewBox="0 0 511.998 511.998" width="512" xmlns="http://www.w3.org/2000/svg"><g><g><g><path d="m490.438 431.789-225.144 14.061-166.831-10.424-58.304-3.637c-3.267-12.31-5.494-24.698-6.972-36.493-2.898-22.997-2.975-43.776-2.499-57.497.36-10.55 1.06-16.929 1.06-16.929 17.055-13.992 47.53-23.444 47.53-23.444 2.207-18.077 8.411-34.228 14.537-48.862 11.231-26.847 35.852-45.867 64.731-49.513 5.465-.691 11.007-1.245 16.579-1.673 66.336-5.134 136.969 6.894 136.969 6.894 4.123 6.748 7.847 14.372 11.182 22.277 13.886 32.983 20.828 70.877 20.828 70.877 107.03 11.941 141.306 45.517 141.306 45.517 19.41 47.53 5.028 88.846 5.028 88.846z" fill="#78c2a4"/><path d="m98.463 435.426-58.304-3.637c-3.267-12.31-5.494-24.698-6.972-36.493-2.898-22.997-2.975-43.776-2.499-57.497.36-10.55 1.06-16.929 1.06-16.929 17.055-13.992 47.53-23.444 47.53-23.444 2.207-18.077 8.411-34.228 14.537-48.862 11.231-26.847 35.852-45.867 64.731-49.513 5.465-.691 11.007-1.245 16.579-1.673-43.436 10.337-118.406 172.626-76.662 238.048z" fill="#5aa687"/><path d="m57.069 353.834v25.437c0 8.849-7.186 16.025-16.035 16.025h-7.847c-2.898-22.997-2.975-43.776-2.499-57.497h10.346c8.849 0 16.035 7.176 16.035 16.035z" fill="#f6e266"/><path d="m40.156 431.785h450.278c7.768 0 14.066 6.298 14.066 14.066 0 7.768-6.298 14.066-14.066 14.066h-450.278c-7.768 0-14.066-6.298-14.066-14.066 0-7.768 6.298-14.066 14.066-14.066z" fill="#f7f9f9"/><path d="m504.496 445.856c0 3.88-1.575 7.4-4.123 9.938-2.548 2.548-6.068 4.123-9.947 4.123h-450.27c-7.769 0-14.07-6.301-14.07-14.061 0-2.266.535-4.405 1.498-6.301 2.314 4.599 7.069 7.75 12.573 7.75h450.269c3.88 0 7.4-1.575 9.947-4.113 1.06-1.06 1.954-2.285 2.625-3.637.963 1.897 1.498 4.036 1.498 6.301z" fill="#dae4ea"/><path d="m458.251 395.84c-6.697 0-12.126-5.429-12.126-12.126v-17.438c0-6.697 5.429-12.126 12.126-12.126 6.697 0 12.126 5.429 12.126 12.126v17.438c0 6.697-5.429 12.126-12.126 12.126z" fill="#f6e266"/><circle cx="128.618" cy="439.95" fill="#4d5961" r="56.668"/><circle cx="383.081" cy="439.95" fill="#4d5961" r="56.668"/><circle cx="383.081" cy="439.95" fill="#f7f9f9" r="26.962"/><circle cx="128.618" cy="439.95" fill="#f7f9f9" r="26.962"/><path d="m134.123 466.35c-1.779.37-3.617.564-5.504.564-14.887 0-26.964-12.077-26.964-26.964s12.077-26.964 26.964-26.964c1.886 0 3.724.194 5.504.564-12.262 2.538-21.47 13.399-21.47 26.4s9.209 23.862 21.47 26.4z" fill="#dae4ea"/><path d="m388.583 466.353c-1.779.37-3.617.564-5.504.564-14.887 0-26.964-12.077-26.964-26.964s12.077-26.964 26.964-26.964c1.886 0 3.724.194 5.504.564-12.262 2.538-21.47 13.399-21.47 26.4 0 13 9.208 23.862 21.47 26.4z" fill="#dae4ea"/><path d="m319.319 297.426h-215.498c2.198-14.236 7.526-27.781 12.417-39.479 7.915-18.913 25.291-32.244 45.352-34.782 14.488-1.828 30.815-2.752 48.541-2.752 35.978 0 69.544 3.831 86.454 6.126 1.439 2.936 2.878 6.097 4.298 9.461 10.064 23.912 16.258 51.031 18.436 61.426z" fill="#f7f9f9"/></g><g><circle cx="121.738" cy="129.62" fill="#f6e266" r="114.238"/><circle cx="121.738" cy="129.62" fill="#eab14d" r="77.14"/></g></g><g><path d="m499.681 426.402c3.396-14.79 8.081-48.568-7.327-86.297-.387-.947-.964-1.805-1.694-2.521-.787-.771-19.861-19.047-71.459-33.63-3.989-1.126-8.13 1.19-9.258 5.178-1.126 3.986 1.192 8.13 5.178 9.257 24.771 7 41.155 14.778 50.539 20.069 7.317 4.126 11.622 7.418 13.454 8.934 13.443 34.249 8.42 65.141 5.62 76.897h-39.425c-7.009-27.835-32.246-48.506-62.227-48.506-29.982 0-55.219 20.671-62.228 48.508h-130.009c-7.009-27.836-32.246-48.508-62.228-48.508s-55.219 20.67-62.227 48.507h-20.375c-1.654-6.904-3.062-14.097-4.206-21.513 12.619-.411 22.76-10.793 22.76-23.505v-25.437c0-12.977-10.558-23.535-23.534-23.535h-2.494c.131-2.247.265-4.103.378-5.508 16.078-11.876 42.31-20.113 42.584-20.198 2.82-.875 4.865-3.324 5.224-6.256 2.128-17.454 8.346-33.346 14.007-46.873.248-.592.527-1.178.792-1.767 3.203.531 6.44.935 9.705 1.211-.685 1.359-1.324 2.742-1.914 4.148-5.016 11.992-10.563 26.057-12.911 41.226-.335 2.164.293 4.366 1.718 6.028 1.425 1.663 3.505 2.619 5.694 2.619h215.505c2.26 0 4.399-1.019 5.823-2.773s1.981-4.058 1.517-6.269c-2.268-10.786-8.644-38.497-18.865-62.789-1.416-3.373-2.925-6.692-4.485-9.867-1.102-2.241-3.247-3.787-5.722-4.123-16.986-2.306-50.857-6.169-87.155-6.191 2.772-2.95 5.398-6.038 7.868-9.252 41.31.622 78.043 5.764 89.133 7.46 3.032 5.312 6.029 11.464 8.931 18.335 13.387 31.807 20.298 68.954 20.366 69.325.598 3.254 3.259 5.734 6.547 6.1 15.074 1.678 29.616 3.915 43.223 6.649.499.1.996.148 1.485.148 3.499 0 6.63-2.462 7.346-6.024.815-4.061-1.815-8.015-5.876-8.831-12.38-2.487-25.495-4.574-39.06-6.217-2.474-11.829-9.146-40.691-20.209-66.978-3.746-8.871-7.679-16.7-11.688-23.27-1.13-1.851-3.005-3.122-5.143-3.486-1.713-.292-39.126-6.578-85.311-7.993 9.823-17.55 15.433-37.762 15.433-59.263 0-67.128-54.612-121.74-121.74-121.74s-121.741 54.611-121.741 121.739c0 21.124 5.496 41.931 15.895 60.174 2.051 3.599 6.632 4.853 10.229 2.802 3.599-2.051 4.854-6.631 2.802-10.23-9.111-15.984-13.926-34.223-13.926-52.746 0-58.857 47.884-106.74 106.74-106.74s106.74 47.883 106.74 106.74c0 58.856-47.884 106.74-106.74 106.74-29.01 0-56.132-11.431-76.37-32.186-2.892-2.965-7.639-3.026-10.606-.134-2.966 2.892-3.025 7.64-.134 10.605 14.66 15.035 32.489 25.772 52.022 31.613-5.483 13.131-11.403 28.37-14.147 45.525-9.466 3.3-31.422 11.728-45.517 23.29-1.517 1.243-2.484 3.03-2.699 4.979-.03.272-.736 6.782-1.092 17.485-.481 13.72-.431 35.042 2.548 58.694 1.302 10.412 3.096 20.491 5.335 30.08-2.258 1.05-4.351 2.477-6.171 4.29-4.075 4.075-6.319 9.491-6.319 15.25 0 11.894 9.677 21.57 21.57 21.57h30.48c10.311 21.675 32.42 36.698 57.978 36.698s47.667-15.022 57.979-36.698h138.507c10.312 21.675 32.421 36.698 57.979 36.698s47.667-15.023 57.978-36.699h49.369c5.759 0 11.174-2.244 15.251-6.32 4.075-4.075 6.319-9.491 6.319-15.25-.002-8.577-5.049-15.977-12.319-19.448zm-376.529-165.552c1.433-3.419 3.243-6.662 5.388-9.684 8.795-.487 17.342-1.913 25.546-4.177v42.94h-41.116c2.55-10.389 6.516-20.315 10.182-29.079zm69.893-32.621c5.462-.204 11.186-.313 17.082-.313 7.17 0 14.247.155 21.113.42v61.594h-62.153v-48.154c8.526-3.613 16.552-8.177 23.958-13.547zm100.923 10.68c7.571 17.994 12.956 38.108 15.996 51.02h-63.724v-60.831c18.403 1.153 34.407 2.933 45.32 4.342.827 1.791 1.631 3.62 2.408 5.469zm-244.4 114.925v25.437c0 4.701-3.828 8.525-8.534 8.525h-1.156c-1.71-16.296-2.033-31.125-1.866-42.497h3.022c4.706 0 8.534 3.829 8.534 8.535zm-9.408 98.586c-3.623 0-6.57-2.947-6.57-6.57 0-1.752.685-3.402 1.916-4.634 1.247-1.243 2.9-1.927 4.654-1.927h24.306c-.002.221-.017.439-.017.66 0 4.267.428 8.435 1.226 12.471zm88.457 36.698c-27.111 0-49.168-22.057-49.168-49.168s22.057-49.168 49.168-49.168c27.112 0 49.169 22.057 49.169 49.168 0 27.112-22.057 49.168-49.169 49.168zm62.943-36.698c.798-4.036 1.226-8.204 1.226-12.471 0-.221-.015-.439-.017-.66h126.16c-.002.221-.017.439-.017.66 0 4.267.428 8.435 1.226 12.471zm191.521 36.698c-27.112 0-49.169-22.057-49.169-49.168s22.057-49.168 49.169-49.168c27.111 0 49.168 22.057 49.168 49.168 0 27.112-22.057 49.168-49.168 49.168zm111.991-38.626c-1.243 1.243-2.893 1.927-4.645 1.927h-44.405c.798-4.036 1.226-8.203 1.226-12.469 0-.222-.015-.44-.017-.662h43.196c3.623 0 6.57 2.943 6.57 6.561.001 1.752-.684 3.401-1.925 4.643z"/><path d="m477.877 383.714v-17.438c0-10.822-8.804-19.626-19.626-19.626-10.821 0-19.625 8.804-19.625 19.626v17.438c0 10.822 8.804 19.626 19.626 19.626 10.821 0 19.625-8.804 19.625-19.626zm-24.251 0v-17.438c0-2.551 2.075-4.626 4.626-4.626 2.55 0 4.625 2.075 4.625 4.626v17.438c0 2.551-2.075 4.626-4.625 4.626h-.001c-2.55 0-4.625-2.075-4.625-4.626z"/><path d="m383.081 405.488c-19.003 0-34.463 15.459-34.463 34.462s15.46 34.462 34.463 34.462c19.002 0 34.462-15.46 34.462-34.462s-15.46-34.462-34.462-34.462zm0 53.924c-10.731 0-19.463-8.731-19.463-19.462s8.731-19.462 19.463-19.462 19.462 8.73 19.462 19.462-8.73 19.462-19.462 19.462z"/><path d="m128.617 405.488c-19.002 0-34.462 15.459-34.462 34.462s15.46 34.462 34.462 34.462c19.003 0 34.463-15.46 34.463-34.462s-15.46-34.462-34.463-34.462zm0 53.924c-10.731 0-19.462-8.731-19.462-19.462s8.73-19.462 19.462-19.462 19.463 8.73 19.463 19.462-8.731 19.462-19.463 19.462z"/><path d="m257.771 323.854c-4.143 0-7.5 3.358-7.5 7.5s3.357 7.5 7.5 7.5h16.167c4.143 0 7.5-3.358 7.5-7.5s-3.357-7.5-7.5-7.5z"/><path d="m153.004 329.674c-4.143 0-7.5 3.358-7.5 7.5s3.357 7.5 7.5 7.5h16.168c4.143 0 7.5-3.358 7.5-7.5s-3.357-7.5-7.5-7.5z"/><path d="m121.738 214.259c46.671 0 84.64-37.969 84.64-84.64s-37.969-84.639-84.64-84.639-84.64 37.969-84.64 84.639 37.969 84.64 84.64 84.64zm0-154.279c38.399 0 69.64 31.24 69.64 69.639s-31.24 69.64-69.64 69.64-69.64-31.24-69.64-69.64c.001-38.398 31.241-69.639 69.64-69.639z"/><path d="m91.161 171.216c8.771 4.726 14.813 6.205 22.444 6.611v4.653c0 4.142 3.357 7.5 7.5 7.5s7.5-3.358 7.5-7.5v-5.189c16.033-2.875 25.798-14.544 27.406-26.049 1.871-13.388-6.704-24.888-21.848-29.296-9.575-2.787-20.19-6.171-26.324-10.133-2.863-1.85-2.842-4.82-2.574-6.426.562-3.37 3.329-7.508 9.411-9.017 13.361-3.314 21.963 2.656 22.446 3.002 3.298 2.454 7.959 1.797 10.45-1.48 2.505-3.298 1.862-8.003-1.437-10.509-.393-.299-6.911-5.13-17.531-6.587v-4.033c0-4.142-3.357-7.5-7.5-7.5s-7.5 3.358-7.5 7.5v4.496c-.836.162-1.68.34-2.54.553-10.821 2.685-18.906 10.971-20.596 21.109-1.441 8.647 2.096 16.882 9.231 21.492 6.252 4.039 15.021 7.497 30.27 11.936 7.925 2.307 12.002 6.979 11.186 12.817-1.244 8.897-11.28 13.75-20.092 13.798-10.185.059-14.185-.316-22.788-4.952-3.649-1.966-8.195-.601-10.16 3.045-1.964 3.645-.6 8.194 3.046 10.159z"/></g></g></svg>