<?xml version="1.0"?>
<svg xmlns="http://www.w3.org/2000/svg" xmlns:xlink="http://www.w3.org/1999/xlink" viewBox="0 0 512 512" width="512" height="512"><linearGradient id="a" gradientUnits="userSpaceOnUse" x1="256" x2="256" y1="12.71" y2="487.564"><stop offset="0" stop-color="#00efd1"/><stop offset="1" stop-color="#00acea"/></linearGradient><path d="m474.591 226.663-39.219-17.878-34.605-55.165a54.415 54.415 0 0 0 -46.537-25.62h-147.352a55.124 55.124 0 0 0 -43.739 21.493l-44.607 58.485-74.552 20.387a43.578 43.578 0 0 0 -31.98 42.144v28.5c0 24.118 19.164 43.991 43.279 43.991h6.391a55.547 55.547 0 0 0 107.539 0h167.96a55.547 55.547 0 0 0 107.539 0h12.013c24.115 0 43.279-19.873 43.279-43.988v-32.535a43.619 43.619 0 0 0 -25.409-39.814zm-359.152 137.689a35.542 35.542 0 1 1 35.542-35.541 35.582 35.582 0 0 1 -35.542 35.541zm275.5 0a35.542 35.542 0 1 1 35.542-35.541 35.582 35.582 0 0 1 -35.543 35.541zm89.061-65.34c0 13.088-10.192 23.988-23.279 23.988h-10.579a55.535 55.535 0 0 0 -110.408 0h-165.091a55.535 55.535 0 0 0 -110.408 0h-4.956c-13.087 0-23.279-10.9-23.279-23.988v-28.5a23.584 23.584 0 0 1 17.251-22.9l77.934-21.324a9.863 9.863 0 0 0 5.263-3.588l46.63-61.092a34.959 34.959 0 0 1 27.8-13.61h147.352a34.619 34.619 0 0 1 29.644 16.236l36.26 57.8a9.9 9.9 0 0 0 4.336 3.752l41.844 19.1a23.546 23.546 0 0 1 13.686 21.591z" fill="url(#a)"/></svg>
