<svg width="432" height="119" viewBox="0 0 432 119" fill="none" xmlns="http://www.w3.org/2000/svg">
<g clip-path="url(#clip0)">
<path d="M163.055 57H170.37L178.84 32.47L182.69 57H190.225L184.175 19.325H176.86L166.85 48.86L156.785 19.325H149.415L143.42 57H150.735L154.365 31.865L163.055 57ZM221.38 44.405C221.38 36.815 215.715 31.205 207.96 31.205C200.205 31.205 194.54 36.815 194.54 44.405C194.54 51.94 200.205 57.55 207.96 57.55C215.715 57.55 221.38 51.94 221.38 44.405ZM201.69 44.405C201.69 40.555 204.33 37.695 207.96 37.695C211.59 37.695 214.23 40.555 214.23 44.405C214.23 48.2 211.59 51.06 207.96 51.06C204.33 51.06 201.69 48.2 201.69 44.405ZM225.926 38.85C225.926 44.13 230.106 45.725 234.341 46.88C237.091 47.65 238.741 48.145 238.741 49.74C238.741 51.06 237.531 51.94 235.551 51.94C233.076 51.94 230.216 50.785 227.906 48.86L224.551 53.865C228.016 56.395 231.591 57.55 235.551 57.55C242.206 57.55 245.726 54.195 245.726 49.52C245.726 44.955 242.151 42.865 237.586 41.655C234.671 40.83 232.911 40.17 232.911 38.685C232.911 37.42 233.791 36.76 235.606 36.76C237.311 36.76 239.841 37.53 241.821 39.07L245.121 34.12C242.536 32.305 239.126 31.205 235.716 31.205C229.996 31.205 225.926 34.395 225.926 38.85ZM262.691 37.695C264.561 37.695 266.156 38.52 267.586 39.84L272.261 35.11C269.566 32.58 266.156 31.205 262.691 31.205C254.936 31.205 249.271 36.815 249.271 44.405C249.271 51.94 254.936 57.55 262.691 57.55C266.651 57.55 269.951 56.23 272.811 53.26L268.136 48.53C266.541 50.125 264.781 51.06 262.691 51.06C259.061 51.06 256.421 48.2 256.421 44.405C256.421 40.555 259.061 37.695 262.691 37.695ZM302.43 44.405C302.43 36.815 296.765 31.205 289.01 31.205C281.255 31.205 275.59 36.815 275.59 44.405C275.59 51.94 281.255 57.55 289.01 57.55C296.765 57.55 302.43 51.94 302.43 44.405ZM282.74 44.405C282.74 40.555 285.38 37.695 289.01 37.695C292.64 37.695 295.28 40.555 295.28 44.405C295.28 48.2 292.64 51.06 289.01 51.06C285.38 51.06 282.74 48.2 282.74 44.405ZM330.241 57H337.776L347.731 31.755H340.691L333.761 49.795L329.471 38.85L332.331 31.755H319.736L322.596 38.905L318.306 49.96L311.321 31.755H304.116L314.016 57H321.551L325.896 46.11L330.241 57ZM360.166 26.035H371.221V57H378.756V26.035H389.811V19.325H360.166V26.035ZM427.162 19.325H419.682L409.617 47.65L399.497 19.325H391.632L405.712 57H413.082L427.162 19.325Z" fill="#2F7BED"/>
<path d="M149.927 81.7051H152.129V82.5859C152.129 84.4408 151.706 85.8444 150.861 86.7969C150.016 87.7422 148.82 88.2148 147.273 88.2148C145.727 88.2148 144.527 87.7386 143.675 86.7861C142.83 85.8337 142.407 84.4336 142.407 82.5859V76.9141C142.407 75.0664 142.83 73.6663 143.675 72.7139C144.527 71.7614 145.727 71.2852 147.273 71.2852C148.82 71.2852 150.016 71.7614 150.861 72.7139C151.706 73.6592 152.129 75.0592 152.129 76.9141V77.5693H149.927V76.9141C149.927 75.6393 149.701 74.7191 149.25 74.1533C148.806 73.5876 148.147 73.3047 147.273 73.3047C146.407 73.3047 145.744 73.5876 145.286 74.1533C144.835 74.7191 144.609 75.6393 144.609 76.9141V82.5859C144.609 83.8607 144.835 84.7809 145.286 85.3467C145.737 85.9124 146.4 86.1953 147.273 86.1953C148.14 86.1953 148.799 85.9124 149.25 85.3467C149.701 84.7809 149.927 83.8607 149.927 82.5859V81.7051ZM155.18 88V77H164.547V88H162.345V79.0195H157.371V88H155.18ZM172.754 89.2354C172.553 89.8083 172.356 90.2988 172.163 90.707C171.977 91.1224 171.748 91.527 171.476 91.9209C171.211 92.3148 170.921 92.6299 170.605 92.8662C170.298 93.1097 169.925 93.3031 169.488 93.4463C169.059 93.5967 168.579 93.6719 168.049 93.6719C167.462 93.6719 166.91 93.5931 166.395 93.4355V91.502C166.91 91.6595 167.397 91.7383 167.855 91.7383C168.529 91.7383 169.076 91.5378 169.499 91.1367C169.929 90.7428 170.326 90.1019 170.691 89.2139L166.33 77H168.532L171.723 86.2168L174.892 77H177.094L172.754 89.2354ZM177.749 79.0195V77H187.073V79.0195H183.507V88H181.315V79.0195H177.749ZM196.58 88V83.4453H191.295V88H189.104V77H191.295V81.4473H196.58V77H198.782V88H196.58ZM204.143 77V85.7764L209.181 77H211.974V88H209.868V79.2236L204.83 88H202.037V77H204.143ZM222.684 88L217.42 82.21V88H215.229V77H217.42V81.8877L222.157 77H225.079L219.912 82.0166L225.477 88H222.684ZM235.435 86.6143C234.382 87.6813 233.053 88.2148 231.449 88.2148C229.845 88.2148 228.517 87.6813 227.464 86.6143C226.411 85.54 225.885 84.1686 225.885 82.5C225.885 80.8314 226.411 79.4635 227.464 78.3965C228.517 77.3223 229.845 76.7852 231.449 76.7852C233.053 76.7852 234.382 77.3223 235.435 78.3965C236.487 79.4635 237.014 80.8314 237.014 82.5C237.014 84.1686 236.487 85.54 235.435 86.6143ZM229.043 85.1748C229.68 85.8551 230.482 86.1953 231.449 86.1953C232.416 86.1953 233.218 85.8551 233.855 85.1748C234.493 84.4873 234.812 83.5957 234.812 82.5C234.812 81.4043 234.493 80.5163 233.855 79.8359C233.218 79.1484 232.416 78.8047 231.449 78.8047C230.482 78.8047 229.68 79.1484 229.043 79.8359C228.406 80.5163 228.087 81.4043 228.087 82.5C228.087 83.5957 228.406 84.4873 229.043 85.1748ZM239.463 88V77H244.909C245.955 77 246.785 77.2435 247.401 77.7305C248.017 78.2174 248.325 78.9264 248.325 79.8574C248.325 80.9746 247.82 81.7445 246.811 82.167C247.434 82.3747 247.917 82.7041 248.261 83.1553C248.612 83.5993 248.787 84.1579 248.787 84.8311C248.787 85.8695 248.461 86.6572 247.81 87.1943C247.165 87.7314 246.259 88 245.092 88H239.463ZM244.275 78.6758H241.568V81.5332H244.275C245.564 81.5332 246.209 81.057 246.209 80.1045C246.209 79.6104 246.055 79.2487 245.747 79.0195C245.446 78.7904 244.956 78.6758 244.275 78.6758ZM244.716 83.209H241.568V86.3242H244.716C245.332 86.3242 245.797 86.1917 246.112 85.9268C246.427 85.6618 246.585 85.2751 246.585 84.7666C246.585 84.2581 246.427 83.8714 246.112 83.6064C245.797 83.3415 245.332 83.209 244.716 83.209ZM260.378 86.6143C259.325 87.6813 257.997 88.2148 256.393 88.2148C254.788 88.2148 253.46 87.6813 252.407 86.6143C251.354 85.54 250.828 84.1686 250.828 82.5C250.828 80.8314 251.354 79.4635 252.407 78.3965C253.46 77.3223 254.788 76.7852 256.393 76.7852C257.997 76.7852 259.325 77.3223 260.378 78.3965C261.431 79.4635 261.957 80.8314 261.957 82.5C261.957 84.1686 261.431 85.54 260.378 86.6143ZM253.986 85.1748C254.624 85.8551 255.426 86.1953 256.393 86.1953C257.359 86.1953 258.161 85.8551 258.799 85.1748C259.436 84.4873 259.755 83.5957 259.755 82.5C259.755 81.4043 259.436 80.5163 258.799 79.8359C258.161 79.1484 257.359 78.8047 256.393 78.8047C255.426 78.8047 254.624 79.1484 253.986 79.8359C253.349 80.5163 253.03 81.4043 253.03 82.5C253.03 83.5957 253.349 84.4873 253.986 85.1748ZM274.407 82.5C274.407 82.6719 274.393 82.9225 274.364 83.252H265.738C265.874 84.2116 266.236 84.9564 266.823 85.4863C267.41 86.0163 268.166 86.2812 269.09 86.2812C270.393 86.2812 271.281 85.7549 271.754 84.7021H274.128C273.791 85.8265 273.172 86.693 272.27 87.3018C271.374 87.9105 270.286 88.2148 269.004 88.2148C267.436 88.2148 266.139 87.6813 265.115 86.6143C264.098 85.5472 263.59 84.1758 263.59 82.5C263.59 80.8242 264.098 79.4528 265.115 78.3857C266.139 77.3187 267.436 76.7852 269.004 76.7852C270.572 76.7852 271.865 77.3187 272.882 78.3857C273.899 79.4528 274.407 80.8242 274.407 82.5ZM269.004 78.7188C268.116 78.7188 267.389 78.9801 266.823 79.5029C266.257 80.0186 265.907 80.7383 265.771 81.6621H272.237C272.101 80.7383 271.747 80.0186 271.174 79.5029C270.608 78.9801 269.885 78.7188 269.004 78.7188ZM284.043 77V85.7764L289.081 77H291.874V88H289.769V79.2236L284.73 88H281.938V77H284.043ZM302.391 77V85.9805H307.364V77H309.566V85.9805H311.103V90.9648H309.083V88H300.199V77H302.391ZM315.475 77V85.7764L320.513 77H323.306V88H321.2V79.2236L316.162 88H313.369V77H315.475ZM328.924 79.8682C328.272 80.5127 327.946 81.39 327.946 82.5C327.946 83.61 328.272 84.4909 328.924 85.1426C329.583 85.7871 330.449 86.138 331.523 86.1953V78.8047C330.449 78.862 329.583 79.2165 328.924 79.8682ZM336.325 85.1426C336.984 84.4909 337.313 83.61 337.313 82.5C337.313 81.39 336.984 80.5127 336.325 79.8682C335.666 79.2165 334.8 78.862 333.726 78.8047V86.1953C334.8 86.138 335.666 85.7871 336.325 85.1426ZM331.523 71.5H333.726V76.7852C335.43 76.8424 336.819 77.3903 337.894 78.4287C338.975 79.46 339.516 80.8171 339.516 82.5C339.516 84.1829 338.975 85.5436 337.894 86.582C336.819 87.6133 335.43 88.1576 333.726 88.2148V93.5H331.523V88.2148C329.819 88.1576 328.43 87.6133 327.355 86.582C326.281 85.5436 325.744 84.1829 325.744 82.5C325.744 80.8171 326.281 79.46 327.355 78.4287C328.43 77.3903 329.819 76.8424 331.523 76.7852V71.5ZM347.766 88.2148C347.035 88.2148 346.358 88.0537 345.735 87.7314C345.119 87.402 344.593 86.9401 344.156 86.3457V93.5H341.965V77H344.156V78.6543C344.593 78.0599 345.119 77.6016 345.735 77.2793C346.358 76.9499 347.035 76.7852 347.766 76.7852C349.284 76.7852 350.544 77.3223 351.547 78.3965C352.549 79.4635 353.051 80.8314 353.051 82.5C353.051 84.1686 352.549 85.54 351.547 86.6143C350.544 87.6813 349.284 88.2148 347.766 88.2148ZM345.102 85.1748C345.739 85.8551 346.541 86.1953 347.508 86.1953C348.475 86.1953 349.273 85.8551 349.903 85.1748C350.534 84.4873 350.849 83.5957 350.849 82.5C350.849 81.4043 350.534 80.5163 349.903 79.8359C349.273 79.1484 348.475 78.8047 347.508 78.8047C346.541 78.8047 345.739 79.1484 345.102 79.8359C344.471 80.5163 344.156 81.4043 344.156 82.5C344.156 83.5957 344.471 84.4873 345.102 85.1748ZM364.233 86.6143C363.181 87.6813 361.852 88.2148 360.248 88.2148C358.644 88.2148 357.315 87.6813 356.263 86.6143C355.21 85.54 354.684 84.1686 354.684 82.5C354.684 80.8314 355.21 79.4635 356.263 78.3965C357.315 77.3223 358.644 76.7852 360.248 76.7852C361.852 76.7852 363.181 77.3223 364.233 78.3965C365.286 79.4635 365.812 80.8314 365.812 82.5C365.812 84.1686 365.286 85.54 364.233 86.6143ZM357.842 85.1748C358.479 85.8551 359.281 86.1953 360.248 86.1953C361.215 86.1953 362.017 85.8551 362.654 85.1748C363.292 84.4873 363.61 83.5957 363.61 82.5C363.61 81.4043 363.292 80.5163 362.654 79.8359C362.017 79.1484 361.215 78.8047 360.248 78.8047C359.281 78.8047 358.479 79.1484 357.842 79.8359C357.204 80.5163 356.886 81.4043 356.886 82.5C356.886 83.5957 357.204 84.4873 357.842 85.1748ZM368.262 88V77H373.708C374.754 77 375.584 77.2435 376.2 77.7305C376.816 78.2174 377.124 78.9264 377.124 79.8574C377.124 80.9746 376.619 81.7445 375.609 82.167C376.232 82.3747 376.716 82.7041 377.06 83.1553C377.41 83.5993 377.586 84.1579 377.586 84.8311C377.586 85.8695 377.26 86.6572 376.608 87.1943C375.964 87.7314 375.058 88 373.891 88H368.262ZM373.074 78.6758H370.367V81.5332H373.074C374.363 81.5332 375.008 81.057 375.008 80.1045C375.008 79.6104 374.854 79.2487 374.546 79.0195C374.245 78.7904 373.755 78.6758 373.074 78.6758ZM373.515 83.209H370.367V86.3242H373.515C374.131 86.3242 374.596 86.1917 374.911 85.9268C375.226 85.6618 375.384 85.2751 375.384 84.7666C375.384 84.2581 375.226 83.8714 374.911 83.6064C374.596 83.3415 374.131 83.209 373.515 83.209ZM389.177 86.6143C388.124 87.6813 386.796 88.2148 385.191 88.2148C383.587 88.2148 382.259 87.6813 381.206 86.6143C380.153 85.54 379.627 84.1686 379.627 82.5C379.627 80.8314 380.153 79.4635 381.206 78.3965C382.259 77.3223 383.587 76.7852 385.191 76.7852C386.796 76.7852 388.124 77.3223 389.177 78.3965C390.229 79.4635 390.756 80.8314 390.756 82.5C390.756 84.1686 390.229 85.54 389.177 86.6143ZM382.785 85.1748C383.423 85.8551 384.225 86.1953 385.191 86.1953C386.158 86.1953 386.96 85.8551 387.598 85.1748C388.235 84.4873 388.554 83.5957 388.554 82.5C388.554 81.4043 388.235 80.5163 387.598 79.8359C386.96 79.1484 386.158 78.8047 385.191 78.8047C384.225 78.8047 383.423 79.1484 382.785 79.8359C382.148 80.5163 381.829 81.4043 381.829 82.5C381.829 83.5957 382.148 84.4873 382.785 85.1748ZM403.206 82.5C403.206 82.6719 403.192 82.9225 403.163 83.252H394.537C394.673 84.2116 395.035 84.9564 395.622 85.4863C396.209 86.0163 396.965 86.2812 397.889 86.2812C399.192 86.2812 400.08 85.7549 400.553 84.7021H402.927C402.59 85.8265 401.971 86.693 401.068 87.3018C400.173 87.9105 399.085 88.2148 397.803 88.2148C396.234 88.2148 394.938 87.6813 393.914 86.6143C392.897 85.5472 392.389 84.1758 392.389 82.5C392.389 80.8242 392.897 79.4528 393.914 78.3857C394.938 77.3187 396.234 76.7852 397.803 76.7852C399.371 76.7852 400.664 77.3187 401.681 78.3857C402.698 79.4528 403.206 80.8242 403.206 82.5ZM397.803 78.7188C396.915 78.7188 396.188 78.9801 395.622 79.5029C395.056 80.0186 394.705 80.7383 394.569 81.6621H401.036C400.9 80.7383 400.546 80.0186 399.973 79.5029C399.407 78.9801 398.684 78.7188 397.803 78.7188ZM141.397 101.02V99H150.722V101.02H147.155V110H144.964V101.02H141.397ZM162.603 104.5C162.603 104.672 162.588 104.923 162.56 105.252H153.934C154.07 106.212 154.431 106.956 155.019 107.486C155.606 108.016 156.361 108.281 157.285 108.281C158.589 108.281 159.477 107.755 159.949 106.702H162.323C161.987 107.826 161.367 108.693 160.465 109.302C159.57 109.91 158.481 110.215 157.199 110.215C155.631 110.215 154.335 109.681 153.311 108.614C152.294 107.547 151.785 106.176 151.785 104.5C151.785 102.824 152.294 101.453 153.311 100.386C154.335 99.3187 155.631 98.7852 157.199 98.7852C158.768 98.7852 160.06 99.3187 161.077 100.386C162.094 101.453 162.603 102.824 162.603 104.5ZM157.199 100.719C156.311 100.719 155.584 100.98 155.019 101.503C154.453 102.019 154.102 102.738 153.966 103.662H160.433C160.297 102.738 159.942 102.019 159.369 101.503C158.803 100.98 158.08 100.719 157.199 100.719ZM165.578 106.788C165.85 105.821 165.997 103.225 166.019 99H174.161V110H171.959V101.02H168.027C167.984 103.426 167.873 105.259 167.694 106.52C167.472 107.844 167.114 108.757 166.62 109.259C166.133 109.753 165.428 110 164.504 110H164.106V107.98H164.289C164.948 107.98 165.378 107.583 165.578 106.788ZM187.417 104.5C187.417 104.672 187.403 104.923 187.374 105.252H178.748C178.884 106.212 179.246 106.956 179.833 107.486C180.42 108.016 181.176 108.281 182.1 108.281C183.403 108.281 184.291 107.755 184.764 106.702H187.138C186.801 107.826 186.182 108.693 185.279 109.302C184.384 109.91 183.296 110.215 182.014 110.215C180.445 110.215 179.149 109.681 178.125 108.614C177.108 107.547 176.6 106.176 176.6 104.5C176.6 102.824 177.108 101.453 178.125 100.386C179.149 99.3187 180.445 98.7852 182.014 98.7852C183.582 98.7852 184.875 99.3187 185.892 100.386C186.909 101.453 187.417 102.824 187.417 104.5ZM182.014 100.719C181.126 100.719 180.399 100.98 179.833 101.503C179.267 102.019 178.916 102.738 178.78 103.662H185.247C185.111 102.738 184.757 102.019 184.184 101.503C183.618 100.98 182.895 100.719 182.014 100.719ZM189.877 110V99H195.323C196.369 99 197.2 99.2435 197.815 99.7305C198.431 100.217 198.739 100.926 198.739 101.857C198.739 102.975 198.234 103.744 197.225 104.167C197.848 104.375 198.331 104.704 198.675 105.155C199.026 105.599 199.201 106.158 199.201 106.831C199.201 107.869 198.875 108.657 198.224 109.194C197.579 109.731 196.673 110 195.506 110H189.877ZM194.689 100.676H191.982V103.533H194.689C195.979 103.533 196.623 103.057 196.623 102.104C196.623 101.61 196.469 101.249 196.161 101.02C195.86 100.79 195.37 100.676 194.689 100.676ZM195.13 105.209H191.982V108.324H195.13C195.746 108.324 196.211 108.192 196.526 107.927C196.841 107.662 196.999 107.275 196.999 106.767C196.999 106.258 196.841 105.871 196.526 105.606C196.211 105.341 195.746 105.209 195.13 105.209ZM204.164 99V107.776L209.202 99H211.995V110H209.89V101.224L204.852 110H202.059V99H204.164ZM224.112 112.965V110H216.034V112.965H214.015V107.98H215.089C215.418 107.365 215.665 106.448 215.83 105.23C216.002 104.013 216.099 101.936 216.12 99H224.596V107.98H226.132V112.965H224.112ZM217.882 105.359C217.724 106.548 217.535 107.422 217.312 107.98H222.394V101.02H218.129C218.107 102.796 218.025 104.242 217.882 105.359ZM238.356 104.5C238.356 104.672 238.342 104.923 238.313 105.252H229.688C229.824 106.212 230.185 106.956 230.772 107.486C231.36 108.016 232.115 108.281 233.039 108.281C234.342 108.281 235.23 107.755 235.703 106.702H238.077C237.741 107.826 237.121 108.693 236.219 109.302C235.324 109.91 234.235 110.215 232.953 110.215C231.385 110.215 230.089 109.681 229.064 108.614C228.048 107.547 227.539 106.176 227.539 104.5C227.539 102.824 228.048 101.453 229.064 100.386C230.089 99.3187 231.385 98.7852 232.953 98.7852C234.521 98.7852 235.814 99.3187 236.831 100.386C237.848 101.453 238.356 102.824 238.356 104.5ZM232.953 100.719C232.065 100.719 231.338 100.98 230.772 101.503C230.207 102.019 229.856 102.738 229.72 103.662H236.187C236.05 102.738 235.696 102.019 235.123 101.503C234.557 100.98 233.834 100.719 232.953 100.719ZM248.293 110V105.445H243.008V110H240.816V99H243.008V103.447H248.293V99H250.495V110H248.293ZM255.855 99V107.776L260.894 99H263.687V110H261.581V101.224L256.543 110H253.75V99H255.855ZM276.942 104.5C276.942 104.672 276.928 104.923 276.899 105.252H268.273C268.41 106.212 268.771 106.956 269.358 107.486C269.946 108.016 270.701 108.281 271.625 108.281C272.928 108.281 273.816 107.755 274.289 106.702H276.663C276.326 107.826 275.707 108.693 274.805 109.302C273.91 109.91 272.821 110.215 271.539 110.215C269.971 110.215 268.674 109.681 267.65 108.614C266.633 107.547 266.125 106.176 266.125 104.5C266.125 102.824 266.633 101.453 267.65 100.386C268.674 99.3187 269.971 98.7852 271.539 98.7852C273.107 98.7852 274.4 99.3187 275.417 100.386C276.434 101.453 276.942 102.824 276.942 104.5ZM271.539 100.719C270.651 100.719 269.924 100.98 269.358 101.503C268.793 102.019 268.442 102.738 268.306 103.662H274.772C274.636 102.738 274.282 102.019 273.709 101.503C273.143 100.98 272.42 100.719 271.539 100.719Z" fill="#2F7BED"/>
<path d="M89.2975 51.937L94.1917 47.0428C95.4153 45.8192 96.0827 44.262 96.0827 42.4823C96.0827 40.8138 95.4153 39.1453 94.1917 37.9218L91.8559 35.5859C90.6323 34.3623 89.0751 33.6949 87.2954 33.6949C85.6269 33.6949 83.9584 34.3623 82.7348 35.5859L77.8406 40.4801C75.3935 39.8127 72.6127 40.4801 70.7218 42.371L63.2693 50.046C60.266 48.9337 57.1515 48.3776 53.8145 48.3776C46.4732 48.3776 39.4656 51.2696 34.2377 56.4975C33.3478 57.3874 33.3478 58.7221 34.2377 59.612L43.9149 69.2892C40.5779 73.9609 40.9116 80.4124 45.1384 84.6392C47.4743 86.9751 50.4776 88.0874 53.4808 88.0874C55.9279 88.0874 58.375 87.3088 60.4885 85.7515L70.1656 95.4287C70.6106 95.8736 71.1667 96.0961 71.7229 96.0961C72.279 96.0961 72.8352 95.8736 73.2801 95.4287C78.508 90.2008 81.4001 83.3044 81.4001 75.8519C81.4001 72.6261 80.8439 69.4004 79.7316 66.3972L87.2954 58.8334C89.2975 57.1649 89.9649 54.3841 89.2975 51.937ZM85.9606 38.8116C86.7392 38.033 87.9628 38.033 88.7414 38.8116L91.0772 41.1475C91.4109 41.4812 91.6334 42.0373 91.6334 42.4823C91.6334 43.0384 91.4109 43.4834 91.0772 43.8171L86.9617 47.9326L81.9562 42.9272L85.9606 38.8116ZM48.3642 81.5247C45.9171 79.0776 45.5834 75.4069 47.2518 72.5149L57.374 82.637C54.4819 84.4167 50.7 83.9718 48.3642 81.5247ZM71.7229 90.757L39.1319 58.166C43.2475 54.7178 48.4754 52.8268 53.9258 52.8268C60.1548 52.8268 65.9388 55.2739 70.2769 59.612C74.6149 63.95 77.062 69.8453 77.062 75.9631C76.9508 81.5247 75.1711 86.6414 71.7229 90.757ZM84.2921 55.9413L77.8406 62.3928C76.6171 60.2794 75.1711 58.2772 73.3914 56.6087C71.6116 54.829 69.7207 53.383 67.6073 52.1595L74.0588 45.708C75.0598 44.7069 76.7283 44.5957 77.9519 45.4855L84.6258 52.1595C85.4044 53.1605 85.2932 54.829 84.2921 55.9413Z" fill="#2F7BED"/>
<path d="M99.7533 87.5311C100.198 87.9761 100.754 88.1985 101.311 88.1985C101.867 88.1985 102.423 87.9761 102.868 87.5311L108.207 82.192C109.875 80.5235 110.877 78.1876 110.877 75.8518C110.877 73.4047 109.987 71.18 108.207 69.5116L96.0826 57.276C95.6377 56.8311 95.0816 56.6086 94.5254 56.6086C93.9692 56.6086 93.4131 56.8311 92.9682 57.276L82.846 67.3981C81.9562 68.288 81.9562 69.6228 82.846 70.5126L99.7533 87.5311ZM94.5254 62.059L105.092 72.626C105.982 73.5159 106.427 74.6282 106.427 75.8518C106.427 77.0753 105.982 78.1876 105.092 79.0775L101.311 82.8594L87.5178 69.0666L94.5254 62.059Z" fill="#2F7BED"/>
<path d="M60.8222 47.7101C61.3783 47.7101 61.9345 47.4876 62.3794 47.0427L72.5015 36.9206C72.9464 36.4757 73.1689 35.9195 73.1689 35.3633C73.1689 34.8072 72.9464 34.251 72.5015 33.8061L60.4885 21.6818C58.7087 20.0133 56.4841 19.0122 54.037 19.0122C51.5899 19.0122 49.3653 19.9021 47.6968 21.6818L42.3576 27.0209C41.4678 27.9108 41.4678 29.2456 42.3576 30.1354L59.2649 47.0427C59.7098 47.4876 60.266 47.7101 60.8222 47.7101ZM50.9225 24.7963C51.8124 23.9064 52.9247 23.4615 54.1482 23.4615C55.3718 23.4615 56.4841 23.9064 57.374 24.7963L67.941 35.3633L60.9334 42.371L47.1406 28.5782L50.9225 24.7963Z" fill="#2F7BED"/>
<path d="M51.0337 94.5388C42.3576 94.5388 35.35 87.5312 35.35 78.8551C35.35 77.6316 34.3489 76.6305 33.1254 76.6305C31.9018 76.6305 30.9007 77.6316 30.9007 78.8551C30.9007 89.9783 39.9105 98.9881 51.0337 98.9881C52.2573 98.9881 53.2584 97.987 53.2584 96.7635C53.2584 95.5399 52.2573 94.5388 51.0337 94.5388Z" fill="#2F7BED"/>
<path d="M51.0337 105.551C36.3511 105.551 24.4493 93.6489 24.4493 78.9663C24.4493 77.7428 23.4482 76.7417 22.2246 76.7417C21.0011 76.7417 20 77.7428 20 78.9663C20 96.096 33.904 110 51.0337 110C52.2573 110 53.2584 108.999 53.2584 107.775C53.2584 106.552 52.2573 105.551 51.0337 105.551Z" fill="#2F7BED"/>
</g>
<defs>
<clipPath id="clip0">
<rect width="432" height="119" fill="white"/>
</clipPath>
</defs>
</svg>
