<svg xmlns="http://www.w3.org/2000/svg" viewBox="0 0 1650 958" enable-background="new 0 0 1650 958"><style type="text/css">.st0{fill:#EC942A;} .st1{fill:#E6325C;} .st2{fill:#F7AF4D;} .st3{fill:#F5AE9E;} .st4{fill:#70C2B9;} .st5{fill:#219280;} .st6{fill:#2BB19E;} .st7{fill:#EA5E83;} .st8{fill:#F093B5;} .st9{fill:#789ED3;} .st10{fill:#4355A0;} .st11{fill:#2B2150;} .st12{fill:#EE7E94;} .st13{fill:#4B3584;} .st14{fill:#C3CAE8;} .st15{fill:#313B84;} .st16{fill:#008773;} .st17{fill:#009F80;} .st18{fill:#D43C8D;} .st19{fill:#A6D7D4;} .st20{fill:#4E82B7;} .st21{fill:#362966;} .st22{fill:#38286C;}</style><path class="st0" d="M1376.2 682.4s-42.7 6.8-47.4 7.9c-14.5 3.4-39.7 8.2-39.7 8.2.9 9 1 21.7 1 21.7h85.2c.4-11.4 1.4-37 .9-37.8z"/><path class="st1" d="M896.9 353.5l-38.5.1c-5.9 12.1-16 22.2-27.4 29.7 5-19.9 8.3-16.8 14.1-31.1 5.9-14.8-15.7-19.8-21.5-4.2 0 0-12.5-24.3-38.4-22.7-11.3.7-26.3 6-36.3.7-3.9-2-9.6-4.8-11.6-8.7-6.6-12.7 8.3-27.2 19.7-31.2 2.1-.7 11-14.1 35.4-18.3 10.5-1.8 21-1.8 30.7 1 1.3-5.8 5.7-13.4 10.3-16.4 5-3.4 11.3-4.7 17.4-4.1 6.9.7 14 4.2 16.7 10.5 1.6 3.6 1.6 7.7 3 11.4 2.3 5.9 8 9.8 13.1 13.8s10.1 9.3 9.9 15.7c-.2 7.3-7.1 14-4.7 20.9 1.2 3.6 4.7 6 6.9 9.1 4.6 6.7 3 15.8 1.2 23.8z"/><path class="st0" d="M1591.3 470.2l-11.5 75.1c-3.9-.8-7.9-1.2-11.9-1.2h-27.3l11.2-73.1c1.8-11.8-1.6-23.7-9.4-32.7-2.9-3.4-6.3-6.2-9.9-8.4h24.4c10.2 0 19.8 4.4 26.5 12.2 6.5 7.7 9.4 18 7.9 28.1zM585.2 553.4c1.4.2 2.8.3 4.3.3 4 0 7.8-1 11.3-2.9l57-2.9-.1.3-12 79-31.5 7.5v-29.9c-.6-21.4-12.1-40.3-29-51.4z"/><path class="st2" d="M607 923.4c.5 0 .9 0 1.3-.2v1.9h-78.6v-51.6c6.4 1.2 12.8 2.4 19.3 3.5 3.7.7 8.8 2.1 10.5-2.6 1.6-4.4 4.4-14.7 4.9-16.4 1-4 1.5-9.4 2.1-14.6.3-3.5.7-6.7 1.1-9.3l40.8-105.5v161.7l-1.6 1.3c-3.3 2.8-7.9 6.7-8.6 12.2-.3 2.6.3 5.3 1.1 7.8l2.3 7.8c.7 2.3 2.9 4 5.4 4zM526.8 663.2c-22.4-8.9-38.2-30.8-38.2-56.3 0-33.5 27.2-60.6 60.6-60.6 33 0 59.8 26.3 60.6 59.1v86.6c1.4-2.1 3.3-4 5.5-5.3-.1 4.4-.5 8.7-1.2 10.8 0 0-51.3 132.3-51.3 132.4l-36.1-9.8.1-156.9zM614.1 713.5l4.9-12.4 12.2-1.5 9.8 76.8h-26.9v-62.9zM641.7 782.3l8.9 69.9c-3.5 6.1-7.9 11.7-13.3 16.5-.5.5-1 1-1.6 1.4-6.4 5.7-21.3 15.9-21.6 16.1v-103.9h27.6zM696.5 615.3l-44.7 10.6 11.9-78 17.8-1.2c4.5-.2 8.7-1.8 12.3-4.4l30.9-22.5 1 1h.1c-4 34.5-8.3 74.8-9.5 85.4-6.4 2.6-13.3 5.7-19.8 9.1zM732.6 776.4h-33.8l-1.3-63.8 38-9.5-2.9 73.3zM660.9 925.1h-46.7v-3.7c24.1-8.1 92.3-33.9 99.2-37.2 2.2-1 3.4-3.4 2.9-5.8-.9-4.6-3.9-14.7-4.4-16.5-1.3-4-11.3-15.1-11.5-15.1v-.2l-1.4-64.3h33.4s-1.4 36.8-1.4 36.9c-.1 1.6 1.3 3 2.9 3h4.9l-3.2 72.5c-.3 1.1-.7 2.2-1.3 3.5h-30.6c-19.3 0-35.8 11.1-42.8 26.9zM676.2 504.1l-4.6 1 7-45.9c2.6-17.3 17.1-29.7 34.6-29.7h28c-3.6 2.3-7.2 5-10.5 7.9l-41.1 44.2c-1 1.2-1 3 .1 4.1l1.4 1.4-14.9 17zM824.8 911.6l50 13.5h-47c-.2-3.4-.8-6.7-1.9-9.9l-1.1-3.6zM827.2 867.1s6.1-42.5 6.3-42.7h.7c1.4 0 2.6-1 2.9-2.3l8.8-39.4h52.9s-26.2 67.7-26.3 67.8c-.6 1.6.3 3.5 2 3.9l15.7 4.2-4.9 7.8c-6.1 1.2-22.7 4-37.4 4-8.8 0-20.4-3.1-20.7-3.3zM859 724h62.4l-20.4 52.8h-53.9l11.9-52.8zM923.7 718.2h-63.5l5.8-25.3 67.2.8-9.5 24.5zM845.7 429.5h81.7c-3.3 26.1-6.6 52-6.6 52-.5 3.7 5.3 4.5 5.8.7 0 0 3.6-30 7.4-55.3h2.6c-.3 1.4-.5 2.8-.7 4.3-2 13.6 3.7 27.3 5.1 30.6-.8 9.4-12.9 70.9-21.6 107.6-6.7.7-13.7 1.3-20.1 2.3-5 .8-9.8 2-14.5 3.6 14.4-24.1 34.7-71.8 37.5-78.6 1.4-3.5-3.9-5.7-5.4-2.3-12 28.3-31.2 70.1-41.3 84.5-1.7.8-3.3 1.6-4.9 2.5l-5-61.2 6.8-1.2c1.6-.3 2.7-1.7 2.5-3.3-.3-2.3-5.4-39.5-10.5-59.4-1.9-6.8-8.1-21.1-18.8-26.8zM988.7 776.8l6.1-17.9 1 17.9h-7.1zM956.4 914.1c1-7 1.2-14.4-.5-21.5-.7-3-2.1-6.1-4.4-8.2.5-2.9.9-6.1 1.7-9 1.4 0 2.7-.6 3.2-2l30.4-90.7h9.4s6.3 104.8 6.4 105.8c.3 4.2 1.9 4.8 6.4 3.8l-1.6 5.2c-5.8 2.8-33.5 15.9-51 16.6zM1081.9 688.1l70.4.9-.7 29.6h-66.9l-3-30.5c.1-.2.2 0 .2 0zM1152.5 683.2s-66.7.3-71.5-.9c-1.3-7.8-3.4-17.8-7.4-27.3-1.4-3.4-6.8-1.3-5.4 2.2 8.8 21.4 9.1 45.4 11.3 68.3l2.2 23c.3 3.7 6.2 3.2 5.8-.5l-2.2-23.5h66.1l-1.2 52.4h-62.8l-.4-4.4c-.3-3.7-6.2-3.2-5.8.5l8 88.9-17.9 1.8-18.1-215c-.2-1.5.9-2.8 2.3-2.9l102.5-8.9c-3.3 4.8-4.9 10.1-4.9 15.8l-.6 30.5zM1223.6 689.8v.1l1.6 28.7h-6l.6-28.5 3.8-.3zM1219.1 724.5h6.4l2.9 52.3h-10.5l1.2-52.3zM1235 844.6l5.4-.3c-1.5 2.4-5.1 7-5.2 7-2.2.8-3.9 2.3-5.6 3.8-.7.7-1.5 1.3-2.3 1.9l-12.4-32.4c1.1-.3 1.9-1.4 2-2.7l.8-39.3h10.9l3.3 59.2c.1 1.6 3.1 2.8 3.1 2.8zM1250.8 494.1c1.6-.2 2.7-1.7 2.5-3.3-1.9-13.5-1.8-20-1.7-31.9.1-4.9 0-30.2 0-30.2l66.8 1.2-27.2 49.9c-.7 1.4-.3 3 1 3.9l7.5 4.4-11.7 58.8c-1.2 6.2-.5 12.5 2.1 18l13.2 35.3-27.3 4.3c-.5-6.7-6.7-27-6.7-27-7.3-37.2-11.8-60.3-14.4-75.6-.3-1.6-1.8-2.7-3.4-2.4l-.7-5.4zM1291.7 724.5h81.6v201h-285.9c-.8-7-2.6-14.3-6.1-20.8-1.4-2.6-3.1-4.6-5-5.9l-1.1-12.4s19-1.6 19.1-1.6c1.6-.2 2.8-1.6 2.6-3.2l-8.9-99h62.1l-1 41.9c-.1 1.6 1.3 2.9 2.9 2.9l11.9-.5c-1.4 3.1-5.6 9.1-5.9 9.1-2.2.8-3.8 2.3-5.5 3.7-10.2 9-22.3 16.1-32.8 21.9-6.4 3.5-14.3 7.8-17.2 15.9-3.5 9.7 1.9 19.7 7.2 27.3 1.9 2.8 4.7 3.2 7.8 2.3 23.5-7.3 46.9-15.5 69.9-23.9-3.6 2.7-6.7 6.1-8.3 10.5-2.6 7.5 6.5 25.4 7.9 27.2 2.1 2.8 4.9 3 8 2.1 32.7-10.5 108.3-39.3 108.8-39.5 4.6-1.7 6.3-5.1 4.5-9.6-.2-.5-10.1-24.9-13.4-32.9 1.4-.3 2.4-1.6 2.3-3l-5.5-113.5zM1477.7 429.8l33.7.2c10.2 0 19.9 4.4 26.5 12.2 6.7 7.8 9.6 18 8 28.1l-10.6 69.7c-.6-1.8-1.4-3.5-2.4-5.1l-18.4-28.1c.8-.2 1.4-.8 1.8-1.6.3-.7.4-1.6 0-2.4 0 0-19.1-49.4-24.1-57-4.9-7.6-9.6-11.9-14.5-16z"/><path class="st3" d="M1370.9 400.8c.7.6 5.6 4.3 5.6 4.3l-.6 3.6c0 .2-13.8.6-15.1.7-5.2.5-10.3 1.2-15.4 2.3-4.7 1-9.3 2.3-13.6 4.4-2.1 1-4.1 2-6 3.3-3.6 2.5-3.8 4.6-4 4.6h-26.8l26-39.9 41.5 7.3c-.1.1 5.2 6.9 8.4 9.4zM1432.2 404.2c.3 3.2.4 6.6 1.4 9.7-1.7 3.8-7.9 16-18.1 18.1-8.9 1.9-18.7 1.4-27.2-2.2-2.1-.8-9.5-3.9-8.9-7 0 0 1.8-11 2.4-14.5l3.1 1.5c15.4 6.3 33.4 2.6 47.3-5.6zM1451.9 356.5c-.6 2.7-3.3 11.2 2.1 17.3 0 0-7.4 11.4-13.9 16.8-8.1 6.8-18.3 14.3-29.1 15.9-9.9 1.4-20.8.5-29.5-5-12-7.5-20.2-20-24.2-33.4-1.2-3.9-1.9-7.9-2.5-12-1.5-10.6-.4-21.6 1.7-32 .3-1.8.7-3.8 1.2-5.7.7.3 1.3.7 2 1.1 13.6 7.2 29.6 3.2 43.9 1 9.5-1.4 21.6-4 32.3-8.8 0 0-4.3 13.9-5.2 17.8-1.5 6.4 1.8 12 5.8 14 3.1 1.6 6.3 1 8.5-1.5 2-2.3 4.6-4.7 7.8-5.3 2.3-.4 5.7.4 6.5 3 .9 3.1-.5 6.4-2 9-1.5 2.5-4.8 5.1-5.4 7.8zM1505.8 423.9h-36.1c-.7-.5-1.4-.9-2.1-1.3-3.2-3.5-9.3-5.8-17-8.9-2.5-1-11.7-2.4-11.7-2.4-.3-2-.7-5.2-.9-6.5 0 0 6.5 1.1 6.9 1l25.6-5.2c10.7-2.1 21.9.9 30 8.2l8.3 7.3c3 2.7 1 7.8-3 7.8zM1198.7 312.7c0 1-.1 2-.1 3.1 0 0-12 19.5-21.7 21.7-27.2 6.1-36.5-10.8-38-20.4 6.6 2.3 14.5 3.9 22.7 3.9 3.1 0 6.1-.2 9-.7 10.9-1.7 20.3-4 28.1-7.6zM1235.4 230c-.6 3.8-3.8 6.3-6.2 9-6.3 7.2-9.6 8.7-10.9 8.9-1.4.3-3.1-1.4-4.7-1.4-2.5 0-4.6 1.4-5.5 3.9-4.5 11.8-12.1 17.3-23.9 17.3-7 0-15.6-2-25.7-6.1-4.4-1.8-10.5-4.2-16.8-4.2-3.2 0-6.3.7-8.9 1.9-6.1 3-13.2-6.7-16.6-12.6-.3-1.9-.5-3.7-.7-5.6-.7-6.4-.6-13 .2-19.6.7-5.9 1.7-11.3 2.8-16.3 10.7-1.1 22.5-6.1 30.8-13 3.2 5.6 8.6 10.1 14.8 12.1 5.9 1.9 12.7 1.7 19.3-.5.9-.3 1.8-.6 2.6-1 0 0 .1 0 .2-.1 2.2-1.3 6.1-3.5 9.8-6.4-.4 5.3.1 12.1 2.7 16.5 7.2 12.4 15.8 12.1 16 12.1-.4 1-.7 2.1-.7 3.1 0 1.6 1.3 2.9 2.9 2.9s2.9-1.3 2.9-2.9c0-1.4 2.8-4.9 5.1-6.4 2.5-1.6 5.6-1.4 8 .4 2.4 1.7 3.1 4.3 2.5 8zM887.8 403l47.8-8.4c-2.3 10.2-5 22.2-5.6 26.7l-.7 5.6-103-.1c-6.8 0-10-8.4-4.9-12.9l8.2-7.3c8.9-7.9 20.9-11.2 32.5-8.8l25.7 5.2z"/><path class="st4" d="M326 134.2c-.4 8-.4 14.8-.1 20.7 0 .7.1 1.3.1 1.9 0 .9.1 1.7.2 2.5 0 .7.1 1.3.2 1.9.2 1.9.5 3.7.7 5.3.2 1.3.5 2.6.8 3.7l.1.5c.3.9.5 1.7.7 2.5 0 .1 0 .2.1.2.4 1 .7 1.9 1.1 2.7 0 0 0 .1.1.2v.2l.9 1.8s.1.1.1.2c-1.9-.1-3.7-.8-5.6-2.1-8.4-5.6-17-23-24.4-59.1-10-48.2-3.3-113.7-3.3-113.7s23.2 41.6 36.1 83.8c-.9 3.6-1.8 7.4-2.7 11.2-.4 1.5-.7 3-1 4.5-.1.5-.2 1-.3 1.4l-.9 5c-.1.5-.2.9-.2 1.4-.6 3.2-1.1 6.4-1.5 9.5-.2 1.2-.3 2.3-.4 3.5-.2 1.5-.4 3.1-.5 4.6 0 1.9-.2 3.8-.3 5.7z"/><path class="st5" d="M403.8 30.3s-6.8 60.5-25.1 102.1c-10.3 23.3-19.2 37.1-26.6 43.9h-5v-.1c.2-.3.4-.7.6-1.2.2-.3.3-.6.5-1 .5-1.2 1-2.6 1.5-4.1.2-.7.4-1.4.6-2.2 1-3.4 1.8-7.5 2.5-12.3.1-.8.2-1.6.3-2.5.2-1.7.4-3.4.6-5.3.2-1.9.3-3.8.5-5.8.1-2 .2-4.2.3-6.3.1-2.4.2-4.8.2-7.2 0-2.1 0-4.3-.1-6.5-.2-4.3-.4-8.8-.8-13.1l-.3-2.7-.4-4.2 8.6-14.8c19-30.6 42.1-56.7 42.1-56.7z"/><path class="st6" d="M354.6 128.4c0 2.5 0 4.9-.2 7.2-.1 2.2-.2 4.3-.3 6.3-.2 2-.3 3.9-.5 5.8s-.4 3.6-.6 5.3l-.3 2.5c-.7 4.8-1.5 8.9-2.5 12.3-.2.8-.4 1.5-.6 2.2-.5 1.5-1 2.9-1.5 4.1l-.5 1-.6 1.2v.1h-16.9v.2l-.1-.2v-.2c-.4-.8-.7-1.7-1.1-2.7 0-.1 0-.2-.1-.2-.2-.8-.5-1.6-.7-2.5l-.1-.5c-.3-1.2-.5-2.4-.8-3.7-.3-1.6-.5-3.4-.7-5.3-.1-.6-.2-1.2-.2-1.9-.1-.8-.2-1.6-.2-2.5l-.1-1.9c-.3-5.8-.3-12.7.1-20.7.1-1.9.2-3.7.4-5.6.1-1.5.3-3 .5-4.6l.4-3.5c.4-3.2.9-6.3 1.5-9.5.1-.4.2-.9.2-1.4l.9-5c.1-.5.2-1 .3-1.4.3-1.5.6-3 1-4.5.9-3.8 1.8-7.6 2.7-11.2 4.9-19 10.2-33.5 10.2-33.5s5.8 22.3 8.8 48c.2 1.4.3 2.8.4 4.2l.3 2.7c.4 4.3.7 8.8.8 13.1.1 2 .1 4.1.1 6.3z"/><path class="st7" d="M371.8 255.3h-69c-8.1 0-14.7-6.7-14.7-15v-63.9h98.4v63.9c0 8.3-6.6 15-14.7 15z"/><path class="st8" d="M1083.2 456.7c-1.1-8-1.3-19.7-.7-32.4.4-9.4 1.2-19.3 2.4-28.6-.2-.3-11.6-25-35.6-33.3l-4.1-1.6c-2.8 2.8-41.7 42-46.6 47.4-4 4.5-11.7.7-11.7-4.9 0-11.2 2.6-38.7 3.3-45.8-2.8.7-24.3 6.1-24.8 6.3-12.9 4-21 7.1-23.1 18.5-.7 4-2.1 10.4-3.7 17.2-4.9 20.6-12.2 82.7-12.2 82.7-.3 2.5-3.1 3-4.7 1.9l-1.8 8.8c1.6.3 2.9 1.9 2.1 3.9-2.8 6.7-23.2 54.5-37.5 78.6 4.7-1.6 9.6-2.8 14.5-3.6 6.4-1 13.3-1.6 20.1-2.3 8.8-36.8 20.8-98.2 21.6-107.6-1.5-3.3-7.2-17-5.1-30.6 2.6-17 7.3-24.7 11.4-31.5 1.9-3.1 3.7-6.1 5.2-9.7 1.4-3.5 6.8-1.3 5.4 2.2-1.6 4.1-3.7 7.4-5.6 10.6-4 6.6-8.2 13.5-10.6 29.3-2.1 13.5 4.9 27.7 4.9 27.9.2.4.3.9.3 1.4-.3 7-12.2 68.5-21.4 107.5 8.2-.8 16.4-1.7 23.7-3.3 10.8-7.6 20.1-12.8 30-18.3 5.7-3.2 11.6-6.5 18.1-10.5 2.5-1.5 9.6-5.1 18.7-9.7 12.3-6.2 27.3-13.9 33.7-17.8-.7-14.1 2.3-83.1.8-92.2-.6-3.7 5.6-4.1 5.8-.3.3 5.4-1.6 79.7-.7 93.8.1 1.1-.4 2-1.3 2.6-5.6 3.8-22.3 12.2-35.7 19-8.6 4.3-16 8.1-18.3 9.5-6.6 4-12.5 7.3-18.3 10.6-5.6 3.2-11 6.2-16.6 9.6.6 2.5 1.8 4.9 2.9 7.3 2 4.3 3.8 8.1 6.1 11.6 1.4 2.2-2 4.1-3.3 2.1-2.4-3.7-4.2-7.6-6.3-12-1-2.1-2.1-4.3-2.8-6.8-2.6 1.6-8.2 5.4-8.3 5.4.7 1.7 2.1 4.5 3.9 7.5 1.6 3 3.2 5.9 5.3 8.3 1.6 2.2 3.3 4.2 4.9 5.5 8.6-2.9 40-13.9 41.8-14.6 27.8-10.3 59.8-25.5 65.7-33.5 1.7-1.4 1.7-11.1 2-15.3.1-1.2.5-3.5 1.2-7 2.5-13.1 7.8-40.3 4.7-63.5.3-.2.3-.2.3-.3zm-77.1 127c-4.9 1.8-9.9 3.5-15.2 5.4 10.4.4 21.8-.2 33.5-1.5h.1c15.8-1.7 31.9-4.4 46.4-7.2v-.2l2.6-27c-10.4 8.1-32.2 17.6-62.1 28.5-1.6.7-3.4 1.3-5.3 2z"/><path class="st3" d="M545.4 828.1c-1.5.2-5.5 3.9-6.8 4.8-8.2 5.9-19.5 7.3-28.9 3.5-3.7-1.5-7.3-4-9.1-7.5 0-.1-.1-.2-.2-.2 7.5-1.9 14.6-5.1 20.9-9.3l24.1 8.7z"/><path class="st9" d="M726.3 638.2c5.6-1.6 11.2-3.2 16.3-5.9-2.4 4.9-3.7 9.9-3.4 14.7l-2.1 52.8-44 10.9 2.9 136.3-43.9 5.6-19.8-155.8-16.8 2-52.3 134.9-42-14.3 40.8-150.7c3.8-14.3 15.6-24.1 28.7-25.5l108.1-25.4c-10.3 5.4-19.3 11.8-22.3 18.1-2 4.3-2.6 10.7 1.8 13.3 2.6 1.6 5.7.8 8.4.1 13.3-3.7 26.5-7.4 39.6-11.1zM529.5 789.2l-5.1 18.9c1.2.5 2.6.9 4 .9 5.5 0 9.9-4.4 9.9-9.9 0-5.1-3.9-9.3-8.8-9.9zm15.9 29.2c-2.7 0-4.9 2.2-4.9 4.9s2.2 4.9 4.9 4.9 4.9-2.2 4.9-4.9-2.2-4.9-4.9-4.9zm0-48.3c-2.7 0-4.9 2.2-4.9 4.9s2.2 4.9 4.9 4.9 4.9-2.2 4.9-4.9c0-2.8-2.2-4.9-4.9-4.9zm24.3-29.2c-5.5 0-9.9 4.4-9.9 9.9s4.4 9.9 9.9 9.9 9.9-4.4 9.9-9.9-4.4-9.9-9.9-9.9zm0-48.3c-5.5 0-9.9 4.4-9.9 9.9s4.4 9.9 9.9 9.9 9.9-4.4 9.9-9.9-4.4-9.9-9.9-9.9zm7.7-44.7c-5.5 3.3-10.1 8.4-13 14.6 1.5 1 3.3 1.6 5.3 1.6 5.5 0 9.9-4.5 9.9-9.9 0-2.3-.8-4.5-2.2-6.3zm-7.7 141.3c-5.5 0-9.9 4.4-9.9 9.9s4.4 9.9 9.9 9.9c1.2 0 2.3-.2 3.3-.6l5.4-13.9c-1.6-3.2-4.9-5.3-8.7-5.3zm18.9-67.4c-2.7 0-4.9 2.2-4.9 4.9s2.2 4.9 4.9 4.9 4.9-2.2 4.9-4.9-2.2-4.9-4.9-4.9zm0-48.3c-2.7 0-4.9 2.2-4.9 4.9s2.2 4.9 4.9 4.9 4.9-2.2 4.9-4.9-2.2-4.9-4.9-4.9zm22.5-29.2c-5.5 0-9.9 4.5-9.9 9.9s4.4 9.9 9.9 9.9 9.9-4.5 9.9-9.9-4.4-9.9-9.9-9.9zm0 48.3c-5.5 0-9.9 4.4-9.9 9.9 0 5.2 4 9.4 9 9.9l5.3-13.5 4.5-.5c-1.5-3.5-4.9-5.8-8.9-5.8zm20.7-19.1c-2.7 0-4.9 2.2-4.9 4.9s2.2 4.9 4.9 4.9c.3 0 .5 0 .8-.1.5-2.9 1.4-5.6 2.7-8.2-.9-.9-2.2-1.5-3.5-1.5zm20.7-29.2c-5.5 0-9.9 4.5-9.9 9.9 0 3.9 2.3 7.3 5.7 8.9 1.3.6 2.7 1 4.2 1 4 0 7.4-2.4 9-5.8.6-1.2.9-2.6.9-4.1 0-5.4-4.4-9.9-9.9-9.9zm22.5 29.2c-2.7 0-4.9 2.2-4.9 4.9s2.2 4.9 4.9 4.9 4.9-2.2 4.9-4.9c-.1-2.7-2.2-4.9-4.9-4.9zm22.8-28.3l-12.8 4.7c-.7 1.4-1 2.8-1 4.4 0 5.4 4.4 9.9 9.9 9.9s9.9-4.5 9.9-9.9c0-4.1-2.5-7.6-6-9.1zm20.3 28.3c-2.7 0-4.9 2.2-4.9 4.9s2.2 4.9 4.9 4.9 4.9-2.2 4.9-4.9-2.2-4.9-4.9-4.9zm17.1-29.2c-5.5 0-9.9 4.5-9.9 9.9s4.4 9.9 9.9 9.9 9.9-4.5 9.9-9.9c.1-5.4-4.4-9.9-9.9-9.9zM662.4 799.1c0 5.5-4.4 9.9-9.9 9.9-2.3 0-4.5-.8-6.1-2.2l-1.8-13.7c1.8-2.4 4.7-3.9 7.9-3.9 5.5 0 9.9 4.4 9.9 9.9zM662.4 750.8c0 5.5-4.4 9.9-9.9 9.9s-9.9-4.4-9.9-9.9 4.4-9.9 9.9-9.9 9.9 4.4 9.9 9.9zM662.4 702.5c0 5.5-4.4 9.9-9.9 9.9s-9.9-4.4-9.9-9.9c0-2.9 1.2-5.5 3.3-7.3 1.8-1.6 4-2.6 6.6-2.6 1.7 0 3.3.4 4.7 1.2 3.1 1.7 5.2 5 5.2 8.7zM662.4 847.3c0 1.5-.3 2.9-.9 4.1l-9.3 1.2-1.9-15c.7-.2 1.4-.2 2.2-.2 5.5 0 9.9 4.5 9.9 9.9zM679.8 823.2c0 2.7-2.2 4.9-4.9 4.9s-4.9-2.2-4.9-4.9 2.2-4.9 4.9-4.9c2.8.1 4.9 2.2 4.9 4.9zM679.8 774.9c0 2.7-2.2 4.9-4.9 4.9s-4.9-2.2-4.9-4.9 2.2-4.9 4.9-4.9c2.8.1 4.9 2.2 4.9 4.9zM679.8 726.7c0 2.7-2.2 4.9-4.9 4.9s-4.9-2.2-4.9-4.9 2.2-4.9 4.9-4.9c2.8 0 4.9 2.2 4.9 4.9zM679.8 678.4c0 2.7-2.2 4.9-4.9 4.9s-4.9-2.2-4.9-4.9 2.2-4.9 4.9-4.9c2.8 0 4.9 2.2 4.9 4.9zM684 750.8c0-5.4 4.4-9.9 9.8-9.9l.4 19.8h-.3c-5.5 0-9.9-4.4-9.9-9.9zM684 799.1c0-5.5 4.4-9.9 9.9-9.9h.9l.4 19.7c-.4 0-.9.1-1.4.1-5.4 0-9.8-4.4-9.8-9.9zM695.8 837.6l.2 9.4-12 1.5-.1-1.2c0-5.4 4.4-9.9 9.9-9.9.8 0 1.4.1 2 .2zM703.8 654.2c0 5.4-4.4 9.9-9.9 9.9s-9.9-4.5-9.9-9.9c0-1.6.4-3.1 1-4.4l12.8-4.7c3.5 1.6 6 5.1 6 9.1zM701.6 708.6l-8.5 2.1v1.6c-5.2-.3-9.2-4.6-9.2-9.9 0-5.5 4.4-9.9 9.9-9.9s9.9 4.4 9.9 9.9c.1 2.4-.7 4.6-2.1 6.2zM723 678.4c0 2.7-2.2 4.9-4.9 4.9s-4.9-2.2-4.9-4.9 2.2-4.9 4.9-4.9 4.9 2.2 4.9 4.9zM725.3 654.2c0-5.5 4.4-9.9 9.9-9.9s9.9 4.5 9.9 9.9-4.4 9.9-9.9 9.9-9.9-4.4-9.9-9.9zM744.1 698.1l-18.8 4.7v-.2c0-5.5 4.4-9.9 9.9-9.9 3.9-.1 7.3 2.1 8.9 5.4z"/><path class="st10" d="M662.4 654.2c0 1.5-.3 2.9-.9 4.1-1.5 3.4-5 5.8-9 5.8-1.5 0-3-.3-4.2-1-3.3-1.6-5.7-5-5.7-8.9 0-5.5 4.4-9.9 9.9-9.9s9.9 4.5 9.9 9.9zM703.8 654.2c0 5.4-4.4 9.9-9.9 9.9s-9.9-4.5-9.9-9.9c0-1.6.4-3.1 1-4.4l12.8-4.7c3.5 1.6 6 5.1 6 9.1zM745.2 654.2c0 5.4-4.4 9.9-9.9 9.9s-9.9-4.5-9.9-9.9c0-5.5 4.4-9.9 9.9-9.9s9.9 4.5 9.9 9.9zM621 654.2c0 5.4-4.4 9.9-9.9 9.9s-9.9-4.5-9.9-9.9c0-5.5 4.4-9.9 9.9-9.9s9.9 4.5 9.9 9.9zM579.6 654.2c0 5.4-4.4 9.9-9.9 9.9-2 0-3.8-.6-5.3-1.6 3-6.2 7.5-11.3 13-14.6 1.4 1.8 2.2 4 2.2 6.3zM593.5 678.4c0 2.7-2.2 4.9-4.9 4.9s-4.9-2.2-4.9-4.9 2.2-4.9 4.9-4.9 4.9 2.2 4.9 4.9zM635.2 675c-1.2 2.6-2.1 5.3-2.7 8.2-.2 0-.5.1-.8.1-2.7 0-4.9-2.2-4.9-4.9s2.2-4.9 4.9-4.9c1.4 0 2.7.6 3.5 1.5zM679.8 678.4c0 2.7-2.2 4.9-4.9 4.9s-4.9-2.2-4.9-4.9 2.2-4.9 4.9-4.9c2.8 0 4.9 2.2 4.9 4.9zM723 678.4c0 2.7-2.2 4.9-4.9 4.9s-4.9-2.2-4.9-4.9 2.2-4.9 4.9-4.9 4.9 2.2 4.9 4.9zM662.4 702.5c0 5.5-4.4 9.9-9.9 9.9s-9.9-4.4-9.9-9.9c0-2.9 1.2-5.5 3.3-7.3 1.8-1.6 4-2.6 6.6-2.6 1.7 0 3.3.4 4.7 1.2 3.1 1.7 5.2 5 5.2 8.7zM701.6 708.6l-8.5 2.1v1.6c-5.2-.3-9.2-4.6-9.2-9.9 0-5.5 4.4-9.9 9.9-9.9s9.9 4.4 9.9 9.9c.1 2.4-.7 4.6-2.1 6.2zM744.1 698.1l-18.8 4.7v-.2c0-5.5 4.4-9.9 9.9-9.9 3.9-.1 7.3 2.1 8.9 5.4zM620 698.3l-4.5.5-5.3 13.5c-5.1-.4-9-4.7-9-9.9 0-5.5 4.4-9.9 9.9-9.9 4 .1 7.4 2.4 8.9 5.8zM569.7 712.4c5.5 0 9.9-4.4 9.9-9.9s-4.4-9.9-9.9-9.9-9.9 4.4-9.9 9.9 4.4 9.9 9.9 9.9zM593.5 726.7c0 2.7-2.2 4.9-4.9 4.9s-4.9-2.2-4.9-4.9 2.2-4.9 4.9-4.9 4.9 2.2 4.9 4.9zM679.8 726.7c0 2.7-2.2 4.9-4.9 4.9s-4.9-2.2-4.9-4.9 2.2-4.9 4.9-4.9c2.8 0 4.9 2.2 4.9 4.9zM662.4 750.8c0 5.5-4.4 9.9-9.9 9.9s-9.9-4.4-9.9-9.9 4.4-9.9 9.9-9.9 9.9 4.4 9.9 9.9zM694.2 760.7h-.3c-5.5 0-9.9-4.4-9.9-9.9 0-5.4 4.4-9.9 9.8-9.9l.4 19.8zM569.7 760.7c5.5 0 9.9-4.4 9.9-9.9s-4.4-9.9-9.9-9.9-9.9 4.4-9.9 9.9 4.4 9.9 9.9 9.9zM550.3 774.9c0 2.7-2.2 4.9-4.9 4.9s-4.9-2.2-4.9-4.9 2.2-4.9 4.9-4.9c2.7.1 4.9 2.2 4.9 4.9zM679.8 774.9c0 2.7-2.2 4.9-4.9 4.9s-4.9-2.2-4.9-4.9 2.2-4.9 4.9-4.9c2.8.1 4.9 2.2 4.9 4.9zM662.4 799.1c0 5.5-4.4 9.9-9.9 9.9-2.3 0-4.5-.8-6.1-2.2l-1.8-13.7c1.8-2.4 4.7-3.9 7.9-3.9 5.5 0 9.9 4.4 9.9 9.9zM695.2 808.9c-.4 0-.9.1-1.4.1-5.9-.7-10.6-5.5-9.9-9.9.8-5.4 4.4-9.9 9.9-9.9h.9l.5 19.7zM578.5 794.5l-5.4 13.9c-1 .4-2.2.6-3.3.6-5.5 0-9.9-4.4-9.9-9.9s4.4-9.9 9.9-9.9c3.7 0 7 2.1 8.7 5.3zM538.3 799.1c0 5.5-4.4 9.9-9.9 9.9-1.4 0-2.8-.3-4-.9l5.1-18.9c4.9.6 8.8 4.8 8.8 9.9zM550.3 823.2c0 2.7-2.2 4.9-4.9 4.9s-4.9-2.2-4.9-4.9 2.2-4.9 4.9-4.9c2.7.1 4.9 2.2 4.9 4.9zM679.8 823.2c0 2.7-2.2 4.9-4.9 4.9s-4.9-2.2-4.9-4.9 2.2-4.9 4.9-4.9c2.8.1 4.9 2.2 4.9 4.9zM662.4 847.3c0 1.5-.3 2.9-.9 4.1l-9.3 1.2-1.9-15c.7-.2 1.4-.2 2.2-.2 5.5 0 9.9 4.5 9.9 9.9zM696 847.1l-12 1.5-.1-1.2c0-5.4 4.4-9.9 9.9-9.9.7 0 1.4.1 2 .2l.2 9.4z"/><path class="st3" d="M697.4 850.2s-21.4 1.6-22 3.1c-3.9 9.4-12.8 16.5-22.8 18.2-4 .7-8.3.4-11.7-1.6-.3-.2-.8-.3-1.2-.3 5.2-5 9.5-10.8 12.8-16.9l43.5-5.6s2.4 5.2 1.4 3.1zM723.7 516.3l-33 24.1c-3.2 2.3-6.9 3.6-10.8 3.8l-81.3 4.1c-12.2 7.2-23.5-1.4-28.4-1-10.8.8-39.3-.8-39.7-5.6-.4-5.2 5.8-8.6 10.4-10.9 13.3-6.7 28.8-9.1 43.6-6.6 1.3.2 12.6.5 12.6.5l79.2-17.4 17.5-19.9c.1.2.3.4.5.5l28.3 27.6c.3.3.7.6 1.1.8z"/><path class="st6" d="M856.5 518.6l.5 103.5c0 3-2.4 5.5-5.4 5.6l-109.3 4.5c-13.4-.2-24.3-10.1-24.8-22.7 0 0 5.5-51.8 10.3-92.8-1.8.5-3.8 0-5.3-1.4l-28.3-27.6c-2.2-2.1-2.3-5.6-.2-7.8 0 0 31.2-33.6 37.6-40.4 11.6-10.3 26.1-16.6 35.4-15.9l-1.7 10.7c-4.4 17.5 12 24.5 29.8 16.9 5.6-2.4 15.5-14 20.9-24.3 0 0-.4-1.5-1-3.8l7.2.4c.4 0 .8.1 1.2.2 6.9 1.8 12.9 4.2 18 8 9.8 4.2 16.7 17.5 18.9 26 5.2 20.2 10.4 59 10.4 59l-14.2 1.9z"/><path class="st3" d="M864.7 581.3c.2 1.9-4.2 5.6-5.9 6l-90.8 20.8c-17.9 3.2-27 22-26.9 21.2-2.5 1.4-39.8 13.4-53 17.1-2.1.6-6 1.6-8.5-.1-2.7-1.8-2.1-6.6-.7-9.6 4.2-8.7 22.1-18 37.4-24.2 1.9-.8 3.8-1.6 5.6-2.2 8.8-3.4 15.9-5.4 17.6-5.4.6.2 1.2.1 1.8-.2l82.5-35.4-4-43.1 39.9-5.3 5 60.4zM845 352.1c-5.8 14.3-9.1 11.2-14.1 31.1.2-.2.4-.3.6-.4-5.4 8.1-12.6 15.7-20.7 21.6 1.6 9.9 5.1 22.7 5.1 22.7-5.3 10.2-15.3 21.9-20.9 24.3-17.8 7.5-34.2.5-29.8-16.9l3.4-20c-13.2-4.5-22.4-17.1-27.8-33.2-1.7-5.1-3.1-10.6-4-16.3-.9-5.4-1.5-11-1.8-16.6-.5-12 0-22.4 2-31v.1c2 3.9 7.7 6.7 11.6 8.7 10.1 5.3 25 0 36.3-.7 25.8-1.5 38.4 22.7 38.4 22.7 6.1-15.9 27.7-10.9 21.7 3.9z"/><path class="st11" d="M766.8 379.3c-2.2 0-4.1-.3-5.1-.4-1.8-.5-2.9-1.7-3.4-3.1-.5-1.4-.4-2.8.3-4.1l5.4-23.3c.4-1.6 2-2.6 3.5-2.2 1.6.4 2.5 1.9 2.2 3.5l-5.5 23.7c2.6.3 5.7.1 6.4-.5 1.3-1 3.1-.8 4.1.4 1 1.2.8 3.1-.4 4.1-2 1.5-4.9 1.9-7.5 1.9zM769.9 396c-2.5 0-4.9-.4-7.1-1.2-2.1-.8-4-2-5.5-3.5-1.1-1.1-1.1-3 0-4.1 1.1-1.1 3-1.1 4.1 0 .9.9 2.1 1.6 3.4 2.2 3.7 1.4 9.2 1 12-.9l.8-.6.4-.3c1.3-1 3.1-.7 4.1.5 1 1.3.7 3.1-.5 4.1l-.3.2-1.1.8c-2.7 1.8-6.5 2.8-10.3 2.8zM816 311.3c-.5 0-1-.2-1.3-.5-3.7-3.5-8.5-5.6-14.6-6.3-1.1-.1-1.8-1.1-1.7-2.2.1-1.1 1.1-1.8 2.2-1.7 7.1.8 12.6 3.2 16.9 7.3.8.7.8 2 0 2.8-.5.4-1 .6-1.5.6z"/><path class="st12" d="M781.6 375.2c-.1 6.8 5.4 12.5 12.2 12.6 6.8.1 12.5-5.4 12.6-12.2.1-6.8-5.4-12.5-12.2-12.6-6.9-.2-12.5 5.3-12.6 12.2z"/><path class="st11" d="M830.5 360.6c-.5 0-1-.2-1.3-.5-.8-.7-.8-2-.1-2.7 2.5-2.6 4.5-6.1 4.5-7.8 0-1.1.9-1.9 1.9-1.9 1.1 0 1.9.9 1.9 2 0 3.1-2.8 7.4-5.5 10.4-.3.3-.8.5-1.4.5zM750.7 357c-1.6 0-2.9-1.3-2.9-3v-3.8c0-1.6 1.3-2.9 2.9-2.9 1.6 0 2.9 1.3 2.9 3v3.8c0 1.6-1.3 2.9-2.9 2.9zM788.5 360c-1.6 0-2.9-1.3-2.9-3v-3.5c0-1.6 1.3-2.9 2.9-2.9s2.9 1.3 2.9 3v3.5c0 1.6-1.3 2.9-2.9 2.9z"/><path class="st12" d="M739.6 363.4l.5 2.9c1.1 5.7 2.6 11.1 4.3 16.1.6 1.6 1.2 3.2 1.8 4.7 5.3-1.2 9.2-6.4 9-12.4-.2-6.9-5.5-12.3-11.8-12.1-1.3 0-2.6.3-3.8.8z"/><path class="st11" d="M881.3 354.1c-.3 0-.5 0-.8-.2-1-.4-1.4-1.6-1-2.5 1.2-2.8 1.5-5.9 1-8.8-.5-2.8-1.7-5.5-3-8.3-1.6-3.6-3.3-7.3-3.5-11.4-.1-2.7.5-5.3 1-7.9l1-4.7c.2-1 1.3-1.7 2.3-1.5 1.1.2 1.7 1.3 1.5 2.3l-1 4.7c-.5 2.4-1 4.7-.9 6.9.1 3.4 1.6 6.6 3.2 10 1.3 2.9 2.7 6 3.3 9.3.6 3.7.2 7.6-1.3 11-.4.7-1.1 1.1-1.8 1.1zM795.1 343.8h-.4c-3.8-.7-7.6-1.1-11.5-1.1-1.1 0-1.9-.9-1.9-2s.9-1.9 1.9-1.9c4.1 0 8.2.4 12.2 1.2 1 .2 1.8 1.2 1.5 2.3 0 .9-.9 1.5-1.8 1.5zM746.3 343.8c-.9 0-1.7-.7-1.9-1.6-.2-1 .5-2.1 1.5-2.3 4-.8 8.1-1.1 12.2-1.2 1.1 0 1.9.9 1.9 1.9s-.9 1.9-1.9 2c-3.8 0-7.7.4-11.5 1.1 0 .1-.2.1-.3.1z"/><path class="st3" d="M780.4 824.3l-4.3 70.9c-.3 1.3-.9 2.8-1.6 4.4h-21.2c-5 0-9.8.7-14.2 2.1 1.1-2 1.9-4 2.3-5.9l3.3-73.6h33.7c.2.5.4.9.7 1.3.3.4.8.7 1.3.8zM820.4 916.9c1.2 3.6 1.7 7.3 1.7 11.1 0 .9 0 1.8-.1 2.7-.3 3.7-3.3 6.5-6.9 6.6l-9.2-9.3-26.1-26.3c.9-1.9 1.5-3.7 1.9-5.4l4.4-71.8h41.2l-5.9 41.1c-1.4-.3-2.7-.4-4-.4-21.7 0-26.9 33.1-27.1 34.5-.2 1.5.7 2.9 2.2 3.3.1 0 25.6 6.9 25.6 6.9l2.3 7z"/><path class="st6" d="M708.3 944.4v-1.4h-49.5v-.4c0-22.7 19.5-41.1 43.5-41.1h32.4l2.8 3.7c4.5-1.5 9.3-2.3 14.3-2.3h23.4l39.9 40.4-106.8 1.1z"/><path class="st3" d="M1073.6 901.9c-3.2 13.9-26.5 19.5-33.1 14.2-19.3-15.8-30.2-16.7-30.7-16.7l3.2-10.5 59-5.1 1.6 18.1z"/><path class="st13" d="M985.8 594.6c-9.1 3.7-18.9 11.3-21.5 18.9l-10.3 26.5-18.6 47.9-72.5.1-31.1 130.6h-47.6l-47.3-2.2 6.6-170c-.8-12.9 12.5-30 25.6-32.6l97.2-22.2c1.8 4 21.3 8.3 34.5 10.8 0 0 5.8-.1 8-.1 3.3 0 30.2-1.7 38.5-2 2.5-.1 4.5-.1 5.6-.2 3.9-.2 8.7-1.4 11.8-4.3.3.3.6.5.9.7.8.5 1.7.6 2.6.3 3.2-1.1 9.4-3.1 9.5-3.1 2.5.5 5.2.8 8.1.9z"/><path class="st9" d="M1252 499.4c1.9 14.3 4 29.8 6.4 46.6l4.9 30.7c-6.6 2.8-29 10.9-61.2 10.9-5.4 0-10.9-.2-16.3-.7-11.2-1-22.2-2.9-33.4-4.1-6.5-.7-13.1-1.3-19.6-1.9-11.6-1.1-23.6-1.6-35.3-1.6-9.8-.1-19.1-.2-19.1-.2.4-3.9 1.5-31.8 5.4-55.7 2.8-16.9 5.4-33.7 5.8-40 5 19 12 41.7 19 51 2.3 3 6.9-.5 4.7-3.5-8.3-11-17.9-45.7-24.3-74.6l-.1-.3v-.1c-2.6-20 .2-64.2 7.1-85.5 1.2-3.6-4.4-5.4-5.6-1.8-1.5 4.5-2.8 10-3.8 16.1.5-3-5.7-8.3-7.5-10.3-3.5-3.7-7.7-6.8-12-9.5-1.8-1-4.7-2.1-6.1-3.5 0 0-.1 0-.2-.1l-3.6-1.8 49.3 2.4c2.8.1 4.2-4.3 4.7-6.4 1.2-4.8.2-10.1-1.5-15.2-.7-2-2.9-7.6-3.3-8.4 0 0-4-7.8-4.8-10 0 0 5.5-3.7 9.1-5.1 5.1-2 5.1-2 10.2-2.6.9.5 6.1 4 6.8 4.4l1.5.8c2.6 1.3 5.4 2.5 8.3 3.5 1.1 3 2.8 6.1 5.1 8.8 3.9 4.6 11.2 10.1 23.6 10.1 4.3 0 9.1-.3 13.1-1.8 14.9-5.4 22-22.7 22-22.7.2 0 7.2.5 10.5.8-.5 1 4.2.4 4 .4 17 2 32.7 5.8 42.6 14.5l31.9 22.5 8.2 5.8 20.9 14.8-31.2 48-37.2-1.2s-5.6-.2-5.6 1.2l1.1.1s-.8 12.8-.5 23.8c.4 13.7 3.3 28.9 5.5 46 0 1.8.3 3.6.5 5.4z"/><path class="st6" d="M1273.4 607.9l-2.5.4-3 .5-8.6 1.4-72.1 11.5c-14.3 3.9-31.1 13.8-31.1 31l-.8 33.4-73.7-1 2.6 87.5 9.8 109.3-88.5 7.7-9-149-44.3 132.3-78.4-20.9 91.8-237c3-8.8 17.2-17.8 26.4-19.1l104.9-16.7h.7c11.7 0 23.7.5 35.3 1.6 6.5.6 13.1 1.2 19.6 1.9 11.2 1.2 22.2 3.2 33.4 4.1 5.4.5 10.8.7 16.3.7 32.2 0 54.6-8.1 61.2-10.9l-1.9-11.8 8.2 21.5c2.1 6.8 3.4 14.1 3.7 21.6z"/><path class="st14" d="M1265.2 571.1h-190.1c.2-1.8.3-3.7.5-5.8h188.4l1.2 5.8zM1261 550.2h-184c.2-1.9.3-3.8.5-5.8h182.5c.3 1.8.7 3.7 1 5.8zM1257 529.2h-178.3c0-.3.4-3.5.8-5.8h176.4c.3 1.8.7 3.8 1.1 5.8zM1253.1 508.2h-171.1c.3-1.9.5-3.8.8-5.8h169.3c.3 1.8.6 3.7 1 5.8zM1249.9 487.2h-165.4c.2-1.9.3-3.8.4-5.8h164.3c.2 1.8.4 3.7.7 5.8zM1248.7 460.4v5.8h-163.5c0-1.9-.1-3.9-.3-5.8h163.8zM1248.8 445.2h-164.8c-.1-1.9-.2-3.9-.2-5.8h165v5.8zM1244.5 418.4c.2 2.3.4 4.3.7 5.8h-157l.3-5.8h156zM1291.8 418.4l-3.7 5.7-37.2-1.2c-.2-1.1-.3-2.6-.5-4.5h41.4zM1243.9 397.4v5.8h-154.1c.2-2 .4-3.9.7-5.8h153.4zM1305.4 397.4l-3.8 5.8h-51.9c0-1.9 0-3.8-.1-5.8h55.8zM1319.1 376.4l-3.8 5.8h-229.9c-1.2-2-2.6-4-4.2-5.8h237.9zM1303.4 361.3h-195.3c.3-.2.5-.4.7-.7 1.1-1.6 1.9-3.3 2.3-5.1h184l8.3 5.8zM1129.1 319.3h-17.8c4.1-.9 8.8-1.6 13.9-2.2.9.5 1.8 1 2.4 1.4l1.5.8zM1136.4 340.3h-26.7c-.7-2-1.4-3.9-2.2-5.8h24.2c.2.3.4.6.6.8.4.7.9 1.3 1.4 1.9.5.6 1 1.2 1.6 1.8l1 1.1c0 .1 0 .1.1.2zM1156 340.3h-13.8c-2.2-1.7-4.1-3.7-5.8-5.8h8.9c2.6 2.3 6.1 4.4 10.7 5.8zM1273.7 340.3h-76.6c2.5-1.8 4.9-3.8 7.1-5.8h61.3l8.2 5.8z"/><path class="st2" d="M1104.9 355.9l-61.3-3h-.3c-.7-1.4-1-3-1.1-4.7-.1-2.8 1.3-11.2 1.5-12.2.6-2.5 1.5-4.5 3.2-7 1.6-2.5 2.9-6.8-.2-13.9-1.3-2.9-3.2-5.8-3.3-9-.2-3.2 1.8-6.1 3.4-8.8 2.3-3.8 4.9-8 4-13.1-.4-2.5-1.7-4.6-2.4-7-.7-2.5-.7-5.2-.2-7.8.7-4.2 2.6-8.7 5.6-11.8 1.7-1.8.6-4.7-1.8-5l-82.1-8.8-1.5-.2c-5.2 10.3-12.5 27.2-13.1 37.3-.5 7-.1 14 1.1 20.7 2 11.9 6.4 23.7 13.7 33.5 0 0-16.9-1.3-17-1.3-2.1-.2-3.2 1.5-3.1 3.2l-7.5-.6c.3-1.5-.5-3.3-2.5-3.5l-8.4-.6c0-5 1.9-10.2 5.4-13.9 1.9-2 4.2-3.8 5.3-6.4 2.4-5.5-1-10.8-.2-16.3 1.1-6.7 8.7-10.6 10.4-17.3 1.3-5.1-.5-9.8-2.3-14.4-1.2-3.2-2.4-6.3-2.3-9.3 0-1.7 1.2-8.5 2.3-13l-2.5-.3c1.7-14.1 7.8-26.1 17.1-33.4 10.3-8.1 24.7-9.8 24.8-9.8.9-.1 1.6-.5 2.1-1.2 3-4.3 14.3-8.7 30-8.7 19.2 0 37.7 6.8 50.7 18.6 32.5 29.6 26.3 44.1 21.3 55.6-3.3 7.6-6.7 15.5 2.3 24.6 7.8 8 5.3 14.2 2.4 21.4-1.4 3.4-2.8 6.8-2.9 10.3-.1 2.2.2 4.3 1.1 6.3.5 1.3 4.4 8.9 4.4 8.9 3.1 7.6 6.7 15.9 3.9 21.9z"/><path class="st3" d="M1048.1 269.4c-.4 2.6-.5 5.3.2 7.8.7 2.4 2 4.6 2.4 7 .9 5-1.7 9.3-4 13.1-1.6 2.7-3.6 5.6-3.4 8.8.1 3.2 2 6.1 3.3 9 3.1 7 1.9 11.4.2 13.9-1.7 2.6-2.6 4.5-3.2 7-1.3 1.2-2.6 2.4-4 3.5l2.5 8.6 1.4 4.7 1 3.5s-41.1 40.9-49.4 50.3c-2.1 2.4-6.6.3-6.6-3 0-12.6 3.4-47.1 3.4-47.1l1.7-5.8c-16.8-5.6-28.9-21.9-34-41.9-.7-2.4-1.1-4.8-1.6-7.2-1.1-6.5-1.5-13.3-1.1-20.1.8-13.7 5.7-26.9 13.1-37.8l82.1 8.8c2.4.3 3.5 3.2 1.8 5-3.2 3.3-5 7.7-5.8 11.9z"/><path class="st11" d="M1022.1 288.2h-.2c-1.6-.1-2.8-1.5-2.7-3.1l.4-4.6c.1-1.6 1.5-2.7 3.1-2.7 1.6.1 2.8 1.5 2.7 3.1l-.4 4.6c-.1 1.6-1.3 2.7-2.9 2.7zM978.9 284.5h-.2c-1.6-.1-2.8-1.5-2.7-3.1l.3-3.9c.1-1.6 1.6-2.8 3.1-2.7 1.6.1 2.8 1.5 2.7 3.1l-.3 3.9c-.1 1.5-1.4 2.7-2.9 2.7zM1000.6 309.9c-2.7 0-5.3-.7-7.1-1.2-1.7-.5-3.2-1.6-3.9-3.2-.7-1.5-.8-3.2-.3-4.8l7.5-31.8c.4-1.6 1.9-2.5 3.5-2.2 1.6.4 2.5 1.9 2.2 3.5l-7.6 32c0 .1 5.2 4 8.6 1 1.2-1.1 3.1-.8 4.1.4 1 1.2.8 3.1-.4 4.1-1.9 1.7-4.3 2.2-6.6 2.2zM1019.3 320.7c-3.4 8.2-9 12.4-16.4 12.4-2.7 0-5.6-.5-8.8-1.7-3.5-1.2-1.7-6.8 1.9-5.5 6.6 2.3 11.4 1.6 14.8-2.3-2.1.3-4.3.5-6.7.5-4.4 0-9-.7-12.7-1.9-2.8-.9-5.4-2.3-7.3-3.8-2.9-2.3.7-7 3.6-4.6 1.4 1.1 3.3 2.1 5.5 2.8 6 2 15 2.1 19.8.3 1.1-.5 2.5-1.6 3.8-1.4 2.5.5 3.4 3.1 2.5 5.2z"/><path class="st12" d="M982.8 303.8c-.5 6.9-6.6 12-13.4 11.5-4.3-.3-7.9-2.8-9.9-6.3-.6-2.4-1.1-4.8-1.6-7.3.6-6.8 6.6-11.9 13.4-11.4 6.9.6 12.1 6.6 11.5 13.5zM1045.4 308.6c-.5 6.9-6.6 12-13.4 11.5-6.9-.5-12-6.5-11.5-13.4s6.6-12 13.4-11.5c6.9.5 12.1 6.5 11.5 13.4z"/><path class="st11" d="M975.2 267.2c-1.3 0-2.5-.9-2.8-2.2-.4-1.6.5-3.2 2.1-3.6 3.6-1 7.5-1.2 11.2-.8 1.6.2 2.7 1.7 2.5 3.2-.2 1.6-1.7 2.8-3.2 2.5-3-.4-6.1-.1-9 .6-.3.3-.5.3-.8.3zM1031.3 270.8c-.4 0-.8-.1-1.2-.3-2.8-1.2-5.8-1.9-8.8-2-1.6-.1-2.9-1.4-2.8-3s1.3-2.8 2.9-2.8h.1c3.8.1 7.6 1 11 2.5 1.5.7 2.1 2.4 1.5 3.8-.5 1.2-1.6 1.8-2.7 1.8zM993 207.7c-.8 0-1.5-.5-1.8-1.2-.4-1 .1-2.1 1.1-2.5 4.9-1.9 9.7-3 14.2-3 1.1-.2 1.9.8 2 1.9.1 1.1-.8 2-1.9 2-4.1.1-8.4 1-12.8 2.7-.3.1-.5.1-.8.1zM1073.6 248.6c-.9 0-1.7-.6-1.9-1.5-1.5-7.2-4.3-12.5-8.5-15.9-.8-.7-1-1.9-.3-2.7.7-.8 1.9-1 2.7-.3 5 4.1 8.2 10 9.9 18.1.2 1-.5 2.1-1.5 2.3-.1-.1-.3 0-.4 0zM1057.2 339.2h-.3c-1.1-.2-1.8-1.1-1.7-2.2.3-2 .8-4 1.4-5.9.8-2.8 1.5-5.5 1.4-8.1-.1-3-1.3-5.8-2.6-8.8-.8-2-1.7-4-2.2-6.2-2-7.5-.1-15.9 4.9-21.9.7-.8 1.9-.9 2.7-.2.8.7.9 1.9.2 2.7-4.2 5-5.8 12.1-4.1 18.4.5 1.9 1.3 3.7 2.1 5.7 1.3 3.2 2.7 6.5 2.9 10.1.1 3.3-.7 6.3-1.5 9.3-.5 1.9-1 3.6-1.3 5.4-.1 1-.9 1.7-1.9 1.7z"/><path class="st3" d="M1206.4 825.1c-12.8 8-27.7 12.6-42.8 13.2-1 0-2.1.1-3.1.3 3-4.3 5.6-9 7.6-13.8l38.3.3zM1290.1 838.7c-13.9 10-37.1 18-49.2 14.7-1.2-.3-2.5 0-3.7.3 3.2-3.9 6-8.2 8.3-12.6l44.5-2.6.1.2z"/><path class="st15" d="M1377.3 683.2l-89.7 15.5 6.6 139.6-59.3 3.5-8-146.9c-.9.3-7.7 2.3-10.2 2.9l-4.1 127.4-60.6-.5 3.3-138.5.8-33.5c0-17.2 16.8-27.1 31.1-31l80.7-12.9 3-.5 11.9-1.9 2.9-.5 11.9-1.9 3-.5 37-5.9c1.2 5.6 2.7 11 4.5 16.5.3.9.7 1.9 1.5 2.6.7.5 1.5.6 2.3.7 7.6.9 15.2 1.9 22.7 2.8 1.8.2 3.7.5 5.2 1.6 2.1 1.7 2.6 4.7 2.8 7.5 1.5 17.9 1.7 35.9.7 53.9z"/><path class="st16" d="M1166.9 631.7v192.9h-3v-190.2c.9-.9 1.9-1.8 3-2.7zM1181.7 623.4v201.2h-2.9v-200l2.9-1.2zM1196.6 620.2v204.5h-3v-204l3-.5zM1211.5 617.8v206.9h-3v-206.4l3-.5zM1226.3 615.4v71.2l-2.9.3v-71l2.9-.5zM1241.2 613v227h-3v-226.5l3-.5zM1256 610.6v229.4h-2.9v-228.9l2.9-.5zM1270.9 608.3v231.7h-3v-231.3l3-.4zM1285.8 605.9v234.1h-3v-233.6l3-.5zM1300.6 602.5v93.9l-3 .5v-94.4h3zM1315.5 626.3v67.6l-3 .5v-67.2l3-.9zM1328.5 639.9v51.7l-3 .5v-53.5c.8.5 1.8.9 2.7 1.3h.3zM1343.3 643.3v45.7l-2.9.5v-46.9l2.9.7zM1358.2 648.7v37.8l-3 .5v-40.6c1.1.7 2.1 1.4 3 2.3zM1373.1 661v22.9l-2.9.5v-24.3c.8.5 1.9.7 2.9.9z"/><path class="st1" d="M1371.2 614.6l2.1 1.4v3.4c-.9-.6-1.8-1.2-2.8-1.6-2.3-1.1-4.9-1.8-7.5-1.9h-16.7l-16.1-57.8s17-89.9 19-98.8c.8-3.6-4.9-4.9-5.7-1.3-2 9-5.4 26.1-9 45.3l-36.7-23 27.4-50.3 2.1-3.9c.7-.7 1.5-1.4 2.4-1.9 7.1-5 20-8.2 37.4-9.2 0 0 6.7-.3 7.9-.3-.3 2.4-1.7 6-1.1 9.4.4 2.3 1.7 4.3 3.5 5.8 4.9 4.6 15.2 9 28.2 9 4.8 0 17.5-1.2 25.4-10.4l3.9-4.8c.4-.5 3.5-6.6 3.7-6.6l6.7 1.3c.8.2 11.7 3.8 12.4 4.2 9.7 5 21.7 11.8 29.6 26.2 5.8 10.4 18.4 43.7 18.4 43.7l-53.8 15.5-12.5-25.2c-.7-1.4-2.4-2.1-3.9-1.3-1.4.7-2 2.5-1.3 3.9l17.9 36.3c.5 1 1.5 1.6 2.6 1.6.3 0 3.6-.8 3.6-.8l7.5 9.3c-12 1-40.2 4.2-56.5 12.6-5.5.4-17.3 5.9-20.3 7.8-3.6 2.4-12.6 7.2-17.4 7-1.9-.1-4.2.1-5.7 1.9-1.6 2-1.2 4.6-.7 7 .8 3.3 8.3 6.9 11 7.1 1.3.1 3.2.1 5 0-5.4 9-13.7 25.7-12.7 34.3.2 2 1.1 3.8 2.7 5.1zM1453.7 511.6l53.5-15.5 2.5 5.9-53.4 14.8-2.6-5.2z"/><path class="st12" d="M1370.9 363.7c.3 6.8-5 12.6-11.8 12.9-.7 0-1.3 0-1.9-.1-2.9-6.8-4.8-14.4-5.6-22.4 1.8-1.3 4-2.1 6.4-2.2 6.8-.4 12.6 4.9 12.9 11.8z"/><path class="st11" d="M1385.7 368.9c-3 0-6-.9-8.1-1.7-2.7-1-4.2-3.8-3.7-6.7l4.9-25.8c.3-1.6 1.8-2.6 3.4-2.3 1.6.3 2.6 1.8 2.3 3.4l-4.9 25.8c4.2 1.7 7.3 1.7 8.2 1 1.2-1 3.1-.9 4.1.3 1.1 1.2.9 3.1-.3 4.1-1.6 1.4-3.8 1.9-5.9 1.9zM1392.6 388c-1.3 0-2.7-.1-4-.4-4.9-1-10.7-4.2-11.6-8.7-.3-1.6.7-3.1 2.3-3.4 1.6-.3 3.1.7 3.4 2.3.2 1 2.8 3.3 7.1 4.2 2.2.5 7.7 1 11-3.7.9-1.3 2.7-1.6 4.1-.7 1.3.9 1.7 2.7.7 4.1-3 4.1-7.7 6.3-13 6.3zM1368.4 346.4c-1.6 0-2.8-1.2-2.9-2.8l-.2-4.5c-.1-1.6 1.2-3 2.8-3 1.6-.1 3 1.2 3 2.8l.2 4.5c.1 1.6-1.2 3-2.9 3zM1405.9 346.6c-1.6 0-2.8-1.2-2.9-2.8l-.2-4.5c-.1-1.6 1.2-3 2.8-3 1.6-.1 3 1.2 3 2.8l.2 4.5c.1 1.6-1.2 3-2.9 3z"/><path class="st12" d="M1426.8 364.3c.3 6.8-5 12.6-11.8 12.9-6.8.3-12.6-5-12.9-11.8-.3-6.8 5-12.6 11.8-12.9 6.8-.3 12.6 5 12.9 11.8z"/><path class="st17" d="M1352.6 314.6c0 .2-1.3 5.5-1.8 8.1-1.2 6.6-2.5 13.2-2.5 19.8-4.5-2.4-8.3-6.8-6.2-24.1.5-4.1 2.4-13 2.5-13.2 2.1 3.5 4.8 6.8 8 9.4zM1486.8 327.1c-.6 12.5-2.3 23.4-11.2 32.9-4.6 4.9-9 7.5-12.3 8.9-1.4.6-5.2 1.9-6.4-2.8-.5-1.8-.7-5.8.5-7.4 2.6-3.4 5.4-7 6.6-11.2 1-3.5 2.1-7.2.3-10.8-1.5-3-4.5-4.8-7.7-5.7-4.6-1.3-9.5 1-13 3.9-1.4 1.2-2.5 4.2-4.7 3.3-2.6-1-3.2-5.3-2.6-7.5.9-3.7 2-7.4 3.2-10.9 1.2-3.8 2.4-7.7 3.3-11.8 2.2-1.3 4.3-2.8 6.2-4.3 2.9-2.4-.7-6.9-3.7-4.5-11.8 9.6-28 13.3-42.6 15.4-1.8.3-3.7.6-5.7.9-11.5 1.9-24.6 4-34.7-1.3-8.4-4.2-16.8-15.5-17-25.1 0-2.2.2-3.9.8-5.4 1.9-4.7 7.7-15.5 20.3-16.2 2.6-.2 6.4 1.6 7.7 2.3.8.5 1.8.5 2.7.1.1 0 9-4.2 23.8-7.6 9.8-2.3 20.7-1.5 28.2-.5 12.2 1.6 26.5 9.9 30.5 22.5.3 1.1 1.2 1.8 2.3 2 18.3 3.4 25.9 24.4 25.2 40.8z"/><path class="st11" d="M1446 353c-.2 0-.3 0-.5-.1-1-.3-1.7-1.3-1.4-2.3 1-4.2 6.4-7.3 7-7.7.9-.5 2.1-.2 2.7.7.6.9.2 2.1-.7 2.7-1.7 1-4.7 3.3-5.1 5.2-.4.9-1.2 1.5-2 1.5zM1382.2 292.8c-2.1 0-4-.3-5.6-.8-1-.3-1.6-1.4-1.3-2.4.3-1 1.4-1.6 2.4-1.3 3.2 1 7.6.8 13.1-.7 1-.3 2.1.3 2.4 1.4.3 1.1-.3 2.1-1.4 2.4-3.5 1-6.7 1.4-9.6 1.4zM1406.9 308.1c-.8 0-1.6-.6-1.9-1.4-.3-1 .3-2.1 1.3-2.4 8.4-2.4 16.5-6.1 22.6-9 1-.5 2.1-.1 2.6.9s.1 2.1-.9 2.6c-6.3 3-14.6 6.8-23.2 9.3h-.5zM1388.4 310.9c-6.3 0-12.5-1.1-18-3.1-2.6-1-14.3-7.6-16.7-13.3-.4-1 0-2.1 1-2.5s2.1 0 2.6 1c1.7 4 11.7 10.2 14.5 11.2 6.2 2.3 13.3 3.3 20.5 2.7 1.8-.1 3.5-.3 5.3-.6 1-.2 2.1.5 2.2 1.6.2 1.1-.6 2-1.6 2.2-1.8.3-3.7.5-5.6.7-1.5.1-2.8.1-4.2.1zM1413 333.8c-.4 0-.8-.1-1.2-.2-1.9-.8-7.5-2.9-10.9-2.5-1.6.1-3-1-3.2-2.6-.2-1.6 1-3 2.6-3.2 5.5-.5 12.9 2.7 13.8 3 1.5.6 2.2 2.4 1.5 3.8-.4 1-1.5 1.7-2.6 1.7zM1362.7 335.2c-1.1 0-2.2-.7-2.7-1.8-.7-1.5 0-3.2 1.5-3.8 1.1-.5 7-3 11.3-1.9 1.6.4 2.5 2 2.2 3.5-.4 1.6-2 2.5-3.5 2.2-1.7-.4-5.5.7-7.5 1.6-.5.1-.9.2-1.3.2z"/><path class="st3" d="M1301.9 491.2l-10.9 56.3c-1.1 5.5-.4 11.3 2 16.4l24.3 65c1.9 5.1 5.9 9.1 11.1 11l27.4 6.2 9.8 9.3c1.5 4.5 6.6 6.8 10.9 4.7l2.9-1.4c2.8-1.3 4.1-4.6 3-7.5l-3.4-18.4c-1.5-8.2-8.6-14.1-16.9-14.1h-18.1l-16.9-60.5 8.9-48.2-34.1-18.8z"/><path class="st0" d="M1625.6 607.6c0 23.6-14.1 44.6-35.9 53.4h-37.5c-1.6 0-2.9 1.3-2.9 2.9 0 1.6 1.3 2.9 2.9 2.9h35.2v258.6h-125.3v-258.6h78.1c1.6 0 2.9-1.3 2.9-2.9 0-1.6-1.3-2.9-2.9-2.9h-69c18-11.5 29.1-31.4 29.1-53.4 0-14.5-4.9-27.8-13.1-38.5l30.5-1.6c7.3-.9 13.6-5.5 16.6-12.2.8-1.8 1.4-3.6 1.6-5.4h31.9c4.7 0 9.4.6 13.9 1.7 2.1.5 4.2 1.2 6.2 1.9 22.6 8.4 37.7 30.1 37.7 54.1z"/><path class="st2" d="M1376.2 607.7v320.8h83v-264.5c22.4-8.9 38.2-30.8 38.2-56.3 0-33.5-27.1-60.6-60.6-60.6-33 0-59.8 26.3-60.6 59.1v1.5z"/><path class="st12" d="M1132.8 251.4c.3 7.1-5.2 13.2-12.3 13.5-.7 0-1.4 0-2-.1-3-7.2-5.1-15.1-5.8-23.5 1.9-1.3 4.2-2.2 6.7-2.3 7-.2 13.1 5.3 13.4 12.4z"/><path class="st11" d="M1148.8 254.4c-3 0-6.1-1-8.2-1.8-2.6-1-4.2-3.8-3.7-6.5l4.3-24.9c.3-1.6 1.8-2.6 3.4-2.4 1.6.3 2.7 1.8 2.4 3.4l-4.3 24.9c3.9 1.6 7.1 1.8 7.9 1.1 1.2-1 3.1-.9 4.1.3 1.1 1.2.9 3.1-.3 4.1-1.6 1.3-3.6 1.8-5.6 1.8zM1130.2 233.3c-1.6 0-2.8-1.2-2.9-2.8l-.2-4.7c-.1-1.6 1.2-3 2.8-3 1.6-.2 3 1.2 3 2.8l.2 4.7c.1 1.6-1.2 3-2.8 3h-.1zM1169.5 233.4c-1.6 0-2.8-1.2-2.9-2.8l-.2-4.7c-.1-1.6 1.2-3 2.8-3 1.5-.2 3 1.2 3 2.8l.2 4.7c.1 1.6-1.2 3-2.9 3z"/><path class="st12" d="M1191.4 252.1c.3 7.1-5.2 13.2-12.3 13.5-7.1.3-13.2-5.2-13.5-12.3-.3-7.1 5.2-13.2 12.3-13.5 7.1-.4 13.2 5.2 13.5 12.3z"/><path class="st11" d="M1176.9 219.7c-.4.1-8.4-3-12.6-2.7-1.6.1-3-1-3.2-2.6-.2-1.6 1-3 2.6-3.2 5.7-.5 13.5 2.8 14.3 3.1 3.3 1.5 1.5 5-1.1 5.4zM1124.3 221.5c-1.1 0-2.2-.7-2.7-1.8-.6-1.5 0-3.2 1.5-3.8 1.2-.5 7.3-3.1 11.7-2 1.6.4 2.5 2 2.2 3.5-.4 1.6-1.9 2.5-3.5 2.2-1.9-.5-8.8 1.9-9.2 1.9z"/><path class="st13" d="M1254 201.5c-1.9 1.8-4.6 3.2-9 6-3.1 2-6.2-.9-3-3 5.9-3.8 8.1-4.5 10-7 1.2-9.3.1-15.3-11-27.5-2.9-3.2-9-4.4-13.5-5-3.5-.3-13.3 2-13.5 2-3.4 0-3.7-3.7-.5-4.5 2.1-.5 4.1-1.2 5.5-1.5-.4-1.7-.5-5.2-1-7-2.5-9.1-11.2-9.6-21.5-9.6 0 0-3.7.1-5.5-.9-1.6-.9-3.5-4.5-3.5-4.5-3.7-5-10.5-7.7-17-8-4.9-.2-10.3 1.9-14 4.5-1 1.1-3.8 3.3-5 5-2.7 3.6-4.7 7.9-5 12.5-.3 3.7-4.3 4.2-4 .5.2-3.7 1.9-7 3.5-10.5 0 0-5.5-2.8-6-3-8.6-3.5-19.6-.9-25.5 5.5-6.3 6.9-8 19.2-3 26.5 1.4 1.9-.2 4-2.5 4-2.8 0-5.6 2.5-7.5 5-.9 1.2-1.8 4.1-1 7 1.5 5.8 6.8 12.3 12 12.5 11.6.4 26.9-4.9 35.5-13.5 1.5-1.5 3.9-2.5 4.5-.5 1.9 5.7 7.1 11.1 13 13 5.3 1.7 12.5 1.4 18.5-1 5.6-3.1 13.2-7.9 16-12 2.1-3.1 5.1-1.2 3 2l-1.5 2.5c-1.2 6.2-.5 15.5 1 18 7.2 11.8 15.3 10.6 17 10.5 1.4-1.3 2.8-2.3 4.5-3 3.1-1.4 7.5-1.6 11.5 1.5 2.2 1.8 5.8 5.2 4.5 13-.8 4.8-3.9 7.5-7 11-3.4 3.9-11.5 10.5-12 11-.3 8.6 7.8 20.3 8 20.5 3.5-.7 15.5-4.8 24-24.5 10-22.8 4.3-40.8 1-47.5zm-37 52.5c.1-2.4-1.8-3.8-3.5-2.5-5.4 14.1-14.8 21-29 21-7.9 0-16.7-2.1-27.5-6.5-4.4-1.8-10.4-3.4-15.5-3.5-5.3-.1-7.1 2-11 2-6.8 0-13.2-6.6-17-12-1.2 11-3 24.9-3 28.5 0 12.8 4.8 22.6 13.5 29.5 7.2 5.6 22 11 37.5 11 3.1 0 7.6 0 10.5-.5 31.1-4.8 49.7-15.2 52-48-3-5.4-7.2-14.4-7-19zm-21.2-57.5l.3.5v-.8c-.1.1-.2.3-.3.3z"/><path class="st12" d="M1148.1 279.8c-2.4 0-4.8-.5-6.7-1.3-4.1-1.7-6.8-4.7-6.7-7.7 0-1.1.9-1.9 1.9-1.9 1.1 0 1.9.9 1.9 2s1.6 2.9 4.3 4c4 1.7 9.8 1.8 14.3-2.9.7-.8 2-.8 2.8 0 .8.7.8 2 0 2.8-3.6 3.6-7.8 5-11.8 5z"/><path class="st11" d="M1171.6 173.9c-.2 0-.3 0-.5-.1-1-.3-1.6-1.4-1.3-2.4 1.8-6.4 6.8-11.7 13.1-13.9 6.3-2.2 13.5-1.1 18.9 2.8.9.6 1.1 1.8.4 2.7-.6.9-1.9 1-2.7.4-4.4-3.2-10.2-4-15.3-2.3-5.1 1.7-9.2 6.1-10.7 11.3-.3.9-1.1 1.5-1.9 1.5zM1216.8 240.4c-1.1 0-1.9-.9-1.9-1.9 0-1.1.8-1.9 1.9-1.9 1-.2 4.2-2.9 6.7-5.8.7-.8 1.9-.9 2.7-.2.8.7.9 1.9.2 2.7-2.4 2.6-6.7 7.1-9.6 7.1zM1012.3 469.2c-3.7 0-7.4-.3-11-1.3-2.4-.7-4.9-1.6-7.6-2.9-1-.5-1.4-1.6-.9-2.6s1.6-1.4 2.6-.9c2.5 1.2 4.7 2.1 6.9 2.6 7.4 2 15.7 1 23 .2 1-.2 2 .6 2.2 1.7.1 1.1-.6 2-1.7 2.2-4.3.5-8.9 1-13.5 1z"/><path class="st3" d="M867.7 586.7c-.2 4.9 6.7 7.6 12.3 8.9 12.4 2.8 25.3 4.9 38 3.3 6.7-.8 29.8-1.4 34.8-1.6s10.3-2.2 11.7-6.2c-7.3-5.8-10.7-14.9-14.3-22.8-15.6 3.6-34.6 3.8-50.5 6.4-11.6 1.8-22.7 6-32 12z"/><path class="st18" d="M458.4 831.5c3.3-.5 6.7-.7 10.1-.7 9.9-.1 19.8-1.1 29.4-3 1-.2 2.2.2 2.7 1.2 1.8 3.5 5.4 6 9.1 7.5 9.4 3.8 20.7 2.4 28.9-3.6 1.3-.9 5.3-4.6 6.8-4.8 1.1-.1 12.5 4.3 17.8 5.7-1.2 6.6-1.5 17.5-3.1 24-.5 1.9-3.2 11.9-4.8 16.1-.4 1-1.3 1.6-2.4 1.5-8.3-.9-93.3-17.3-109.3-21.6-1.5-.4-2.3-1.9-1.9-3.4l2.1-7.8c.6-2.2 1.2-4.4 2.6-6.1 2.8-3.6 8.1-4.4 12-5zM606.3 894.2c2.6-2.2 5.4-4.1 8.2-5.9 8.4-5.3 16.3-11.3 23.5-18 .8-.7 2-1 2.9-.4 3.4 2 7.7 2.3 11.7 1.6 10-1.7 18.9-8.8 22.8-18.2.6-1.4 22-3.1 22-3.1 2.5 7.9 7.3 7.4 9.3 13 .7 1.9 3.5 11.8 4.4 16.3.2 1.1-.3 2.1-1.3 2.5-7.6 3.6-88.5 34.1-104.4 38.8-1.5.4-3-.4-3.4-1.9l-2.3-7.8c-.6-2.1-1.3-4.4-1-6.6.5-4.4 4.6-7.8 7.6-10.3z"/><path class="st9" d="M1306 878.4c-.4 1.4-2 2.1-3.4 2.6l-11.7 4.4c-32.1 12.2-64.2 24.5-96.9 35-1.2.4-2.6.8-3.7.1-.4-.3-.7-.7-1-1.1-1.6-2.2-9.6-18.7-7.5-24.5 2.4-6.9 9.5-11 16-14.7 5.5-3.1 11-6.3 16.2-9.8l-2.4.9c-31.5 11.6-63 23.2-95 33.1-1.2.4-2.6.7-3.6 0-.4-.3-.7-.7-.9-1.1-5-7.3-9.9-16.4-6.8-24.7 2.5-6.8 9.5-10.8 15.8-14.3 11.7-6.4 23.3-13.4 33.3-22.2 1.4-1.2 2.8-2.6 4.6-3.2 1.5-.5 3.1-.5 4.6-.6 16.9-.6 33.5-6.3 47.3-16.2 5 13.1 15.2 39.6 15.2 39.7 1.9-1.4 3.7-2.9 5.5-4.6 1.4-1.2 2.8-2.6 4.6-3.3 1.5-.5 3.2-1.1 4.7-.7 12.1 3.4 35.6-4.8 49.5-14.9 4.7 11.2 14.2 34.9 15 36.7.5 1.2.9 2.3.6 3.4z"/><path class="st19" d="M810.4 938.5l-1.4-1.5h-16.7v-10.3h6.5l-1.5-1.5-1.4-1.5h-3.6v-3.6l-1.5-1.5-1.5-1.5v6.6h-10.3v-10.3h6.7l-1.5-1.5-1.4-1.5h-3.8v-3.8l-1.5-1.5-1.5-1.6v6.8h-10.3v-7.6h-3v7.6h-10.3v-7.6h-3v7.6h-10.3v-5.4h-3v5.4h-10.1v-10.3h-3v10.3h-10.3v-11.8h-3v11.8h-10.3v-10.3h-3v10.3h-10.3v-7.6h-1.5v4.3l-1.5.6v2.6h-13.2v13.3h-6.6l-.7 1.5-.7 1.5h8v10.3h-11l-.2 1.5-.1 1.5h11.3v3h3v-3h10.3v3h3v-3h10.3v3h3v-3h10.3v4.4h3v-4.4h10.2v4.4h3v-4.4h10.3v4.4h3v-4.4h10.3v4.4h3v-4.4h10.3v4.4h3v-4.4h10.1v4.4h3v-4.4h10.3v4.4h3v-4.4h19.6l-1.5-1.3zm-127.1-1.5h-10.3v-10.3h10.3v10.3zm0-13.2h-10.3v-10.3h10.3v10.3zm13.3 13.2h-10.3v-10.3h10.3v10.3zm0-13.2h-10.3v-10.3h10.3v10.3zm13.2 13.2h-10.3v-10.3h10.3v10.3zm0-13.2h-10.3v-10.3h10.3v10.3zm13.3 13.2h-10.3v-10.3h10.3v10.3zm0-13.2h-10.3v-10.3h10.3v10.3zm13.2 13.2h-10.3v-10.3h10.3v10.3zm0-13.2h-10.3v-10.3h10.3v10.3zm13.3 13.2h-10.3v-10.3h10.3v10.3zm0-13.2h-10.3v-10.3h10.3v10.3zm13.2 13.2h-10.3v-10.3h10.3v10.3zm0-13.2h-10.3v-10.3h10.3v10.3zm13.2 13.2h-10.3v-10.3h10.3v10.3zm0-13.2h-10.3v-10.3h10.3v10.3zm13.3 13.2h-10.3v-10.3h10.3v10.3z"/><path class="st3" d="M1526.6 559.5c-1.9 1.4-4.3 2.3-7 2.8-21.2 3.8-43.1 1.8-64.6 3.9-4.9.5-9.9 1.2-14.5 2.8-1.5.5-2.9 1.1-4.3 1.6-6.7 14.2-24.9 38.1-24.9 38.1-7 11.2-28.1 10.8-38.3 3.4-6.7-5.4 9.6-35.3 14.1-40.8 0 0-7.5.8-10.6.5-2.3-.2-8-3.5-8.3-4.9-1.1-4.3 0-5.4 3.5-5.3 6.3.3 16.9-6 19.1-7.5 3.1-2 15.3-7.5 19.4-7.3l2.3 1.2c1.2-.9 2.9-1.6 5.6-2 3.6-.5 6.6-2.8 10.1-3.7 13.9-3.6 28-6.9 42.1-9.8l-11.3-15.3c15.8-3 31.5-6.9 46.9-11.7 3.2-1 4.9.1 6.5 3.1 4.6 8.3 9.3 16.6 13.8 24.9 2.3 4.2 4.7 8.5 5.4 13.3.7 5.8-1.3 10.1-5 12.7z"/><path class="st9" d="M470.3 90.6h-32.6v164.6h32.6v-164.6z"/><path class="st6" d="M502.9 80.9h-32.6v174.3h32.6v-174.3z"/><path class="st13" d="M519.2 80.9h-16.3v174.3h16.3v-174.3z"/><path class="st1" d="M542 80.9h-22.8v174.3h22.8v-174.3z"/><path class="st8" d="M563.7 86.9l-19.1 8.2 68.9 160.1 19.1-8.2-68.9-160.1zM372.8 176.3l-84.8 21.9v-5.4l63.6-16.5h21.2zM386.5 183.8v5.5l-98.5 25.4v-5.5l98.5-25.4zM386.5 200.2v5.5l-98.5 25.5v-5.5l98.5-25.5zM386.5 216.7v5.5l-96.8 25c-.8-1.5-1.3-3.3-1.5-5l98.3-25.5zM386.5 233.2v5.5l-64.5 16.6h-19.3c-.5 0-1 0-1.5-.1l85.3-22zM349.2 910.8v-152.8h23.7v119.2c.1 16.6-10.1 30.4-23.7 33.6z"/><path class="st6" d="M343.4 748.1h-26.7v163.4h26.7v-163.4z"/><path class="st18" d="M310.9 748.1h-10.5v163.4h10.5v-163.4z"/><path class="st9" d="M225.3 906.8l52.3-160.1 16.2 5.3-52.4 160.1-16.1-5.3z"/><path class="st2" d="M250.4 754.6l-80.3 148.2 13.1 7.1 80.3-148.2-13.1-7.1z"/><path class="st9" d="M427.1 363.5h-421.9v276.4h421.9v-276.4z"/><path class="st20" d="M304.2 471.2v103.8c0 2.6-2.1 4.7-4.6 4.7h-68.3v117.8h48.5v12h-136v-12h48.5v-117.8h-68.4c-2.5 0-4.6-2.1-4.6-4.7v-103.8c0-2.6 2.1-4.7 4.6-4.7h175.8c2.5 0 4.5 2.1 4.5 4.7z"/><path class="st21" d="M419.9 751.9v134.7c0 23.6-16.9 42.7-37.9 42.7h-21.5c18.5-1.8 33-20.2 33-42.6v-134.8c0-23.6-16.1-42.7-35.9-42.7h24.4c20.9-.1 37.9 19.1 37.9 42.7z"/><path class="st22" d="M54.1 752.1v134.4c0 9.2 2.4 17.8 6.7 24.9h-6.6c-16.4 0-29.7-15.4-29.7-34.3v-117.3c0-18.9 13.3-34.3 29.7-34.3h7.6c-4.9 7.6-7.7 16.8-7.7 26.6z"/><path class="st13" d="M357.6 709.2h-318.1c-19.8 0-35.9 19.1-35.9 42.7v134.8c0 23.6 16.1 42.7 35.9 42.7h318.1c19.8 0 35.9-19.1 35.9-42.7v-134.8c0-23.6-16.1-42.7-35.9-42.7zm18.3 168.6c0 20.5-14.6 37.2-32.6 37.2h-289.2c-18 0-32.6-16.7-32.6-37.2v-117.3c0-20.5 14.6-37.2 32.6-37.2h289.2c18 0 32.6 16.7 32.6 37.2v117.3z"/><path class="st11" d="M671.1 252.3h-43.4l6.1-2.6c1.5-.7 2.2-2.4 1.5-3.8l-68.9-160.1c-.3-.7-.9-1.3-1.6-1.5-.7-.3-1.5-.3-2.2 0l-17.6 7.5v-10.9c0-1.6-1.3-2.9-2.9-2.9h-71.7c-1.6 0-2.9 1.3-2.9 2.9v6.8h-29.7c-1.6 0-2.9 1.3-2.9 2.9v161.7h-50c2.8-3.2 4.6-7.4 4.6-12v-64c0-1.6-1.3-2.9-2.9-2.9h-27.8c7.1-8.5 14.7-21.8 22.7-39.8 18.3-41.5 25.3-102.3 25.3-102.9.2-1.3-.5-2.5-1.7-3s-2.5-.2-3.3.7c-.3.3-23.4 26.6-42.4 57.2-.8 1.4-.4 3.2.9 4 1.3.8 3.2.4 4-.9 12.7-20.4 27.3-38.9 35.4-48.8-2.7 18.8-10 60.6-23.5 91.4-10.1 22.9-18.1 35-24.2 41.3l-.3.9-.5 1.2h-1.4c.4-.3.8-.7 1.3-1.2l.9-.9c3-8.3 4.9-20.6 5.7-36.7.5-10.9-.2-22.7-1.5-33.9-2.9-25.3-8.6-47.4-8.9-48.7-.3-1.2-1.4-2.1-2.7-2.2-1.4-.2-2.4.7-2.9 1.9-.3.8-3.8 10.5-7.7 24.3.6 1.7 1.1 3.4 1.7 5-.9 3.4-1.9 7-2.8 10.8-.5-1.8-1.1-3.7-1.7-5.5-3.6 14.3-7 31.2-7.8 46.6-.8 17.2 0 30.2 2.6 38.8.2.2.4.4.7.5.7.5 1.3.9 1.9 1.2h-1.9c-.2-.4-.3-.8-.4-1.2-.1-.2-.2-.3-.2-.5-5.8-5-14.1-19-21.8-56.2-7.5-36.2-5.4-82.8-4-102.8 7.3 14.2 21.7 43.8 31 73.6.9-3.6 1.9-7.1 2.8-10.3-13.3-38.7-33.1-74.4-33.3-74.9-.6-1.1-1.9-1.7-3.1-1.4-1.2.3-2.2 1.3-2.3 2.6-.1.7-6.6 66.4 3.3 114.5 5.6 27.3 12.4 45.8 20 55.5h-30.7c-1.6 0-2.9 1.3-2.9 2.9v64c0 4.6 1.8 8.8 4.6 12h-50.4c-1.6 0-2.9 1.3-2.9 2.9 0 1.6 1.3 2.9 2.9 2.9h431.8c1.6 0 2.9-1.3 2.9-2.9 0-1.8-1.3-3.1-2.9-3.1zm-342.2-118c.6-11.4 2.7-23.9 5.3-35.4.9-4 1.8-7.8 2.8-11.5 2.4-9.1 4.8-17.1 6.7-22.9 1.9 8.7 4.5 22.2 6.3 36.8.4 3.5.8 7 1 10.6.7 8 .9 16 .6 23.5-1 20.9-3.7 32-6.5 38h-13.1c-1.4-3.8-2.5-9.3-3-16.9-.4-6-.5-13.4-.1-22.2zm54.6 106c0 6.1-4.5 11.3-10.3 12-.5.1-1 .1-1.5.1h-69c-.5 0-1 0-1.5-.1-5.8-.7-10.3-5.8-10.3-12v-61h92.6v61zm83.9 12h-26.7v-158.8h26.7v158.8zm32.6 0h-26.8v-168.5h26.8v168.5zm16.3 0h-10.5v-168.5h10.5v168.5zm22.8 0h-16.9v-168.5h16.9v168.5zm5.8 0v-149l64.1 149h-64.1zm3.5-155.7l13.8-5.9 66.6 154.8-13.7 5.9-66.7-154.8z"/><path class="st15" d="M1083.4 954.4h-157.1s-1-8.5.6-17.4c-1-.3-110.5-29.9-110.5-29.9-14.6-4.1-24.4-6.6-24.4-6.6s6.3-41.9 33.5-29.9c17.8 7.8 61.5-1.3 61.5-1.3s.3.1.7.3c2.6 1.2 12 6.3 24.5 23.8 4.9 6.9 29 7.6 35.7-5.1l.2-1.3c1.6 1.4 2.8 3.5 3.6 6.8 1.8 7.6 1.4 15.8 0 23.2 19.5 2.3 58.2-17.4 58.2-17.4l.7.1c2.7.4 13.2 2.8 30 16.6 6.6 5.4 29.9-.3 33.1-14.2l-.1-1.4c1.9.9 3.6 2.6 5.3 5.6 10.5 19.3 4.5 48.1 4.5 48.1z"/><path class="st3" d="M950.7 872.5l-2.8 15.7c-6.7 12.6-30.7 12-35.7 5.1-14.7-20.5-25.1-24.1-25.3-24.1l7.4-11.7 56.4 15z"/><path class="st11" d="M1646.4 925.5h-53.2v-259.6c23.3-10.1 38.2-32.8 38.2-58.3 0-26.4-16.6-50.4-41.4-59.6-1.5-.5-3-1.1-4.5-1.5l11.5-75.6c1.8-11.8-1.6-23.7-9.4-32.7-7.7-9-19-14.2-30.9-14.2h-41.7c0 .1 0 .1-.1.2-1.2-.1.1-.2.1-.2.2-.3 4-6.9-2.3-12.3l-8.2-7.3c-9.4-8.4-22.6-12-35-9.5l-25.1 5-4.9-.8c.5-.3.9-.7 1.3-1 7.3-6 13.6-13.4 18.4-21.5l.5-.7c3.5-.5 11.7-2.8 20.2-12 4.9-5.2 8.7-11.2 10.5-18.1 1.7-6.1 2-12.5 2.3-18.9.2-4.8.1-9.4-1-14.1-2.1-9-6.4-18.1-13.4-24.1-8.4-7.2-13.9-7.8-13.9-7.8-5.3-14-21.2-23-34.7-24.9-7.9-1.1-19.6-1.9-30.3.6-12.2 2.8-20.5 6.1-23.6 7.4-2.1-1-6-2.6-9.6-2.4-16 .8-23.1 14.2-25.4 19.8-.9 2.2-1.3 4.7-1.2 7.7.1 2.8.6 5.7 1.5 8.5-.2.7-2.1 5.8-2.3 6.7-1.1 4.5-1.9 9-2.4 13.3-2.4 20.6 2.6 27.1 12 31.2 0 0 .5 3.5.5 4.4 0 2.6.4 5.1.9 7.7 1.5 8.3 4.3 16.3 8.5 23.7l-33.7-5.9 1.3-2c.9-1.3.5-3.1-.8-4l-63.1-44.6c-12-10.5-31.2-14.5-51.1-16.3 9.4-7.2 15.6-17.8 17.6-33.6 2.4-.1 17.7-1.7 28.9-27.5 12.5-28.8 2.1-48.9-.7-53.6 1.4-10.8.4-16.6-11.8-30-5.5-6.1-16.2-7.2-20.8-7.3-.2-.7-.2-1.5-.3-2.3-.2-1.2-.4-2.5-.7-3.7-3.9-14-17.5-14.2-26.6-14.3 0 0-2.7 0-3.2-.2-.4-.3-1.8-2.2-1.8-2.2-4.7-6.3-12.1-10.3-20.4-10.7-8.1-.4-15.8 2.6-21 8.3l-2.8 2.8-5.3-1.9c-10.9-4.4-23.4-1.8-31 6.5-7.2 7.8-9 20.2-4.9 29.6-3 1-5.8 3-7.7 5.6-2.6 3.5-3.6 7.5-2.6 11.4 2.1 7.9 8.6 16.1 16.8 16.4 0 0-2.2 13.4-2.5 15.3-.9 7-1 14.1-.3 20.9 0 .6-.4 2.6-.5 3.2-1.7 12.2-3.2 31.7-3.2 36.5 0 11.6 3 20.6 9.4 27.8-4.4.9-8.3 2.5-13.3 5.4.4-1.2.9-2.5 1.5-3.8 3-7.6 6.8-17-3.6-27.7-6.2-6.3-4.2-10.8-1.1-18.3 5.4-12.6 12.8-29.8-22.7-62.2-19.2-17.5-42.4-20.1-54.6-20.1-15.2 0-28.6 4-34 10.2-4 .6-16.7 3-26.6 10.8-11.1 8.8-18.3 23.5-19.6 40.4-.1 1.5.9 2.8 2.3 3.1-1.1 2.3-1.9 4.9-1.9 7.8-.1 4.1 1.4 7.8 2.7 11.4 1.5 3.9 2.9 7.5 2 10.9-1.8 6.9-9.3 10.5-10.4 17.8-.7 4.6 2.6 10.5.6 14.8-.9 1.9-2.8 3.3-4.2 4.8-5.3 5.6-7.8 13.4-6.8 21 .2 1.4 1.3 2.4 2.6 2.5l11 .8h.2c3.6 0 3.8-5.5.2-5.8l-8.4-.6c0-5 1.9-10.2 5.4-13.9 1.9-2 4.2-3.8 5.3-6.4 2.4-5.5-1-10.8-.2-16.3 1.1-6.7 8.7-10.6 10.4-17.3 1.3-5.1-.5-9.8-2.3-14.4-1.2-3.2-2.4-6.3-2.3-9.3 0-2.3.8-4.6 2.3-7.2l14.3 1.5c-5.1 9.6-8.4 20.5-9.1 31.9-.5 7-.1 14 1.1 20.7 2 11.9 6.4 23.7 13.7 33.5 0 0-16.9-1.3-17-1.3-3.7-.3-4.2 5.5-.5 5.8l22.8 1.8c4.3 4.4 7 6.7 14.5 10.2-7.3 1.9-22.5 5.8-26.2 6.7-12.1 3.1-24.2 7.5-27.1 23-.5 2.6-1.2 6.2-2.1 10.3l-45.3 8-25.1-5c-12.4-2.5-25.6 1.1-35 9.5l-8.2 7.3c-1.5 1.4-2.6 3.1-3.1 5-.8-3.5-1.7-7.5-2.4-11.2 7.6-5.8 14.4-13 19.5-20.7 11.8-8 20.8-17.8 26.5-28.5l36.8-.1c1.4 0 2.6-.9 2.8-2.3 1.9-8.6 3.6-18.5-1.8-26.1-2-2.8-5.3-5-6.5-8.3-1-2.9.4-6.1 2-9.7 1.4-3.2 2.8-6.5 2.9-10.2.2-6.1-3.5-12-11-18-4.5-3.5-10-7.1-12.2-12.6-1.5-3.7-1.4-7.8-3-11.5-3.5-8-12.2-11.6-19.1-12.2-7-.7-13.9.9-19.3 4.6-4.3 2.9-8.6 9.3-10.7 15.3-8.8-2.1-18.7-2.2-29.2-.3-20.2 3.5-30.3 13.1-34.6 17.2l-1.2 1.2c-8 2.8-18 10.5-21.8 20-2.1 5.3-2 10.6.5 15.3 0 0-3 7-2.4 29.7.2 5.8.8 11.5 1.8 17 1 5.9 2.4 11.5 4.1 16.7 5.8 17.3 15.3 29 27.3 34.1l-.8 4.6c-4.1.2-8.8 1.4-13.7 3.4h-39.2c-20.3 0-37.3 14.6-40.4 34.7l-7.3 48.2-67.2 14.8c-5.2-.1-11-.3-11.8-.4-15.3-2.5-31.6 0-45.4 6.9-4.3 2.2-12.5 6.3-12 13.7.1 1.7 1.4 3 3.4 4.1-26.2 7.8-45.4 32.1-45.4 60.9 0 25.5 15 48.1 38.2 58.2v133.7l-6.1 22.4c-4.5 2.8-9.4 5-14.6 6.6 0 0 0-.1-.1-.1-1-2-3.5-3.2-5.8-2.7-9.5 1.9-19.2 2.9-28.9 3-4.1 0-7.4.3-10.6.7-4.3.7-10.2 1.6-13.7 5.9-1.8 2.3-2.5 5-3.1 7.2l-2.1 7.8c-.8 3 1 6.2 4 6.9 10.7 2.9 50.8 10.9 79.6 16.4v53h-120.5c11.7-8 19.6-22.5 19.6-39v-134.7c0-25.2-18.3-45.7-40.8-45.7h-99.4v-8.8c0-1.6-1.3-2.9-2.9-2.9h-45.5v-51.8h192.8c1.6 0 2.9-1.3 2.9-2.9v-276.2c0-1.6-1.3-2.9-2.9-2.9h-421.9c-1.6 0-2.9 1.3-2.9 2.9v276.4c0 1.6 1.3 2.9 2.9 2.9h184.2v51.8h-45.6c-1.6 0-2.9 1.3-2.9 2.9v8.8h-101.3c-21.4 0-38.8 20.5-38.8 45.7v134.8c0 16.4 7.4 30.8 18.5 38.8h-15.5c-1.6 0-2.9 1.3-2.9 2.9 0 1.6 1.3 2.9 2.9 2.9h655.2c-1 3.6-1.5 11.2-1.5 11.2 0 .8.3 1.6.8 2.1s1.3.8 2.1.8l47-.1c.5.9 1.5 1.6 2.6 1.6h126.2c1.6 0 2.9-1.3 2.9-2.9s-1.3-2.9-2.9-2.9h-14c3.3-2.1 5.6-5.4 5.9-9.7h65.6l29.8 7.6.4.1c-1.1 8.1-.3 15.2-.2 15.7.2 1.5 1.5 2.6 2.9 2.6h157.1c1.4 0 2.5-1 2.8-2.3.2-.7 2.3-11.1 1.6-23.6h558.5c1.6 0 2.9-1.3 2.9-2.9-.1-1.8-1.4-3.1-3-3.1zm-1415.1-348.8c-1.6 0-2.9 1.3-2.9 2.9v114.9h-33.2v-112h16.6c1.6 0 2.9-1.3 2.9-2.9 0-1.6-1.3-2.9-2.9-2.9h-87.9c-.9 0-1.7-.8-1.7-1.8v-103.7c0-1 .8-1.8 1.7-1.8h175.8c1 0 1.7.8 1.7 1.8v103.7c0 1-.7 1.8-1.7 1.8h-68.4zm-223.2 60.2v-270.5h399.8v49.5c0 1.6 1.3 2.9 2.9 2.9 1.6 0 2.9-1.3 2.9-2.9v-49.5h10.5v270.6h-10.5v-209.5c0-1.6-1.3-2.9-2.9-2.9-1.6 0-2.9 1.3-2.9 2.9v209.5h-173.7v-54.4h65.4c4.2 0 7.5-3.4 7.5-7.6v-103.8c0-4.2-3.4-7.6-7.5-7.6h-175.8c-4.1 0-7.5 3.4-7.5 7.6v103.7c0 4.2 3.4 7.6 7.5 7.6h65.5v54.4h-181.2zm138.5 63.4h130.2v5.9h-130.2v-5.9zm210.9 226.2h-318c-2.5 0-5-.3-7.4-1-14.6-4-25.6-19.9-25.6-38.8v-134.8c0-21.9 14.8-39.8 33-39.8h318.1c18.2 0 33 17.9 33 39.8v134.8c0 18.9-11 34.8-25.6 38.8-2.4.7-4.9 1-7.5 1zm24.5-.2h-5.3c5.7-3.8 10.3-9.2 13.5-15.1 3.9-7.1 6.1-15.5 6.1-24.6v-134.8c0-17.1-8-32.1-19.9-39.9h5.5c19.3 0 35 17.9 35 39.8v134.7c0 19.2-11.9 35.2-27.8 39-2.3.6-4.7.9-7.1.9zm1174.7-496.4c10.2 0 19.8 4.4 26.5 12.2 6.6 7.8 9.6 18 8 28.1l-11.5 75.1c-3.9-.8-7.9-1.2-11.9-1.2h-27.3l11.2-73.1c1.8-11.8-1.6-23.7-9.4-32.7-2.9-3.4-6.3-6.2-9.9-8.4h24.3zm-18.8 12.2c6.7 7.8 9.6 18 8 28.1l-10.6 69.7c-.6-1.8-1.4-3.5-2.4-5.1l-18.4-28.1c.8-.2 1.4-.8 1.8-1.6.3-.7.4-1.6 0-2.4 0 0-19.1-49.4-24.1-57-4.9-7.5-9.6-11.8-14.5-16l33.7.2c10.2 0 19.8 4.4 26.5 12.2zm-172.7 125.7c.8 3.3 8.3 6.9 11 7.1 1.3.1 3.2.1 5 0-5.4 9-13.7 25.7-12.7 34.3.2 2.4 1.1 4.2 2.7 5.4l2.1 1.4v3.4c-.9-.6-1.8-1.2-2.8-1.6-2.3-1.1-4.9-1.8-7.5-1.9h-16.7l-16.1-57.8s17-89.9 19-98.8c.8-3.6-4.9-4.9-5.7-1.3-2 9-5.4 26.1-9 45.3l-36.7-23 27.4-50.3 2.1-3.9c.7-.7 1.5-1.4 2.4-1.9 7.1-5 20-8.2 37.4-9.2-1.1 2.8-1.4 5.9-.9 9.1.3 2 .9 3.9 1.9 5.8 0 .1 0 .1.1.2 3 5.8 11.5 15.8 34.8 17.1 10.3.7 21.1-1.3 29.4-7.7 1.9-1.5-.4-4.7-2.4-3.1-6.8 5.2-15.8 7.5-26.9 6.9-19.2-1.1-27.3-8.3-30.6-13.4-1.2-1.7-2.1-3.8-2.5-5.8-.7-3.3-.3-6.7 1.2-9.2 0 0 0-.1.1-.1 1.1-.1 2.3-.1 3.5-.1-.3 2.4-1.7 6-1.1 9.4.4 2.3 1.7 4.3 3.5 5.8 4.9 4.6 15.2 9 28.2 9 4.8 0 17.5-1.2 25.4-10.4l3.9-4.8c.4-.5 3.5-6.6 3.7-6.6l2.9.5c.4.1-2.6 7.7-2.9 8.3-1.1 2.2 2.3 4 3.5 1.8.3-.6 3.6-8.5 3.3-9.4.8.2 11.7 3.8 12.4 4.2 9.7 5 21.7 11.8 29.6 26.2 5.8 10.4 18.4 43.7 18.4 43.7l-53.8 15.5-12.5-25.2c-.7-1.4-2.4-2.1-3.9-1.3-1.4.7-2 2.5-1.3 3.9l17.9 36.3c.5 1 1.5 1.6 2.6 1.6.3 0 3.6-.8 3.6-.8l7.5 9.3c-12 1-40.2 4.2-56.5 12.6-5.5.4-17.3 5.9-20.3 7.8-3.6 2.4-12.6 7.2-17.4 7-1.9-.1-4.2.1-5.7 1.9s-1.1 4.4-.6 6.8zm-117.7 289.2c11.8 0 29.1-5.9 41.7-14.1 3.2 7.8 7.7 18.8 10.6 26.1 0 0-25.7 9.3-25.8 9.4-1.9.7-1.2 4.5 1.3 3.7l25.9-9.4c.8 2 1.9 4.7 2 4.8-.1.1-83.6 31.6-111.4 40.6-.1-.1-1.6-2.6-2.5-4.7 0 0 69.3-25.2 69.6-25.3 2.3-.9 1-4.4-1.4-3.7l-69.8 25.3c-2.1-5.2-4-11.3-3.2-13.8 2.1-6 8.8-9.8 14.7-13.1 4.6-2.6 9.4-5.4 14.3-8.5 1.4 1.5 4.7 7.1 5.1 7.7 1.4 2.1 4.7-.1 3.2-2.2-.3-.5-3.5-5.9-5-7.7 1.8-1.2 3.5-2.4 5.2-3.7 1.5 1.4 5 7.4 5.4 8 1.4 2 4.6-.1 3.2-2.2-.3-.5-3.8-6.3-5.4-8.1 1.9-1.4 3.7-2.9 5.5-4.4 1.5 1.4 5 7.3 5.4 7.9.6.9 1.8 1.1 2.7.5.9-.6 1.1-1.8.5-2.7-.4-.5-3.8-6.4-5.6-8.2 1.2-1.1 2.3-2 3.4-2.4 1.8-.7 2.8-.6 4.6-.2 2 .3 3.9.4 5.8.4zm-4.5-6.1c1.6-2.3 3-4.6 4.3-7l31.7-1.9c-10.6 5.5-22.8 9.2-31.6 9.2-1.6 0-3.1-.1-4.4-.3zm-29.8 5.2c-.3-.9-1.2-1.6-2.4-1.2l-101.3 38.2c-2.1-4.5-3.2-9.2-1.6-13.5 2.2-6 9-9.8 14.5-12.8 4.1-2.3 8.4-4.7 12.8-7.3 1.8.9 3.9 4.5 5.1 6.5.5.9 1 1.7 1.4 2.3 1.4 2.1 4.7-.1 3.2-2.2-.3-.5-.8-1.2-1.2-2-1.3-2.3-2.9-5-5-6.8l5.1-3.4c1.9.7 4.1 4.6 5.3 6.7.5.9 1 1.6 1.4 2.2 1.4 2 4.7-.1 3.2-2.2-.3-.5-.8-1.2-1.2-2-1.4-2.4-3.1-5.3-5.3-7.1 1.9-1.4 3.7-2.8 5.5-4.2 1.8.9 3.9 4.5 5.1 6.5.5.9 1 1.7 1.4 2.3 1.4 2.1 4.5-.1 3.2-2.2-.3-.5-.7-1.2-1.2-2-1.4-2.4-3.2-5.4-5.4-7.2.2-.2.4-.3.7-.5 1.2-1 2.3-2 3.5-2.4.9-.3 2.1-.4 3.7-.5 16.1-.6 32.2-5.8 45.8-14.6l13.1 34.2c-3.2 2.4-12 7.7-12 7.7-30.9 11.4-95.7 33.3-96 33.3-.1-.1-.1-.2-.2-.2-1.1-1.6-2.2-3.3-3.2-5.1 0 0 100.4-37.9 100.8-38.1 1.3-.4 1.6-1.5 1.2-2.4zm-47.2-20.8c1.7-2.8 3.2-5.6 4.4-8.6l29.7-1.3c-10.5 5.6-22.2 9-34.1 9.9zm69.2 16c-2.2.8-3.9 2.3-5.6 3.8-.7.7-1.5 1.3-2.3 1.9l-12.4-32.4c1.1-.3 1.9-1.4 2-2.7l.8-39.3h10.9l3.3 59.2c.1 1.6 3.1 2.8 3.1 2.8l5.4-.3c-1.5 2.4-5.1 7-5.2 7zm-10-132.7h-6l.6-28.6 3.8-.3v.2l1.6 28.7zm.3 5.9l2.9 52.4h-10.4l1.2-52.4h6.3zm-2-55.5c-.5 2.9-.7 6-.5 9.1l.3 5.8s-3.5.2-3.6.1c-.7-6.7-3.2-15.4-6.3-19.5-2.3-3-6.9.6-4.6 3.6 2.2 2.8 4.4 9.9 5.1 15.8.2 1.9-.3 26.5-.3 26.5l-2.4 108.6-56.2 2.5 4.1-168.9c0-6 2.3-11.5 7-16.2 4.6-4.7 10.6-7.9 16.7-10.3 1.8-.7 3.6-1.2 4.9-1.6l117.8-18.8 6.9 18.5s-63.1 18.9-71.9 20.4c-.1 0-4.7 2-6.4 3.7-5.5 5.5-9.3 12.8-10.6 20.7zm-142.5 13.3c-1.3-7.8-3.4-17.8-7.4-27.3-1.4-3.4-6.8-1.3-5.4 2.2 8.8 21.4 9.1 45.4 11.3 68.3l2.2 23c.3 3.7 6.2 3.2 5.8-.5l-2.2-23.5h66.1l-1.2 52.4h-62.8l-.4-4.4c-.3-3.7-6.2-3.2-5.8.5l8 88.9-17.9 1.8-18.1-215c-.2-1.5.9-2.8 2.3-2.9l102.5-8.9c-3.3 4.8-4.9 10.1-4.9 15.8l-.7 30.6c.1-.1-66.6.3-71.4-1zm71.3 6.7l-.7 29.6h-66.9l-3-30.5c0-.2.1 0 .1 0l70.5.9zm-62.7 176.7l1.2 13.6-18.1 1.6-1.1-13.3 18-1.9zm-133.7 26.9c-.7-3-2.1-6.1-4.4-8.2.5-2.9.9-6.1 1.7-9 1.4 0 2.7-.6 3.2-2l30.4-90.7h9.4s6.3 104.8 6.4 105.8c.3 4.2 1.9 4.8 6.4 3.8l-1.6 5.2c-5.8 2.8-33.5 16-50.9 16.7.9-7 1.1-14.5-.6-21.6zm-76.9-43l90.7-234.1c2.6-7.5 15.7-16.1 24.1-17.2l30.9-4.9h.1c16.8-1.8 52.4-8.4 53-8.4 0 0 23.2-.1 39.1.7h.2c3 .2 6.1.3 9.4.6h.2l-115 26.1c-16.7 3.3-24.3 26.1-23.4 41.2l5.4 89.8-37.1 110.9-63.9-15.8c-1.1-.3-2.1.4-2.3 1.4-.3 1 .3 2.1 1.4 2.3l63.6 15.7-3.7 11-72.7-19.3zm68.5 24.3l-2.4 13.4c-3.4 5.9-11.6 8-18.3 8-6.3 0-11-1.8-12.2-3.7-10.2-14.3-18.7-20.9-23.5-23.6l4.9-7.9 51.5 13.8zm-167.5-97.1l-.2 5.8-1.3 33.7h-41.5l6.6-170c-.8-12.9 12.5-30 25.6-32.6l97.2-22.2c2.6 6 16.8 7.7 18.9 8.1l-70.2 14.7c-16 3.2-31.2 22.7-30.2 38.3l-4.9 124.2zm.4 47.5l-4.3 70.9c-.3 1.3-.9 2.8-1.6 4.4h-21.2c-5 0-9.8.7-14.2 2.1 1.1-2 1.9-4 2.3-5.9l3.3-73.6h33.7c.2.5.4.9.7 1.3.3.4.8.7 1.3.8zm-81.1 47.5c-.3-1-1.5-1.5-2.5-1.2l-92.7 33.3c.5-2.2 4.9-7.7 14.4-13.6 10.1-6.3 16.5-11.4 23.7-18.1 3.6 2 8.4 3.2 13.3 1.8 16-4.5 22.7-12.3 24.3-21.5l17.1-2.1s8.6 10.7 9.4 13.3c.5 1.6 3.2 11 4.2 15.5-8.3 3.7-103 38.3-103.3 38.4 0 0-2.7-8.9-2.8-9.5l93.8-33.7c.9-.5 1.4-1.6 1.1-2.6zm122.4-301.1c5.6 2.3 10.8 5.3 15.6 9 3 2.3 6.5-2.3 3.6-4.6-5.3-4.1-11.1-7.4-17.3-9.9l-3.7-38.9 39.9-5.3s5 60.3 5 60.4c.2 1.9-4.2 5.6-5.9 6l-90.8 20.8c-17.9 3.2-27 22-26.9 21.2-2.5 1.4-39.8 13.4-53 17.1-2.1.6-6 1.6-8.5-.1-2.7-1.8-2.1-6.6-.7-9.6 4.2-8.7 22.1-18 37.4-24.2 1.9-.8 3.8-1.6 5.6-2.2 8.8-3.4 15.9-5.4 17.6-5.4.6.2 1.2.1 1.8-.2l80.3-34.1zm-3.5-55.5l49.9-5.9c.2 1.8.5 3.3.6 4.5l-49.9 6.6-.6-5.2zm-101.9 91c-6.5 2.6-13.4 5.7-19.8 9.1l-44.7 10.6 11.9-78 17.8-1.2c4.5-.2 8.7-1.8 12.3-4.4l30.9-22.5 1 1h.1c-4 34.5-8.3 74.8-9.5 85.4zm-70.6 21.1l-31.5 7.5v-29.9c-.5-21.4-12-40.4-28.9-51.5 1.4.2 2.8.3 4.3.3 4 0 7.8-1 11.3-2.9l57-2.9-12.2 79.4zm36.2-2.6c-3.8 3.1-6.7 6.3-8.2 9.5-2.6 5.4-2.7 12.3 1.5 16.1l-30.1 11c-2.5.9-4.4 2.3-5.9 4-6.7 7.7-9.9 18.1-8.8 28.6l-10 1.2c.9-6.7.7-16.5.6-17.8-.2-3.8-5.9-3.6-5.8.2.2 5.9.1 16.4-1.2 20.1 0 0-51.3 132.3-51.3 132.4l-37.3-10.1 40.8-150.6c3.4-12.7 12.3-19.8 26.6-23.4l89.1-21.2zm-50.7 74.9l9.8 76.8h-26.8v-62.9l4.8-12.4 12.2-1.5zm-17.1 82.7h27.6l8.9 69.9c-3.5 6.1-7.9 11.7-13.3 16.5-.5.5-1 1-1.6 1.4-6.4 5.7-21.3 15.9-21.6 16.1v-103.9zm41.7 72.6l18.9-2.4c-3.6 8.1-11.5 14.2-20.2 15.7-3 .5-5.8.3-8-.4 3.6-4 6.8-8.4 9.3-12.9zm41.7-142.3l38-9.5-2.9 73.3h-33.8l-1.3-63.8zm-.1-6c-.1-7-.6-11.2-3.5-16.3-.8-1.4-2.6-1.9-4-1.1-1.4.8-1.9 2.6-1 4 2.6 4.6 3 25.1 3 25.1l2.7 125.8-38.4 4.9-19.7-154.8c-1.2-9.3 1.5-18.4 7.3-25.1.8-1 2.1-1.8 3.5-2.3 0 0 87.7-28.4 91.8-30-1 3.3-1.5 6.6-1.3 9.8l-2 50.6-38.4 9.4zm177.3-120.6c7.8-4.1 16.4-7 25.4-8.4 5.9-.9 12.3-1.6 19-2.2.5 0 29.3-3.7 29.4-3.7 0 0 8.3 16.4 12.2 20-.1 0-.1.1-.2.2-1.7 1.4-4.6 2.4-7.8 2.6-1.1 0-3 .1-5.5.2-9 .3-24.1.8-29.5 1.4-2.8.3-5.8.5-8.8.5-10.2 0-20.4-2-28.2-3.8-3.1-.7-7.5-2.7-7.5-2.8-2.1-1.5.2-3.3 1.5-4zm-89.1 196.7l.2-5.8 4.9-124.3c-.8-12.9 12.6-30 25.6-32.6l86.1-17.9c2.1.2 4.2.2 6.4.2 3.3 0 6.5-.2 9.6-.6 5.1-.6 20.6-1.1 28.9-1.4 2.5-.1 4.5-.1 5.6-.2 3.9-.2 8.7-1.4 11.8-4.3.3.3.6.5.9.7.8.5 1.7.6 2.6.3 3.2-1.1 9.4-3.1 9.5-3.1 2.6.4 5.3.7 8.2.8-9.1 3.7-18.9 11.3-21.5 18.9l-8.7 22.4-114 11.9c-3.4.3-6 2.9-6.5 6.3 0 0-19 149.2-19.1 149.7-.3 2.5 3.5 2.9 3.9.5l19.1-149.6c.2-1.6 1.4-2.8 3-2.9l111.9-11.7-18.6 47.9-69.2-.8c-.2-2-.3-3.6-.4-5.1-.3-4.2-.5-7.2-3.3-15-1.2-3.5-6.8-1.6-5.5 2 2.5 7 3.9 16.8 3.6 19.3-.4 3-28.8 130.2-28.8 130.2h-47.6l1.4-35.8zm74.6-64.5l5.8-25.3 67.2.8-9.5 24.5h-63.5zm61.2 5.8l-20.4 52.8h-53.9l11.8-52.8h62.5zm-88 100.4h.7c1.4 0 2.6-1 2.9-2.3l8.8-39.4h52.9s-26.2 67.7-26.3 67.8c-.6 1.6.3 3.5 2 3.9l15.7 4.2-4.9 7.8c-6.1 1.2-22.7 4-37.4 4-8.8 0-20.4-3.2-20.7-3.3.1 0 6.2-42.4 6.3-42.7zm157.5-235.3c5.3-1.8 10.3-3.6 15.2-5.4 1.9-.7 3.7-1.3 5.5-2 29.9-11 51.8-20.4 62.1-28.5l-2.6 27v.2c-14.5 2.7-30.7 5.5-46.4 7.2h-.1c-11.8 1.2-23.3 1.9-33.7 1.5zm76.6 275l-60.2 6.1-13.1-216.9c-.8-13 5.9-32.6 18.8-35.1l132.8-30.2c2.8.3 5.7.6 8.7 1 13.6 1.8 27.2 3.9 40.9 4.4 23.3.9 47.9-1.9 69.6-11l1.9 4.9c1.9 5.7 3 11.8 3.5 18.3 0 0-54.7 8.7-83.9 13.4-8.9 1.4-18.4 7.3-24.6 13.6-.1.1-106.6 9.5-106.6 9.5-3.6.4-6.1 3.6-5.8 7.2l18 214.8zm.3 3.8l1.1 13.3-60.7 5.2-.7-12.4 60.3-6.1zm-72-91.1h-7.1l6-17.9 1.1 17.9zm14.5 125.6c1.5.3 5.6 1.2 12 4.7-9.3 5-29.4 14.7-33.7 15.7-5.2 1.2-10.8.4-15.3-2.2-1-.5-2.4-1.5-3.5-2.7 17.3-4.2 36.3-13.4 40.5-15.5zm3.3-5.2l1.7-5.5 54.1-4.7 1.3 14.7c-2.3 8.7-14.7 13.5-22.6 13.5-2.6 0-4.7-.5-5.7-1.4-14.1-11.5-23.9-15.3-28.8-16.6zm296.6-295.4l-14.6-39.1c-2.1-4.6-2.7-9.6-1.8-14.6l10.9-56.3v-.2l28.5 17.9c0 .2-8.9 48.7-8.9 49.4 0 .1 16.9 60.7 16.9 60.7.3 1.2 1.5 2.1 2.8 2.1h17.9c4.4 0 8.7 2.1 11.4 5.6v30.6c-.8.1-1.6-.1-2.3-.4-2.1-.9-2.1-2.8-3.6-4.2l-9.8-9.3c-.4-.4-.8-.6-1.4-.7l-27-6.1c-4.3-1.6-7.7-5-9.3-9.3l-9.7-26.1zm69.3-179s1.8-11 2.4-14.5l3.1 1.5c15.3 6.4 33.3 2.6 47.3-5.6.3 3.2.4 6.6 1.4 9.7-1.7 3.8-7.9 16-18.1 18.1-8.9 1.9-18.7 1.4-27.2-2.2-2.1-.8-9.5-3.8-8.9-7zm76.8 94l-2.6-5.3 53.5-15.4 2.5 5.9-53.4 14.8zm-11.4-111l25.6-5.2c10.7-2.1 21.9.9 30 8.2l8.3 7.3c3 2.7 1 7.8-3 7.8h-36.1c-.7-.5-1.4-.9-2.1-1.3-3.2-3.5-9.3-5.8-17-8.9-2.5-1-11.7-2.4-11.7-2.4-.3-2-.7-5.2-.9-6.5.1 0 6.6 1.1 6.9 1zm-98.8-122c1.9-4.7 7.7-15.5 20.3-16.2 2.6-.2 6.4 1.6 7.7 2.3.8.5 1.8.5 2.7.1.1 0 9-4.2 23.8-7.6 9.8-2.3 20.7-1.5 28.2-.5 12.2 1.6 26.5 9.9 30.5 22.5.3 1.1 1.2 1.8 2.3 2 18.3 3.3 25.9 24.3 25.1 40.7-.6 12.5-2.3 23.4-11.2 32.9-4.6 4.9-9 7.5-12.3 8.9-1.4.6-5.2 1.9-6.4-2.8-.5-1.8-.7-5.8.5-7.4 2.6-3.4 5.4-7 6.6-11.2 1-3.5 2.1-7.2.3-10.8-1.5-3-4.5-4.8-7.7-5.7-4.6-1.3-9.5 1-13 3.9-1.4 1.2-2.5 4.2-4.7 3.3-2.6-1-3.2-5.3-2.6-7.5.9-3.7 2-7.4 3.2-10.9 1.2-3.8 2.4-7.7 3.3-11.8 2.2-1.3 4.3-2.8 6.2-4.3 2.9-2.4-.7-6.9-3.7-4.5-11.8 9.6-28 13.3-42.6 15.4-1.8.3-3.7.6-5.7.9-11.5 1.9-24.6 4-34.7-1.3-8.4-4.2-16.8-15.5-17-25.1.1-2.1.4-3.8.9-5.3zm4.7 38.9c-1.2 6.6-2.5 13.2-2.5 19.8-4.5-2.4-8.3-6.8-6.2-24.1.5-4.1 2.4-13 2.5-13.2 2.1 3.5 4.8 6.7 8 9.4-.1.2-1.4 5.5-1.8 8.1zm6.5 45.4c-1.2-3.9-1.9-7.9-2.5-12-1.5-10.6-.4-21.6 1.7-32 .3-1.8.7-3.8 1.2-5.7.7.3 1.3.7 2 1.1 13.6 7.2 29.6 3.2 43.9 1 9.5-1.4 21.6-4 32.3-8.8 0 0-4.3 13.9-5.2 17.8-1.5 6.4 1.8 12 5.8 14 3.1 1.6 6.3 1 8.5-1.5 2-2.3 4.6-4.7 7.8-5.3 2.3-.4 5.7.4 6.5 3 .9 3.1-.5 6.4-2 9-1.4 2.5-4.7 5-5.4 7.8-.6 2.7-3.3 11.2 2.1 17.3 0 0-7.4 11.4-13.9 16.8-8.1 6.8-18.3 14.3-29.1 15.9-9.9 1.4-20.8.5-29.5-5-12-7.5-20.2-20-24.2-33.4zm5.1 23.4s5.3 6.7 8.5 9.3c.7.6 5.6 4.3 5.6 4.3l-.6 3.6c0 .2-13.8.6-15.1.7-5.2.5-10.3 1.2-15.4 2.3-4.7 1-9.3 2.3-13.6 4.4-2.1 1-4.1 2-6 3.3-3.6 2.5-3.8 4.6-4 4.6h-26.8l26-39.9 41.4 7.4zm-261.1-204c-.8-2.8.6-5.2 1.5-6.4 1.9-2.5 4.9-4.1 7.7-4.1 2.3 0 3.7-2.8 2.3-4.6-5.1-7.2-4.1-19.2 2.3-26.1 5.9-6.5 16.1-8.5 24.6-5 .5.2 4.9 1.7 4.9 1.7-1.6 3.5-2.7 7.3-2.9 11-.2 3.7 5.6 4.1 5.8.3.3-4.6 2.1-9.4 4.8-13 1.2-1.6 4-4.1 5-5.2 3.7-2.6 8.4-3.9 13.3-3.7 6.5.3 12.3 3.4 16 8.3 0 0 2.1 2.8 3.6 3.7 1.8 1 6 1 6 1 10.3.1 18.5.9 21 10 .3.9.4 1.9.5 3 .1.7.2 1.5.4 2.3-1.4.3-3.1.6-5.2 1.1-3.3.8-2.7 5.8.7 5.8.2 0 10.3-2 13.8-1.6 4.5.5 10.1 1.9 13 5.1 11.1 12.2 11.5 16.4 10.3 25.6-1.9 2.5-3.8 3.7-9.7 7.5-1.4.9-1.7 2.7-.8 4 .9 1.3 2.7 1.7 4.1.8 4.3-2.8 6.8-4.4 8.7-6.2 3.3 6.7 8.7 23.1-1.1 45.7-8.5 19.7-19 23.2-22.5 23.9-.2-.2-.3-.4-.5-.7-2.7-4.4-7.4-15.5-7-18.4.5-.5 8.3-6.6 11.7-10.5.7-.9 1.4-1.6 2.1-2.3 2.6-2.7 4.7-5 5.5-9.6 1.2-7.8-2.3-11.8-4.5-13.6-4-3.1-9.4-3.3-12.5-1.9-.8.3-1.5.7-2.2 1.2-.7.4-1.5 1-2.4 1.9-1.8.1-9.2 1.9-16.4-9.9-1.5-2.5-1.9-11.5-.8-17.8 0 0 1.1-1.7 1.5-2.2.9-1.4.5-3.2-.8-4.1-1.3-.9-3.2-.5-4 .8-2.8 4.2-9.9 8.9-15.5 12-6 2.5-12.2 2.9-17.5 1.2-5.9-1.9-10.9-6.6-12.8-12.4-.7-2-3.3-2.6-4.8-1.1-8.6 8.7-24 14.8-35.6 14.3-5.4.1-10.1-6-11.6-11.8zm97.5 25.3c7.2 12.4 15.8 12.1 16 12.1-.4 1-.7 2.1-.7 3.1 0 1.6 1.3 2.9 2.9 2.9s2.9-1.3 2.9-2.9c0-1.4 2.8-4.9 5.1-6.4 2.5-1.6 5.6-1.4 8 .4 2.1 1.6 2.9 4.3 2.3 8-.6 3.8-3.8 6.3-6.2 9-6.3 7.2-9.6 8.7-10.9 8.9-1.1.2-1.6-.7-2.5-1-.7-.3-1.5-.4-2.2-.4-2.5 0-4.6 1.4-5.5 3.9-4.5 11.8-12.1 17.3-23.9 17.3-7 0-15.6-2-25.7-6.1-4.4-1.8-10.5-4.2-16.8-4.2-3.2 0-6.3.7-8.9 1.9-6.1 3-13.2-6.7-16.6-12.6-.3-1.9-.5-3.7-.7-5.6-.7-6.4-.6-13 .2-19.6.7-5.9 1.7-11.3 2.8-16.3 10.7-1.1 22.5-6.1 30.8-13 3.2 5.6 8.6 10.1 14.8 12.1 5.9 1.9 12.7 1.7 19.3-.5.9-.3 1.8-.6 2.6-1 0 0 .1 0 .2-.1 2.2-1.3 6.1-3.5 9.8-6.4-.2 5.2.4 12 2.9 16.5zm-86.9 68.5c0-3.6.9-16.2 2.1-27.2 3.8 5.4 9.6 11.6 16.4 11.6 1.7 0 3.4-.4 5-1.2 1.9-.9 4-1.4 6.4-1.4 5.1 0 10.4 2.1 14.8 3.9 10.8 4.3 19.8 6.5 27.7 6.5 14.1 0 24-7.1 29.4-21.2.6-.2 1-.6 1.6-.2.8.4 1 1.5 1.1 2.3.1 4.6 3.7 13.2 6.8 18.7-2.3 32.8-21.4 42.4-52.5 47.2-2.9.5-5.9.7-9 .7-15.5 0-29.8-5.7-37-11.3-8.9-6.9-12.8-15.6-12.8-28.4zm78.9 40.5c-4.3 5.6-10 11.8-14.6 12.8-13 3-23.1.6-29.3-6.8-.8-1-1.5-2-2.1-3 5.5 1.3 11.2 2 16.8 2 3.4 0 6.7-.2 9.9-.7 6.9-1.1 13.4-2.4 19.3-4.3zm-70-7.7s4.3 3.1 6.8 4.4c3 1.6 6.3 3.1 9.8 4.2 1.1 3 2.8 6.1 5.1 8.8 3.9 4.6 11.2 10.1 23.6 10.1 4.3 0 9.1-.3 13.1-1.8 14.9-5.4 22-22.7 22-22.7.2 0 7.2.5 10.5.8-7.4 15.5-27.9 30.7-49.8 29.5-14.9-.9-27-10.3-31-24.2-.3-1-1.4-1.6-2.4-1.3-1.1.3-1.7 1.4-1.4 2.4 4.3 15.5 17.9 26.1 34.5 27 .9.1 1.8.1 2.6.1 20.3 0 39.2-12.8 48.3-27.1 1.1-1.8 3-5.7 3.1-5.9 17 2 32.7 5.8 42.6 14.5l61.1 43.2-31.2 48-37.2-1.2c-.9-5.2-1.3-21.3-1.1-35.1 0-1.6-1.2-3-2.9-3s-2.9 1.2-2.9 2.9c-.1 9.9-.2 32.6 1.8 38.6 0 0 .1 27.7 0 32.6-.1 11.8-.2 18.9 1.7 32.8.2 1.6 1.7 2.7 3.3 2.5 1.6-.2 2.7-1.7 2.5-3.3-1.9-13.5-1.8-20-1.7-31.9.1-4.9 0-30.2 0-30.2l66.8 1.2-27.2 49.9c-.7 1.4-.3 3 1 3.9l7.5 4.4-11.7 58.8c-1.2 6.2-.5 12.5 2.1 18l13.2 35.3-27.3 4.3c-.5-6.7-6.7-27-6.7-27-7.3-37.2-11.8-60.3-14.4-75.6-.3-1.6-1.8-2.7-3.4-2.4-1.6.3-2.6 1.8-2.4 3.4 2.5 15.1 6.9 37.7 14.1 73.8-6.6 2.8-29 10.9-61.2 10.9-5.4 0-10.9-.2-16.3-.7-11.2-1-22.2-2.9-33.4-4.1-6.5-.7-13.1-1.3-19.6-1.9-11.6-1.1-23.6-1.6-35.3-1.6-9.8-.1-19.1-.2-19.1-.2.7-6.6 2.4-22.2 4.6-51.1.1-.9.5-3.3 1.1-6.3 1.6-8.5 4.4-22.7 5.4-38.2 5 19 12 41.6 19 51 2.3 3 6.9-.5 4.7-3.5-8.3-11-17.9-45.7-24.3-74.6l-.1-.3v-.1c-2.6-20 .2-64.2 7.1-85.5.5-1.5-.3-3.2-1.9-3.7-1.5-.5-3.2.3-3.7 1.9-1.5 4.5-2.8 10-3.8 16.1-5.3-10.1-15.1-18.4-29.4-25.1l49.3 2.4c.9 0 1.8-.5 2.4-1.3 6-8.6 1.3-19.8-2.5-28.7 0 0-4.5-8.7-4.8-10 8.2-5.6 13-7.4 19.4-8.1zm-160-71.2c3.5-11.3 13.4-23.5 25.5-31.2.9-.6 1.2-1.8.6-2.7-.6-.9-1.8-1.2-2.7-.6-13.3 8.4-23.8 21.6-27.4 34l-9.1-1c1.7-14.1 7.8-26.1 17.1-33.4 10.3-8.1 24.7-9.8 24.8-9.8.9-.1 1.6-.5 2.1-1.2 3-4.3 14.3-8.7 30-8.7 19.2 0 37.7 6.8 50.7 18.6 32.5 29.6 26.3 44.1 21.3 55.6-3.3 7.6-6.7 15.5 2.3 24.6 7.8 8 5.3 14.2 2.4 21.4-1.4 3.4-2.8 6.8-2.9 10.3-.1 2.2.2 4.3 1.1 6.3.5 1.3 4.4 8.9 4.4 8.9 3.2 7.5 6.7 15.8 3.9 21.8l-16.4-.8c.9-6.4-1.7-12.4-4.2-18.3-1.9-4.4-3.8-9-4.2-13.5-.3-3.9.7-7.8 1.6-12 1-4.4 2.1-8.9 1.6-13.6-.3-3.8-6.1-25.6-6.3-31.6-.1-3.3-.2-6.7-.4-10.1-.1-1.1-1.1-1.9-2.1-1.8-1.1.1-1.9 1-1.8 2.1.2 3.4.3 6.8.4 10 .2 6.3 6 28.5 6.3 31.9.4 4.1-.6 8.1-1.6 12.4-1 4.2-2 8.6-1.7 13.1.3 5.2 2.4 10.1 4.4 14.8 2.4 5.8 4.8 11.2 3.8 16.6l-41.4-2c-1.9-3.5-.9-9-.1-13.9.6-4.2 1.4-6.6 3.8-10.1 1.6-2.5 2.9-6.8-.2-13.9-1.3-2.9-3.2-5.8-3.3-9-.2-3.2 1.8-6.1 3.4-8.8 2.3-3.8 4.9-8 4-13.1-.4-2.5-1.7-4.6-2.4-7-.7-2.5-.7-5.2-.2-7.8.7-4.2 2.6-8.7 5.6-11.8 1.7-1.8.6-4.7-1.8-5l-90.9-9.7zm6.2 74.9c-1.3-3.2-2.4-6.5-3.3-9.9-.6-2.3-1.1-4.7-1.5-7.1-1.1-6.3-1.4-12.8-1.1-19.4.7-11.2 4.2-22.1 9.7-31.5l75.4 8.1c-3.8 6.4-5.7 15.5-2.8 23 .8 2.1 1.9 4 1.7 6.3-.3 2.6-1.9 4.9-3.3 7.1-2 3.2-4 6.6-4.2 10.5-.3 3.8 1.2 7.4 2.9 10.8 1 2.1 2.2 4.4 2.2 6.8 0 2.7-1.5 4.2-2.9 6.2-1.8 2.8-2 6.3-2.4 9.5v.2c-9.6 7.3-20.8 11.9-31.7 11.3-18.5-1.3-32.1-15.7-38.7-31.9zm72.8 40.2c-10.7 10.7-45.5 46.4-45.7 46.4-.6 0-1.3-.6-1.3-1 0-11.8 3-43.4 3.3-46.6l.8-2.7c2.6.7 5.4 1.1 8.2 1.3l2.5.1c10.1 0 20-3.5 28.8-9.3-.5 1.5-.2 7.3 3.4 11.8zm-101 41.5c1.6-6.8 2.9-13.1 3.7-17.2 2.1-11.4 10.1-14.5 23.1-18.5.5-.2 21.9-5.6 24.8-6.3-.7 7-3.3 34.6-3.3 45.8 0 5.6 7.7 9.4 11.7 4.9 4.9-5.4 43.8-44.6 46.6-47.4l4.1 1.6c23.9 8.3 35.3 33 35.6 33.3-1.2 9.3-2.1 19.2-2.4 28.6-.5 12.7-.3 24.5.7 32.4v.2c3.1 23.2-2.2 50.5-4.7 63.5-.7 3.5-1.1 5.8-1.2 7-.4 5.8-.5 8.6-1.1 13.3-.8 7.2-36.3 24.3-66.7 35.6-1.8.7-33.3 11.7-41.8 14.6-1.6-1.3-3.3-3.3-4.9-5.5-2.1-2.4-3.8-5.3-5.3-8.3-1.8-3.1-3.2-5.8-3.9-7.5.1-.1 5.7-3.8 8.3-5.4.7 2.4 1.8 4.7 2.8 6.8 2.1 4.4 3.9 8.3 6.3 12 1.3 2 4.7.1 3.3-2.1-2.3-3.5-4.1-7.3-6.1-11.6-1.1-2.4-2.3-4.8-2.9-7.3 5.6-3.4 11-6.5 16.6-9.6 5.8-3.2 11.7-6.6 18.3-10.6 2.3-1.4 9.7-5.2 18.3-9.5 13.4-6.8 30.1-15.3 35.7-19 .8-.6 1.4-1.6 1.3-2.6-.8-14.2.7-62 .9-69l.1-7.7c.1-6 0-11.8-.3-17.2-.2-3.8-6.1-3.4-5.8.3.3 5.6.3 11.5.3 17.8 0 9-1.8 60.3-1.1 74.4-6.4 3.9-21.4 11.6-33.7 17.8-9 4.6-16.2 8.2-18.7 9.7-6.5 4-12.4 7.3-18.1 10.5-9.8 5.6-19.1 10.7-30 18.3-7.3 1.6-15.5 2.6-23.7 3.3 9.3-39 21.2-100.5 21.4-107.5 0-.5-.1-1-.3-1.4-.1-.2-7-14.3-4.9-27.9 2.4-15.8 6.6-22.7 10.6-29.3 1.9-3.2 3.9-6.5 5.6-10.6 1.4-3.5-4-5.7-5.4-2.2-1.5 3.7-3.3 6.6-5.2 9.7-4.1 6.8-8.8 14.5-11.4 31.5-2 13.6 3.7 27.3 5.1 30.6-.8 9.4-12.9 70.9-21.6 107.6-6.7.7-13.7 1.3-20.1 2.3-5 .8-9.8 2-14.5 3.6 14.4-24.1 34.7-71.8 37.5-78.6 1.4-3.5-3.9-5.7-5.4-2.3-12 28.3-31.2 70.1-41.3 84.5-1.7.8-3.3 1.6-4.9 2.5l-5-61.2 6.8-1.2c1.6-.3 2.7-1.7 2.5-3.3-.3-2.3-5.4-39.5-10.5-59.4-1.8-7.1-8-21.3-18.7-27.1h81.7c-3.3 26.1-6.6 52-6.6 52-.5 3.7 5.3 4.5 5.8.7-.3.4 7.1-61.7 12-82.4zm-114.1 16.2l8.3-7.3c6.4-5.7 14.6-8.8 23.1-8.8 2.3 0 4.6.2 6.9.7l25.6 5.2c.3.1.7.1 1.1 0l43.5-7.7c0 .2-4.9 24.9-5.1 26h-93.1l-.5-.2c-3-1.2-10.1-3.2-10.3-3.2h-.8c-.3-1.2-.5-3.1 1.3-4.7zm11.6-161.4c4.3-2.9 10-4.2 15.5-3.7 6.6.7 12.3 4.1 14.3 8.8 1.6 3.6 1.5 7.7 2.9 11.3 2.3 5.9 7.3 9.8 12.1 13.6 4.6 3.6 10.8 8.3 10.7 14.8 0 2.5-1.2 5.2-2.4 8-1.8 4.2-3.8 8.9-2.1 13.9 1.4 4 4.9 6.5 7.2 9.8 3.6 5.1 2.9 12.2 1.4 19.2l-31.8.1c2.4-6 3.8-12.2 4.1-18.4.9-23.3-8-44-24.5-56.9-4.7-3.7-10-6.6-15.8-8.5 1.8-4.6 5.2-9.8 8.4-12zm-95.3 50.7c1.9-4.6 5.3-8.6 9.2-11.6 2-1.5 4.1-2.8 6.4-3.9l1.1-.5c5.2 8.8 16.8 11.1 25.4 12.8l1.1.2h.4c.9 0 1.7-.6 1.9-1.5.2-1-.5-2.1-1.5-2.3l-1.1-.2c-7.8-1.5-18.3-3.6-22.7-10.8.3-.3.7-.6 1.1-.9 4.7-4.7 10.1-8.5 16.1-11.3 11.1-5.1 24.1-7 36.3-5.6 4 .4 8 1.3 11.8 2.6 5 1.7 9.7 4.2 13.8 7.5 15 11.7 23.1 30.7 22.2 52.1-.3 6.3-1.9 12.6-4.6 18.7-.9 2-1.8 3.9-3 5.8-4.2 7.1-10.1 13.6-17.3 19.5 1.9-5.4 3.5-7.9 5.3-10.7 1.8-2.8 3.9-5.9 6.3-11.9 1.6-4 1.8-8.9-.7-12.6-2.4-3.4-6.6-5.2-10.7-5.2-4.2 0-9.4 1.8-12.9 6.7-5.2-7.3-17.9-21-38.4-19.8-3.4.2-7.1.8-10.9 1.4-4.8.7-9.7 1.5-14.2 1.5-4 0-7.2-.6-9.8-1.9-3.5-2-8.4-3.8-10.4-7.5-1.6-3.3-1.7-6.8-.2-10.6zm15.4 95.7c-5.3-6.1-8.8-13.4-11.3-21-1.8-5.2-3-10.5-3.9-15.8-.9-5.3-1.5-10.8-1.7-16.3-.4-9.5-.2-17.6.9-24.6 6.1 4.7 13.2 7.7 20.9 7.7 8.6 0 16.9-2.5 25.4-3 23.6-1.4 35.5 20.9 35.7 21.2 1.1 2.3 4.4 1.9 5.3-.3 2.1-5.7 6.5-7.7 10-7.7 5.6 0 8 4.8 6.1 9.8-2.2 5.5-4 8.2-5.8 10.9-2.3 3.5-4.4 6.8-6.9 14.9-.5 1.7-1.6 5.8-1.6 5.9 0 .7-8.5 10.3-10.5 12.2-4 3.8-8.3 7.2-12.9 10.1-8.3 5.2-18.1 8.9-28.1 7.9-8.6-.9-16.1-5.4-21.6-11.9zm57.9 25.5c-.6 1.1-1.2 2.2-1.9 3.3-5.5 8.9-13.2 17.1-17 18.7-10 4.2-20.2 3.4-24.3-1.9-3-3.8-1.9-8.7-1.4-13.2.1-1.2 2.7-15.6 2.7-15.6s10.5 4.4 26-2.4c3.6-1.6 11.8-5.9 11.8-6.2.8 3.8 4.1 17.3 4.1 17.3zm-60.8 3.3c1.3-.6 2.6-1.1 3.8-1.5l-.5 1.5c-2.4 7.9-2.5 15.9.1 22.2 2.3 5.8 6.6 9.8 12.6 12.2 4.8 1.9 9.9 2.8 14.9 2.8 9.6 0 19.2-3.2 26.6-9.4 4.1-3.4 7.7-7.7 11-13.1 1.3-2.1-2-4.2-3.3-2-3.1 5.1-6.4 9-10.2 12.2-10.2 8.5-25.3 10.9-37.6 6-5-1.9-8.5-5.4-10.5-10.1-4-9.8 1.3-23.3 1.5-23.5.2-.1 2.1-.4 2.8-.5-1.5 7.8-3.8 16.8 1.5 23.7 7.3 9.4 21.7 8 31.2 3.7 8.5-3.9 18.6-16.4 22.6-27.6 4.7.3 9.1 1.7 13.5 3.6 3.3 1.5 9 5.2 9.3 5.2 8.2 4.5 13.9 16.5 15.7 23.3 3.4 13.1 6.8 34.4 8.7 47.4-.5 0-49.5 5.8-49.5 5.8l-1.7-26.1c-.1-1.6-1.4-2.8-3.1-2.7-1.6.1-2.8 1.5-2.7 3.1l7.3 80.4-36.4 15.4c-4.2-10.1-10.9-18.7-17.4-27.1-3.5-4.5-7-9.1-10.2-13.8-.6-.9-1.8-1.2-2.7-.6-.9.6-1.1 1.8-.5 2.7 3.2 4.9 6.8 9.6 10.3 14.1 6.3 8.2 12.9 16.6 16.9 26.3l-38.1 16.1c-2.3.1-8.9 1.9-17.2 4.8 1.5-14.2 13.7-120.7 15-129.3.2-1.6-.8-3.1-2.5-3.3-1.6-.2-3.1.8-3.3 2.5-.9 5.9-2.1 15.2-3.5 26.4l-19.9-19.6c-.8-.8-2-.7-2.8 0-.7.8-.7 2 0 2.8l22.1 21.7c-.3 2.8-.7 5.6-1 8.5l-30.8-30 38.9-41.9c6.1-5.3 12.8-9.6 19.1-12.3zm-74.9 29.7c2.6-17.3 17.1-29.7 34.6-29.7h28c-3.6 2.3-7.2 5-10.5 7.9l-41.1 44.2c-1 1.2-1 3 .1 4.1l1.4 1.4-15 17.1-4.6 1 7.1-46zm-135 73.8c12.7-6.4 27.9-8.7 41.8-6.4 1.4.2 9.6.4 13 .5.2 0 77-16.9 77-16.9.5 1.2 2 3.7 2 3.7 2.1 3.3 3.4 7.2 3.9 11.2.4 3.7 6.1 3.1 5.8-.7-.5-4.8-2.2-9.5-4.7-13.6 0 0-1.5-2.4-1.6-3.2l14.6-16.5 25.1 24.5-30.1 21.9c-2.7 1.9-5.8 3.1-9.2 3.3l-81.3 4.2c-.5 0-.9.2-1.4.4-2.8 1.7-5.8 2.5-9 2.5-4.1 0-8-1.3-11.1-2.4-2.5-.9-3.7-1.8-7.3-1.4-2.8.3-5.4 0-8.2 0-6.1-.1-11.8-.5-16.5-1.1-5.8-.7-10.1-1.7-11.5-2.6.3-2.8 4.5-5.3 8.7-7.4zm-50.7 73.4c0-30.2 23.3-55.1 53-57.5 5.5-.4 11-.2 16.4 1 25.6 5.4 45.3 28 46 55.2v31l-16.4 3.8c-14.7 2.6-27.2 12.6-31.2 27.6l-29.8 110 .2-114.8c0-1.2-.7-2.3-1.9-2.7-22-8.8-36.3-29.8-36.3-53.6zm27.7 218c.2.1 18.3 5 18.3 5-.3.3-.5.6-.6.7-7.3 5.3-17.8 6.6-26.2 3.2-1.9-.7-3.5-1.7-4.9-2.8 4.7-1.8 9.1-3.8 13.4-6.1zm-74.7 26.3l1.7-6.1s72.1 13.9 72.3 13.9c2.3.2 2.6-3.5.3-3.9l-71.6-13.8c.3-1.1.8-2.2 1.4-3 2-2.6 6.5-3.2 10.1-3.8 2.8-.4 5.9-.6 9.7-.7 10-.1 20-1.1 29.7-3 2 3.5 5.7 6.5 10.4 8.4 10.2 4.1 22.8 2.6 31.7-3.9.7-.5 3-3.3 3.5-3.7l.1-.1c2.2.5 14.9 4.1 16 4.5-.3 2.3-.5 4.7-.8 7.3-.5 5-1 10.1-1.9 13.7-.2.8-.7 2.8-1.4 5.1l-20.2-3.9c-1.1-.2-2.1.5-2.3 1.5-.2 1.1.5 2.1 1.5 2.3l19.8 3.8c-.7 2.4-1.5 4.9-2.1 6.6-10.1-1.3-92.7-17.3-107.9-21.2zm162.4 74.4h-78.6v-51.6c6.4 1.2 12.8 2.4 19.3 3.5 3.7.7 8.8 2.1 10.5-2.6 1.6-4.4 4.4-14.7 4.9-16.4 1-4 1.5-9.4 2.1-14.6.3-3.5.7-6.7 1.1-9.3l40.8-105.5v161.7l-1.6 1.3c-3.3 2.8-7.9 6.7-8.6 12.2-.3 2.6.3 5.3 1.1 7.8l2.3 7.8c.7 2.4 3 4.1 5.4 4.1.5 0 .9 0 1.3-.2v1.8zm5.8 0v-3.7c24.1-8.1 92.3-33.9 99.2-37.2 2.2-1 3.4-3.4 2.9-5.8-.9-4.6-3.9-14.7-4.4-16.5-1.3-4-11.3-15.1-11.5-15.1v-.2l-1.4-64.3h33.4s-1.4 36.8-1.4 36.9c-.1 1.6 1.3 3 2.9 3h4.9l-3.2 72.5c-.3 1.1-.7 2.2-1.3 3.5h-30.6c-19.2 0-35.8 11.1-42.8 26.9h-46.7zm92.9 14.4l-43.8.1c1.4-19.9 19-35.6 40.5-35.6l29-.1s-2.3 1.3-2.5 1.4c-12.8 7-21.8 19.6-23.2 34.2zm5.7 1.5c1.4-19.9 19-35.7 40.5-35.7h22.2l35.3 35.7h-98zm109.3-10.3c-.3 3.7-3.3 6.5-6.9 6.6l-35.2-35.6c.9-1.9 1.5-3.7 1.9-5.4l4.4-71.8h41.2l-5.9 41.1c-1.4-.3-2.7-.4-4-.4-21.7 0-26.9 33.1-27.1 34.5-.2 1.5.7 2.9 2.2 3.3.1 0 25.6 6.9 25.6 6.9l2.3 7.1c1.3 4.3 1.9 8.9 1.5 13.7zm5.8-5.6c-.2-3.4-.8-6.7-1.9-9.9l-1.1-3.5 50 13.5-47-.1zm-24.4-31.7l123.5 33.4c-.9 2.1-1.6 4.3-2.1 6.5 0 0-124.1-34.4-128-35.4 1.5-7.2 7.1-27 20.8-27 2.5 0 5.2.6 8.1 1.9 5.2 2.3 12.6 3.4 22.3 3.4 15.4 0 32.3-2.9 38.5-4.1 1.1.5 4.9 2.3 10.6 7.7-12 2.9-33.8 6.9-36.3 6.4-5.3-1.1-10.7-2.5-14.5-6.2-.8-.7-2-.7-2.8 0s-.7 2 0 2.8c4.5 4.4 10.6 6.1 16.5 7.2h1c6.1 0 29.8-4.7 39.2-7.1 2.9 3.1 6.1 7 9.7 11.9 3.2 4.5 10.9 6.1 17 6.1 7.8 0 17.6-2.6 22.6-9.8-.1.2.8 2.3.9 2.6 1.6 6.4 1.4 13.4.3 19.9-8.2-1.1-14.8 1.1-19.5 6.4-.8 1-1.6 2-2.3 3.1l-124.3-33.7c-1-.3-2.1.3-2.4 1.4-.5 1.3.1 2.4 1.2 2.6zm278.7 47.3h-18.6c.3-2.4.9-4.7 1.9-6.8.2-.5.5-1.1.5-1.8 0-2-2.8-2.5-3.7-.8-1.4 3-2.4 6.2-2.7 9.4h-124.1c-1.1 0-1.9.8-1.9 1.9 0 1.1.9 1.9 1.9 1.9h146.3c-.2 2.9-.6 5.3-.8 6.9-3.7 0-148-.1-152-.1-.3-5.8-.2-19.9 6.4-27.3 3.5-4 8.5-5.4 15-4.4 1.4.2 2.9.3 4.6.3 3.3 0 6.9-.4 10.8-1.2 1.2 2 3.2 3.7 5.7 5.2 3.8 2.1 8.2 3.3 12.6 3.3 1.9 0 3.7-.2 5.6-.6 5.1-1.2 28.3-12.4 36.7-17.2 3.6 2.2 7.7 5.1 12.4 8.9 2.1 1.8 5.4 2.7 9.4 2.7 8.8 0 22.5-4.8 27.2-15 .3.4.6.9.9 1.5 1.2 2.3 2.3 4.7 3.1 7.2-5 2.5-9.4 6.1-12.8 10.2-1.2 1.4.4 3.8 2.2 3 .7-.3 1.1-.9 1.6-1.4 2.8-3.3 6.3-6 10.1-8 1.5 7.3 2.1 14.8 1.7 22.2zm291.2-15.2h-285.9c-.8-7-2.6-14.3-6.1-20.8-1.4-2.6-3.1-4.6-5-5.9l-1.1-12.4s19-1.6 19.1-1.6c1.6-.2 2.8-1.6 2.6-3.2l-8.9-99h62.1l-1 41.9c-.1 1.6 1.3 2.9 2.9 2.9l11.9-.5c-1.4 3.1-5.6 9.1-5.9 9.1-2.2.8-3.8 2.3-5.5 3.7-10.2 9-22.3 16.1-32.8 21.9-6.4 3.5-14.3 7.8-17.2 15.9-3.5 9.7 1.9 19.7 7.2 27.3 1.9 2.8 4.7 3.2 7.8 2.3 23.5-7.3 46.9-15.5 69.9-23.9-3.6 2.7-6.7 6.1-8.3 10.5-2.6 7.5 6.5 25.4 7.9 27.2 2.1 2.8 4.9 3 8 2.1 32.7-10.5 108.3-39.3 108.8-39.5 4.6-1.7 6.3-5.1 4.5-9.6-.2-.5-10.1-24.9-13.4-32.9 1.4-.3 2.4-1.6 2.3-3l-2.6-55.4h69c3.8 0 3.8-5.8 0-5.8h-69.2l-2.5-52.4h81.6l-.2 201.1zm-72.1-226.2l54.6-9.4 17.6-2.1v30.9h-81.9s-.9-18.1-.9-18.2c0-1.1-.3-2.2-.5-3.2-1.1-5.3-3-9.7-5.4-14.1-.9-1.6-3-5.4-3-5.4-2-3.5-6.8-.3-4.8 3.3 3.8 7 7 12.4 8 19.9l6.4 134.7-53.5 3.2s-8.6-156.8-8.8-160.8c-.2-2.7 0-5.3.4-7.8 1.1-6.7 4.3-12.9 9-17.6.8-.8 2.7-1.8 3.8-2.1 3.8-1.1 72.5-20.4 72.5-20.4 2.2 5.9 6.8 10.5 13.1 12.8l26.6 6.1 8.7 8.3c1.1 2.6 3.2 4.7 5.8 5.8 1.2.5 3.5.9 4.8.9l-.3 18-15.4 1.8s-57.5 9.9-57.6 10c-4 .3-2.9 6 .8 5.4zm72.8-90.7c-.4-2.3 1-6.2 1.3-7.5 1.1-3.8 2.6-7.4 4.2-10.9 2.7-5.8 5.6-12 9.6-16.9 1.6-2-.1-5-2.6-4.7-2 .2-7.7.7-10 .5-1.1-.1-4.8-2.1-5.9-3.1-.2-1.2-.1-1.3 1.1-1.3 8.1 0 20.2-7.8 20.3-7.9 4.6-2.9 9.8-5.4 15.2-6.5 1.3-.3 2.9-.1 4.1-.7 14.5-7.7 32.4-9.8 48.4-11.6 7.6-.8 14.8-1.6 22.3-2.9 5.1-.9 10.1-1.9 15.1-2.8 3.7-.7 2.6-6.4-1.1-5.7l-23.5 4.3-8.3-10.3 44.2-12.3 19.4 29.7c2.9 4.5 3.4 10.1 1.1 14.9-2.3 4.8-6.8 8.2-11.8 8.8l-76.3 4c.3-1.5.5-2.8.3-3.8-.5-3.7-6.3-2.8-5.8.9.7 4.7-13.4 26.7-26.9 44.5-2.7 4.3-7.7 6.1-11.3 6.8-7.8 1.5-17.2-.2-22.6-4.2-.2-.2-.4-.7-.5-1.3zm82.3 55.4v261.5h-77.2v-307c3.8 1.3 8 2 12.3 2 2.4 0 4.8-.2 7.1-.7 1.9-.4 3.7-.9 5.3-1.6 3.3 12.2 14.7 20.9 27.5 20.9 15.7 0 28.5-12.8 28.5-28.6 0-10.5-5.8-20.2-15.1-25.2-1.4-.7-3.2-.2-3.9 1.2-.8 1.4-.2 3.2 1.2 4 7.4 3.9 12 11.6 12 20 0 12.6-10.2 22.7-22.7 22.7-10.6 0-19.9-7.5-22.2-17.8v-.2c1.8-1.4 3.3-3 4.4-4.8 5.3-6.9 19.6-26.2 25.4-39.1.3.1 41.2-1.9 41.2-1.9 8.9 10.2 14.4 23.5 14.4 38.1 0 23.8-14.3 44.8-36.4 53.7-.9.5-1.8 1.7-1.8 2.8zm95.9 2.9h35.2v258.6h-125.3v-258.6h78.1c1.6 0 2.9-1.3 2.9-2.9s-1.3-2.9-2.9-2.9h-69c18-11.5 29.1-31.4 29.1-53.4 0-14.5-4.9-27.8-13.1-38.5l30.5-1.6c7.3-.9 13.6-5.5 16.6-12.2.8-1.8 1.4-3.6 1.6-5.4h31.9c6.9 0 13.6 1.2 20.1 3.6 22.5 8.3 37.6 30.1 37.6 54.1 0 23.6-14.1 44.6-35.9 53.4h-37.5c-1.6 0-2.9 1.3-2.9 2.9.1 1.6 1.4 2.9 3 2.9zM544.1 637.3c-1.6 0-2.9-1.3-2.9-2.9 0-1.6 1.3-2.9 2.9-2.9 12.5 0 22.7-10.2 22.7-22.7s-10.2-22.7-22.7-22.7-22.7 10.2-22.7 22.7c0 1.6-1.3 2.9-2.9 2.9s-2.9-1.3-2.9-2.9c0-15.7 12.8-28.5 28.5-28.5s28.5 12.8 28.5 28.5c.1 15.7-12.7 28.5-28.5 28.5zM378.1 752.2c-3.2-18.4-17.6-32.4-34.8-32.4h-289.2c-19.6 0-35.6 18-35.6 40.1v117.3c0 22.2 15.9 40.1 35.6 40.1h289.3c2 0 3.9-.2 5.8-.6 12.1-2.3 22.1-11.5 26.8-23.9 1.8-4.8 2.8-10.1 2.8-15.6v-117.2c0-2.7-.2-5.3-.7-7.8zm-324 159.3c-16.4 0-29.7-15.4-29.7-34.3v-117.3c0-18.9 13.3-34.3 29.7-34.3h7.6c-4.8 7.5-7.6 16.6-7.6 26.5v134.4c0 9.2 2.4 17.8 6.7 24.9l-6.7.1zm134.9 0l72.1-133.1-42.3 129.4c-.5 1.5.4 3.2 1.9 3.7h-31.7zm-5.7-1.6l-13.1-7.1 80.2-148.1 13.1 7.1-80.2 148.1zm58.1 2.2l-1.9-.6-14.2-4.7 52.3-160.1 16.2 5.3-52.2 159.5-.2.6zm53.1-.6h-46.8l46.8-143v143zm16.4 0h-10.5v-163.4h10.5v163.4zm32.5 0h-26.7v-163.4h26.7v163.4zm2.9-169.2h-51.8v3.8l-17.8-5.9c-1.5-.5-3.2.3-3.7 1.9l-5 15.5-17.4-9.4c-.7-.4-1.4-.5-2.2-.2-.7.2-1.4.7-1.7 1.4l-83 153.3c-.8 1.4-.2 3.2 1.2 3.9l9.2 5h-106.4c-4.9-6.8-7.8-15.5-7.8-24.9v-134.4c0-10.1 3.3-19.5 8.9-26.5h274.5c14.1 0 25.9 11.3 29 26.6h-23v-7c-.1-1.8-1.3-3.1-3-3.1zm26.7 134.9c0 16.6-10.2 30.4-23.7 33.6v-152.8h23.7v119.2z"/></svg>