<svg width="400" height="400" viewBox="0 0 400 400" fill="none" xmlns="http://www.w3.org/2000/svg">
<path d="M94.9816 144.744L73.4394 123.228C68.0538 117.849 65.1162 111.003 65.1162 103.179C65.1162 95.8439 68.0538 88.5089 73.4394 83.1299L83.7209 72.861C89.1064 67.482 95.9608 64.548 103.794 64.548C111.138 64.548 118.482 67.482 123.868 72.861L145.41 94.3769C156.181 91.4429 168.421 94.3769 176.744 102.69L209.547 136.431C222.766 131.541 236.475 129.096 251.163 129.096C283.476 129.096 314.321 141.81 337.332 164.793C341.248 168.705 341.248 174.572 337.332 178.484L294.737 221.027C309.425 241.565 307.956 269.927 289.351 288.509C279.07 298.778 265.851 303.668 252.632 303.668C241.86 303.668 231.089 300.245 221.787 293.399L179.192 335.942C177.234 337.898 174.786 338.876 172.338 338.876C169.89 338.876 167.442 337.898 165.483 335.942C142.472 312.959 129.743 282.641 129.743 249.878C129.743 235.697 132.191 221.516 137.087 208.313L103.794 175.061C94.9816 167.727 92.044 155.502 94.9816 144.744ZM109.669 87.0419C106.242 83.6189 100.857 83.6189 97.4296 87.0419L87.1481 97.3109C85.6793 98.7779 84.7001 101.223 84.7001 103.179C84.7001 105.624 85.6793 107.58 87.1481 109.047L105.263 127.14L127.295 105.135L109.669 87.0419ZM275.153 274.817C285.924 264.059 287.393 247.922 280.049 235.208L235.496 279.707C248.225 287.531 264.871 285.575 275.153 274.817ZM172.338 315.404L315.789 172.127C297.674 156.969 274.663 148.656 250.673 148.656C223.256 148.656 197.797 159.414 178.703 178.484C159.608 197.555 148.837 223.472 148.837 250.367C149.327 274.817 157.16 297.311 172.338 315.404ZM117.013 162.348L145.41 190.709C150.796 181.418 157.16 172.617 164.994 165.282C172.827 157.458 181.15 151.101 190.453 145.722L162.056 117.36C157.65 112.959 150.306 112.47 144.92 116.382L115.545 145.722C112.117 150.123 112.607 157.458 117.013 162.348Z" fill="black"/>
<path d="M48.9597 301.222C47.0013 303.178 44.5533 304.156 42.1054 304.156C39.6574 304.156 37.2094 303.178 35.251 301.222L11.7504 277.751C4.40648 270.416 0.000104848 260.147 0.000104848 249.878C0.000104848 239.12 3.91688 229.34 11.7504 222.005L65.1164 168.215C67.0748 166.259 69.5228 165.281 71.9708 165.281C74.4187 165.281 76.8667 166.259 78.8251 168.215L123.378 212.714C127.295 216.626 127.295 222.494 123.378 226.406L48.9597 301.222ZM71.9708 189.242L25.4591 235.697C21.5424 239.609 19.5839 244.499 19.5839 249.878C19.5839 255.257 21.5424 260.147 25.4591 264.059L42.1054 280.685L102.815 220.049L71.9708 189.242Z" fill="black"/>
<path d="M220.318 126.161C217.87 126.161 215.422 125.183 213.464 123.227L168.911 78.7286C166.952 76.7726 165.973 74.3276 165.973 71.8826C165.973 69.4377 166.952 66.9927 168.911 65.0367L221.787 11.7359C229.621 4.40098 239.412 0 250.184 0C260.955 0 270.747 3.91198 278.091 11.7359L301.591 35.2078C305.508 39.1198 305.508 44.9878 301.591 48.8998L227.173 123.227C225.214 125.183 222.766 126.161 220.318 126.161ZM263.892 25.4279C259.975 21.5159 255.079 19.5599 249.694 19.5599C244.308 19.5599 239.412 21.5159 235.496 25.4279L188.984 71.8826L219.829 102.689L280.538 42.0538L263.892 25.4279Z" fill="black"/>
<path d="M263.403 332.03C301.591 332.03 332.436 301.223 332.436 263.081C332.436 257.702 336.842 253.301 342.228 253.301C347.613 253.301 352.02 257.702 352.02 263.081C352.02 311.981 312.363 351.59 263.403 351.59C258.017 351.59 253.611 347.189 253.611 341.81C253.611 336.431 258.017 332.03 263.403 332.03Z" fill="black"/>
<path d="M263.403 380.44C328.029 380.44 380.416 328.117 380.416 263.57C380.416 258.191 384.823 253.79 390.208 253.79C395.594 253.79 400 258.191 400 263.57C400 338.875 338.801 400 263.403 400C258.017 400 253.611 395.599 253.611 390.22C253.611 384.841 258.017 380.44 263.403 380.44Z" fill="black"/>
</svg>
