<?xml version="1.0" encoding="utf-8"?>
<!-- Generator: Adobe Illustrator 21.1.0, SVG Export Plug-In . SVG Version: 6.00 Build 0)  -->
<svg version="1.1" id="Layer_1" xmlns="http://www.w3.org/2000/svg" xmlns:xlink="http://www.w3.org/1999/xlink" x="0px" y="0px"
	 viewBox="0 0 77.3 53.3" style="enable-background:new 0 0 77.3 53.3;" xml:space="preserve">
<g>
	<path d="M66,1.8c-0.7,0-1.4,0.2-1.9,0.8L47.9,18.9c-0.2,0.1-0.3,0.3-0.3,0.5l-0.9,3.8H5.6c-1.6,0-2.9,1.3-2.9,2.9v22.5
		c0,1.6,1.3,2.9,2.9,2.9h66.1c1.6,0,2.9-1.4,2.9-2.9V26.1c0-1.6-1.3-2.9-2.9-2.9h-8.5l10.7-10.8c1-1,1-2.6,0-3.7l-6.1-6.1
		C67.3,2.1,66.7,1.8,66,1.8L66,1.8z M66,3.4c0.2,0,0.5,0.1,0.7,0.3l6.1,6.1c0.4,0.4,0.4,1,0,1.4L57,27l-7.4-7.5L65.3,3.7
		C65.5,3.5,65.7,3.4,66,3.4L66,3.4z M48.8,21.1l6.6,6.5l-4.1,1l-3.4-3.4L48.8,21.1L48.8,21.1z M5.6,24.7h40.7L45,30.6
		c-0.2,0.6,0.4,1.1,1,1l11.2-2.6l0,0c0.1,0,0.1,0,0.1,0h0.1c0,0,0-0.1,0.1-0.1l0,0h0.1l0,0c0-0.1,0.1-0.1,0.1-0.1l0,0l0,0
		c0,0,0,0,0.1,0c0-0.1,0-0.1,0-0.1c0.1,0,0.1-0.1,0.1-0.1l4-4h10.1c0.8,0,1.3,0.6,1.3,1.4v22.5c0,0.7-0.5,1.3-1.3,1.3H5.6
		c-0.8,0-1.3-0.6-1.3-1.3V26.1C4.3,25.3,4.8,24.7,5.6,24.7L5.6,24.7z M47.4,27.1l2,2l-2.6,0.5L47.4,27.1L47.4,27.1z M10.9,30.4
		c-1.1,0-1.1,1.6,0,1.6h17.3c1.1,0,1.1-1.6,0-1.6H10.9L10.9,30.4z M10.9,36.5c-1.1,0-1.1,1.6,0,1.6h55.4c1.1,0.1,1.1-1.6,0-1.6H10.9
		L10.9,36.5z M10.9,42.7c-1.1,0-1.1,1.6,0,1.6h55.4c1.1,0.1,1.1-1.6,0-1.6H10.9L10.9,42.7z"/>
</g>
</svg>
