<svg width="33" height="32" viewBox="0 0 33 32" fill="none" xmlns="http://www.w3.org/2000/svg">
<path d="M13.5 23.7499C13.4015 23.75 13.3039 23.7307 13.2129 23.693C13.1219 23.6553 13.0392 23.6 12.9696 23.5302L5.96961 16.5307C5.89904 16.4613 5.84291 16.3786 5.80446 16.2873C5.76602 16.1961 5.74601 16.0982 5.74561 15.9991C5.74521 15.9001 5.76441 15.802 5.80211 15.7105C5.83981 15.6189 5.89527 15.5358 5.96528 15.4658C6.03528 15.3958 6.11846 15.3403 6.21 15.3026C6.30155 15.2649 6.39965 15.2457 6.49866 15.2461C6.59766 15.2465 6.69561 15.2665 6.78684 15.3049C6.87808 15.3434 6.9608 15.3995 7.03024 15.4701L13.5 21.9392L26.9696 8.4701C27.039 8.39952 27.1218 8.34339 27.213 8.30495C27.3042 8.2665 27.4022 8.2465 27.5012 8.2461C27.6002 8.2457 27.6983 8.2649 27.7898 8.3026C27.8814 8.3403 27.9646 8.39576 28.0346 8.46576C28.1046 8.53577 28.16 8.61895 28.1977 8.71049C28.2354 8.80204 28.2546 8.90014 28.2542 8.99915C28.2538 9.09815 28.2338 9.1961 28.1954 9.28733C28.1569 9.37857 28.1008 9.46129 28.0302 9.53073L14.0302 23.5302C13.9607 23.6 13.878 23.6553 13.787 23.693C13.696 23.7306 13.5985 23.75 13.5 23.7499Z" fill="white"/>
</svg>
