<?xml version="1.0" encoding="utf-8"?>
<!-- Generator: Adobe Illustrator 21.1.0, SVG Export Plug-In . SVG Version: 6.00 Build 0)  -->
<svg version="1.1"
	 id="Layer_1" xmlns:cc="http://creativecommons.org/ns#" xmlns:dc="http://purl.org/dc/elements/1.1/" xmlns:inkscape="http://www.inkscape.org/namespaces/inkscape" xmlns:rdf="http://www.w3.org/1999/02/22-rdf-syntax-ns#" xmlns:sodipodi="http://sodipodi.sourceforge.net/DTD/sodipodi-0.dtd" xmlns:svg="http://www.w3.org/2000/svg"
	 xmlns="http://www.w3.org/2000/svg" xmlns:xlink="http://www.w3.org/1999/xlink" x="0px" y="0px" viewBox="0 0 88.7 55.7"
	 style="enable-background:new 0 0 88.7 55.7;" xml:space="preserve">
<g transform="translate(0,-952.36218)">
	<path d="M30.4,953.2c-2.4,0-4.5,1.7-4.9,4c-5.7,0.1-7.7,1.2-10.4,3c-0.1,0-13.3,10.2-13.3,10.2c-0.2,0.2-0.4,0.5-0.4,0.8v35
		c0,0.5,0.5,1,1,1h19c3.4,0,5.8-0.9,8.6-3.2l10.2-8.1c0.4,0.7,4.1,7.5,4.4,7.9c1.1,1.5,2.8,2.4,4.8,2.4c2.4,0,4.6-1.5,5.5-3.6
		c0.3,0.5,0.5,0.9,0.7,1.1c1.1,1.5,2.8,2.4,4.8,2.4c2.4,0,4.6-1.5,5.5-3.6c0.3,0.5,0.5,0.9,0.7,1.1c1.1,1.5,2.8,2.4,4.8,2.4
		c3.3,0,6-2.7,6-6c0-0.1,0-0.2-0.1-0.3l-1.5-4.7h6.6c2.8,0,5-2.2,5-5v-32c0-2.8-2.2-5-5-5H30.4z M30.4,955.2h52c1.7,0,3,1.3,3,3v3
		h-58v-3C27.4,956.5,28.7,955.2,30.4,955.2z M25.4,959.2v28c0,0.6,0.4,1,1,1c0.2,0,0.8-0.3,1-0.4c0.5-0.2,17.5-8.3,17.4-8.3
		c0.5-0.2,1-0.3,1.6-0.3c2.2,0,4,1.8,4,4c0,1.6-0.8,2.7-2,3.5l-19.6,15.7c-2.7,2.1-4.3,2.8-7.4,2.8h-18v-33.5c0,0,12.9-9.9,13-10
		C18.9,960.1,20.1,959.3,25.4,959.2z M27.4,963.2h58v6h-58V963.2z M27.4,971.2h58v19c0,1.7-1.3,3-3,3H43.4l6.5-5.2c0,0,0,0,0,0
		c1.4-1.1,2.4-2.8,2.4-4.8c0-3.3-2.7-6-6-6c-0.8,0-1.6,0.2-2.4,0.5c-0.2,0.1-15.6,7.4-16.6,7.9V971.2z M42,995.2h8.7
		c0.2,0.4,2.4,4.4,2.6,4.8c0,0.1,0,0.1,0,0.2c0,2.2-1.8,4-4,4c-1.3,0-2.5-0.6-3.2-1.6C46.1,1002.6,42.5,996,42,995.2z M53.1,995.2
		h8.7c0.2,0.4,2.4,4.4,2.6,4.8c0,0.1,0,0.1,0,0.2c0,2.2-1.8,4-4,4c-1.3,0-2.5-0.6-3.2-1.6c0,0-0.5-0.8-1-1.7
		C55.7,1000.1,53.5,996,53.1,995.2z M64,995.2h9.6l1.7,5.1c0,2.2-1.8,3.9-4,3.9c-1.3,0-2.5-0.6-3.2-1.6c0,0-0.5-0.8-1-1.7
		C66.7,1000.1,64.5,996,64,995.2z"/>
</g>
</svg>
