<svg id="Layer_1" data-name="Layer 1" xmlns="http://www.w3.org/2000/svg" viewBox="0 0 75.94 99.19"><defs><style>.cls-1{fill:#f58d35;}</style></defs><title>icon-quality</title><path class="cls-1" d="M66.91,92a1.55,1.55,0,0,1-2,1.93l-9.23-3-5.87,7.71a1.55,1.55,0,0,1-2.7-.49L40.68,77.37l5.37,2a9.93,9.93,0,0,0,12-4.37l2.34-4Zm8.37-56.83L71,42.59a4.93,4.93,0,0,0-.59,3.32l1.5,8.49a4.93,4.93,0,0,1-3.17,5.49l-8.1,3A4.93,4.93,0,0,0,58,65l-4.31,7.47a4.93,4.93,0,0,1-6,2.17l-8.1-2.95a4.93,4.93,0,0,0-3.37,0l-8.07,2.89a4.93,4.93,0,0,1-6-2.17L17.87,65a4.93,4.93,0,0,0-2.58-2.17l-8.1-3A4.93,4.93,0,0,1,4,54.34l1.5-8.49A4.93,4.93,0,0,0,5,42.59L.66,35.12a4.93,4.93,0,0,1,1.1-6.24l6.6-5.54a4.93,4.93,0,0,0,1.69-2.92l1.5-8.49a4.93,4.93,0,0,1,4.86-4.08H25A4.93,4.93,0,0,0,28.2,6.69l6.6-5.54a4.93,4.93,0,0,1,6.34,0l6.6,5.54a4.93,4.93,0,0,0,3.17,1.15h8.62a4.93,4.93,0,0,1,4.86,4.08l1.5,8.49a4.93,4.93,0,0,0,1.69,2.92l6.6,5.54A4.93,4.93,0,0,1,75.28,35.12ZM53.36,33.78a2.36,2.36,0,0,0-1.91-1.61L43.61,31l-3.51-7.1a2.37,2.37,0,0,0-4.25,0L32.34,31,24.5,32.17a2.37,2.37,0,0,0-1.32,4l5.68,5.53-1.34,7.89A2.37,2.37,0,0,0,31,52.05l7-3.69,7,3.69a2.37,2.37,0,0,0,3.45-2.46l-1.34-7.81,5.68-5.53A2.36,2.36,0,0,0,53.36,33.78ZM11,93.88l9.23-3,5.93,7.71a1.55,1.55,0,0,0,2.7-.49l6.43-20.71-5.37,2a9.93,9.93,0,0,1-12-4.37L15.56,71,9,92A1.55,1.55,0,0,0,11,93.88Z"/></svg>