<svg id="Layer_1" data-name="Layer 1" xmlns="http://www.w3.org/2000/svg" viewBox="0 0 96.82 91.02"><defs><style>.cls-1{fill:#f58d35;}</style></defs><title>icon-save</title><path class="cls-1" d="M67,86.92l27.4-16a4.77,4.77,0,0,0,2.4-3.7,3.78,3.78,0,0,0-3.6-4.1c-1.8-.1-5.7,1.9-6.7,2.5a116.24,116.24,0,0,0-12.3,7.2,3.51,3.51,0,0,1-.8.5,14.58,14.58,0,0,1-5,2c-9.9,2.1-24.4,2.3-24.4,2.3h-.8a1.3,1.3,0,0,1-1.3-1,1.24,1.24,0,0,1,1.1-1.4l21.5-2a4.57,4.57,0,0,0-.9-9.1l-19.1-.2a17.66,17.66,0,0,1-4.6-.7c-12.3-3.6-19.3-.2-23,1.3a4.38,4.38,0,0,0-4.1-2.1l-8.2.6A4.88,4.88,0,0,0,0,68.12l1.1,18.4A5.07,5.07,0,0,0,6.41,91l8.2-.6a4.49,4.49,0,0,0,3.8-2.6l36.2,1.6A20.33,20.33,0,0,0,66,87.52Zm-57.6-.2A2.71,2.71,0,0,1,6.61,84a2.78,2.78,0,0,1,2.8-2.7,2.71,2.71,0,0,1,2.8,2.7A2.84,2.84,0,0,1,9.41,86.72Zm63.3-17.2V68a12.86,12.86,0,0,0-.4-1.9V66a123,123,0,0,1,11.6-5.5,4.55,4.55,0,0,1,4.5.4,29.17,29.17,0,0,0-3.1,1.4A101.83,101.83,0,0,0,73.61,69,4.05,4.05,0,0,0,72.71,69.52ZM81,58.62c-2.2,1-6.5,2.5-8.5,3.6l-1.4.8c-.1.1-.3.2-.4.3a9.09,9.09,0,0,0-2.1-1.8c1.9-1,6.1-2.4,8-3.1A4.33,4.33,0,0,1,81,58.62Zm-56.6-30.4a3.66,3.66,0,0,0,.6,5.4l1.2.8a3.51,3.51,0,0,1,1.4,4l-.4,1.4a3.69,3.69,0,0,0,2.9,4.6l1.4.2a3.5,3.5,0,0,1,3,3l.2,1.4a3.69,3.69,0,0,0,4.6,2.9l1.4-.4a3.51,3.51,0,0,1,4,1.4l.8,1.2a3.66,3.66,0,0,0,5.4.6l1.1-1a3.46,3.46,0,0,1,4.2-.5l1.2.7a3.58,3.58,0,0,0,5.1-1.8l.7-1.6a3.71,3.71,0,0,1,3.6-2.3l1.4.1a3.6,3.6,0,0,0,3.8-3.9l-.1-1.4a3.63,3.63,0,0,1,2.2-3.6l1.3-.5a3.68,3.68,0,0,0,1.8-5.1l-.7-1.3a3.62,3.62,0,0,1,.4-4.2l.9-1.1a3.66,3.66,0,0,0-.6-5.4L76,21a3.51,3.51,0,0,1-1.4-4l.4-1.4a3.69,3.69,0,0,0-2.9-4.6l-1.4-.2a3.5,3.5,0,0,1-3-3l-.2-1.3a3.69,3.69,0,0,0-4.6-2.9l-1.4.4a3.51,3.51,0,0,1-4-1.4l-.8-1.1a3.66,3.66,0,0,0-5.4-.6l-1.1,1a3.46,3.46,0,0,1-4.2.5l-1.2-.7a3.58,3.58,0,0,0-5.1,1.8l-.5,1.3a3.71,3.71,0,0,1-3.6,2.3L34.21,7a3.6,3.6,0,0,0-3.8,3.9l.1,1.4a3.63,3.63,0,0,1-2.2,3.6l-1.5.6a3.68,3.68,0,0,0-1.8,5.1l.7,1.2a3.62,3.62,0,0,1-.4,4.2Zm26.8-17.7A17.2,17.2,0,1,1,34,27.72,17.2,17.2,0,0,1,51.21,10.52Zm-5.3,25.8a5.55,5.55,0,0,1-1.7-4.1.67.67,0,0,1,.6-.7l3.3-.1a.73.73,0,0,1,.7.6,3.3,3.3,0,0,0,.7,1.9,2.73,2.73,0,0,0,1.9.8,1.75,1.75,0,0,0,1.5-.6,2.46,2.46,0,0,0,.5-1.5,2.86,2.86,0,0,0-.5-1.7,6.23,6.23,0,0,0-1.9-1.2,20.16,20.16,0,0,1-4.8-2.6,5,5,0,0,1-1.5-3.9,5,5,0,0,1,1.6-3.9,6.69,6.69,0,0,1,3.8-1.7v-2.4a.65.65,0,0,1,.6-.6h2a.65.65,0,0,1,.6.6v2.5a5.64,5.64,0,0,1,3.5,2,6.42,6.42,0,0,1,1.4,3.7.67.67,0,0,1-.6.7h-3.3a.73.73,0,0,1-.7-.6,2.89,2.89,0,0,0-.6-1.7,1.86,1.86,0,0,0-1.6-.7,1.89,1.89,0,0,0-1.5.6,2.54,2.54,0,0,0-.5,1.6,2.77,2.77,0,0,0,.5,1.6,5.17,5.17,0,0,0,1.9,1.2,16.16,16.16,0,0,1,4.7,2.7,5,5,0,0,1,1.5,3.9,5.28,5.28,0,0,1-1.5,3.9,6.36,6.36,0,0,1-3.4,1.6v2.3a.58.58,0,0,1-.6.6h-2a.65.65,0,0,1-.6-.6v-2.3A8.28,8.28,0,0,1,45.91,36.32Z"/></svg>