<svg id="Layer_1" data-name="Layer 1" xmlns="http://www.w3.org/2000/svg" viewBox="0 0 85.64 85.96"><defs><style>.cls-1{fill:#f58d35;}</style></defs><title>icon-task</title><path class="cls-1" d="M11.55,70.28H23.3V83.61a2.34,2.34,0,0,0,4,1.66L42.19,70.38a.11.11,0,0,1,.08-.1H74.09A11.55,11.55,0,0,0,85.64,58.73h0V11.59A11.55,11.55,0,0,0,74.13,0H11.55A11.55,11.55,0,0,0,0,11.55V58.72A11.55,11.55,0,0,0,11.54,70.28ZM37.27,17.91A2.45,2.45,0,0,1,39,17.19H67.47a2.46,2.46,0,0,1,0,4.92H39a2.46,2.46,0,0,1-1.74-4.2Zm0,15.51A2.44,2.44,0,0,1,39,32.7H67.47a2.46,2.46,0,0,1,0,4.92H39a2.46,2.46,0,0,1-1.74-4.2Zm0,15.5A2.44,2.44,0,0,1,39,48.2H67.47a2.46,2.46,0,0,1,0,4.92H39a2.46,2.46,0,0,1-1.74-4.2ZM16.43,18.46a2.46,2.46,0,0,1,3.48,0h0l1.28,1.28,5.46-5.43a2.44,2.44,0,0,1,1.73-.72h0a2.46,2.46,0,0,1,1.73,4.2L22.92,25a2.46,2.46,0,0,1-3.48,0h0l-3-3a2.46,2.46,0,0,1,0-3.48h0ZM30.11,33.32l-7.2,7.16a2.46,2.46,0,0,1-3.48,0h0l-3-3A2.46,2.46,0,1,1,19.91,34l1.28,1.28,5.46-5.42a2.44,2.44,0,0,1,1.73-.72h0a2.46,2.46,0,0,1,1.73,4.2ZM16.43,49.47a2.46,2.46,0,0,1,3.48,0h0l1.28,1.28,5.46-5.42a2.44,2.44,0,0,1,1.73-.72h0a2.46,2.46,0,0,1,1.73,4.2L22.92,56a2.46,2.46,0,0,1-3.48,0h0l-3-3a2.46,2.46,0,0,1,0-3.48h0Z"/></svg>