<svg id="Layer_1" data-name="Layer 1" xmlns="http://www.w3.org/2000/svg" viewBox="0 0 71.5 35"><defs><style>.cls-1{isolation:isolate;font-size:16px;font-family:ArialMT, Arial;}</style></defs><title>money</title><path d="M2.3.1A2.33,2.33,0,0,0,0,2.4V32.7A2.33,2.33,0,0,0,2.3,35H69.2a2.33,2.33,0,0,0,2.3-2.3V2.3A2.33,2.33,0,0,0,69.2,0L2.3.1Zm0,1.6H69.2a.68.68,0,0,1,.7.7V32.7a.68.68,0,0,1-.7.7H2.3a.68.68,0,0,1-.7-.7V2.3a.66.66,0,0,1,.7-.6Zm5,1.5A4.19,4.19,0,0,0,3.2,7.3a4.12,4.12,0,0,0,4.1,4.1,4.06,4.06,0,0,0,4.1-4.1A4.06,4.06,0,0,0,7.3,3.2Zm57,0a4.06,4.06,0,0,0-4.1,4.1,4.12,4.12,0,0,0,4.1,4.1,4.06,4.06,0,0,0,4.1-4.1,4.12,4.12,0,0,0-4.1-4.1ZM7.3,4.8A2.5,2.5,0,1,1,4.8,7.3,2.48,2.48,0,0,1,7.3,4.8Zm57,0a2.5,2.5,0,1,1-2.5,2.5,2.48,2.48,0,0,1,2.5-2.5Zm-28.5.9A11.8,11.8,0,1,0,47.6,17.5,11.82,11.82,0,0,0,35.8,5.7Zm0,1.6A10.2,10.2,0,1,1,25.6,17.5,10.18,10.18,0,0,1,35.8,7.3ZM3.9,14.7a.75.75,0,0,0-.7.9c.1.4.5.8.9.7H15.9a.8.8,0,0,0,0-1.6H3.9Zm57.3,0a.75.75,0,0,0-.7.9.8.8,0,0,0,.9.7h6.2a.8.8,0,1,0,0-1.6H61.2ZM3.8,18.6a1,1,0,0,0-.7.9,1,1,0,0,0,.9.7h6.2a.8.8,0,1,0,0-1.6H3.8Zm51.7,0a1,1,0,0,0-.7.9,1,1,0,0,0,.9.7H67.5a.8.8,0,1,0,0-1.6h-12ZM7.3,23.5a4.06,4.06,0,0,0-4.1,4.1,4.12,4.12,0,0,0,4.1,4.1,4.06,4.06,0,0,0,4.1-4.1,4.12,4.12,0,0,0-4.1-4.1Zm57,0a4.06,4.06,0,0,0-4.1,4.1,4.19,4.19,0,0,0,4.1,4.1,4.06,4.06,0,0,0,4.1-4.1,4.19,4.19,0,0,0-4.1-4.1Zm-57,1.6a2.5,2.5,0,1,1-2.5,2.5,2.48,2.48,0,0,1,2.5-2.5Zm57,0a2.5,2.5,0,1,1-2.5,2.5,2.48,2.48,0,0,1,2.5-2.5Z"/><text class="cls-1" transform="translate(31.13 22.97)">$</text></svg>