<?xml version="1.0" encoding="utf-8"?>
<!-- Generator: Adobe Illustrator 21.1.0, SVG Export Plug-In . SVG Version: 6.00 Build 0)  -->
<svg version="1.1"
	 id="Layer_1" xmlns:cc="http://creativecommons.org/ns#" xmlns:dc="http://purl.org/dc/elements/1.1/" xmlns:inkscape="http://www.inkscape.org/namespaces/inkscape" xmlns:rdf="http://www.w3.org/1999/02/22-rdf-syntax-ns#" xmlns:sodipodi="http://sodipodi.sourceforge.net/DTD/sodipodi-0.dtd" xmlns:svg="http://www.w3.org/2000/svg"
	 xmlns="http://www.w3.org/2000/svg" xmlns:xlink="http://www.w3.org/1999/xlink" x="0px" y="0px" viewBox="0 0 48.5 90.7"
	 style="enable-background:new 0 0 48.5 90.7;" xml:space="preserve">
<style type="text/css">
	.st0{fill:#FFFFFF;}
</style>
<g transform="translate(0,-952.36218)">
	<path class="st0" d="M7.2,954.7c-3.3,0-6,2.7-6,6v74c0,3.3,2.7,6,6,6h34c3.3,0,6-2.7,6-6v-74c0-3.3-2.7-6-6-6H7.2z M6.2,962.7h36
		v62h-36L6.2,962.7z M24.2,1027.7c2.8,0,5,2.2,5,5c0,2.8-2.2,5-5,5s-5-2.2-5-5C19.2,1029.9,21.5,1027.7,24.2,1027.7z"/>
</g>
</svg>
