<svg width="96" height="16" viewBox="0 0 96 16" fill="none" xmlns="http://www.w3.org/2000/svg">
<path d="M80 2C80 0.895431 80.8954 0 82 0H94C95.1046 0 96 0.895431 96 2V14C96 15.1046 95.1046 16 94 16H82C80.8954 16 80 15.1046 80 14V2Z" fill="#D32323"/>
<path d="M93.2021 6.52128L89.776 6.06505L88.2445 3.22008C88.2027 3.14219 88.1338 3.07913 88.0488 3.04081C87.8356 2.94437 87.5766 3.02473 87.47 3.22008L85.9384 6.06505L82.5124 6.52128C82.4179 6.53365 82.3315 6.57445 82.2654 6.63627C82.1855 6.71155 82.1414 6.81283 82.143 6.91785C82.1445 7.02287 82.1914 7.12305 82.2735 7.19636L84.7523 9.41076L84.1667 12.5376C84.153 12.6104 84.1617 12.6852 84.192 12.7536C84.2223 12.822 84.273 12.8812 84.3381 12.9246C84.4033 12.968 84.4805 12.9937 84.5608 12.999C84.6412 13.0042 84.7216 12.9888 84.7928 12.9543L87.8572 11.478L90.9217 12.9543C91.0053 12.9951 91.1025 13.0087 91.1956 12.9939C91.4304 12.9568 91.5882 12.7528 91.5478 12.5376L90.9621 9.41076L93.4409 7.19636C93.5084 7.13578 93.5529 7.05665 93.5664 6.9701C93.6029 6.75373 93.4382 6.55343 93.2021 6.52128Z" fill="white"/>
<path d="M60 2C60 0.895431 60.8954 0 62 0H74C75.1046 0 76 0.895431 76 2V14C76 15.1046 75.1046 16 74 16H62C60.8954 16 60 15.1046 60 14V2Z" fill="#D32323"/>
<path d="M73.2021 6.52128L69.776 6.06505L68.2445 3.22008C68.2027 3.14219 68.1338 3.07913 68.0488 3.04081C67.8356 2.94437 67.5766 3.02473 67.47 3.22008L65.9384 6.06505L62.5124 6.52128C62.4179 6.53365 62.3315 6.57445 62.2654 6.63627C62.1855 6.71155 62.1414 6.81283 62.143 6.91785C62.1445 7.02287 62.1914 7.12305 62.2735 7.19636L64.7523 9.41076L64.1667 12.5376C64.153 12.6104 64.1617 12.6852 64.192 12.7536C64.2223 12.822 64.273 12.8812 64.3381 12.9246C64.4033 12.968 64.4805 12.9937 64.5608 12.999C64.6412 13.0042 64.7216 12.9888 64.7928 12.9543L67.8572 11.478L70.9217 12.9543C71.0053 12.9951 71.1025 13.0087 71.1956 12.9939C71.4304 12.9568 71.5882 12.7528 71.5478 12.5376L70.9621 9.41076L73.4409 7.19636C73.5084 7.13578 73.5529 7.05665 73.5664 6.9701C73.6029 6.75373 73.4382 6.55343 73.2021 6.52128Z" fill="white"/>
<path d="M40 2C40 0.895431 40.8954 0 42 0H54C55.1046 0 56 0.895431 56 2V14C56 15.1046 55.1046 16 54 16H42C40.8954 16 40 15.1046 40 14V2Z" fill="#D32323"/>
<path d="M53.2021 6.52128L49.776 6.06505L48.2445 3.22008C48.2027 3.14219 48.1338 3.07913 48.0488 3.04081C47.8356 2.94437 47.5766 3.02473 47.47 3.22008L45.9384 6.06505L42.5124 6.52128C42.4179 6.53365 42.3315 6.57445 42.2654 6.63627C42.1855 6.71155 42.1414 6.81283 42.143 6.91785C42.1445 7.02287 42.1914 7.12305 42.2735 7.19636L44.7523 9.41076L44.1667 12.5376C44.153 12.6104 44.1617 12.6852 44.192 12.7536C44.2223 12.822 44.273 12.8812 44.3381 12.9246C44.4033 12.968 44.4805 12.9937 44.5608 12.999C44.6412 13.0042 44.7216 12.9888 44.7928 12.9543L47.8572 11.478L50.9217 12.9543C51.0053 12.9951 51.1025 13.0087 51.1956 12.9939C51.4304 12.9568 51.5882 12.7528 51.5478 12.5376L50.9621 9.41076L53.4409 7.19636C53.5084 7.13578 53.5529 7.05665 53.5664 6.9701C53.6029 6.75373 53.4382 6.55343 53.2021 6.52128Z" fill="white"/>
<path d="M20 2C20 0.895431 20.8954 0 22 0H34C35.1046 0 36 0.895431 36 2V14C36 15.1046 35.1046 16 34 16H22C20.8954 16 20 15.1046 20 14V2Z" fill="#D32323"/>
<path d="M33.2021 6.52128L29.776 6.06505L28.2445 3.22008C28.2027 3.14219 28.1338 3.07913 28.0488 3.04081C27.8356 2.94437 27.5766 3.02473 27.47 3.22008L25.9384 6.06505L22.5124 6.52128C22.4179 6.53365 22.3315 6.57445 22.2654 6.63627C22.1855 6.71155 22.1414 6.81283 22.143 6.91785C22.1445 7.02287 22.1914 7.12305 22.2735 7.19636L24.7523 9.41076L24.1667 12.5376C24.153 12.6104 24.1617 12.6852 24.192 12.7536C24.2223 12.822 24.273 12.8812 24.3381 12.9246C24.4033 12.968 24.4805 12.9937 24.5608 12.999C24.6412 13.0042 24.7216 12.9888 24.7928 12.9543L27.8572 11.478L30.9217 12.9543C31.0053 12.9951 31.1025 13.0087 31.1956 12.9939C31.4304 12.9568 31.5882 12.7528 31.5478 12.5376L30.9621 9.41076L33.4409 7.19636C33.5084 7.13578 33.5529 7.05665 33.5664 6.9701C33.6029 6.75373 33.4382 6.55343 33.2021 6.52128Z" fill="white"/>
</svg>
