<svg aria-hidden="true" style="position: absolute; width: 0; height: 0; overflow: hidden;" version="1.1" xmlns="http://www.w3.org/2000/svg" xmlns:xlink="http://www.w3.org/1999/xlink">
<defs>
<symbol id="icon-admiral" viewBox="0 0 309 64">
<title>admiral</title>
<path d="M106.351 63.135h16.225l2.996-19.75c0.707-4.938 2.207-6.704 4.235-6.704 1.942 0 2.911 1.328 2.911 3.351l-3.261 23.107h16.93l3.169-19.564c0.707-4.414 2.117-6.356 4.23-6.356 1.942 0 2.824 1.59 2.824 4.149l-3.174 21.776h16.755l2.824-20.282c0.352-2.469 0.527-4.847 0.527-6.434 0-6.789-2.824-9.969-9.001-9.969-5.109 0-7.578 0.973-16.664 5.203l-0.262 0.081c-1.852-3.086-3.613-4.938-7.492-4.938-2.117 0-4.059 0.437-6.352 1.32s-4.938 2.293-5.992 2.649l-0.265 0.086v-3.703h-15.521zM115.425 7.051c8.466 4.504 2.027 6.352 12.519 6.879l8.726 0.883c4.676 0.442 5.38 0.793 8.821 2.559l0.262 0.175c3.441-1.766 3.441-1.766 9.523-2.027l12.524-0.617c9.343-0.355 5.988-6.527 12.079-7.677l0.347-0.085-4.847-1.852c-4.852 5.997-6.087 6.087-8.906 6.087l-40.033 0.085c-1.942 0-1.942 0-6.614-5.82l-0.175-0.265-4.225 1.675zM0 63.138l24.071-51.060h21.255l6.874 51.155h-16.047l-0.707-6.437h-13.929l-2.469 6.344h-19.048zM32.365 28.391l-6.349 16.845h8.289l-1.941-16.845zM82.525 63.135v-3.969l-0.175 0.18c-2.644 2.032-6.614 3.171-10.492 3.171-8.641 0-14.641-6.087-14.641-15.52 0-10.763 8.117-20.286 17.637-20.286 5.47 0 8.466 2.469 11.907 6.789l4.23-25.23h15.34l-8.11 54.864zM83.75 44.619c0-3.001-1.41-4.672-3.703-4.672-3.086 0-5.109 2.73-5.109 6.087 0 2.64 1.144 4.227 3.438 4.227 3.258 0.007 5.375-2.727 5.375-5.638z"></path>
<path d="M124.832 3.618l3.001 4.762h38.622l4.938-4.059-2.563-0.352c-1.581 1.676-2.289 2.117-3.703 2.117-3.797 0-6.699-1.766-7.668-3.438l-0.085-0.18c-1.676 1.32-2.379 1.671-4.145 1.671-2.559 0-3.438-0.879-5.023-3.793l-0.18-0.347c-1.234 2.734-2.554 3.969-4.847 3.969-2.559 0-3.703-0.352-4.938-1.41l-0.262-0.175c-1.415 1.5-2.739 2.554-6.091 2.554-1.937 0-2.731-0.532-3.965-2.117l-0.175-0.265-2.914 1.059zM259.224 63.121l0.352-2.644-0.265 0.172c-4.14 2.384-6.614 3.351-10.050 3.351-8.469 0-13.754-6.618-13.754-16.403 0-11.821 7.934-22.053 17.547-22.053 3.879 0 6.699 1.41 11.285 4.938l1.059-3.351h16.047l-6.524 35.986h-15.697zM258.187 39.316c-3.618 0-6.172 2.824-6.172 6.352 0 3.703 1.852 5.555 4.676 5.555 3.793 0 6.257-2.743 6.257-6.789 0-3.265-1.937-5.117-4.761-5.117zM202.794 63.14h15.515l3.266-20.815c2.379-1.761 4.055-2.644 6.614-2.644 1.496 0 1.496 0 5.109 0.797l0.352 0.090 1.942-13.759c-0.956-0.228-2.074-0.386-3.22-0.44l-0.042-0.002c-2.559 0-3.618 0.793-8.556 4.672l-0.175 0.18v-4.064h-15.521zM281.795 63.332h16.93l9.875-56.096h-16.047l-10.754 56.089zM178.29 63.332h16.746l5.118-36.168h-16.399l-5.461 36.168zM194.171 5.203c-6.344 0-10.758 4.41-10.758 9.258 0 4.938 4.23 8.731 10.050 8.731 5.735 0 10.055-4.059 10.055-8.906 0-5.293-4.32-9.086-9.348-9.086z"></path>
</symbol>
<symbol id="icon-jenn" viewBox="0 0 317 64">
<title>jenn</title>
<path d="M315.646 4.591c0.001 0.031 0.001 0.068 0.001 0.105 0 0.678-0.177 1.315-0.486 1.867l0.010-0.019c-0.587 1.077-1.711 1.795-3.003 1.795-0.020 0-0.041-0-0.061-0.001l0.003 0c-0.039 0.002-0.085 0.003-0.131 0.003-0.659 0-1.271-0.198-1.78-0.538l0.012 0.007c-0.533-0.326-0.951-0.795-1.206-1.353l-0.008-0.019c-0.264-0.557-0.42-1.21-0.422-1.899v-0.001c-0.001-0.031-0.001-0.068-0.001-0.105 0-0.678 0.177-1.315 0.486-1.867l-0.010 0.019c0.604-1.090 1.748-1.815 3.061-1.815s2.457 0.725 3.052 1.797l0.009 0.018c0.3 0.561 0.476 1.227 0.476 1.934 0 0.025-0 0.050-0.001 0.075l0-0.004zM316.649 4.591c0.001-0.037 0.002-0.080 0.002-0.124 0-0.85-0.236-1.646-0.646-2.324l0.011 0.020c-0.398-0.668-0.952-1.205-1.614-1.572l-0.022-0.011c-0.639-0.361-1.402-0.575-2.215-0.581h-0.002c-0.832 0.005-1.613 0.219-2.294 0.593l0.025-0.013c-0.684 0.378-1.238 0.915-1.625 1.564l-0.011 0.020c-0.399 0.658-0.635 1.453-0.635 2.304 0 0.044 0.001 0.087 0.002 0.13l-0-0.006c-0 0.014-0 0.030-0 0.046 0 0.835 0.215 1.619 0.593 2.3l-0.012-0.024c0.378 0.684 0.915 1.238 1.564 1.625l0.020 0.011c0.668 0.383 1.466 0.616 2.317 0.633l0.005 0c0.814-0.005 1.578-0.22 2.24-0.593l-0.023 0.012c0.684-0.378 1.238-0.915 1.625-1.564l0.011-0.020c0.431-0.662 0.687-1.473 0.687-2.343 0-0.030-0-0.060-0.001-0.090l0 0.004zM311.266 4.328v-1.478h1.003c0.265 0.006 0.519 0.044 0.761 0.111l-0.022-0.005c0.219 0.091 0.37 0.304 0.37 0.552 0 0.010-0 0.020-0.001 0.030l0-0.001c0 0.369-0.106 0.581-0.369 0.686-0.171 0.082-0.372 0.13-0.585 0.13-0.092 0-0.182-0.009-0.268-0.026l0.009 0.001h-0.897zM311.266 5.014h0.792l1.319 2.164h0.95l-1.425-2.217c0.361-0.037 0.686-0.17 0.955-0.373l-0.005 0.003c0.233-0.216 0.378-0.523 0.378-0.864 0-0.049-0.003-0.097-0.009-0.145l0.001 0.006c0.004-0.039 0.007-0.084 0.007-0.13 0-0.397-0.188-0.751-0.479-0.977l-0.003-0.002c-0.321-0.207-0.713-0.33-1.134-0.33-0.084 0-0.167 0.005-0.248 0.014l0.010-0.001h-1.9v5.066h0.844v-2.217z"></path>
<path d="M233.74 0.053l-20.529 47.814h6.966l6.122-14.091h20.16l6.491 14.091h6.914l-21.268-47.814zM236.009 11.136l0.053 0.106 7.336 16.149h-14.144zM276.382 0.369v47.497h6.913v-20.688h4.697c0.686 1.319 1.372 2.586 2.058 3.905 3.114 5.594 6.28 11.188 9.394 16.782h7.758c-4.011-7.389-8.075-14.777-12.085-22.165l0.95-0.475c0.849-0.322 1.562-0.659 2.244-1.044l-0.080 0.042c0.7-0.399 1.304-0.836 1.858-1.329l-0.011 0.009c0.564-0.478 1.066-0.997 1.513-1.561l0.017-0.023c0.462-0.551 0.867-1.175 1.191-1.846l0.023-0.053c0.329-0.617 0.617-1.336 0.826-2.088l0.018-0.076c0.202-0.66 0.351-1.432 0.419-2.227l0.003-0.042c0.050-0.38 0.079-0.82 0.079-1.267s-0.029-0.886-0.085-1.318l0.005 0.051c-0.046-0.884-0.178-1.714-0.389-2.513l0.019 0.085c-0.199-0.823-0.434-1.527-0.721-2.203l0.035 0.092c-0.3-0.729-0.636-1.354-1.027-1.939l0.025 0.039c-0.419-0.633-0.853-1.184-1.328-1.698l0.008 0.009c-0.498-0.507-1.032-0.975-1.6-1.399l-0.036-0.026c-0.595-0.442-1.272-0.831-1.994-1.137l-0.065-0.024c-0.585-0.289-1.27-0.542-1.984-0.723l-0.074-0.016c-1.454-0.402-3.123-0.633-4.847-0.633-0.003 0-0.006 0-0.009 0h0zM283.559 6.386h4.116c0.032-0 0.069-0 0.107-0 1.233 0 2.435 0.135 3.592 0.39l-0.11-0.020c0.607 0.124 1.137 0.288 1.643 0.497l-0.060-0.022c0.474 0.184 0.873 0.379 1.254 0.602l-0.040-0.022c0.363 0.209 0.676 0.454 0.949 0.738l0.001 0.001c0.303 0.259 0.565 0.554 0.782 0.882l0.010 0.016c0.207 0.303 0.401 0.649 0.563 1.013l0.017 0.043c0.135 0.361 0.263 0.803 0.358 1.257l0.011 0.063c0.070 0.397 0.11 0.854 0.11 1.32 0 0.092-0.002 0.184-0.005 0.276l0-0.013c0 0.010 0 0.021 0 0.033 0 0.567-0.058 1.121-0.167 1.656l0.009-0.053c-0.094 0.517-0.24 0.977-0.437 1.409l0.015-0.037c-0.221 0.47-0.45 0.868-0.706 1.245l0.020-0.032c-0.299 0.396-0.628 0.742-0.993 1.047l-0.010 0.008c-0.37 0.307-0.785 0.587-1.226 0.825l-0.040 0.020c-0.437 0.244-0.944 0.459-1.475 0.619l-0.055 0.014c-0.488 0.186-1.073 0.351-1.675 0.465l-0.066 0.010c-0.476 0.089-1.023 0.141-1.582 0.141-0.279 0-0.555-0.013-0.828-0.038l0.035 0.003h-4.116v-14.355zM263.452 47.867h6.755v-47.497h-6.755zM187.667 0.369v36.837l-31.982-36.837h-5.489v47.497h6.491v-36.678l31.665 36.678h5.805v-47.497zM137.426 0.369v36.837l-32.298-36.837h-5.489v47.497h6.439v-36.678l31.823 36.678h6.016v-47.497zM66.338 0.369v47.497h27.601v-6.175h-20.846v-14.671h19.263v-6.122h-19.21v-14.408h20.16v-6.122zM53.091 0.369v46.020c0 6.28 0.106 10.977-7.758 10.977h-1.794c-0.053 2.164-0.106 4.328-0.158 6.438 0.755 0.123 1.625 0.194 2.511 0.194 0.379 0 0.755-0.013 1.128-0.038l-0.050 0.003c9.605-0.158 13.035-6.808 13.035-15.463v-48.131zM200.122 27.812v5.964h13.405l2.586-5.964z"></path>
<path d="M40.109 23.538c-3.905 5.858-9.974 10.133-15.199 10.133h-12.877c5.225 0 11.294-4.275 15.199-10.133 5.383-8.075 9.974-10.133 15.199-10.133h4.908v-9.711c-0.006-1.776-1.444-3.213-3.219-3.219h-40.743c-1.953 0-3.219 1.319-3.378 3.219v19.738h10.397c1.817 2.659 3.966 4.924 6.422 6.809l0.070 0.051c-1.774 0.952-3.843 1.623-6.037 1.891l-0.085 0.008c-1.847 0.158-4.064 0.053-5.647-1.003-1.913-1.304-3.587-2.693-5.12-4.223l0.001 0.001v17.416c0.064 1.792 1.532 3.22 3.333 3.22 0.016 0 0.031-0 0.047-0h40.74c1.767-0.026 3.193-1.452 3.219-3.217v-28.659c-2.778 2.245-5.166 4.817-7.151 7.689l-0.079 0.121z"></path>
</symbol>
<symbol id="icon-s-q" viewBox="0 0 516 64">
<title>s-q</title>
<path fill="#ef4923" style="fill: var(--color1, #ef4923)" d="M117.040 48.801c-9.189 0-20.37-0.431-20.37-14.349v-0.955h17.47v6.289h3.284v-6.010c-2.912-1.002-6.243-1.957-9.62-3.052-5.334-1.91-10.482-4.286-10.622-11.729-0.245-9.912 6.907-13.918 18.635-13.918 15.351 0 18.822 5.823 18.822 12.672v1.619h-17.168v-5.241h-3.331v5.195c2.236 0.71 5.439 1.619 9.003 2.667 6.196 1.759 12.439 4.379 12.439 12.392 0 10.913-7.966 14.396-18.635 14.396z"></path>
<path fill="#ef4923" style="fill: var(--color1, #ef4923)" d="M172.561 43.268c-1.726 3.152-5.020 5.254-8.805 5.254-0.18 0-0.359-0.005-0.537-0.014l0.025 0.001c-4.286 0-7.105-1.433-8.724-3.576v13.545h-16.026v-42.709h15.875v3.378c1.281-2.096 4.1-4.053 9.050-3.96 0.136-0.007 0.295-0.010 0.455-0.010 2.627 0 5.017 1.019 6.795 2.683l-0.006-0.005c2.912 2.76 3.576 6.813 3.576 13.627 0 4.903-0.14 9.003-1.666 11.775zM157.898 24.622h-3.436v14.128h3.436z"></path>
<path fill="#ef4923" style="fill: var(--color1, #ef4923)" d="M206.454 46.367c-3.902 2.003-8.339 2.19-11.775 2.19-14.535 0-17.971-6.674-17.971-16.876 0-11.391 4.903-16.97 18.542-16.97 8.153 0 13.056 2.096 15.723 6.383 1.048 1.759 2.050 4.239 2.050 9.912v2.329h-19.8v7.431h3.378v-4.111h16.422c0 4.053-2.807 7.815-6.581 9.725zM196.577 21.838h-3.378v6.056h3.378z"></path>
<path fill="#ef4923" style="fill: var(--color1, #ef4923)" d="M245.238 46.367c-4.007 2.003-8.339 2.19-11.822 2.19-14.454 0-17.948-6.627-17.948-16.865 0-11.391 4.857-16.97 18.542-16.97 8.153 0 13.056 2.096 15.723 6.383 1.048 1.759 2.050 4.239 2.050 9.912v2.329h-19.8v7.419h3.378v-4.111h16.446c0 4.053-2.865 7.815-6.581 9.725zM235.362 21.838h-3.378v6.056h3.378z"></path>
<path fill="#ef4923" style="fill: var(--color1, #ef4923)" d="M273.703 47.613v-3.005c-2.076 2.236-5.032 3.631-8.314 3.631-0.161 0-0.32-0.003-0.479-0.010l0.023 0.001c-0.212 0.017-0.459 0.027-0.707 0.027-2.519 0-4.806-0.991-6.494-2.604l0.004 0.003c-3.005-2.912-3.494-8.153-3.576-13.301 0-6.056 0.477-10.203 2.143-12.812 2.050-3.145 4.903-4.379 8.817-4.379s6.674 1.165 8.584 3.191v-12.113h16.061v41.37zM273.703 24.598h-3.331v13.767h3.331z"></path>
<path fill="#ef4923" style="fill: var(--color1, #ef4923)" d="M331.449 48.801c-6.988 0-11.204-1.666-14.244-4.438-3.809-3.494-4.379-9.527-4.379-17.47 0-16.923 4.1-21.92 19.206-21.92s19.206 4.962 19.206 21.92c0 4.239-0.233 9.958-1.619 13.149h3.669v8.817h-21.826zM333.639 14.535h-3.284v25.495h3.284z"></path>
<path fill="#ef4923" style="fill: var(--color1, #ef4923)" d="M374.589 47.613v-3.145c-2.265 2.33-5.43 3.776-8.932 3.776-0.209 0-0.418-0.005-0.625-0.015l0.029 0.001c-0.062 0.001-0.134 0.002-0.207 0.002-3.47 0-6.517-1.811-8.248-4.54l-0.024-0.040c-1.036-1.966-1.644-4.296-1.644-6.769 0-0.303 0.009-0.603 0.027-0.901l-0.002 0.041v-20.254h16.201v22.781h3.331v-22.781h16.061v31.843z"></path>
<path fill="#ef4923" style="fill: var(--color1, #ef4923)" d="M422.959 46.367c-4.007 2.003-8.339 2.19-11.822 2.19-14.489 0-17.971-6.674-17.971-16.876 0-11.391 4.903-16.97 18.635-16.97 8.153 0 13.056 2.096 15.723 6.383 1.048 1.759 2.003 4.239 2.003 9.912v2.329h-19.8v7.431h3.436v-4.111h16.399c0 4.053-2.76 7.815-6.534 9.725zM413.164 21.838h-3.436v6.056h3.436z"></path>
<path fill="#ef4923" style="fill: var(--color1, #ef4923)" d="M461.697 46.367c-3.96 2.003-8.386 2.19-11.775 2.19-14.489 0-17.971-6.674-17.971-16.876 0-11.391 4.903-16.97 18.635-16.97 8.153 0 13.010 2.096 15.677 6.383 1.048 1.759 2.003 4.239 2.003 9.912v2.329h-19.858v7.431h3.378v-4.111h16.422c0 4.053-2.76 7.815-6.534 9.725zM451.809 21.838h-3.401v6.056h3.378z"></path>
<path fill="#ef4923" style="fill: var(--color1, #ef4923)" d="M490.243 47.613v-22.921h-3.401v22.921h-15.991v-31.843h15.537v3.052c1.235-1.817 4.379-4.1 9.585-4.1 6.767 0 10.482 4.379 10.482 10.867v22.013z"></path>
<path fill="#ef4923" style="fill: var(--color1, #ef4923)" d="M509.356 44.13c0.001-1.929 1.565-3.493 3.494-3.493s3.494 1.564 3.494 3.494c0 1.901-1.518 3.447-3.408 3.493l-0.004 0c-0.024 0.001-0.053 0.001-0.082 0.001-1.93 0-3.494-1.564-3.494-3.494 0-0 0-0.001 0-0.001v0zM512.85 47.089c0.017 0 0.038 0.001 0.058 0.001 1.608 0 2.912-1.304 2.912-2.912s-1.304-2.912-2.912-2.912c-1.591 0-2.885 1.277-2.911 2.862l-0 0.002c-0.001 0.021-0.001 0.045-0.001 0.070 0 1.583 1.274 2.869 2.853 2.888h0.002zM512.093 46.18h-0.571v-4.053h1.526c0.955 0 1.433 0.338 1.433 1.165s-0.477 1.002-1.048 1.095l1.165 1.759h-0.71l-1.048-1.759h-0.71v1.817zM512.85 43.851c0.477 0 0.955 0 0.955-0.664 0-0.477-0.477-0.571-0.862-0.571h-0.862v1.235z"></path>
<path fill="#ef4923" style="fill: var(--color1, #ef4923)" d="M34.696 19.637h-0.233c-1.117 0.126-1.98 1.053-2.003 2.187l-0 0.002c0 0.001 0 0.001 0 0.002 0 1.254 0.99 2.276 2.232 2.327l0.005 0c0.002 0 0.004 0 0.006 0 0.43 0 0.83-0.126 1.167-0.343l-0.008 0.005c0.17-0.084 0.314-0.198 0.429-0.336l0.002-0.002c0.41-0.387 0.665-0.935 0.665-1.542 0-0.027-0.001-0.054-0.002-0.081l0 0.004c0-1.235-1.001-2.236-2.236-2.236v0z"></path>
<path fill="#ef4923" style="fill: var(--color1, #ef4923)" d="M27.405 19.916v0s-0.093 0-0.093 0c-0.014-0.004-0.030-0.007-0.047-0.007s-0.033 0.003-0.048 0.007l0.001-0v-0.093c-0.028 0.008-0.060 0.012-0.093 0.012s-0.065-0.004-0.096-0.013l0.003 0.001c-0.065 0.013-0.139 0.020-0.215 0.020s-0.151-0.007-0.223-0.021l0.007 0.001h-0.233c-1.235 0-2.236 1.001-2.236 2.236v0c-0.012 0.079-0.019 0.17-0.019 0.262s0.007 0.183 0.021 0.272l-0.001-0.010c0.227 1.013 1.119 1.759 2.185 1.759 0.002 0 0.003 0 0.005 0h-0c0.857-0.038 1.601-0.488 2.044-1.155l0.006-0.010c0.147-0.334 0.233-0.724 0.233-1.134 0-0.011-0-0.021-0-0.032v0.002c0-0.006 0-0.014 0-0.022 0-0.834-0.467-1.56-1.153-1.929l-0.012-0.006z"></path>
<path fill="#ef4923" style="fill: var(--color1, #ef4923)" d="M42.837 19.637h-0.245c-0.916 0.106-1.657 0.75-1.906 1.603l-0.004 0.016c-0.064 0.179-0.113 0.387-0.138 0.604l-0.001 0.014c0 1.287 1.043 2.329 2.329 2.329v0h0.338c0.931-0.169 1.666-0.854 1.906-1.742l0.004-0.017c0.011-0.079 0.018-0.17 0.018-0.262s-0.006-0.183-0.019-0.272l0.001 0.010c-0.006-1.237-1.010-2.238-2.248-2.238-0.029 0-0.057 0.001-0.086 0.002l0.004-0z"></path>
<path fill="#ef4923" style="fill: var(--color1, #ef4923)" d="M58.095 51.375c11.251-4.857 18.868-13.673 18.868-23.736 0-15.199-17.342-27.638-38.458-27.638s-38.505 12.439-38.505 27.638 17.342 27.592 38.435 27.592c0.087 0.002 0.19 0.003 0.294 0.003 0.553 0 1.099-0.035 1.633-0.103l-0.063 0.007c0.955 0 1.048 0 1.479 0.908s1.002 2.050 1.281 2.621c1.164 3.173 4.159 5.397 7.673 5.397 0.091 0 0.182-0.001 0.272-0.004l-0.013 0c4.1-0.14 8.153-0.093 12.299-0.14 0.571 0 0.862-0.338 0.862-0.617 0-0.001 0-0.003 0-0.004 0-0.169-0.072-0.32-0.186-0.427l-0-0c-1.317-0.89-2.382-2.056-3.131-3.42l-0.026-0.051c-0.815-1.712-2.050-4.333-3.051-6.383-0.159-0.261-0.277-0.566-0.335-0.892l-0.002-0.016c0-0.338 0.186-0.571 0.664-0.71zM53.844 43.874v0c0-0.093-0.093-0.093-0.14-0.245s-0.186-0.291-0.245-0.384c-2.527-5.381-5.195-10.68-7.629-16.061-0.051-0.201-0.172-0.367-0.335-0.476l-0.003-0.002h-1.561v0.14c0.148 0.23 0.292 0.498 0.416 0.776l0.015 0.039c0.185 0.445 0.361 0.805 0.554 1.153l-0.030-0.058c0.209 0.363 0.391 0.784 0.525 1.227l0.011 0.043c0.011 0.107 0.018 0.23 0.018 0.355s-0.006 0.249-0.019 0.37l0.001-0.015c0.002 0.033 0.003 0.072 0.003 0.112 0 0.749-0.404 1.404-1.007 1.758l-0.010 0.005c-0.266 0.154-0.586 0.245-0.926 0.245-0.010 0-0.020-0-0.030-0h0.002c-0.24-0.009-0.467-0.042-0.686-0.098l0.022 0.005c-1.087-0.373-1.995-1.036-2.657-1.897l-0.010-0.013c-0.477-0.571-0.757-1.002-1.165-1.619s-0.524-0.908-0.815-1.386c-0.126-0.271-0.269-0.504-0.437-0.718l0.006 0.008c-0.051-0.274-0.288-0.479-0.573-0.479-0.016 0-0.031 0.001-0.046 0.002l0.002-0h-1.165v0.186c0.107 0.164 0.205 0.352 0.284 0.549l0.008 0.021c0.186 0.384 0.384 0.757 0.617 1.165 0.35 0.678 0.573 1.473 0.617 2.315l0.001 0.014c0.003 0.043 0.005 0.094 0.005 0.145 0 1.132-0.918 2.050-2.050 2.050-0.051 0-0.102-0.002-0.152-0.005l0.007 0c-1.192-0.044-2.253-0.568-3.002-1.383l-0.003-0.003c-0.346-0.261-0.633-0.578-0.854-0.94l-0.008-0.015c-0.134-0.191-0.262-0.408-0.372-0.636l-0.012-0.028c-0.338-0.524-0.617-1.048-0.908-1.572s-0.524-0.955-0.862-1.433-0.524-0.477-0.862-0.524h-0.955v0.14c2.714 5.532 5.486 11.204 8.293 16.923 0.664 1.386 1.386 2.714 2.003 4.1 0.143 0.182 0.233 0.411 0.245 0.661l0 0.003s0 0.093 0 0.186c-0.103 0.116-0.253 0.189-0.419 0.189-0.020 0-0.041-0.001-0.061-0.003l0.002 0h-0.093c-2.886-0.034-5.654-0.483-8.266-1.289l0.206 0.055c-10.005-2.958-17.109-10.867-17.109-20.068 0-11.775 11.484-21.395 25.74-21.395s25.786 9.62 25.833 21.349c0 0.042 0.001 0.092 0.001 0.142 0 1.979-0.333 3.88-0.946 5.651l0.037-0.121c-1.549 4.416-4.455 8.031-8.212 10.434l-0.081 0.048c-0.126 0.125-0.29 0.212-0.472 0.244l-0.005 0.001c-0.13-0.019-0.246-0.073-0.339-0.152l0.001 0.001z"></path>
<path fill="#ef4923" style="fill: var(--color1, #ef4923)" d="M66.819 63.814v-3.715h-0.769v-0.571h2.19v0.571h-0.804v3.715h-0.617z"></path>
<path fill="#ef4923" style="fill: var(--color1, #ef4923)" d="M68.67 63.814v-4.286h0.908l1.235 3.284 1.2-3.284h0.955v4.286h-0.629l0.047-3.715-1.374 3.715h-0.431l-1.386-3.715 0.047 3.715h-0.571z"></path>
</symbol>
<symbol id="icon-dacor" viewBox="0 0 229 64">
<title>dacor</title>
<path fill="#000" style="fill: var(--color2, #000)" d="M158.757 25.99c-2.767 0.13-7.656 1.57-8.772 6.173l-3.898 21.766c-0.883 4.699 1.565 10.022 6.822 10.073h29.239c3.754-0.054 8.073-1.208 9.097-6.822l4.223-22.741c0.79-4.579-2.372-8.316-6.822-8.447h-29.889z"></path>
<path fill="#fff" style="fill: var(--color3, #fff)" d="M162.33 36.711c-2.025-0.092-2.599 0.628-2.924 1.624l-2.27 11.695c-0.136 1.69 0.872 3.416 2.599 3.571h18.518c1.76-0.157 3.2-1.305 3.571-2.924l1.95-10.721c0.549-1.9-0.458-3.335-2.274-3.249h-19.169z"></path>
<path fill="#000" style="fill: var(--color2, #000)" d="M144.467 36.711h-26.639c-1.96-0.092-2.539 0.628-2.924 1.624l-1.95 11.695c-0.396 1.69 0.612 3.416 2.599 3.571h25.665l-1.95 10.396h-30.859c-5.193-0.054-7.64-5.377-6.822-10.073l4.223-21.766c0.855-4.608 5.745-6.044 8.447-6.173h32.163l-1.952 10.725zM87.934 36.711h-25.99l1.95-10.721h29.234c5.328 0.13 7.77 5.452 6.822 10.073l-3.892 21.765c-1.045 4.684-5.935 6.119-8.772 6.173h-27.617c-5.366-0.054-7.807-5.377-6.822-10.073l1.299-8.121c1.024-4.727 5.913-6.167 8.772-6.173h24.366c1.831 0.005 3.27-3.011 0.65-2.924zM50.898 36.711h5.848l1.951-10.721h-5.85l4.548-25.99h-10.396l-4.548 25.99h-29.564c-2.88 0.13-7.77 1.573-8.767 6.173l-3.903 21.766c-0.996 4.699 1.446 10.022 6.822 10.073h33.79c2.404-0.054 5.42-2.209 5.848-5.523l4.223-21.766z"></path>
<path fill="#fff" style="fill: var(--color3, #fff)" d="M13.868 53.604c-1.841-0.157-2.848-1.885-2.599-3.571l2.269-11.695c0.211-0.996 0.785-1.711 2.599-1.624h24.365l-3.249 16.891z"></path>
<path fill="#000" style="fill: var(--color2, #000)" d="M212.686 29.239l2.598-2.274c1.256-0.844 2.691-0.844 4.223-0.974h9.421l-1.948 10.72h-10.396c-2.632-0.092-6.227 1.208-6.822 4.873l-4.223 22.417h-10.721l7.147-38.010h9.422l1.299 3.249z"></path>
<path fill="#fff" style="fill: var(--color3, #fff)" d="M64.868 53.604c-1.648-0.157-1.933-3.465 0.65-3.571h21.441l-0.65 3.571z"></path>
</symbol>
<symbol id="icon-lg" viewBox="0 0 134 64">
<title>lg</title>
<path fill="#a70b52" style="fill: var(--color4, #a70b52)" d="M32.001 0c-17.673 0-32.001 14.328-32.001 32s14.328 32 32.001 32 32.001-14.328 32.001-32-14.328-32-32.001-32zM39.793 43.261v2.455h-6.627v0.016h-2.458v-27.517h2.457v25.046zM32 58.788c-14.794 0-26.788-11.993-26.788-26.788s11.994-26.788 26.79-26.788q0.585 0 1.166 0.025l-0.003 2.438q-0.581-0.027-1.163-0.027c-13.449 0-24.351 10.902-24.351 24.351s10.902 24.351 24.351 24.351c13.082 0 23.756-10.315 24.326-23.256l0.006-0.069h-16.504v-2.458h18.921c0.025 0.475 0.038 0.951 0.038 1.433 0 14.794-11.994 26.788-26.788 26.788zM25.772 21.865c0 0.001 0 0.002 0 0.003 0 2.079-1.685 3.764-3.764 3.764-0.001 0-0.002 0-0.003 0h0c-2.079 0-3.764-1.685-3.764-3.764s1.685-3.764 3.764-3.764c2.079 0 3.764 1.685 3.764 3.764v0z"></path>
<path fill="#808183" style="fill: var(--color5, #808183)" d="M79.891 47.708h22.866v-6.906h-14.471v-24.728h-8.395zM130.384 18.3c-2.621-2.031-5.997-3.063-10.025-3.063-4.783 0-8.78 1.469-11.558 4.245-2.9 2.902-4.439 7.177-4.439 12.362 0 5.54 1.625 10.214 4.571 13.159 2.313 2.313 5.397 3.533 8.925 3.533 7.744 0 9.526-4.642 9.526-4.642v3.809h6.993v-17.864h-13.918v5.591h6.407s0.063 7.039-6.552 7.039c-1.68 0-3.177-0.61-4.328-1.761-1.794-1.793-2.743-4.814-2.743-8.73 0-6.487 2.578-10.359 6.895-10.359 2.697 0 4.724 1.655 5.244 4.166h8.904c-0.461-3.647-1.462-5.547-3.904-7.484z"></path>
</symbol>
<symbol id="icon-whirpool" viewBox="0 0 120 64">
<title>whirpool</title>
<path fill="#000" style="fill: var(--color2, #000)" d="M93.486 26.083c-3.336 0-5.837 2.343-5.837 5.956 0 3.575 2.423 6.038 5.837 6.038 3.456 0 5.64-2.383 5.64-5.997-0.001-3.574-2.184-5.997-5.64-5.997zM95.393 34.978c0 1.053-0.854 1.907-1.907 1.907v0c-1.031 0-1.866-0.834-1.866-1.907v-6.036c0-0.001 0-0.003 0-0.005 0-1.028 0.832-1.862 1.86-1.865h0.006c1.033 0 1.907 0.834 1.907 1.867zM81.176 26.282c-0.834 0-1.987 0.158-2.581 0.993v-1.074c-1.509 0.278-1.748 0.357-5.242 0.357v1.192c1.152 0 1.866 0.079 1.866 1.35v11.2c-0.041 1.429 0.199 2.462-1.907 2.462v1.269h7.466v-1.269h-0.238c-1.43 0-1.949-0.754-1.949-1.589v-4.17c0.675 0.914 1.589 1.113 2.423 1.113 3.218-0.041 4.965-2.185 4.965-6.038 0-3.496-1.429-5.799-4.805-5.799zM82.007 35.296c0 0.874-0.675 1.589-1.55 1.589-0.877-0.002-1.587-0.712-1.589-1.589v-6.036c0-0.874 0.715-1.55 1.589-1.55 0.007-0 0.014-0 0.022-0 0.836 0 1.515 0.671 1.527 1.504v6.082z"></path>
<path fill="#ebb53b" style="fill: var(--color6, #ebb53b)" d="M55.838 30.888c-0.635 0.635-1.231 1.271-1.827 1.866v-2.223l1.589-1.588c0.119 0.158 0.238 0.239 0.238 0.715v1.231zM65.012 22.349q-1.808 1.522-3.535 3.138v-0.954c-0.357 0.278-1.589 0.556-2.065 0.596q2.296-2.296 4.766-4.408v1.588l0.833 0.041z"></path>
<path fill="#ebb53b" style="fill: var(--color6, #ebb53b)" d="M69.38 18.656c7.466-6.037 15.569-11.398 23.868-15.052 5.639-2.304 8.895-3.257 11.2-0.715 2.303 2.502-2.661 10.644-3.694 11.676-1.27-0.397-1.747 0.239-1.747 0.239 0.474-0.158 1.31 0.199 0.754 1.47-0.238 0.474-1.19 1.152-1.588 0.040-0.474 1.191-1.628 3.217-3.018 5.083-4.688 6.394-11.2 12.55-20.691 21.009-15.529 13.821-23.551 16.92-28.953 19.182-3.892 1.468-13.781 3.614-7.307-8.339 1.35-3.099 4.964-8.262 10.126-14.219h-1.588v-0.555c-3.812 4.449-7.545 9.333-10.007 14.177-1.986 3.535-5.838 14.695 8.459 10.366 4.688-1.468 17.276-7.545 31.136-19.977 14.655-13.105 22.081-22.398 24.623-25.456 0.517-0.596 1.033-1.55 0.637-2.265 2.501-3.731 5.955-11.515 3.454-13.896-2.779-2.661-8.26-0.913-10.365-0.119-3.297 1.308-15.925 7.387-28.078 17.354h2.778z"></path>
<path fill="#000" style="fill: var(--color2, #000)" d="M44.122 11.865c-0.12 0.516-0.437 1.27-2.343 2.423-4.846 2.82-12.867 3.098-19.142 2.939-9.65-0.239-13.662-2.462-14.654-3.336-0.556-0.517-0.477-0.993 0.158-1.47 1.787-1.35 8.102-1.827 12.272-1.827s8.936 0.954 8.895 2.065c0 1.152-2.303 1.31-2.82 1.35-0.357 0.040-0.754-0.119-0.754-0.316 0.080-0.316 0.635-0.316 0.913-0.398 0.239-0.040 0.357-0.239 0.357-0.517 0-0.357-1.033-0.715-1.866-0.834-2.423-0.635-5.6-0.437-7.268-0.316-2.979 0.199-5.044 1.111-5.044 1.827 0 0.674 1.748 2.7 10.445 2.978 11.2 0.357 16.444-1.549 18.984-3.371 1.748-1.35 0.437-2.265-1.231-3.098-4.566-2.144-13.224-2.343-17.553-2.383-4.884-0.079-13.026 0.517-16.482 1.152-0.754 0.199-0.596 0.834 0.477 0.596 1.27-0.199 10.165-0.834 14.496-0.596 4.329 0.199 9.611 0.079 14.496 2.502 0.833 0.516 1.111 1.43-0.158 2.144-1.231 0.675-4.408 2.224-11.835 2.265-6.831 0.080-7.705-1.072-8.3-1.549-0.239-0.199-0.278-0.794 0.635-1.271 0.594-0.276 1.29-0.437 2.023-0.437 0.001 0 0.002 0 0.003 0h-0c0.556 0 0.754 0.596 0.158 0.636-0.596 0.158-1.231 0.238-1.231 0.675 0 0.357 0.398 0.398 0.834 0.556 0.397 0.158 2.502 0.635 5.162 0.635 3.892 0 6.871-0.555 8.618-1.589 0.715-0.357 0.913-1.509-0.316-1.906-1.907-0.635-5.32-1.748-12.43-1.748-4.884 0-13.979 0.755-16.601 1.47-0.912 0.269-3.019 0.865-3.019 1.977s1.43 1.627 2.107 1.864c3.853 1.35 14.733 2.978 19.023 3.018 11.956 0.119 18.666-0.874 22.796-4.408 0.316-0.398 0.874-0.993 0.953-1.589 0.078-0.79-0.596-0.832-0.755-0.117zM32.644 19.966c2.978 0 3.773-0.078 5.004-0.397v8.34c1.072-1.785 2.462-1.785 4.051-1.785 1.35 0 3.098 1.231 3.098 3.972v3.496c0 2.223 0.12 3.096 1.588 3.096h0.039v1.033h-6.237v-1.035c1.111 0 1.191-1.27 1.191-2.303l0.039-0.794v-3.376c0-1.43-0.474-2.265-1.39-2.265-1.867 0-2.383 1.509-2.383 3.495v2.502c0.079 1.669 0 2.739 1.389 2.739v1.033h-6.51v-1.030c1.39 0 1.748-0.794 1.748-2.343v-11.835c0-1.152 0.039-1.43-0.794-1.271-1.072 0.316-1.39 0.874-1.867 2.343l-4.647 14.695h-1.033l-3.533-9.928-3.614 9.928h-1.034l-6.472-15.687c-0.398-1.271-1.39-1.39-2.661-1.47v-1.152h8.182v1.154h-0.316c-0.873 0-0.833 0.278-0.833 0.833 0 0.316 0.040 0.596 0.278 1.43l3.495 9.533 2.383-6.671-0.995-2.468c-0.596-1.907-0.755-2.661-2.581-2.661v-1.152h7.386v1.155l-0.397 0.040c-0.596 0.076-0.674 0.355-0.674 0.909 0 0.278 0.040 0.437 0.278 1.152l2.777 9.017 3.098-9.809c0.199-0.953-0.755-1.31-1.27-1.35v-1.112h3.218zM52.978 22.826c0 1.032-0.874 1.907-1.949 1.907-1.032 0-1.866-0.874-1.866-1.907 0-1.072 0.874-1.907 1.866-1.907 1.075 0 1.949 0.833 1.949 1.907zM47.776 37.719h6.553v-1.113c-1.43 0-1.55-0.715-1.55-2.979v-7.584c-1.072 0.357-2.423 0.397-5.282 0.397v1.152h0.474c1.271 0 1.469 1.351 1.469 1.39v4.647c0 2.224-0.199 2.979-1.668 2.979v1.111zM60.643 27.194c1.072-1.31 2.859-0.913 3.018-0.913 1.152 0 1.747 1.231 1.747 2.066 0 1.152-0.754 2.025-1.787 2.025-0.993 0-1.747-0.635-1.747-1.629 0-0.316 0.039-0.516 0.158-0.675 0.12-0.119 0.12-0.158 0.12-0.199s0.041-0.316-0.041-0.316c-0.158 0-0.437-0.158-0.794 0.316-0.635 0.755-0.675 1.39-0.675 2.383v4.766c0.078 0.517 0.199 1.111 0.715 1.431 0.278 0.158 0.316 0.238 0.913 0.238v1.033h-6.553v-1.113c1.43 0 1.55-0.676 1.55-2.901v-4.763c0-1.43-0.675-1.351-1.907-1.351v-1.111c2.78 0 3.931-0.041 5.282-0.316v1.030zM118.15 33.867c0 2.223 0.474 2.581 1.907 2.779v0.993h-7.229v-1.033c1.43-0.158 1.907-0.518 1.907-2.739v-11.16c0-1.112-0.675-1.629-1.509-1.668l-0.398 0.040v-1.151c2.82 0 3.892 0.040 5.32-0.316v14.256zM106.552 26.083c-3.336 0-5.837 2.343-5.837 5.956 0 3.575 2.383 6.038 5.798 6.038 3.455 0 5.678-2.383 5.678-5.997 0.002-3.574-2.223-5.997-5.639-5.997zM108.419 34.978c0 1.072-0.834 1.907-1.866 1.907-1.052-0.001-1.905-0.854-1.905-1.906 0-0 0-0 0-0.001v0-6.036c0-1.033 0.872-1.867 1.905-1.867 0.001 0 0.001 0 0.002 0 1.029 0 1.863 0.833 1.864 1.862v0zM70.889 33.867c0 2.223 0.478 2.581 1.907 2.779v0.993h-7.227v-1.033c1.429-0.158 1.946-0.518 1.946-2.739v-11.16c-0.039-1.112-0.715-1.629-1.548-1.668l-0.398 0.040v-1.151c2.859 0 3.892 0.040 5.32-0.316v14.256z"></path>
</symbol>
<symbol id="icon-wolf" viewBox="0 0 225 64">
<title>wolf</title>
<path fill="#dcdcdc" style="fill: var(--color7, #dcdcdc)" d="M225.185 52.148c0 4.063-3.386 7.45-7.45 7.45h-210.286c-4.064 0-7.45-3.386-7.45-7.45v-40.466c0-4.064 3.386-7.45 7.45-7.45h210.455c4.064 0 7.45 3.386 7.45 7.45v40.466z"></path>
<path fill="#b3282d" style="fill: var(--color8, #b3282d)" d="M43.005 35.725c-2.201-0.508-3.894-2.878-4.233-4.91-0.169-1.185-0.169-2.37 0.847-4.402 0.847-1.524 2.032-3.048 2.37-2.878 0.169 0.339-0.339 1.693 0.339 3.217 0.677 1.862 2.878 1.185 3.217 0 0.508-1.693-0.677-3.386-0.677-4.91s1.693-3.894 2.201-3.217c0.339 0.677-0.339 3.386 2.878 5.757 2.709 2.032 3.725 4.233 3.217 6.434-0.508 2.37-1.862 3.725-2.37 3.556-0.169-0.169 0.508-1.693 0-3.217s-1.693-2.37-1.862-2.032c-0.169 0.169 1.016 3.217-0.847 5.249-0.677 1.016-2.709 1.862-5.079 1.355z"></path>
<path fill="#2a2a2a" style="fill: var(--color9, #2a2a2a)" d="M101.249 15.407c-19.979 0-20.656 1.862-20.656 16.423s0.677 16.593 20.656 16.593c19.979 0 20.656-1.862 20.656-16.593 0-14.392-0.677-16.423-20.656-16.423zM110.222 42.159c-1.524 1.185-4.064 1.355-8.974 1.355s-7.28-0.339-8.804-1.355c-1.524-1.185-1.693-4.571-1.693-10.159s0.169-9.143 1.693-10.159c1.524-1.185 4.064-1.355 8.804-1.355s7.45 0.339 8.974 1.355c1.524 1.185 1.693 4.571 1.693 10.159-0.169 5.587-0.169 8.974-1.693 10.159zM142.222 41.989c-0.339 0-0.677-0.339-0.677-0.677v-14.73c0-6.265-3.386-9.989-9.482-10.328h-0.847c-0.169 0.169-0.339 0.508-0.339 0.677v25.905c0 3.217 2.032 5.079 5.587 5.079h23.365c1.693 0 2.878-1.355 2.878-3.048 0-1.524-1.355-2.878-2.878-2.878h-17.608zM45.545 43.175c4.063 0 19.64 4.063 20.148 4.233 1.693 0.508 3.217-0.169 4.233-0.847 0.847-0.677 1.862-2.032 1.862-3.725v-25.905c0-0.339-0.169-0.508-0.339-0.677s-0.677 0-0.847 0c-5.926 0.339-9.312 4.064-9.312 10.328v13.037c0 0.339-0.339 0.847-0.847 0.677-2.709-0.677-10.497-2.54-14.561-2.54-4.233 0-11.852 1.862-14.561 2.54-0.508 0.169-0.847-0.339-0.847-0.677v-13.037c0-6.265-3.386-9.989-9.312-10.328h-1.016c-0.169 0.169-0.339 0.508-0.339 0.677v26.074c0 1.693 0.847 3.048 1.862 3.725 0.339 0.677 2.032 1.185 3.725 0.847 0.508-0.169 16.085-4.402 20.148-4.402zM169.651 21.164c0-2.805 2.274-5.079 5.079-5.079v0h31.323c0.169 0 0.508 0 0.677 0.339 0.169 0.169 0.169 0.508 0.169 0.847-0.339 5.079-3.556 7.958-8.974 7.958h-17.27c-0.339 0-0.677 0.339-0.677 0.847v4.91c0 0.339 0.339 0.677 0.677 0.677h18.286c1.693 0 3.048 1.355 3.048 2.878 0 1.693-1.355 3.048-3.048 3.048h-18.286c-0.339 0-0.677 0.339-0.677 0.677v4.571c0 2.878-2.201 5.079-5.079 5.079-2.709 0-5.079-2.37-5.079-5.079v-21.672z"></path>
</symbol>
<symbol id="icon-viking" viewBox="0 0 194 64">
<title>viking</title>
<path d="M15.305 0c-8.447 0.013-15.292 6.857-15.305 15.303v31.435c0.013 8.447 6.857 15.292 15.303 15.305h155.815c8.447-0.013 15.292-6.857 15.305-15.303v-31.435c-0.013-8.447-6.857-15.292-15.303-15.305h-0.001zM4.79 46.738v-31.433c0.008-5.804 4.711-10.506 10.514-10.515h155.814c5.804 0.008 10.506 4.711 10.515 10.514v31.434c-0.008 5.804-4.711 10.506-10.514 10.515h-155.814c-5.804-0.008-10.506-4.711-10.515-10.514v-0.001z"></path>
<path d="M12.222 12.023c-0.169-0.294-0.155-0.736 0.537-0.736h14.37s1.126 0.449 0 1.126c0 0-3.296 1.42-2.767 4.341l5.614 15.695 6.357-14.591s1.575-3.289-2.619-5.46c0 0-1.42-1.045 0-1.045h16.188s1.199 0.375 0 1.045c-1.753 0.998-3.109 2.523-3.871 4.356l-0.022 0.059c-1.126 2.538-14.37 33.221-14.37 33.221s-0.449 0.302-0.596-0.074l-13.863-33.229s-1.472-4.488-4.562-4.415c-0.163-0.053-0.298-0.156-0.388-0.292l-0.002-0.003zM140.737 46.436h-7.638s-1.346-0.221 0-1.126 3.142-1.722 3.142-4.113v-17.512s-0.309-4.194-3.745-4.716c0 0-1.082-1.126 0.449-1.126h12.126s1.567 0.074 0 1.126-4.341 2.84-4.341 4.864v17.446z"></path>
<path d="M121.164 25.599v15.68s1.045 3.289 3.738 4.113c0 0 1.347 1.045-0.074 1.045h-11.295s-2.060 0.25 0-1.126c1.347-0.898 3.142-1.722 3.142-4.113v-17.512s-0.309-4.194-3.745-4.716c0 0-1.089-1.126 0.449-1.126h13.244l9.654 19.241 0.449 5.886-3.215 3.444h-0.898l-11.449-20.816z"></path>
<path d="M94.595 17.851h18.145s1.575 0.074 0 1.126-4.341 2.84-4.341 4.864v17.438s1.045 3.289 3.745 4.113c0 0 2.318 1.045-0.074 1.045h-16.99l0.037-0.736 1.906-0.375c1.347-0.898 3.142-1.722 3.142-4.113v-17.527s-0.302-4.268-4.040-4.974l-1.604-0.316z"></path>
<path d="M94.749 18.395s-6.659 1.832-10.515 7.299l9.507 19.131c0.237 0.515 0.748 0.867 1.341 0.867 0.046 0 0.091-0.002 0.136-0.006l-0.006 0v0.736h-14.12s-0.677-0.302 0-1.045 1.722-1.472 1.722-3.819l-4.716-9.565-4.113 4.415-0.074-4.525 9.793-9.808s2.399-3.068-2.097-3.068c0 0-1.126-1.089 0-1.089h13.134zM169.624 15.754l1.575 12.869s-0.596 0.898-1.045 0.074-3.517-8.756-11.037-8.756c0 0-8.454 0.228-8.454 13.848s5.761 14.716 6.806 14.591c0 0 5.886-0.302 5.886-7.189 0 0-0.11-4.415-3.068-5.011 0 0-1.42-0.971-0.074-0.971h13.848s1.346 0.074 0.074 1.045-2.619 1.126-2.619 3.142v11.986s0.221 1.346-1.273 0-3.318-3.039-8.16-1.943c-5.798 1.332-4.113 1.332-7.785 1.045 0 0-12.347-3.296-12.347-16.688s11.449-16.762 16.982-16.614c1.885 0.053 3.649 0.517 5.222 1.305l-0.072-0.033s3.679 1.795 4.415-2.693c0 0 0.898-2.023 1.126 0zM43.258 17.851h18.152s1.575 0.074 0 1.126-4.341 2.84-4.341 4.864v17.438s1.045 3.289 3.745 4.113c0 0 2.318 1.045-0.074 1.045h-16.997v-0.736l1.876-0.375c1.346-0.898 3.142-1.722 3.142-4.113v-17.527s-0.302-4.268-4.040-4.974l-1.538-0.316z"></path>
<path d="M60.549 17.851h18.182s1.575 0.074 0 1.126-4.341 2.84-4.341 4.864v17.438s1.045 3.289 3.745 4.113c0 0 2.318 1.045-0.074 1.045h-17.026l0.037-0.736 1.906-0.375c1.346-0.898 3.142-1.722 3.142-4.113v-17.527s-0.302-4.268-4.040-4.974l-1.611-0.316zM190.19 55.354c0.009-0 0.019-0 0.029-0 2.385 0 4.319 1.934 4.319 4.319s-1.934 4.319-4.319 4.319c-2.375 0-4.302-1.917-4.319-4.288v-0.002c-0-0.018-0-0.038-0-0.059 0-2.328 1.871-4.22 4.191-4.252l0.003-0zM190.19 56.024c-0.139-0.019-0.3-0.029-0.464-0.029-2.032 0-3.679 1.647-3.679 3.679s1.647 3.679 3.679 3.679c2.032 0 3.679-1.647 3.679-3.679 0-0.163-0.011-0.324-0.031-0.482l0.002 0.019c-0.218-1.665-1.521-2.968-3.167-3.184l-0.019-0.002zM189.388 62.175h-0.736v-4.783c0.408-0.073 0.879-0.115 1.359-0.118h0.002c0.048-0.003 0.104-0.005 0.161-0.005 0.484 0 0.937 0.136 1.322 0.372l-0.011-0.006c0.272 0.213 0.444 0.542 0.444 0.911 0 0.029-0.001 0.058-0.003 0.087l0-0.004c0 0.001 0 0.003 0 0.005 0 0.57-0.4 1.046-0.934 1.164l-0.008 0.001v0.037c0.419 0.074 0.736 0.456 0.802 1.17 0.030 0.428 0.122 0.826 0.267 1.197l-0.010-0.028h-0.802c-0.171-0.359-0.287-0.776-0.323-1.216l-0.001-0.013c-0.024-0.477-0.416-0.854-0.897-0.854-0.013 0-0.027 0-0.040 0.001l0.002-0h-0.64zM189.388 59.512h0.552c0.633 0 1.17-0.228 1.17-0.824 0-0.419-0.309-0.846-1.17-0.846-0.004 0-0.009 0-0.014 0-0.19 0-0.376 0.013-0.559 0.039l0.021-0.002z"></path>
</symbol>
<symbol id="icon-thermador" viewBox="0 0 433 64">
<title>thermador</title>
<path d="M423.668 22.653c-0.866 0.869-1.407 2.062-1.424 3.382l-0 0.003c0 1.426 0.534 2.497 1.424 3.566 0.868 0.868 2.062 1.41 3.382 1.426h0.003c0.022 0 0.048 0.001 0.074 0.001 1.303 0 2.479-0.547 3.309-1.424l0.002-0.002c1.073-1.069 1.428-2.14 1.428-3.566 0-1.245-0.357-2.495-1.428-3.385-0.832-0.879-2.008-1.426-3.311-1.426-0.026 0-0.052 0-0.078 0.001l0.004-0c-1.324 0.015-2.518 0.557-3.385 1.426l-0 0zM431.16 30.139c-1.251 1.069-2.497 1.602-4.103 1.602-0.008 0-0.017 0-0.027 0-1.519 0-2.895-0.612-3.894-1.603l0 0c-1.069-1.249-1.601-2.497-1.601-4.099-0-0.016-0-0.035-0-0.053 0-3.002 2.419-5.44 5.414-5.469h0.107c1.606 0 2.848 0.534 4.103 1.602 0.989 0.999 1.601 2.375 1.601 3.893 0 0.010 0 0.019-0 0.029v-0.002c0 1.602-0.537 2.848-1.601 4.099zM428.122 23.899c-0.177 0-0.716-0.18-1.251-0.18h-0.889v2.316h0.889c0.534 0 0.894-0.177 1.073-0.177q0.535-0.266 0.534-1.069c0-0.357 0-0.712-0.357-0.892zM427.051 23.007c0.716 0 1.251 0 1.606 0.18 0.712 0.357 0.889 0.892 0.889 1.602 0 0.014 0.001 0.031 0.001 0.048 0 0.475-0.206 0.902-0.533 1.197l-0.001 0.001c-0.177 0.18-0.534 0.18-0.889 0.18 0.534 0.177 0.889 0.357 1.069 0.714s0.357 0.534 0.357 0.889v1.249h-0.889l-0.177-0.177v-0.534c0-0.714-0.177-1.245-0.534-1.426-0.177-0.177-0.539-0.177-1.251-0.177h-0.712v2.314h-1.069v-6.060h2.132zM56.37 0.019c1.959 0 1.783 1.426 1.426 3.038l-0.535 2.658c-0.714 2.497-1.783 1.959-2.848 1.959h-7.488c-7.843 0-9.269 5.525-10.516 10.514l-10.157 43.488c-0.534 1.957-1.783 2.312-3.566 2.312h-12.656c-3.564 0-2.316-2.312-2.316-3.209l10.157-42.586c2.495-10.157-1.426-10.514-10.338-10.514h-5.339c-1.069 0-2.495-0.357-2.14-1.783l1.071-4.277c0.357-1.783 1.783-1.602 3.030-1.602h52.21zM188.607 22.297h47.046c4.991 0 10.696 2.497 8.733 10.334l-6.772 29.048c-0.357 2.134-2.14 2.134-3.742 2.312h-9.8c-0.894 0-3.209 0-2.675-2.134l6.772-29.238c0.712-2.848-1.069-4.276-3.038-4.276s-3.742 1.249-4.275 3.564l-6.941 29.777c-0.357 2.134-1.959 2.312-3.385 2.312h-9.981c-0.892 0-3.209 0-2.848-2.312l6.951-29.048c0.714-2.848-1.426-4.276-3.209-4.276s-3.564 1.249-4.099 3.564l-6.954 29.76c-0.357 1.245-0.714 2.312-3.209 2.312h-10.338c-1.249 0-3.385-0.357-2.848-2.312l8.912-37.781c0.177-0.892 0.892-1.606 2.14-1.606zM339.020 0.019c2.669 0 1.957 1.783 1.781 3.038l-13.721 58.635c-0.534 1.957-2.14 2.312-3.742 2.312h-26.914c-6.237 0-6.949-7.484-5.696-12.297l5.164-22.469c0.889-4.277 4.636-6.951 9.624-6.951h10.334c1.963 0 0.894 2.316 0.539 3.742-0.359 1.783-0.894 1.783-1.785 1.783-3.038 0-3.742 1.959-4.276 3.742l-5.348 22.99c-0.712 2.848 1.069 4.279 2.848 4.279s3.564-0.894 4.097-3.209l12.658-53.64c0.535-2.138 2.318-1.959 3.564-1.959h10.873zM255.971 22.297c-1.963 0-3.038 0-3.564 1.426l-0.357 1.959c-0.19 0.534-0.359 1.783 1.069 1.783h17.992c3.038 0 2.316 1.959 1.251 6.772l-4.986 21.201c-0.534 2.312-2.134 3.385-3.921 3.385s-3.564-1.428-2.848-4.279l3.038-12.832c0.357-1.424 0.712-2.497 3.209-2.497 0.534 0 2.14 0 2.497-1.424 0.357-0.889 1.245-3.038-0.357-3.038h-13.366c-6.060 0-6.776 4.454-7.311 6.949l-2.312 9.8c-1.251 5.348 0 12.473 6.060 12.473h26.551c1.601 0 3.385-0.177 3.921-2.312l6.772-29.048c1.963-7.841-3.742-10.334-8.912-10.334h-24.415zM118.033 45.649c-0.357 1.069 0.177 1.6 1.069 1.6h13.009c6.237 0 6.772-4.809 7.129-6.949l1.959-8.376c1.602-6.237-2.14-9.624-6.594-9.624h-25.486c-1.602 0-4.632 1.071-5.696 5.168l-6.060 26.2c-1.959 7.841 3.922 10.334 8.912 10.334h24.941c2.14 0 2.671-0.177 3.038-1.424l0.543-1.963c0.177-0.533 0.357-1.957-1.071-1.781h-18.196c-3.038 0-2.497-1.606-1.249-6.954l4.989-21.028c0.534-2.314 2.14-3.385 3.921-3.385 2.316 0 3.566 1.426 2.848 4.277l-1.779 8.373c-0.534 1.6-0.892 2.675-3.385 2.675-0.714 0-2.138 0-2.495 1.424l-0.347 1.431zM76.866 22.297h11.050c5.168 0 10.691 2.675 8.912 10.516l-6.772 28.871c-0.534 1.957-2.316 2.312-3.742 2.312h-9.981c-0.888 0-3.038 0-2.495-2.312l6.772-29.587c0.892-2.848-1.071-4.454-3.038-4.454-4.099 0-4.634 1.071-5.346 3.385l-7.12 30.656c-0.534 1.957-1.959 2.312-3.92 2.312h-10.518c-2.848 0-2.314-1.6-2.138-3.038l13.899-58.988c0.716-2.305 2.5-1.952 3.746-1.952h10.871c2.14 0 2.14 1.602 1.783 2.848l-4.099 17.288c-0.357 1.781 0 2.138 2.138 2.138zM371.809 22.297c4.991 0 10.869 2.497 8.912 10.334l-6.237 26.2c-0.889 4.097-4.103 5.166-5.696 5.166h-26.010c-5.348 0-10.691-2.497-8.912-10.334l6.237-26.375c0.889-4.099 4.097-4.991 5.696-4.991zM350.956 54.551c-0.712 2.848 1.251 4.279 3.038 4.279 2.848 0 4.279-1.251 4.991-3.924l5.346-22.989c0.712-2.671-1.251-4.099-3.209-4.099-2.848 0-4.279 1.249-4.815 3.566l-5.346 23.162zM142.45 63.996c-1.249 0-3.209-0.177-2.675-2.497l8.733-37.422c0.357-0.892 1.069-1.783 2.316-1.783h27.088c1.245 0 0.712 1.249 0.534 1.783l-0.363 2.14c-0.357 1.426-1.426 1.245-2.14 1.245-5.168 0.177-11.581-1.426-14.078 9.090l-5.886 25.129c-0.357 1.245-0.712 2.312-3.209 2.312h-10.322zM381.79 63.996c-1.245 0-3.209-0.177-2.675-2.497l8.733-37.422c0.259-1.032 1.179-1.783 2.274-1.783 0.015 0 0.030 0 0.045 0l-0.002-0h26.908c1.251 0 0.889 1.249 0.712 1.783l-0.534 2.14c-0.357 1.426-1.424 1.245-1.957 1.245-5.348 0.177-11.581-1.426-14.082 9.090l-5.885 25.129c-0.357 1.245-0.712 2.312-3.209 2.312h-10.32z"></path>
</symbol>
<symbol id="icon-maytag" viewBox="0 0 123 64">
<title>maytag</title>
<path d="M86.335 34.543c-1.258 0-2.322 0.968-2.322 2.278 0 1.325 1.063 2.292 2.322 2.292 1.246 0 2.311-0.968 2.311-2.292-0.001-1.31-1.064-2.278-2.311-2.278zM86.335 38.734c-1.046 0-1.863-0.81-1.863-1.912 0-1.082 0.816-1.899 1.863-1.899 1.033 0 1.85 0.816 1.85 1.899 0 1.1-0.816 1.912-1.85 1.912z"></path>
<path d="M86.703 36.986c0.387-0.051 0.683-0.253 0.683-0.725 0-0.52-0.308-0.75-0.931-0.75h-1.004v2.637h0.398v-1.142h0.46l0.696 1.142h0.448zM85.85 36.662v-0.817h0.544c0.278 0 0.576 0.061 0.576 0.387 0 0.405-0.304 0.429-0.641 0.429h-0.478zM72.647 26.134l-6.668-15.607c-0.624-1.593-1.126-1.853-3.135-1.853v-0.569h4.936c1.873 0 3.341 0.294 4.416 2.806l6.529 14.792c0.486 1.109 1.801 1.958 2.98 1.958 0.759-0.069 2.286-0.017 2.286-1.645v-20.027c0-3.306-2.68-5.987-5.987-5.987v0h-30.011c-3.305 0.001-5.984 2.681-5.984 5.986 0 0 0 0 0 0.001v-0 2.117h7.964c1.873 0 2.702-0.139 3.88 2.771l6.443 14.826c0.485 1.109 0.727 2.148 2.84 2.148v0.557h-4.988c-1.663 0-2.84-0.139-3.811-2.286l-6.512-14.899c-0.9-1.663-1.663-2.338-3.603-2.356-0.762 0.069-2.217 0.572-2.217 1.749v20.214c0 0 0 0 0 0 0 3.306 2.68 5.985 5.985 5.986h30.012c3.306 0 5.986-2.68 5.986-5.986v0-2.425h-7.41c-1.663 0-2.962-0.123-3.931-2.271zM72.316 28.403h-4.953c-1.663 0-2.98-0.277-3.948-2.425l-6.652-15.45c-0.624-1.593-1.316-1.873-3.325-1.873v-0.551h5.751c1.873 0 2.702-0.139 3.88 2.772l6.374 14.827c0.484 1.108 0.658 2.148 2.874 2.148v0.557zM51.738 63.479c-1.721 0-2.695-2.144-3.019-3.084l-6.265-17.044h-7.208c-0.552 0-0.585 0.519 0 0.519 1.786-0.032 1.85 1.591 1.558 2.5l-4.48 14.383c-0.682 2.176-2.208 2.662-2.922 2.727-1.819 0-2.727-1.819-2.727-2.986v-13.41c0-3.117 1.558-2.954 2.403-3.214 0.456 0 0.357-0.519 0-0.519h-7.598l-6.168 13.636-6.688-13.636h-8.246c-0.487 0-0.52 0.519 0 0.519 2.273 0 2.792 1.558 2.792 2.858v12.596c0 3.507-2.075 4.156-2.792 4.156-0.456 0-0.487 0.519 0 0.519h6.557c0.519 0 0.519-0.519 0.065-0.519-2.857 0-2.792-4.156-2.792-4.156v-12.142c0.032-0.456 0.519-0.456 0.714-0.13l8.117 16.363c0.26 0.456 0.389 0.747 0.584 0.228l7.826-17.337c0.194-0.422 0.551-0.195 0.551 0.228v13.733c0 2.858-1.819 3.149-2.662 3.214-0.584 0-0.617 0.519 0.065 0.519h16.72c0.456 0 0.456-0.519 0-0.519-1.786 0-2.889-1.623-2.075-4.026l0.911-2.986h7.091l1.316 3.603c0.844 2.37-1.039 3.377-2.045 3.409-0.52 0-0.649 0.519 0 0.519h10.422c0.423 0 0.456-0.519 0-0.519zM35.279 55.676l2.792-9.156c0.065-0.211 0.292-0.324 0.422 0l3.335 9.156zM79.051 63.482c-1.428 0-2.564-1.753-2.564-2.858v-15.779c0-0.423 0.354-0.552 0.617-0.552h2.142c2.531-0.033 4.384 3.246 4.74 4.025 0.358 0.552 0.682 0.163 0.617-0.065l-1.98-4.903h-17.436s-3.928 8.993-4.090 9.318c-0.134 0.267-0.292 0.227-0.487-0.097l-3.604-6.137c-1.169-2.045 0.487-2.565 1.039-2.565 0.584 0 0.519-0.585 0.033-0.519h-9.611c-0.552 0-0.552 0.552 0.032 0.519 2.013 0 2.986 1.591 3.539 2.5l4.286 7.401c0.487 0.81 0.681 1.85 0.681 2.37v4.578c0 1.072-1.331 2.76-2.694 2.76-0.519 0-0.519 0.519-0.032 0.519h10.031c0.487 0 0.519-0.519 0.033-0.519-1.851 0-2.663-1.916-2.663-2.76v-4.805c-0.032-1.169 0.584-2.889 0.584-2.889l2.176-5c1.785-4.22 5.843-3.701 6.817-3.733 0.553 0 0.553 0.292 0.553 0.648v15.617c0 2.075-1.656 2.922-2.305 2.955-0.617 0-0.585 0.486 0.032 0.486h9.48c0.648-0.031 0.747-0.519 0.032-0.519zM115.22 53.482c-0.778 0-0.778 0.779-0.064 0.779 1.104 0 2.986-0.26 2.986 2.208v5.259c0.066 0.844-0.13 1.234-0.911 1.234 0 0-4.090 0.39-5.389-0.78-2.675-2.406-3.312-14.286-0.195-16.882 1.169-1.039 2.403-1.623 5.325-1.428s4.22 2.272 4.285 5.324c0 0.81 0.78 0.649 0.78 0v-6.040h-9.285c-2.013 0-8.831 0-8.831 10.194s5.714 10.649 9.611 10.649c1.819 0 7.597-0.065 9.286-0.519v-9.999zM104.084 63.482c-1.721 0-2.695-2.144-3.020-3.084l-6.263-17.047h-7.21c-0.551 0-0.584 0.519 0 0.519 1.786-0.032 1.851 1.591 1.559 2.5l-4.481 14.382c-0.681 2.176-2.206 2.662-2.922 2.727-0.422 0-0.422 0.519 0 0.519h6.721c0.456 0 0.456-0.519 0-0.519-1.786 0-2.89-1.623-2.075-4.026l0.911-2.986h7.093l1.316 3.603c0.844 2.37-1.039 3.377-2.045 3.409-0.521 0-0.65 0.519 0 0.519h10.422c0.421 0 0.453-0.519 0-0.519zM87.549 55.676l2.792-9.156c0.064-0.211 0.291-0.324 0.422 0l3.341 9.156z"></path>
</symbol>
<symbol id="icon-magic" viewBox="0 0 234 64">
<title>magic</title>
<path d="M51.986 22.234c-0.154-0.17-0.404-0.203-0.669-0.089-1.196 0.468-1.55 0.206-1.808-0.102-0.321-0.363-0.803-0.34-1.259 0.058-4.396 3.921-10.741 5.122-14.13 5.489-1.309 0.151-2.346 0.168-2.925 0.029-0.289 0.289-0.843 0.519-1.197 0.488-0.084-0.005-0.162-0.027-0.232-0.061l0.004 0.002c0.837-0.791 1.473-1.785 1.83-2.905l0.013-0.049c0.44-0.487 0.832-1.032 1.16-1.618l0.023-0.045c0.055-0.105 0.224-0.425 0.047-0.649s-0.524-0.127-0.625-0.102c-0.193 0.005-0.349-0.482-0.349-0.758-0.335-2.106-1.572-3.869-3.296-4.907l-0.031-0.018c0.428-0.744 0.936-0.948 1.395-1.129 2.002-0.8 3.827-3.035 5.207-6.435 1.275-3.133 0.332-6.613-0.707-7.979s-3.272-1.84-5.317-1.121c-1.289 0.453-3.69 2.589-5.62 4.304-1.033 0.926-1.933 1.727-2.433 2.064-0.699 0.474-1.655 0.816-2.865 1.247s-2.7 0.964-4.383 1.803c-1.507 0.753-2.461 1.78-2.839 3.053s-0.126 2.768 0.712 4.195c1.491 2.54 5.229 1.746 5.785 1.44 0.35-0.193 0.921-0.038 1.234 0.232s0.223 0.675 0.101 0.948c-0.546 0.962-0.867 2.112-0.868 3.338v0c0 0 0 0.001 0 0.002 0 0.78 0.127 1.529 0.363 2.23l-0.014-0.049c0.047 0.143 0.043 0.299-0.009 0.365-0.031 0.040-0.096 0.055-0.193 0.046-0.029-0.005-0.063-0.009-0.097-0.009-0.222 0-0.413 0.13-0.502 0.318l-0.001 0.003c-0.074 0.169-0.060 0.418 0.199 0.613s1.002 0.549 1.667 0.686c0.892 1.175 2.121 2.051 3.543 2.488l0.050 0.013 0.902 2.779 2.379-1.157c0.331-0.154 0.719-0.245 1.128-0.245 0.234 0 0.461 0.029 0.677 0.085l-0.019-0.004 2.68 0.46c0.589-0.868 1.061-1.124 1.321-1.129 0.177 0 0.335 0.084 0.436 0.214l0.001 0.001c2.308 3.132 2.669 5.522 2.5 8.364-0.182 3.009-3.617 4.351-5.327 4.374-2.851 0.065-4.989-0.851-6.357-2.721-2.307-3.157-1.767-8.189-1.134-10.038-12.824-2.762-16.404-8.758-17.53-10.692l-0.139-0.235c-0.129-0.252-0.361-0.435-0.639-0.496l-0.006-0.001c-0.346-0.067-0.751 0.076-1.23 0.429l-1.508-1.040c-0.342-0.336-0.637-0.441-0.879-0.308-0.195 0.115-0.204 1.24-0.204 1.24v0.012l0.675 2.037c0.115 0.369 0.274 0.873 0.964 1.212 1.999 1.191 3.375 2.357 4.069 3.456l12.516 12.461c0.786 0.688 0.737 1.783 0.557 2.582-1.879 5.286-8.933 11.985-8.933 11.985h7.401c1.753 0 1.793 0.634 1.839 1.436 0.049 0.834-0.151 4.146-0.511 5.43s-0.693 1.597-1.52 1.919c-0.645 0.252-0.733 0.559-0.694 0.771 0.055 0.296 0.386 0.472 0.675 0.472 0 0 0.791 0.114 1.625-0.902 0.405-0.493 5.699-6.846 6.133-7.275 0.231-0.253 0.56-0.527 0.859-0.444 0.334 0.096 0.579 0.579 0.657 0.997 0.143 0.711 0.244 7.492 0.244 7.492l0.274-0.025c0.855-0.077 1.481 0.282 1.983 0.573q0.163 0.096 0.33 0.182c0.277 0.138 0.552 0.105 0.675-0.080 0.083-0.13 0.086-0.338-0.154-0.53-0.705-0.579-1.087-1.107-1.128-1.557-0.039-0.405 0.205-0.736 0.437-1.011 2.256-2.708 8.847-11.303 10.124-15.042 1.482-4.339 1.121-9.932-0.060-12.728 1.036-1.478 8.292-6.296 9.762-6.653 2.052-0.496 2.435-1.423 3.101-3.044 0.318-0.579 0.193-0.909 0.086-1.034zM18.5 16.803c-0.092-0.416-0.325-0.83-0.572-1.026-0.207-0.052-0.311 0.064-0.156 0.273 0.964 1.312-0.258 1.506-0.935 1.714-0.417 0.207-2.963 0.572-4.158-0.831s-1.714-4.469 0.831-5.978 6.080-2.025 7.848-3.17 6.027-5.248 6.964-5.978 3.787-1.71 5.351 0.315 1.405 5.171 0.781 6.943-2.338 4.651-3.742 5.587-1.858 0.325-1.819-0.092c0.034-0.365 0.155-1.571 0.207-1.78 0.065-0.338-0.182-0.482-0.289 0.039s-0.442 3.338-1.117 3.962c-0.81-0.366-1.756-0.579-2.752-0.579-0.001 0-0.002 0-0.003 0h0c-0.005 0-0.011 0-0.017 0-1.785 0-3.408 0.694-4.615 1.827l0.004-0.003c-0.468 0.417-0.675 0.363-1.091-0.050s-0.611-0.654-0.721-1.172zM22.274 28.552c-0.83-0.402-1.529-0.952-2.089-1.622l-0.008-0.010c0.727-0.132 1.747-0.568 2.035-0.998 0.182-0.156 0.104-0.311-0.234-0.104s-1.552 0.463-2.332 0.359c-0.365-0.588-0.64-1.275-0.784-2.008l-0.006-0.039c0.338-0.328 0.858-0.511 1.068-0.689s0.662-0.299 1.019-0.407c0.214-0.070 0.416-0.142 0.369-0.376-0.037-0.193-0.808-0.248-1.193-0.114-0.641 0.225-1.061 0.193-1.35-0.079 0.221-3.241 2.904-5.785 6.181-5.785 3.421 0 6.194 2.773 6.194 6.194 0 0.144-0.005 0.287-0.015 0.428l0.001-0.019q-0.008 0.114-0.019 0.228-0.023 0.271-0.069 0.54c-1.482 1.326-4.461 1.223-4.877 1.145s-0.521 0.026-0.234 0.235c1.454 0.702 3.857 0.38 4.604 0.193-1.019 2.107-3.14 3.534-5.595 3.534-0.967 0-1.883-0.222-2.698-0.617l0.037 0.016h-0.005zM4.676 24.001s-1.663-1.196-2.235-1.507c-0.448-0.224-0.8-0.584-1.007-1.026l-0.006-0.013-0.234-0.884c0-0.883 1.3 0.156 1.928 0.78 0.418 0.419 0.779 0.675 0.675 0.207-0.337-1.091 0.207-1.507 0.624-0.624 0.156 0.337 0.311 0.572 0.468 0.935s0.856 1.143 0.986 1.247zM5.922 25.195l-0.83-0.831 1.144-0.933 0.779 0.728zM45.678 26.91l-0.883-1.35 0.935-0.521 0.986 1.35zM50.070 24.726c-0.052 0.13-0.26 0.363-0.547 0.521-0.634 0.346-1.714 0.624-2.286 0.831l-0.973-1.398c0.584-0.447 1.367-1.243 1.701-1.201 0.489 0.062 0.469 0.707 1.326 0.289 1.273-0.626 0.946 0.543 0.779 0.958z"></path>
<path d="M24.762 21.133c-0.311 0.096-0.65 0.931 0 0.623 0.414-0.193 0.947-0.015 1.095 0.015 0.422 0.086 0.658-0.256 0.265-0.459-0.425-0.223-1.049-0.346-1.361-0.178zM115.873 55.773h6.313v-15.903h-6.313zM115.873 37.838h6.313v-4.493h-6.313zM133.615 52.449c-1.851 0-2.762-2.046-2.762-4.443 0-1.882 0.392-4.339 2.762-4.339q1.045 0 1.639 0.637c0.395 0.394 0.846 0.942 0.876 1.639h6.402c-0.454-4.705-4.667-6.526-8.915-6.526-5.251 0-9.074 3.126-9.074 8.559 0 5.372 3.945 8.255 9.074 8.255 4.4 0 8.493-1.323 9.038-6.148h-6.373c-0.184 1.242-1.029 2.366-2.665 2.366zM214.201 49.25c0.589-6.105-3.462-9.835-9.348-9.835-5.097 0-9.013 3.339-9.013 8.559 0 5.341 4.359 8.566 9.459 8.566 3.701 0 7.465-1.027 8.485-4.725h-6.038c-0.456 0.94-1.368 1.2-2.37 1.187-2.543-0.030-3.229-1.867-3.229-3.748l2.816-0.024v0.024h9.237zM202.149 46.032c0-1.698 1.061-2.762 2.944-2.762 1.487 0 2.791 1.306 2.791 2.762l-2.919 0.025v-0.025zM60.244 47.976s-4.885-14.759-4.885-14.656h-8.419v22.451h6.444c-0.156-3.793-0.311-9.562 0-13.306l4.366 13.306h4.989l4.157-12.889c0.156 3.898 0.207 8.523 0 12.889h6.444v-22.447h-8.315l-4.781 14.656zM217.489 39.87h-2.121v3.642h2.093v12.261h6.312v-12.261h2.64v-3.642h-2.64c-0.151-2.548 0.579-2.548 2.64-2.548v-3.977h-2.7c-4.035 0-6.221 0.911-6.221 6.526zM107.539 39.87v1.785c-1.123-1.543-3.382-2.237-5.293-2.237-5.22 0-7.103 4.155-7.103 8.069v0c0 4.067 2.519 7.527 6.919 7.527 2.276 0 4.014-0.228 5.020-1.157v0.734c0 2.276-0.227 3.626-2.342 3.616-0.794 0-1.612-0.255-1.885-0.498s-0.394-0.517-0.394-0.698h-6.341c0.304 2.336 2.67 4.582 8.285 4.582 7.829 0 8.688-3.733 8.688-8.498v-13.223h-5.554zM104.102 51.214c-1.568-0.026-2.489-1.302-2.625-3.182 0.127-1.621 0.894-4.122 2.625-4.093 2.004 0 3.018 1.961 2.982 3.429-0.055 2.272-1.041 3.939-2.982 3.846zM93.041 53.432v-7.43c0-3.794-0.455-6.587-7.981-6.587-6.282 0-9.096 1.974-9.096 5.341h6.069c0.151-1.365 1.751-1.549 2.627-1.549 0.666 0 2.063 0.152 2.063 1.306 0 2.974-11.736-0.304-11.736 6.919 0 3.307 2.671 4.795 5.675 4.795 2.367 0 4.050-0.193 5.667-1.584l1.030 1.128h6.213v-0.303c-0.438-0.475-0.536-1.123-0.536-2.033zM83.522 52.647c-1.242 0-2.001-0.553-2.004-1.339 0-2.059 3.149-1.576 5.207-2.576 0.152 2.18-0.988 3.916-3.203 3.916zM164.26 51.423c-3.642 0-4.934-3.299-4.934-6.364 0-4.218 2.143-6.373 4.661-6.373 2.245 0 3.984 1.149 4.195 3.424h6.798c-0.357-4.943-3.967-8.788-11.714-8.767-6.099 0.018-10.896 4.402-10.896 11.474 0 7.101 3.987 11.58 12.114 11.531 5.766-0.033 9.853-2.655 11.089-8.523h-6.915c-0.275 2.093-2.096 3.598-4.401 3.598zM187.488 39.414c-2.121 0-4.018 0.85-5.293 2.459v-7.95h-6.261v21.851h6.261v-8.1c0-2.034 0.984-3.278 2.926-3.278 1.791 0 2.218 1.394 2.218 2.974v8.406h6.314v-9.529c0-4.374-1.974-6.832-6.162-6.832zM231.62 34.304c-0.002 0-0.004 0-0.006 0-1.302 0-2.358 1.056-2.358 2.358s1.055 2.358 2.358 2.358c1.3 0 2.354-1.052 2.358-2.351v-0c0-0.002 0-0.004 0-0.006 0-1.3-1.052-2.354-2.351-2.358h-0zM231.62 38.732c-0.002 0-0.005 0-0.008 0-1.144 0-2.071-0.927-2.071-2.071s0.927-2.071 2.071-2.071c1.141 0 2.067 0.923 2.071 2.063v0c0 0.002 0 0.005 0 0.008 0 1.141-0.923 2.067-2.063 2.071h-0z"></path>
<path d="M232.829 36.036c0-0.007 0-0.015 0-0.023 0-0.228-0.118-0.428-0.296-0.543l-0.003-0.002c-0.193-0.118-0.417-0.13-0.64-0.13h-1.15v2.632h0.323v-1.215h0.591l0.753 1.216h0.386l-0.799-1.216c0.468-0.012 0.831-0.202 0.831-0.72zM231.557 36.505h-0.49v-0.931h0.753c0.325 0 0.684 0.049 0.684 0.455 0 0.536-0.579 0.475-0.947 0.475z"></path>
</symbol>
<symbol id="icon-kitchen-aid" viewBox="0 0 752 64">
<title>kitchen-aid</title>
<path d="M134.469 62.742v-37.14h-30.29v37.14zM118.978 22.029c8.446 0 15.294-3.882 15.294-8.675s-6.85-8.675-15.294-8.675-15.3 3.882-15.3 8.675 6.835 8.675 15.3 8.675zM649.729 62.742v-37.14h-30.287v37.14zM634.237 22.029c8.446 0 15.3-3.882 15.3-8.675s-6.851-8.675-15.3-8.675-15.3 3.882-15.3 8.675 6.854 8.675 15.3 8.675zM277.989 5.775v56.97h31.005v-18.748c0-4.338 3.603-6.129 6.851-6.129s6.491-1.084 6.491 6.85v18.026h28.846v-23.799c0-6.129-2.522-14.9-18.026-15.145-11.362-0.18-20.375 3.067-24.167 5.047v-23.074zM146.386 25.605v12.257h10.082v11.898c0 5.41 4.338 12.979 18.026 12.979s18.751-2.885 23.436-4.691v-9.010c-2.169 0.722-12.62 5.047-12.62-3.6v-7.575h12.62v-12.26h-12.604v-11.895h-28.858v11.895h-10.082zM267.898 28.849c-6.851-4.146-14.965-5.769-27.040-5.769s-33.887 5.227-33.887 20.369 19.108 20.552 31.368 20.552 26.68-2.705 29.565-4.685v-10.463c-3.613 2.166-29.571 7.228-29.571-4.855 0-6.491 10.457-7.938 13.518-7.938s13.342 1.444 16.046 3.427v-10.637zM437.531 25.602v37.14h31.012v-18.745c0-4.338 3.61-6.85 6.851-6.85 5.949 0 6.491 0.362 6.491 7.575v18.020h28.846v-23.799c0-7.213-3.25-15.768-18.751-15.492-10.634 0.18-20.186 3.603-23.436 5.41v-3.259zM581.937 0h-39.297c1.797 0.362 4.868 5.227 3.963 7.21l-30.287 55.532h16.945l7.033-14.063h26.144l6.844 14.063h39.123zM545.967 37.32l8.211-16.403 6.844 16.403zM705.974 5.775v20.731c-3.789-1.803-12.623-3.427-18.209-3.427-8.837 0-27.941 3.067-27.941 19.47 0 17.661 18.742 20.192 26.138 20.192s15.861-1.084 20.012-3.427v3.427h28.846v-56.967h-28.846zM705.974 44.533c0 1.438-3.071 3.6-6.308 3.6-3.098 0-10.274 0.722-10.274-6.126 0-5.050 7.566-7.033 9.915-7.033s6.671 0.542 6.671 4.146v5.41zM401.679 53.004c-4.505 0-10.457-0.905-12.796-7.746h41.462c0-8.474-3.61-24.167-34.259-24.341-18.389 0-36.775 6.129-36.954 21.27s19.83 20.555 38.398 20.555 26.86-2.885 29.382-4.691l1.624-8.651c-3.603 1.624-13.153 3.966-26.857 3.603zM395.91 31.005c4.152 0 5.769 1.986 5.769 5.769h-12.613c0.18-3.055 2.519-5.763 6.841-5.763zM0 0v62.742h32.815v-19.114c2.525 0 7.39-1.62 11.356 4.505l9.193 14.609h40.384l-18.026-28.486c-2.525-3.6-3.424-7.21-12.799-8.115l23.080-26.141h-23.26l-17.661 22.175c-1.986 2.342-1.081 4.508-12.257 4.508v-26.683zM750.036 8.651c-1.070-1.094-2.561-1.773-4.211-1.773-0.034 0-0.067 0-0.101 0.001l0.005-0c-0.028-0-0.062-0.001-0.095-0.001-1.64 0-3.122 0.679-4.179 1.771l-0.001 0.002c-1.1 1.064-1.782 2.554-1.782 4.203 0 0.030 0 0.060 0.001 0.090l-0-0.005c-0.001 0.032-0.001 0.070-0.001 0.108 0 1.648 0.677 3.138 1.769 4.207l0.001 0.001c1.099 1.105 2.62 1.789 4.301 1.789 1.669 0 3.18-0.674 4.276-1.764l0.025-0.025c1.1-1.071 1.782-2.566 1.782-4.22 0-0.034-0-0.068-0.001-0.101l0 0.005c0-0.023 0-0.051 0-0.078 0-1.652-0.685-3.145-1.787-4.208l-0.002-0.002zM749.416 16.666c-0.946 0.95-2.255 1.538-3.701 1.538-1.437 0-2.739-0.581-3.683-1.52l-0.018-0.018c-0.936-0.927-1.516-2.213-1.516-3.635 0-0.029 0-0.059 0.001-0.088l-0 0.004c0-0.003 0-0.006 0-0.009 0-2.883 2.337-5.221 5.221-5.221 2.88 0 5.215 2.332 5.221 5.211v0.019c0 0.025 0.001 0.054 0.001 0.084 0 1.421-0.578 2.706-1.512 3.634l-0 0z"></path>
<path d="M748.434 16.174c-0.035-0.102-0.056-0.219-0.056-0.341 0-0.002 0-0.004 0-0.007v0c-0.015-0.177-0.015-0.341-0.015-0.499v-0.486c-0.015-0.391-0.152-0.747-0.372-1.036l0.003 0.004c-0.268-0.36-0.675-0.604-1.139-0.653l-0.007-0.001c0.359-0.039 0.686-0.149 0.976-0.316l-0.012 0.006c0.396-0.264 0.654-0.709 0.654-1.214 0-0.036-0.001-0.072-0.004-0.108l0 0.005c0-0.84-0.347-1.404-1.029-1.689-0.471-0.157-1.012-0.248-1.575-0.248-0.089 0-0.177 0.002-0.265 0.007l0.012-0.001h-2.33v6.661h1.177v-2.627h0.929c0.061-0.005 0.131-0.007 0.202-0.007 0.4 0 0.781 0.081 1.127 0.228l-0.019-0.007q0.62 0.375 0.62 1.531v0.53l0.025 0.217 0.015 0.077 0.015 0.068h1.106l-0.040-0.090zM746.63 12.657c-0.287 0.097-0.618 0.152-0.962 0.152-0.053 0-0.105-0.001-0.157-0.004l0.007 0h-1.060v-2.414h1.010c0.060-0.004 0.13-0.007 0.2-0.007 0.442 0 0.862 0.094 1.241 0.262l-0.019-0.008c0.31 0.167 0.446 0.496 0.446 0.979 0.001 0.020 0.002 0.044 0.002 0.068 0 0.449-0.29 0.831-0.692 0.968l-0.007 0.002z"></path>
</symbol>
<symbol id="icon-kenmore" viewBox="0 0 309 64">
<title>kenmore</title>
<path d="M119.855 0c-40.481 7.951-78.612 22.345-109.961 44.209l0.14 0.326c74.71-38.336 153.090-40.66 185.31-40.66 26.675 0 55.993 3.648 55.993 11.447 0 6.367-13.315 11.859-20.932 14.763l0.078 0.255c7.626-1.194 36.501-7.183 36.501-20.087 0-4.142-3.588-7.557-9.819-10.254h29.839c4.271 0 7.965 3.698 7.965 7.965v47.789c0 4.271-3.698 7.965-7.965 7.965h-279.040c-4.267 0.001-7.965-3.694-7.965-7.965v-47.782c0-4.273 3.698-7.965 7.965-7.965zM68.531 28.018h-10.9l-7.763 28.272h10.898l3.285-12.14 8.36 12.14h12.615l-11.047-14.847 16.497-13.424h-11.568l-13.511 11.001 3.134-11.006zM103.225 34.64c-7.091 0-15.921 2.535-18.282 11.103-2.246 8.161 5.551 11.070 12.195 11.070 8.305 0 14.352-3.698 16.107-6.593h-10.337s-1.571 3.273-4.856 3.273c-4.549 0-2.869-6.403-2.869-6.403h19.815c2.61-6.294-0.675-12.451-11.774-12.451zM102.484 37.892c3.554 0 2.855 5.145 2.855 5.145h-8.957s2.406-5.145 6.1-5.145zM276.379 34.64c-7.090 0-15.918 2.535-18.28 11.103-2.248 8.161 5.548 11.070 12.195 11.070 8.304 0 14.352-3.698 16.106-6.593h-10.34s-1.57 3.273-4.856 3.273c-4.549 0-2.868-6.403-2.868-6.403h19.816c2.617-6.294-0.67-12.451-11.772-12.451zM275.639 37.892c3.555 0 2.856 5.145 2.856 5.145h-8.957s2.405-5.145 6.1-5.145zM132.387 35.147h-10.040l-5.821 21.178h10.525s2.35-8.517 2.933-10.666 2.434-5.993 6.204-5.993 1.785 4.528 1.372 5.993-2.901 10.666-2.901 10.666h10.487s2.987-10.76 3.546-12.853 3.023-8.799-7.837-8.799c-6.605 0-9.124 2.657-9.124 2.657l0.65-2.182zM167.022 35.147h-10.074l-5.826 21.178h10.564s2.416-8.744 2.933-10.666 1.616-6.144 4.788-6.144c2.613 0 1.57 2.149 0.44 6.144-0.468 1.658-2.933 10.666-2.933 10.666h10.564s1.705-6.503 2.646-9.761c1.129-3.921 2.088-7.014 5.080-7.014 2.714 0 1.511 2.168-0.366 8.95-0.446 1.581-2.142 7.863-2.142 7.863h10.527s2.033-7.578 2.933-10.712c1.202-4.148 4.374-10.792-6.111-11.005-5.972-0.127-8.849 2.861-8.849 2.861s-0.857-2.861-6.904-2.861c-5.562 0-7.875 2.522-7.875 2.522l0.599-2.040zM218.821 34.652c-9.368 0-18.273 4.591-18.627 13.57-0.297 7.614 9.11 8.554 12.578 8.554 8.063 0 17.84-3.315 18.661-13.683 0.45-5.653-5.972-8.442-12.613-8.442zM220.536 45.733c-1.081 4.148-3.769 7.779-6.948 7.779-3.434 0-3.511-3.826-2.504-7.853s3.854-7.691 6.802-7.691c3.698 0 3.741 3.62 2.656 7.765zM238.261 35.125l-5.765 21.145h10.524s2.016-7.269 2.688-9.707 1.848-6.69 5.483-6.69c2.332 0 3.359 2.261 3.359 2.261h0.782l2.745-6.728s-0.84-0.792-4.311-0.792-6.158 2.55-6.158 2.55l0.559-2.040h-9.906zM299.030 58.287c0-2.705 2.033-4.739 4.635-4.739 2.575 0 4.619 2.040 4.619 4.739 0 2.742-2.040 4.768-4.619 4.768-2.604 0-4.635-2.024-4.635-4.768zM303.664 64c3.104 0 5.755-2.41 5.755-5.71 0-3.27-2.652-5.682-5.755-5.682-3.131 0-5.771 2.413-5.771 5.682 0 3.301 2.642 5.71 5.771 5.71zM302.462 58.733h1.14l1.725 2.856h1.125l-1.873-2.901c0.963-0.119 1.709-0.624 1.709-1.806 0-1.298-0.775-1.864-2.326-1.864h-2.494v6.572h0.996zM302.462 57.9v-2.047h1.349c0.691 0 1.424 0.152 1.424 0.973 0 1.020-0.75 1.079-1.589 1.079h-1.185z"></path>
</symbol>
<symbol id="icon-sears" viewBox="0 0 242 64">
<title>sears</title>
<path fill="#039" style="fill: var(--color10, #039)" d="M197.462 42.203c0.712 11.304 9.161 17.841 20.224 17.841 7.969 0 19.389-2.375 19.389-12.967 0-10.352-10.468-11.891-20.936-14.068s-21.052-4.874-21.052-17.378c0-12.131 11.776-15.723 22.128-15.723 12.967 0 22.599 5.594 22.599 19.513h-4.518c-0.116-11.064-7.853-15.582-18.081-15.582-8.333 0.083-17.618 3.178-17.618 11.883 0 9.756 10.468 11.304 20.34 13.439 12.131 2.259 21.648 5.114 21.648 17.965 0 13.24-13.24 16.89-23.907 16.89-13.919 0-24.387-7.497-24.743-21.772h4.518z"></path>
<path fill="#039" style="fill: var(--color10, #039)" d="M171.411 14.986h0.356c2.375-7.969 12.371-14.39 23.435-13.919v4.527c-0.674-0.078-1.456-0.122-2.248-0.122-5.719 0-10.896 2.321-14.641 6.072l-0 0c-4.518 4.642-6.422 8.449-6.901 17.61v33.415h-4.518v-61.145h4.518z"></path>
<path fill="#039" style="fill: var(--color10, #039)" d="M157.137 62.287h-4.518v-11.85h-0.24c-2.855 7.257-11.064 13.563-22.724 13.563s-20.423-4.419-20.423-17.254c0-14.275 12.413-17.245 22.484-18.081 20.224-1.423 21.052-2.739 21.052-12.727 0-2.739-3.095-12.015-17.014-12.015-10.948 0-18.205 5.71-18.793 16.294h-4.518c0.563-13.439 8.888-20.216 23.27-20.216 10.758 0 21.424 3.31 21.424 15.938zM152.619 27.838c-3.567 4.047-13.323 3.567-22.128 4.758-10.708 1.192-16.774 4.965-16.774 14.159 0 7.373 5.354 13.323 16.062 13.323 20.58 0 22.839-17.609 22.839-20.82v-11.42z"></path>
<path fill="#039" style="fill: var(--color10, #039)" d="M56.743 32.596c-0.24 14.39 7.373 27.482 22.484 27.482 11.536 0 19.745-6.901 21.888-18.205h4.518c-2.375 14.275-11.891 22.128-26.406 22.128-17.841 0-27.242-14.068-27.002-30.924-0.24-16.782 8.556-33.076 27.002-33.076 19.149 0 27.713 15.11 26.886 32.596zM101.586 28.673c-0.24-12.843-8.325-24.743-22.343-24.743-13.563 0-21.515 12.611-22.484 24.743z"></path>
<path fill="#039" style="fill: var(--color10, #039)" d="M4.518 42.203c0.72 11.329 9.161 17.866 20.224 17.866 7.969 0 19.389-2.375 19.389-12.967 0-10.352-10.468-11.891-20.936-14.068s-21.052-4.841-21.052-17.312c0-12.156 11.776-15.723 22.128-15.723 12.967 0 22.599 5.594 22.599 19.513h-4.518c-0.149-11.064-7.853-15.59-18.081-15.59-8.333 0-17.61 3.095-17.61 11.8 0 9.756 10.468 11.304 20.34 13.439 12.14 2.284 21.656 5.098 21.656 17.941 0 13.24-13.24 16.89-23.915 16.89-13.919 0.008-24.387-7.489-24.743-21.788z"></path>
</symbol>
<symbol id="icon-frigidaire" viewBox="0 0 562 64">
<title>frigidaire</title>
<path fill="#1a3e70" style="fill: var(--color11, #1a3e70)" d="M403.865 33.078v30.829h10.87v-61.564h-10.87zM187.783 37.856h15.742v11.526c-4.055 2.93-9.127 4.686-14.608 4.686-0.069 0-0.139-0-0.208-0.001l0.011 0c-12.556 0-20.896-9.277-20.896-21.927v-0.187c0-11.807 8.621-21.739 19.959-21.739 7.871 0 12.463 2.53 17.242 6.559l6.84-8.152c-6.278-5.341-12.931-8.34-23.613-8.34-18.553 0-31.766 14.618-31.766 31.859v0.187c0 17.898 12.65 31.672 31.953 31.672 9.836-0.026 18.823-3.639 25.726-9.601l-0.051 0.043v-25.862h-26.237v9.277zM515.748 54.255v-16.586h34.764v-9.652h-34.764v-16.023h34.764v-9.652h-45.634v61.564h45.634v-9.652zM0 63.906h10.776v-25.019h34.952v-9.839h-34.952v-16.867h35.045v-9.839h-45.821zM96.328 40.574c8.621-2.436 14.712-8.527 14.712-18.647v-0.187c0.002-0.113 0.004-0.246 0.004-0.379 0-4.997-1.925-9.543-5.075-12.939l0.011 0.012c-3.936-3.842-10.026-6.184-17.71-6.184h-27.549v61.564h10.776v-21.458h13.587l15.086 21.458h12.744zM71.496 32.89v-20.615h15.742c7.965 0 12.744 3.561 12.744 10.214v0.187c0 6.278-4.966 10.307-12.65 10.307h-15.836zM128.843 32.047v31.859h10.776v-61.564h-10.776zM233.324 33.078v30.829h10.87v-61.564h-10.87zM289.078 2.343h-22.958v61.564h22.958c19.303 0 32.703-13.493 32.703-30.735v-0.187c0-17.335-13.4-30.641-32.703-30.641zM310.442 33.359c0 11.994-8.433 20.709-21.365 20.709h-12.088v-41.792h12.088c12.931 0 21.365 8.902 21.365 20.896zM472.269 40.574c8.621-2.436 14.712-8.527 14.712-18.647v-0.187c0.002-0.113 0.004-0.246 0.004-0.379 0-4.997-1.925-9.543-5.075-12.939l0.011 0.012c-3.936-3.842-10.026-6.184-17.804-6.184h-27.455v61.564h10.776v-21.458h13.587l15.086 21.458h12.744l-16.586-23.239zM447.438 32.89v-20.615h15.742c7.965 0 12.744 3.561 12.744 10.214v0.187c0 6.278-4.966 10.307-12.65 10.307h-15.836zM326.091 63.906h65.124l-32.515-63.906z"></path>
<path fill="#eb164e" style="fill: var(--color12, #eb164e)" d="M342.489 54.067l16.117-32.422 16.211 32.422z"></path>
<path fill="#1a3e70" style="fill: var(--color11, #1a3e70)" d="M552.761 59.315c-0.001-0.028-0.001-0.061-0.001-0.094 0-2.588 2.098-4.685 4.685-4.685s4.685 2.098 4.685 4.685c0 2.587-2.097 4.685-4.684 4.685h-0c-0.053 0.002-0.116 0.004-0.179 0.004-2.489 0-4.507-2.018-4.507-4.507 0-0.031 0-0.062 0.001-0.093l-0 0.005zM561.663 59.315c0-2.329-1.888-4.217-4.217-4.217s-4.217 1.888-4.217 4.217c0 2.329 1.888 4.217 4.217 4.217v0c0.023 0 0.049 0.001 0.076 0.001 2.287 0 4.142-1.854 4.142-4.142 0-0.027-0-0.053-0.001-0.080l0 0.004zM555.572 56.691h2.249c0.034-0.002 0.074-0.003 0.115-0.003 0.539 0 1.028 0.216 1.385 0.566l-0-0c0.235 0.233 0.38 0.555 0.38 0.912 0 0.042-0.002 0.083-0.006 0.124l0-0.005c0 0.010 0 0.021 0 0.033 0 0.699-0.472 1.287-1.114 1.464l-0.011 0.002 1.312 1.874h-1.124l-1.218-1.687h-1.031v1.687h-0.937v-4.966zM557.728 59.127c0.656 0 0.937-0.281 0.937-0.75s-0.375-0.75-0.937-0.75h-1.218v1.593h1.218z"></path>
</symbol>
<symbol id="icon-samsung" viewBox="0 0 437 64">
<title>samsung</title>
<path fill="#0b539d" style="fill: var(--color13, #0b539d)" d="M239.688 29.718s-4.253-2.629-6.882-3.647c0 0-8.139-3.773-9.755-5.567 0 0-3.172-2.989-1.315-6.463 0 0 0.778-2.271 4.131-2.271 0 0 4.364 0.24 4.364 3.828v5.060h15.631l-0.027-7.452s1.203-12.198-18.424-12.741c0 0-15.437-1.014-19.865 7.3 0 0-1.737 1.855-1.737 8.314v4.665s-0.177 5.384 2.572 8.854c0 0 1.554 2.276 5.384 4.785 0 0 7.782 4.187 12.445 6.585 0 0 4.711 2.69 4.091 6.97 0 0-0.385 4.394-4.934 4.206 0 0-4.16-0.185-4.16-4.495v-5.048h-16.655v7.346s-0.467 14.047 20.95 14.047c0 0 20.464 0.421 21.419-14.417v-5.984s0.724-9.090-7.231-13.881zM159.611 2.21l-5.237 32.822h-1.224l-5.004-32.526h-26.126l-1.31 59.436h15.469l0.185-44.781h1.216l8.202 44.775h16.274l8.091-44.76h1.077l0.374 44.766h15.551l-1.683-59.73h-25.857zM67.527 2.459l-10.291 59.415h16.653l6.099-46.060h1.369l6.099 46.060h16.651l-10.306-59.415zM416.961 28.9v8.764h4.272v9.408c0 4.6-3.931 4.684-3.931 4.684-4.778 0-4.6-4.37-4.6-4.37v-32.541c0-3.352 4.242-3.533 4.242-3.533 4.070 0 4.097 3.996 4.097 3.996v4.951h15.679c0.513-9.66-1.413-11.988-1.413-11.988-3.889-8.743-18.603-8.27-18.603-8.27-22.611 0-20.1 17.349-20.1 17.349v31.47c0.486 16.27 22.767 14.617 23.135 14.605 9.91-1.096 12.903-4.246 12.903-4.246 1.617-1.207 2.828-2.877 3.445-4.811l0.019-0.068c0.789-1.651 0.984-6.909 0.984-6.909v-18.487h-20.13zM364.989 38.575h-0.681l-15.911-36.343h-19.038v59.716h15.494l-0.928-36.337h0.692l16.485 36.337h18.46v-59.73h-15.69l1.119 36.347zM291.538 47.071s0.223 4.903-4.32 4.903c0 0-4.778 0.257-4.778-4.778l-0.048-44.926h-16.994v44.562s-1.744 16.87 22.062 16.87c0 0 20.687 0.246 20.687-16.094v-45.343h-16.615v44.798zM35.123 29.718s-4.242-2.629-6.873-3.639c0 0-8.135-3.769-9.748-5.567 0 0-3.172-2.995-1.312-6.459 0 0 0.774-2.271 4.124-2.271 0 0 4.366 0.238 4.366 3.824v5.048h15.648l-0.029-7.456s1.195-12.198-18.424-12.739c-0.508-0.026-1.103-0.041-1.702-0.041-0.684 0-1.364 0.020-2.038 0.058l0.093-0.004s-11.885 0.631-16.136 7.151c-0.025 0.048-0.061 0.084-0.084 0.128 0 0-1.735 1.853-1.735 8.314v4.682s-0.181 5.384 2.572 8.854c0 0 1.554 2.276 5.384 4.785 0 0 7.782 4.187 12.442 6.585 0 0 4.715 2.684 4.091 6.97 0 0-0.385 4.394-4.932 4.206 0 0-4.16-0.185-4.16-4.495v-5.048h-16.67v7.361s-0.467 14.047 20.95 14.047c0 0 20.458 0.421 21.421-14.417v-5.99s0.715-9.101-7.241-13.881z"></path>
</symbol>
<symbol id="icon-sub-zero" viewBox="0 0 225 64">
<title>sub-zero</title>
<path fill="#001689" style="fill: var(--color14, #001689)" d="M206.222 32.169c0-23.026 7.788-30.645 7.788-30.645-17.27 7.958-100.571 7.45-101.418 7.45v0c0 0 0 0 0 0s0 0 0 0c-0.847 0-84.148 0.508-101.418-7.28 0 0 7.958 7.619 7.958 30.645s-8.127 30.138-8.127 30.138c17.27-7.958 100.571-7.619 101.587-7.45 0 0 0 0 0 0s0 0 0 0v0c0.847 0 84.317-0.339 101.587 7.45 0-0.169-7.958-7.28-7.958-30.307z"></path>
<path fill="#fff" style="fill: var(--color3, #fff)" d="M204.529 31.661c0 11.513-41.143 20.656-92.275 20.656-50.963 0-91.598-9.143-91.598-20.656s40.635-20.825 91.598-20.825c51.132 0 92.275 9.482 92.275 20.825z"></path>
<path fill="#000" style="fill: var(--color2, #000)" d="M58.074 29.122h-6.095c0 0 0.339-1.355-1.693-1.524-2.032 0-2.878 0.339-3.048 0.847-0.169 0.677 0.847 0.847 1.693 1.016s3.725 0.677 5.418 1.016c1.693 0.339 4.571 1.185 4.741 3.894s-2.878 3.894-4.402 4.402c-1.524 0.508-7.111 0.847-9.82 0-2.709-0.677-4.741-2.709-4.402-4.571h6.265c0 0 0 1.693 1.862 1.862s4.063 0.169 4.063-1.016c0 0 0.169-0.677-1.016-1.016-1.185-0.169-2.54-0.339-5.926-1.185s-4.741-1.524-4.571-4.402c0 0-0.169-3.556 8.466-3.894 0 0 4.233 0.169 6.265 1.355 2.201 1.016 2.201 3.217 2.201 3.217z"></path>
<path fill="#000" style="fill: var(--color2, #000)" d="M60.275 24.72v9.651c0 0 0 5.079 8.804 5.079s8.635-5.079 8.635-5.079v-9.651h-5.926v9.312c0 0-0.169 1.693-2.709 1.693-2.709 0-2.878-1.693-2.878-1.693v-9.482z"></path>
<path fill="#000" style="fill: var(--color2, #000)" d="M79.577 24.72v14.392h13.545c0 0 5.587-0.677 5.587-4.063s-3.217-3.725-3.217-3.725v-0.169c0 0 2.201-0.169 2.201-2.878s-3.556-3.386-5.418-3.386c-2.032-0.169-12.698-0.169-12.698-0.169zM90.921 28.275c0 0 1.016 0 1.016 1.016s-1.185 1.016-1.185 1.016h-5.249v-2.032h5.418zM91.598 33.016c0 0 1.185 0 1.185 1.355s-1.185 1.355-1.185 1.355h-5.926v-2.709h5.926z"></path>
<path fill="#000" style="fill: var(--color2, #000)" d="M101.249 29.799h8.466v3.386h-8.466v-3.386z"></path>
<path fill="#000" style="fill: var(--color2, #000)" d="M111.746 24.72h15.915v3.386l-8.804 7.111h9.312v3.894h-16.931v-3.556l8.635-6.942h-8.296z"></path>
<path fill="#000" style="fill: var(--color2, #000)" d="M129.862 24.72h15.746v3.725h-9.989v1.693h8.974v3.556h-8.804v1.693h9.989v3.725h-15.915z"></path>
<path fill="#000" style="fill: var(--color2, #000)" d="M175.407 24.381c-5.249 0-9.651 3.386-9.651 7.619s4.233 7.619 9.651 7.619c5.249 0 9.651-3.386 9.651-7.619s-4.233-7.619-9.651-7.619zM175.407 27.936c2.032 0 3.725 1.693 3.725 3.894s-1.693 3.894-3.725 3.894c-2.032 0-3.725-1.693-3.725-3.894 0-2.032 1.693-3.894 3.725-3.894z"></path>
<path fill="#000" style="fill: var(--color2, #000)" d="M147.302 38.942h5.926v-5.079h2.201l3.217 5.079h6.265l-3.386-5.587c0 0 3.386-0.508 3.386-4.571s-6.265-4.064-6.265-4.064h-11.175zM158.476 28.275c0 0 1.016 0 1.016 1.016s-1.185 1.016-1.185 1.016h-5.249v-2.032h5.418z"></path>
</symbol>
<symbol id="icon-amana" viewBox="0 0 223 64">
<title>amana</title>
<path fill="#bc323c" style="fill: var(--color15, #bc323c)" d="M11.23 41.751h-4.58l-2.479-9.403h12.935l22.962-32.348h17.424l-4.356 32.236 24.238 0.108 1.073 1.297c5.81-3.974 13.651-3.974 16.462 1.052 3.887-4.201 12.603-4.446 15.553 0.937 1.117 2.079 0.937 4.827 0 8.129l-3.533 11.303c0.223 1.162 1.52 3.754-1.654 3.754h-12.351l3.996-12.467c1.052-3.665-3.416-3.665-4.469-0.112l-3.884 12.469h-12.711l3.887-12.712c1.162-3.642-3.552-3.642-4.492 0.112l-3.885 12.485h-13.292l4.112-13.31c0.248-0.94 0.137-1.768-1.629-1.768h-8.961l-1.989 15.013-19.189 0.065 2.592-15.078h-11.193l-13.537 20.486-8.243-6.478 11.191-15.77zM29.011 32.323l5.944 0.068 2.056-11.929-7.998 11.861zM198.809 59.042c-3.062 0.937-8.243 1.539-11.173-1.052-2.95-2.592-3.062-8.957-1.297-13.537 2.345-6.233 6.589-11.997 12.935-12.935 4.132-0.58 9.181 1.052 12.131 3.642l0.58-1.877h11.436l-7.080 22.829c0.466 1.162 1.542 2.814-0.94 2.814h-11.988l0.648-2.235c-1.542 0.875-3.351 1.877-5.25 2.349zM198.473 48.161c0.289 0.468 1.006 1.073 2.299 0.605 2.302-0.782 6.298-4.536 6.95-7.195-1.654-2.346-4.003-2.883-6.481-0.76-1.405 1.229-3.754 5.653-2.771 7.353zM114.898 57.993c-2.95-2.592-3.059-8.824-1.293-13.537 2.235-6.233 6.59-11.997 12.956-12.913 4.112-0.58 9.183 1.030 12.131 3.621l0.58-1.877h11.415l-7.061 22.829c0.466 1.185 1.52 2.814-0.94 2.814h-12.009l0.648-2.097c-1.52 0.869-3.419 1.765-5.228 2.235-3.062 0.825-8.243 1.52-11.194-1.073zM126.25 48.161c0.249 0.536 1.073 1.073 2.302 0.605 2.299-0.829 6.298-4.536 6.947-7.195-1.654-2.346-3.956-2.994-6.478-0.76-1.297 1.185-3.599 5.473-2.771 7.353zM160.45 58.685l3.887-12.467c1.073-3.531 5.293-3.642 4.244 0l-3.528 12.597h12.109c3.196 0 1.899-2.592 1.654-3.773l3.531-11.303c0.937-3.286 1.006-5.408-0.223-7.642-2.771-4.936-10.726-5.095-15.302-1.073l-0.832-1.63h-10.473l-7.777 25.286h12.712z"></path>
</symbol>
<symbol id="icon-bosch" viewBox="0 0 276 64">
<title>bosch</title>
<path fill="#cc212f" style="fill: var(--color16, #cc212f)" d="M34.662 44.307c-0.241 4.103-4.083 5.464-5.444 5.464h-14.488v-11.767h14.249c0.741 0 5.683 1.12 5.683 6.303zM51.132 45.688c0-12.653-9.666-14.489-9.666-14.489s6.944-3.342 6.944-11.767c0-13.749-11.767-17.832-16.471-17.832h-31.94v60.679h34.162c6.327 0 16.974-6.444 16.974-16.611zM32.559 19.933c0 3.822-3.603 5.803-4.938 5.803h-12.911v-11.508h11.767c1.361 0 6.064 1.361 6.064 5.709zM97.322 31.941c0 8.806-4.963 17.332-13.369 17.332-8.546 0-13.508-8.545-13.508-17.332 0-8.425 4.963-16.85 13.508-16.611 8.405 0 13.369 8.425 13.369 16.611zM112.29 31.941c0-16.85-11.388-31.080-28.338-31.080-17.21 0-28.736 14.229-28.736 31.080 0.261 17.332 11.527 32.060 28.738 32.060 16.951 0 28.598-14.73 28.338-32.060zM164.304 44.070c0-24.635-33.421-14.229-31.46-25.757 0.761-4.321 5.203-4.938 9.045-4.938 6.564 0 11.147 5.203 11.147 5.203l9.025-9.545c-6.803-6.311-11.746-9.033-21.293-9.033-12.247 0-23.515 7.664-23.515 20.172 0 17.591 19.432 17.591 26.257 19.693 4.083 1.1 5.203 2.222 4.938 4.938 0 2.981-4.703 5.803-7.925 5.803-6.924 0.52-11.007-3.086-15.85-7.905l-9.286 10.030c8.405 8.166 15.85 11.264 25.136 11.007 12.008-0.36 23.775-7.164 23.775-19.672zM221.139 49.514l-12.267-7.664s-4.938 7.407-10.647 7.407c-9.045 0.256-13.983-8.771-13.983-17.575 0-8.666 4.583-16.33 13.128-16.33 4.938 0 8.405 2.961 10.647 7.044l11.767-7.664c-2.006-2.961-6.564-13.608-21.554-14.108-16.21-0.38-29.099 14.73-29.099 31.080 0 17.571 10.406 31.42 29.599 31.42 9.786 0.261 17.451-5.924 22.415-13.608zM275.493 62.283v-60.681h-15.23v22.779h-18.569v-22.759h-15.611v60.658h15.23v-24.275h18.952v24.275h15.23z"></path>
</symbol>
<symbol id="icon-ge" viewBox="0 0 64 64">
<title>ge</title>
<path fill="#fefffe" style="fill: var(--color17, #fefffe)" d="M29.677 1.624c0.707-0.059 1.53-0.093 2.361-0.093 5.32 0 10.317 1.379 14.655 3.799l-0.153-0.078c8.706 4.691 14.875 13.842 15.751 23.718 0.657 6.086-0.64 12.357-3.601 17.71-3.040 5.441-7.526 9.757-12.941 12.507l-0.174 0.080c-3.911 2.008-8.534 3.186-13.432 3.186-0.219 0-0.436-0.002-0.654-0.007l0.032 0.001c-6.643-0.058-13.22-2.433-18.42-6.558-4.428-3.535-7.82-8.191-9.764-13.542l-0.068-0.213c-2.955-8.294-2.085-17.882 2.423-25.459 3.026-5.252 7.693-9.526 13.15-12.156 3.159-1.554 6.842-2.59 10.731-2.889l0.103-0.006zM24.292 4.519c-5.243 1.416-10.137 4.5-13.247 9.006-2.094 2.963-3.299 6.471-3.918 10.021-0.294 2.216-0.416 4.633 0.692 6.658 0.512 1.006 1.408 1.766 1.849 2.81 0.42 0.926 0.122 2.179-0.781 2.707-0.847 0.607-2.044 0.375-2.81-0.257-1.104-0.866-1.572-2.28-1.808-3.614-0.466-3.005 0.139-6.045 0.905-8.946-0.599 0.249-0.512 1.079-0.739 1.605-1.309 5.076-1.3 10.503 0.135 15.552 1.356 4.823 4.123 9.302 8.118 12.373 3.009 2.381 6.697 3.734 10.429 4.467 2.251 0.379 4.699 0.53 6.809-0.495 1.046-0.524 1.829-1.437 2.854-1.992 0.862-0.449 1.986-0.302 2.661 0.41 0.779 0.777 0.793 2.108 0.159 2.978-0.685 0.934-1.787 1.45-2.876 1.752-2.402 0.599-4.914 0.329-7.318-0.106-0.88-0.139-1.713-0.53-2.613-0.528 0.482 0.476 1.187 0.559 1.808 0.745 2.194 0.559 4.713 0.88 7.307 0.88 2.533 0 4.995-0.306 7.35-0.883l-0.211 0.044c5.438-1.307 10.582-4.367 13.811-9.002 2.092-2.878 3.245-6.316 3.957-9.77 0.379-2.551 0.571-5.434-0.978-7.658-0.721-1.064-1.88-2.083-1.648-3.5 0.097-1.325 1.582-2.162 2.8-1.731 1.592 0.516 2.336 2.222 2.661 3.732 0.619 3.133 0.004 6.355-0.824 9.389 0.201-0.018 0.363-0.167 0.4-0.361l0-0.003c1.427-4.456 1.675-9.263 0.851-13.86-0.948-5.39-3.436-10.646-7.581-14.306-2.487-2.268-5.552-3.868-8.793-4.751-2.7-0.803-5.622-1.358-8.408-0.667-1.373 0.3-2.437 1.261-3.535 2.067-0.93 0.716-2.419 0.766-3.259-0.122-0.756-0.805-0.686-2.135-0.035-2.982 0.866-1.141 2.299-1.669 3.665-1.915 2.179-0.325 4.407-0.112 6.556 0.317 0.855 0.147 1.651 0.54 2.52 0.603-0.18-0.151-0.356-0.319-0.584-0.391-5.26-1.698-11.015-1.762-16.333-0.277z"></path>
<path fill="#fefffe" style="fill: var(--color17, #fefffe)" d="M25.011 15.3c1.176-0.619 2.678-0.804 3.877-0.151 0.959 0.549 1.334 1.739 1.24 2.789-0.17 2.085-1.178 4.007-2.444 5.635-1.369 1.655-3.057 3.121-5.080 3.906 0.155 0.646 0.642 1.334 1.373 1.331 1.28 0.046 2.39-0.762 3.311-1.566 0.661-0.503 0.696-1.383 1.006-2.092 0.451-1.11 1.064-2.293 2.181-2.854 0.524-0.279 1.325-0.333 1.686 0.226 0.395 0.754 0.037 1.619-0.342 2.301-0.518 0.99-1.338 1.766-1.99 2.657-0.246 0.828-0.29 1.698-0.306 2.556 0.905-0.4 1.717-0.971 2.57-1.466 1.483-0.959 3.023-1.853 4.399-2.963 0.159-0.536-0.058-1.12-0.033-1.677-0.085-2.696 0.847-5.459 2.684-7.453 1.143-1.205 2.864-2.054 4.546-1.63 1.009 0.184 1.8 1.004 2.085 1.969 0.36 1.456-0.139 2.978-0.905 4.218-1.319 2.063-3.237 3.639-5.179 5.090 0.259 0.646 0.629 1.379 1.327 1.619 1-0.191 2.017-0.464 3.040-0.261 0.685 0.143 1.506 0.348 1.841 1.031 0.309 0.665-0.282 1.346-0.89 1.553-1.292 0.422-2.659 0.184-3.978 0.083-1.57 0.375-2.936 1.414-3.914 2.678-1.52 1.998-1.99 4.641-1.659 7.091 0.315 2.032 1.336 4.080 3.133 5.185 2.019 1.296 4.931 1.019 6.606-0.727 1.58-1.63 2.079-4.225 1.199-6.32-0.373-0.92-1.176-1.706-2.181-1.862-1.174-0.265-2.568 0.499-2.738 1.746-0.17 0.959 0.503 1.754 1.071 2.441 0.439 0.454 0.491 1.294-0.054 1.686-0.845 0.578-2.017 0.174-2.688-0.499-1.663-1.64-1.611-4.601-0.019-6.275 2.023-2.321 6.051-2.365 8.122-0.077 2.21 2.448 2.489 6.376 0.787 9.186-1.276 2.203-3.578 3.794-6.107 4.154-2.752 0.408-5.724-0.464-7.658-2.504-3.783-3.852-3.723-10.626-0.114-14.573 0.965-1.154 2.239-1.976 3.518-2.738-0.331-0.442-0.613-0.8-0.903-1.151l0.042 0.053c-2.2 1.609-4.732 3.243-7.357 4.732l-0.396 0.207c-0.453 0.166-0.371 0.712-0.437 1.096-0.238 3.289-0.518 6.718-2.154 9.658-1.106 2.077-2.779 3.98-5.022 4.835-1.779 0.671-3.931 0.731-5.564-0.35-1.563-0.98-2.272-2.938-2.152-4.721 0.248-2.268 1.537-4.316 3.177-5.856 2.251-2.056 4.98-3.477 7.658-4.889 0.545-0.304 1.139-0.534 1.626-0.926 0.18-0.491 0.207-1.019 0.257-1.534-1.389 0.839-3.142 1.514-4.74 0.87-1.305-0.503-2.118-1.752-2.533-3.032-1.232-0.131-2.471-0.623-3.257-1.617-1.369-1.642-1.456-4.138-0.466-5.989 0.331-0.667 1.073-1.025 1.8-0.98 0.141 0.286 0.406 0.57 0.309 0.919-0.217 1.201-0.638 2.448-0.24 3.665 0.199 0.839 0.88 1.476 1.729 1.607l0.012 0.002c0.182-1.969 0.565-3.945 1.491-5.714 0.872-1.721 2.063-3.39 3.796-4.324zM26.169 17.227c-1.168 0.795-1.88 2.065-2.495 3.301-0.661 1.394-1.195 2.893-1.255 4.448 0.473-0.206 0.879-0.47 1.234-0.789l-0.004 0.004c1.462-1.272 2.74-2.789 3.597-4.537 0.302-0.632 0.563-1.35 0.391-2.058-0.222-0.574-0.998-0.725-1.468-0.369zM41.286 17.834c-1.301 1.529-2.093 3.527-2.093 5.709 0 0.029 0 0.058 0 0.087l-0-0.004c1.539-1.27 2.959-2.76 3.916-4.525 0.275-0.565 0.638-1.487-0.058-1.899-0.634-0.327-1.35 0.153-1.766 0.632zM20.585 38.149c-1.342 1.205-2.651 2.609-3.139 4.39-0.232 0.955-0.288 2.162 0.514 2.874 0.847 0.773 2.123 0.541 3.102 0.174 1.887-0.725 3.026-2.553 3.794-4.328 0.895-2.205 1.45-4.552 1.677-6.923-2.27 1.074-4.227 2.347-5.986 3.845l0.038-0.031z"></path>
<path fill="#3a73b8" style="fill: var(--color18, #3a73b8)" d="M29.685 0.089c0.701-0.055 1.518-0.086 2.343-0.086 5.851 0 11.334 1.578 16.046 4.331l-0.151-0.081c4.453 2.593 8.117 6.076 10.843 10.228l0.075 0.122c3.234 4.911 5.159 10.933 5.159 17.404 0 0.087-0 0.174-0.001 0.261l0-0.013c-0.041 6.5-2.11 12.976-5.89 18.269-3.857 5.391-9.223 9.48-15.479 11.679l-0.224 0.069c-5.589 1.934-11.713 2.237-17.48 0.948-6.317-1.462-11.747-4.627-15.953-8.983l-0.009-0.009c-4.554-4.717-7.637-10.855-8.578-17.352-0.926-5.786-0.161-11.822 2.1-17.221 2.21-5.166 5.549-9.48 9.725-12.781l0.068-0.052c4.779-3.784 10.766-6.24 17.301-6.725l0.105-0.006zM29.677 1.624c-3.992 0.305-7.674 1.341-11.012 2.974l0.178-0.079c-5.457 2.63-10.124 6.904-13.15 12.156-4.508 7.577-5.378 17.165-2.423 25.459 1.895 5.395 5.357 10.205 9.832 13.755 5.2 4.125 11.777 6.502 18.42 6.558 4.85 0.106 9.723-0.996 14.053-3.179 5.59-2.83 10.076-7.146 13.036-12.433l0.079-0.154c2.961-5.353 4.26-11.622 3.601-17.71-0.876-9.876-7.045-19.027-15.751-23.718-4.184-2.342-9.182-3.721-14.501-3.721-0.831 0-1.655 0.034-2.469 0.1l0.107-0.007z"></path>
<path fill="#3a73b8" style="fill: var(--color18, #3a73b8)" d="M24.292 4.519c5.318-1.485 11.073-1.421 16.333 0.277 0.228 0.072 0.404 0.24 0.584 0.391-0.868-0.064-1.663-0.456-2.518-0.603-2.15-0.429-4.378-0.642-6.558-0.317-1.365 0.246-2.798 0.774-3.665 1.915-0.652 0.847-0.721 2.178 0.035 2.982 0.839 0.888 2.328 0.839 3.259 0.122 1.098-0.806 2.164-1.768 3.535-2.067 2.785-0.69 5.709-0.135 8.408 0.667 3.241 0.884 6.304 2.483 8.793 4.751 4.144 3.661 6.635 8.917 7.581 14.306 0.824 4.599 0.576 9.404-0.851 13.86-0.038 0.196-0.199 0.345-0.398 0.363l-0.002 0c0.828-3.034 1.443-6.254 0.824-9.387-0.325-1.512-1.069-3.218-2.661-3.734-1.218-0.431-2.702 0.406-2.8 1.731-0.232 1.418 0.926 2.439 1.648 3.5 1.549 2.224 1.358 5.107 0.978 7.658-0.712 3.454-1.864 6.892-3.957 9.77-3.23 4.635-8.373 7.697-13.807 9.002-2.146 0.534-4.609 0.84-7.145 0.84-2.593 0-5.111-0.321-7.517-0.924l0.212 0.045c-0.619-0.188-1.327-0.271-1.808-0.746 0.899-0.002 1.733 0.389 2.613 0.528 2.404 0.437 4.916 0.708 7.318 0.106 1.089-0.3 2.191-0.818 2.876-1.75 0.634-0.87 0.621-2.203-0.159-2.98-0.675-0.712-1.798-0.859-2.661-0.41-1.025 0.555-1.808 1.47-2.854 1.992-2.108 1.025-4.558 0.874-6.807 0.495-3.732-0.733-7.422-2.087-10.431-4.467-3.995-3.071-6.763-7.55-8.118-12.373-1.435-5.049-1.445-10.476-0.135-15.552 0.226-0.526 0.139-1.356 0.739-1.605-0.766 2.901-1.371 5.941-0.905 8.946 0.236 1.334 0.704 2.748 1.808 3.614 0.766 0.632 1.963 0.864 2.81 0.257 0.903-0.528 1.201-1.781 0.781-2.707-0.441-1.044-1.336-1.804-1.849-2.81-1.108-2.025-0.986-4.442-0.692-6.658 0.619-3.55 1.824-7.058 3.918-10.021 3.11-4.506 8.004-7.59 13.247-9.006zM25.011 15.3c-1.733 0.934-2.924 2.603-3.796 4.324-0.926 1.769-1.309 3.746-1.491 5.714-0.86-0.133-1.541-0.77-1.738-1.595l-0.003-0.014c-0.398-1.216 0.023-2.464 0.24-3.665 0.097-0.348-0.168-0.632-0.309-0.919-0.727-0.044-1.47 0.313-1.8 0.98-0.99 1.851-0.903 4.347 0.466 5.989 0.785 0.994 2.025 1.485 3.257 1.617 0.416 1.28 1.228 2.529 2.533 3.032 1.597 0.644 3.351-0.031 4.74-0.87-0.050 0.514-0.077 1.042-0.257 1.534-0.487 0.393-1.081 0.623-1.626 0.926-2.678 1.412-5.407 2.833-7.658 4.889-1.64 1.539-2.93 3.587-3.177 5.856-0.12 1.783 0.59 3.74 2.152 4.719 1.632 1.083 3.785 1.023 5.564 0.352 2.243-0.855 3.916-2.758 5.022-4.835 1.636-2.939 1.916-6.368 2.154-9.658 0.066-0.385-0.015-0.93 0.437-1.096 3.021-1.696 5.553-3.33 7.982-5.098l-0.229 0.159c0.248 0.299 0.53 0.656 0.804 1.020l0.057 0.079c-1.278 0.762-2.553 1.584-3.518 2.738-3.608 3.947-3.669 10.721 0.114 14.573 1.934 2.040 4.906 2.912 7.658 2.504 2.529-0.36 4.831-1.953 6.107-4.156 1.702-2.808 1.423-6.736-0.789-9.186-2.069-2.286-6.097-2.241-8.12 0.079-1.592 1.675-1.644 4.635 0.019 6.275 0.671 0.671 1.843 1.077 2.688 0.499 0.545-0.393 0.493-1.232 0.054-1.686-0.569-0.687-1.242-1.481-1.071-2.441 0.17-1.247 1.566-2.011 2.738-1.746 1.006 0.157 1.808 0.942 2.181 1.862 0.88 2.094 0.381 4.69-1.199 6.32-1.675 1.746-4.587 2.021-6.608 0.727-1.795-1.104-2.816-3.152-3.131-5.185-0.329-2.45 0.139-5.094 1.659-7.091 0.978-1.265 2.344-2.303 3.914-2.678 1.319 0.101 2.688 0.338 3.978-0.083 0.607-0.207 1.199-0.89 0.89-1.553-0.335-0.683-1.156-0.89-1.841-1.031-1.023-0.203-2.040 0.070-3.040 0.261-0.698-0.24-1.068-0.973-1.327-1.619 1.942-1.45 3.86-3.026 5.179-5.090 0.766-1.24 1.265-2.762 0.905-4.218-0.284-0.967-1.075-1.785-2.085-1.969-1.682-0.425-3.404 0.425-4.546 1.63-1.837 1.992-2.769 4.757-2.684 7.453-0.025 0.557 0.191 1.141 0.033 1.677-1.377 1.11-2.916 2.003-4.399 2.963-0.853 0.495-1.665 1.064-2.57 1.466 0.015-0.859 0.060-1.729 0.306-2.556 0.652-0.892 1.472-1.667 1.99-2.657 0.379-0.683 0.737-1.547 0.342-2.301-0.362-0.561-1.162-0.505-1.686-0.226-1.118 0.561-1.731 1.744-2.181 2.854-0.309 0.71-0.344 1.59-1.006 2.092-0.921 0.805-2.030 1.613-3.311 1.566-0.731 0.004-1.218-0.685-1.373-1.331 2.023-0.785 3.711-2.251 5.080-3.906 1.267-1.628 2.274-3.55 2.444-5.635 0.095-1.050-0.28-2.239-1.24-2.789-1.199-0.654-2.702-0.468-3.877 0.151z"></path>
<path fill="#3a73b8" style="fill: var(--color18, #3a73b8)" d="M26.169 17.227c0.47-0.356 1.245-0.205 1.468 0.369 0.172 0.708-0.089 1.425-0.391 2.058-0.857 1.748-2.135 3.264-3.597 4.537-0.351 0.316-0.757 0.579-1.201 0.774l-0.029 0.011c0.060-1.555 0.594-3.053 1.255-4.448 0.615-1.236 1.327-2.506 2.495-3.301zM41.286 17.834c0.416-0.48 1.131-0.959 1.766-0.632 0.696 0.412 0.333 1.334 0.058 1.899-0.957 1.766-2.377 3.255-3.916 4.525-0-0.025-0-0.054-0-0.083 0-2.183 0.791-4.18 2.103-5.722l-0.010 0.012zM20.585 38.149c1.722-1.466 3.678-2.739 5.787-3.742l0.161-0.069c-0.243 2.551-0.837 4.897-1.736 7.085l0.060-0.164c-0.768 1.775-1.907 3.603-3.794 4.33-0.979 0.367-2.255 0.598-3.102-0.176-0.803-0.712-0.748-1.918-0.514-2.874 0.487-1.781 1.797-3.185 3.139-4.39z"></path>
</symbol>
</defs>
</svg>
