<?xml version="1.0" encoding="utf-8"?>
<!-- Generator: Adobe Illustrator 21.1.0, SVG Export Plug-In . SVG Version: 6.00 Build 0)  -->
<svg version="1.1" xmlns="http://www.w3.org/2000/svg" xmlns:xlink="http://www.w3.org/1999/xlink" x="0px" y="0px"
	 viewBox="0 0 45 45" style="enable-background:new 0 0 45 45;" xml:space="preserve">
<style type="text/css">
	.st0{fill:#DB302C;}
	.st1{fill:#FFFFFF;}
	.st2{display:none;}
	.st3{display:inline;}
	.st4{fill:#4465A0;}
</style>
<g id="Layer_1">
	<circle id="path-53_1_" class="st0" cx="22.5" cy="22.5" r="22"/>
	<path id="Shape_26_" class="st1" d="M33.5,29.8c-0.2,1.1-2.6,4.1-3.7,4.5c-0.4,0.1-0.7,0.1-1-0.1c-0.2-0.1-0.4-0.4-3-4.5l-0.8-1.2
		c-0.3-0.4-0.2-1,0.1-1.4c0.4-0.4,0.9-0.6,1.3-0.4c0,0,1.9,0.6,1.9,0.6c4.3,1.4,4.5,1.4,4.7,1.6C33.4,29.1,33.6,29.4,33.5,29.8z
		 M24.8,23.7c-0.3-0.5-0.3-1,0-1.4c0,0,1.2-1.6,1.2-1.6c2.6-3.5,2.8-3.7,3-3.8c0.3-0.2,0.7-0.2,1,0c1,0.5,3.2,3.5,3.3,4.7
		c0,0,0,0,0,0c0,0.4-0.1,0.7-0.4,0.9c-0.2,0.1-0.4,0.2-5.3,1.3c-0.8,0.2-1.2,0.3-1.5,0.4c0,0,0,0,0,0C25.7,24.4,25.1,24.2,24.8,23.7
		z M21.8,21.9c-0.2,0.1-1,0.3-1.8-1.1c0,0-5.9-9.1-6.1-9.4c-0.1-0.3,0-0.7,0.3-1c0.9-0.9,5.7-2.2,6.9-1.9c0.4,0.1,0.7,0.4,0.8,0.7
		c0.1,0.4,0.7,8.8,0.7,10.7C22.8,21.6,22,21.8,21.8,21.9z M22.6,31.1c0,4.4,0,4.6-0.1,4.8c-0.1,0.3-0.4,0.5-0.8,0.6
		c-1.2,0.2-4.8-1.1-5.5-2c-0.2-0.2-0.2-0.4-0.3-0.6c0-0.1,0-0.3,0.1-0.4c0.1-0.2,0.2-0.4,3.5-4.1c0,0,1-1.1,1-1.1
		c0.3-0.4,0.9-0.5,1.4-0.3c0.5,0.2,0.8,0.6,0.8,1.1C22.6,29.2,22.6,31.1,22.6,31.1z M12.7,28.3c-0.4,0-0.7-0.2-0.9-0.6
		c-0.1-0.3-0.2-0.7-0.3-1.2c-0.2-1.5,0-3.8,0.5-4.5c0.2-0.3,0.5-0.5,0.9-0.5c0.2,0,0.4,0.1,5.1,1.9c0,0,1.4,0.5,1.4,0.5
		c0.5,0.2,0.8,0.7,0.8,1.2c0,0.5-0.4,1-0.8,1.1c0,0-1.9,0.6-1.9,0.6C13.1,28.3,13,28.3,12.7,28.3z"/>
</g>
<g id="Layer_2" class="st2">
	<g class="st3">
		<circle id="path-1_1_" class="st4" cx="22.5" cy="22.5" r="22"/>
		<path id="Shape" class="st1" d="M23.8,35.5H19V24h-2.4v-4H19v-2.4c0-3.2,1.4-5.2,5.3-5.2h3.3v4h-2c-1.5,0-1.6,0.6-1.6,1.6l0,2h3.7
			l-0.4,4h-3.3L23.8,35.5L23.8,35.5z"/>
	</g>
</g>
</svg>
