<svg id="svg6640" xmlns="http://www.w3.org/2000/svg" viewBox="0 0 300 146.37"><defs><style>.cls-1{fill:#bf2519;}.cls-2{fill:#231f20;}</style></defs><title>yelp-logo</title><g id="layer1"><g id="g6545"><g id="g1382"><path id="path1384" class="cls-1" d="M209.08,62.33c-1.77,2.84-2.52,11.79-1.91,17.73a14,14,0,0,0,1.09,4.57,3.85,3.85,0,0,0,3.26,2.2c.87,0,1.41-.1,17.81-5.37l7.32-2.34a4.41,4.41,0,0,0,3.16-4.27A4.72,4.72,0,0,0,236.93,70L231.79,68c-17.62-7.27-18.41-7.55-19.3-7.56a3.82,3.82,0,0,0-3.41,1.95"/></g><g id="g1386"><path id="path1388" class="cls-1" d="M248.49,116.47c.29-.83.32-1.39.37-18.62,0,0,0-7.61,0-7.68a4.42,4.42,0,0,0-3.06-4.33,4.74,4.74,0,0,0-5.46,1.23s-3.6,4.27-3.61,4.27c-12.34,14.5-12.86,15.17-13.16,16a3.52,3.52,0,0,0-.2,1.58,4.23,4.23,0,0,0,1,2.24c2.86,3.4,16.59,8.45,21,7.7a3.83,3.83,0,0,0,3.1-2.41"/></g><g id="g1390"><path id="path1392" class="cls-1" d="M276.33,110.48c4.14-1.65,13.16-13.13,13.8-17.55a3.86,3.86,0,0,0-1.32-3.71c-.69-.52-1.22-.72-17.61-6.1,0,0-7.19-2.37-7.28-2.42a4.45,4.45,0,0,0-5.06,1.6,4.71,4.71,0,0,0-.49,5.61l2.89,4.71c9.72,15.79,10.47,16.91,11.17,17.46a3.78,3.78,0,0,0,3.9.41"/></g><g id="g1394"><path id="path1396" class="cls-1" d="M267.86,69.82c18.62-4.51,19.34-4.75,20.07-5.23a3.81,3.81,0,0,0,1.6-3.58.84.84,0,0,0,0-.16c-.48-4.57-8.49-16.46-12.43-18.39a3.87,3.87,0,0,0-4,.15c-.72.47-1.25,1.18-11.22,14.81,0,0-4.5,6.13-4.56,6.19a4.39,4.39,0,0,0,0,5.29,4.69,4.69,0,0,0,5.09,2.22l-.09.16c.92-.34,2.56-.75,5.54-1.46"/></g><g id="g1398"><path id="path1400" class="cls-1" d="M249.18,54.44c-.32-7.38-2.54-40.24-2.8-41.76a3.91,3.91,0,0,0-3-2.75c-4.75-1.18-22.92,3.91-26.29,7.38a4,4,0,0,0-1.16,3.75c.53,1.09,23,36.5,23,36.5,3.33,5.39,6,4.56,6.93,4.28s3.58-1.11,3.28-7.4"/></g><g id="g1402"><path id="path1404" class="cls-2" d="M18.63,132.32c2.34,2.17,6.79,2.79,12.19,1.69,5.06-1,8.2-3.26,11.22-12.86l15-47.25c.78-2.51.72-4.68-.17-6.3A5.55,5.55,0,0,0,53.26,65c-2.68-.73-6-.66-8.13,6.54l-7.89,26.8S21.16,67.95,21.15,67.94a5.57,5.57,0,0,0-7-2.28c-4,1.5-5.27,5.05-3.69,9.63,0,0,19.55,39.79,19.6,39.9a14,14,0,0,1,.53,1.65s.18,1.08.18,1.12a5.12,5.12,0,0,1-1.47,3.68,4.87,4.87,0,0,1-3.62,1.23l-3.28-.07c-3.13.38-5.1,2.18-5.42,5a5.11,5.11,0,0,0,1.66,4.56"/></g><g id="g1406"><path id="path1408" class="cls-2" d="M95.66,87.52H74.73c-.57-.41-.84-1.11-.42-3.2a10.88,10.88,0,0,1,1.39-3.46l.82-1.26a10.53,10.53,0,0,1,6-3.73c7.36-1.8,12.49,1.94,13.33,8.32C96.21,87,96,87.52,95.66,87.52Zm12.87-3.65c-.67-6.83-3.31-12.16-7.63-15.42C96.3,65,89.79,63.85,82.08,65.23c-9.66,1.67-15.47,8.58-16.8,20-1.64,13.65.61,23.94,6.52,29.75,4.45,4.4,11,6.15,19,5.06,11.42-1.61,16.56-7.88,16.56-11.84,0-2.92-1.76-5.21-4.35-5.56-1.48-.3-2.73,0-5.5,2.48-4,3.48-8.62,4.88-12.71,3.84a9.49,9.49,0,0,1-6.66-5.9s-.49-2-.46-1.73c-.33-1.76-.49-3.5.6-4.21l.29-.2h25.09c2.32,0,3.49-.3,4.16-1,1.38-1.53,1.27-5.91.68-12"/></g><g id="g1410"><path id="path1412" class="cls-2" d="M131.28,47.77a6.9,6.9,0,0,0-6.19.58c-1.89,1.12-2.68,2.82-2.68,5.9v59.83s.33,2.14.36,2.23a5.48,5.48,0,0,0,3.06,3.46,6.37,6.37,0,0,0,5.41,0,6,6,0,0,0,3.47-5.83V53.95s-.38-2.9-.38-3a5,5,0,0,0-3.05-3.23"/></g><g id="g1414"><path id="path1416" class="cls-2" d="M178.63,108.54c-8.29,0-9.61-7.35-9.87-12.91,0,0-.11-3.25-.11-3.25s.09-2.4.09-2.5c.54-9.61,2.52-13.39,7.59-14.45,3.4-.79,6-.4,8,1.17,2.93,2.36,4.22,7.35,4.1,15.69C188.31,102.05,186.61,108.54,178.63,108.54Zm.62-43.93a18.45,18.45,0,0,0-14.87,2.91s-.51.41-.71.53l-.41.21-1.25.56-.35-1.4-.3-.51-.1-.32,0-.09-.35-.47c-1.31-2-4.87-3-8.08-1.14-1.57.89-2.47,2.15-2.47,5.9v58.72c0,3.22,1,5.22,3.22,6.27a6.8,6.8,0,0,0,5.75.24,5.3,5.3,0,0,0,3.07-3.29l.37-2.52V120l-.11-1.64,0-.48.06-.23.61-1.94,1.84,1.22a5.12,5.12,0,0,1,.66.51l.55.36.64.37.59.29c4.93,2.33,11.52,2.05,16.82-.68,6.68-3.49,10-9.67,10.74-20.06C196.77,77,192,67.09,179.24,64.61"/></g></g></g></svg>