<svg width="91" height="44" viewBox="0 0 91 44" fill="none" xmlns="http://www.w3.org/2000/svg">
<path d="M62.8509 18.7369C62.3188 19.5906 62.0934 22.2811 62.2768 24.0667C62.3078 24.5398 62.4186 25.0043 62.6044 25.4405C62.6932 25.6286 62.8311 25.7893 63.0036 25.9057C63.1761 26.0221 63.3767 26.0898 63.5844 26.1018C63.8459 26.1018 64.0083 26.0717 68.9383 24.4875L71.1387 23.7841C71.415 23.7025 71.6572 23.533 71.8286 23.3014C72 23.0698 72.0913 22.7886 72.0886 22.5005C72.1205 22.1967 72.0535 21.8907 71.8975 21.628C71.7415 21.3653 71.5049 21.16 71.2229 21.0426L69.6777 20.4414C64.381 18.2559 64.1435 18.1718 63.876 18.1688C63.6681 18.1645 63.4629 18.2168 63.2823 18.32C63.1018 18.4232 62.9527 18.5736 62.8509 18.7549" fill="white"/>
<path d="M74.6982 35.0119C74.7854 34.7623 74.7944 34.594 74.8094 29.4145C74.8094 29.4145 74.8094 27.1269 74.8094 27.1059C74.8175 26.8186 74.7322 26.5365 74.5663 26.3018C74.4005 26.0671 74.163 25.8925 73.8895 25.8042C73.6121 25.6837 73.3036 25.6545 73.0085 25.721C72.7134 25.7875 72.4471 25.9461 72.2482 26.174C72.2482 26.174 71.166 27.4576 71.163 27.4576C67.4535 31.8164 67.2972 32.0178 67.207 32.2673C67.1509 32.4189 67.1304 32.5814 67.1469 32.7423C67.1784 32.9915 67.283 33.2258 67.4475 33.4156C68.3072 34.4377 72.4346 35.9558 73.7603 35.7303C73.9665 35.7049 74.1621 35.6241 74.3261 35.4966C74.4902 35.369 74.6167 35.1995 74.6922 35.0058" fill="white"/>
<path d="M83.067 33.2112C84.3115 32.7152 87.023 29.2642 87.2154 27.9355C87.2554 27.7311 87.2397 27.5197 87.1699 27.3235C87.1 27.1273 86.9787 26.9535 86.8186 26.8203C86.6111 26.664 86.4518 26.6038 81.5249 24.9866C81.5249 24.9866 79.3635 24.2741 79.3364 24.2591C79.0649 24.1653 78.7703 24.1614 78.4963 24.248C78.2224 24.3347 77.9836 24.5072 77.8153 24.7401C77.6124 24.9678 77.4885 25.255 77.4619 25.5588C77.4354 25.8627 77.5077 26.167 77.6681 26.4265L78.5368 27.8424C81.4587 32.589 81.6842 32.9256 81.8946 33.091C82.06 33.2168 82.2568 33.2948 82.4635 33.3165C82.6703 33.3382 82.879 33.3029 83.067 33.2142" fill="white"/>
<path d="M80.5208 20.9885C86.1181 19.6327 86.3345 19.5606 86.554 19.4163C86.7241 19.2974 86.8588 19.1344 86.9435 18.9448C87.0282 18.7553 87.0598 18.5463 87.0349 18.3401C87.0365 18.3241 87.0365 18.308 87.0349 18.292C86.8906 16.9183 84.4828 13.344 83.2984 12.7638C83.1129 12.661 82.9028 12.6109 82.6909 12.6189C82.479 12.6268 82.2732 12.6925 82.096 12.8089C81.8795 12.9502 81.7202 13.1637 78.7231 17.2609C78.7231 17.2609 77.3704 19.1037 77.3524 19.1217C77.1795 19.3507 77.0859 19.6299 77.0859 19.9168C77.0859 20.2038 77.1795 20.4829 77.3524 20.7119C77.5031 20.9716 77.7328 21.1764 78.008 21.2964C78.2832 21.4164 78.5896 21.4455 78.8825 21.3793L78.8554 21.4274C79.132 21.3252 79.625 21.2019 80.5208 20.9885Z" fill="white"/>
<path d="M74.9054 16.3651C74.8092 14.1466 74.1419 4.26864 74.0637 3.81172C74.0038 3.60442 73.8879 3.41762 73.7288 3.2718C73.5698 3.12598 73.3736 3.02677 73.1619 2.98504C71.734 2.63033 66.272 4.16042 65.2589 5.20353C65.1088 5.34562 64.9978 5.524 64.9368 5.72146C64.8757 5.91892 64.8665 6.12879 64.9102 6.33081C65.0695 6.65847 71.8242 17.303 71.8242 17.303C72.8252 18.9233 73.6278 18.6738 73.9074 18.5896C74.187 18.5054 74.9836 18.2559 74.8934 16.3651" fill="white"/>
<path d="M5.60027 39.7764C6.30369 40.4288 7.6414 40.6151 9.26468 40.2845C10.7858 39.9839 11.7297 39.3045 12.6375 36.4187L17.1466 22.2149C17.3811 21.4604 17.3631 20.8081 17.0955 20.3211C16.9783 20.123 16.8214 19.9513 16.6347 19.8168C16.4479 19.6823 16.2353 19.5879 16.0103 19.5395C15.2047 19.3201 14.2067 19.3411 13.5664 21.5055L11.1946 29.5618C11.1946 29.5618 6.36081 20.4263 6.3578 20.4233C6.15047 20.0726 5.8224 19.8096 5.43505 19.6834C5.0477 19.5572 4.62764 19.5766 4.25355 19.7379C3.05112 20.1888 2.66934 21.256 3.1443 22.6328C3.1443 22.6328 9.02119 34.594 9.03622 34.627C9.09952 34.7889 9.15273 34.9546 9.19554 35.123C9.19554 35.123 9.24965 35.4477 9.24965 35.4597C9.2532 35.6642 9.21594 35.8674 9.14007 36.0573C9.0642 36.2473 8.95123 36.4202 8.80776 36.5659C8.6607 36.6978 8.48848 36.7985 8.30146 36.8621C8.11445 36.9256 7.91651 36.9507 7.71956 36.9357L6.73356 36.9147C5.79266 37.0289 5.20046 37.57 5.10427 38.4177C5.06731 38.6696 5.09357 38.9268 5.18067 39.1661C5.26778 39.4054 5.413 39.6192 5.60328 39.7885" fill="#231F20"/>
<path d="M28.7562 26.3092H22.4645C22.2931 26.1859 22.2119 25.9755 22.3382 25.3472C22.4166 24.9791 22.5579 24.6272 22.756 24.3071L23.0025 23.9284C23.4567 23.3581 24.0938 22.962 24.8062 22.8071C27.0187 22.266 28.5608 23.3903 28.8133 25.3082C28.9215 26.1529 28.8584 26.3092 28.7562 26.3092ZM32.625 25.212C32.4236 23.1588 31.63 21.5566 30.3314 20.5766C28.9486 19.5395 26.9916 19.1938 24.6739 19.6086C21.77 20.1107 20.0235 22.1879 19.6237 25.6208C19.1307 29.7241 19.8071 32.8174 21.5837 34.5639C22.9214 35.8866 24.8904 36.4126 27.2952 36.085C30.7282 35.601 32.2733 33.7162 32.2733 32.5258C32.2733 31.648 31.7442 30.9596 30.9657 30.8544C30.5208 30.7642 30.145 30.8544 29.3123 31.5999C28.1099 32.646 26.7211 33.0669 25.4916 32.7542C25.0383 32.6447 24.6188 32.4258 24.2698 32.1166C23.9208 31.8074 23.6529 31.4174 23.4895 30.9806C23.4895 30.9806 23.3422 30.3794 23.3512 30.4606C23.252 29.9315 23.2039 29.4085 23.5316 29.195L23.6188 29.1349H31.161C31.8585 29.1349 32.2102 29.0447 32.4116 28.8343C32.8264 28.3744 32.7934 27.0577 32.616 25.227" fill="#231F20"/>
<path d="M39.4636 14.3601C39.1615 14.2415 38.8357 14.1955 38.5125 14.2258C38.1893 14.2561 37.8778 14.3618 37.6029 14.5344C37.0347 14.8711 36.7972 15.3821 36.7972 16.308V34.2934C36.7972 34.2934 36.8964 34.9367 36.9055 34.9637C36.9738 35.1936 37.0916 35.4058 37.2505 35.5854C37.4093 35.7651 37.6055 35.9079 37.8253 36.0038C38.0798 36.1232 38.3574 36.1851 38.6385 36.1851C38.9195 36.1851 39.1971 36.1232 39.4516 36.0038C39.782 35.8511 40.0585 35.6019 40.2446 35.2892C40.4308 34.9764 40.518 34.6146 40.4947 34.2513V16.2178C40.4947 16.2178 40.3805 15.346 40.3805 15.316C40.3128 15.0944 40.1949 14.8915 40.0358 14.7231C39.8768 14.5547 39.6809 14.4253 39.4636 14.345" fill="#231F20"/>
<path d="M53.6975 32.628C51.2055 32.628 50.8087 30.4186 50.7305 28.7472L50.6975 27.7702C50.6975 27.7702 50.7245 27.0488 50.7245 27.0187C50.8868 24.1298 51.4821 22.9935 53.0061 22.6749C54.0282 22.4374 54.8098 22.5547 55.411 23.0266C56.2918 23.7361 56.6796 25.2361 56.6435 27.7432C56.6074 30.6771 56.0964 32.628 53.6975 32.628ZM53.8839 19.4223C53.1194 19.2434 52.3255 19.2289 51.5549 19.3797C50.7844 19.5305 50.0546 19.8432 49.4139 20.2971C49.4139 20.2971 49.2606 20.4203 49.2004 20.4564L49.0772 20.5195L48.7014 20.6879L48.5962 20.267L48.506 20.1137L48.476 20.0175V19.9905L48.3708 19.8492C47.977 19.248 46.9068 18.9474 45.9418 19.5065C45.4699 19.774 45.1993 20.1528 45.1993 21.2801V38.9318C45.1993 39.8997 45.4999 40.501 46.1673 40.8166C46.4326 40.9543 46.7249 41.0321 47.0235 41.0446C47.3222 41.057 47.6199 41.0038 47.8958 40.8888C48.1128 40.8017 48.3079 40.668 48.4674 40.4971C48.6269 40.3261 48.7468 40.1222 48.8187 39.8997L48.9299 39.1422V36.073L48.8968 35.58V35.4357L48.9149 35.3666L49.0982 34.7834L49.6513 35.1501C49.7215 35.1958 49.7879 35.247 49.8497 35.3035L50.0151 35.4117L50.2075 35.5229L50.3848 35.6101C51.8668 36.3105 53.8478 36.2263 55.4411 35.4057C57.4491 34.3565 58.4471 32.4988 58.6696 29.3755C59.1506 23.1469 57.7167 20.1678 53.8809 19.4223" fill="#231F20"/>
</svg>
