<svg width="100" height="100" viewBox="0 0 100 100" fill="none" xmlns="http://www.w3.org/2000/svg">
<circle cx="50" cy="50" r="46.5" stroke="#E6E6E6" stroke-width="7"/>
<path d="M45.056 61.488H52.16C52.16 60.1867 52.2027 59.152 52.288 58.384C52.3733 57.5947 52.704 56.7093 53.28 55.728C53.8773 54.7253 54.7093 53.808 55.776 52.976C56.864 52.1227 57.9307 51.1413 58.976 50.032C60.32 48.624 61.4187 47.056 62.272 45.328C63.1467 43.6 63.584 41.712 63.584 39.664C63.584 38.1493 63.328 36.688 62.816 35.28C62.3253 33.8507 61.5893 32.5813 60.608 31.472C59.264 29.8933 57.5787 28.752 55.552 28.048C53.5467 27.344 51.4133 26.992 49.152 26.992C47.5733 26.992 45.9947 27.2373 44.416 27.728C42.8373 28.1973 41.4293 28.9227 40.192 29.904C38.7413 30.992 37.5893 32.4213 36.736 34.192C35.8827 35.9413 35.3707 37.808 35.2 39.792H42.24C42.2187 38.832 42.3573 37.9467 42.656 37.136C42.976 36.304 43.4667 35.6107 44.128 35.056C44.7467 34.48 45.5147 34.0533 46.432 33.776C47.3493 33.4987 48.3307 33.36 49.376 33.36C50.5067 33.36 51.5947 33.5307 52.64 33.872C53.6853 34.2133 54.5493 34.8213 55.232 35.696C56.064 36.72 56.48 38.0853 56.48 39.792C56.48 40.9013 56.3307 41.936 56.032 42.896C55.7547 43.856 55.1893 44.8053 54.336 45.744C53.312 46.832 52.3307 47.728 51.392 48.432C50.4747 49.1147 49.6213 49.8187 48.832 50.544C48.064 51.248 47.392 52.176 46.816 53.328C46.1333 54.544 45.664 55.824 45.408 57.168C45.1733 58.512 45.056 59.952 45.056 61.488ZM45.088 74H52.16V66.256H45.088V74Z" fill="#E6E6E6"/>
</svg>
