<svg width="40" height="27" viewBox="0 0 40 27" fill="none" xmlns="http://www.w3.org/2000/svg">
<path d="M8.72 26H0.6L4.24 8.8H12.44L8.72 26ZM13.48 3.56C13.48 4.17333 13.3467 4.70667 13.08 5.16C12.84 5.61333 12.5067 6 12.08 6.32C11.68 6.64 11.2133 6.88 10.68 7.04C10.1467 7.2 9.6 7.28 9.04 7.28C7.97333 7.28 7.08 7.02667 6.36 6.52C5.64 6.01333 5.28 5.21333 5.28 4.12C5.28 3.53333 5.4 3.01333 5.64 2.56C5.88 2.08 6.2 1.69333 6.6 1.4C7.02667 1.08 7.50667 0.839999 8.04 0.679999C8.6 0.519998 9.17333 0.439998 9.76 0.439998C10.8 0.439998 11.68 0.693332 12.4 1.2C13.12 1.70667 13.48 2.49333 13.48 3.56ZM35.2788 23.84C34.6121 24.16 33.9188 24.48 33.1988 24.8C32.5054 25.0933 31.7588 25.36 30.9588 25.6C30.1588 25.8133 29.2788 25.9867 28.3188 26.12C27.3854 26.2533 26.3588 26.32 25.2388 26.32C21.6654 26.32 18.9054 25.52 16.9588 23.92C15.0388 22.32 14.0788 19.6533 14.0788 15.92C14.0788 13.76 14.4121 11.7333 15.0788 9.84C15.7454 7.92 16.7321 6.25333 18.0388 4.84C19.3454 3.4 20.9588 2.26667 22.8788 1.44C24.7988 0.613332 26.9988 0.199998 29.4788 0.199998C30.6521 0.199998 31.7188 0.279998 32.6788 0.439998C33.6654 0.599999 34.5454 0.813333 35.3187 1.08C36.1188 1.32 36.8254 1.58667 37.4388 1.88C38.0788 2.17333 38.6521 2.45333 39.1588 2.72L37.7188 10.16H30.5188C30.5454 9.89333 30.5721 9.54667 30.5988 9.12C30.6521 8.69333 30.6921 8.26667 30.7188 7.84C30.7454 7.38667 30.7721 6.94667 30.7988 6.52C30.8254 6.09333 30.8388 5.73333 30.8388 5.44C30.8388 5.22667 30.8254 4.98667 30.7988 4.72C30.7721 4.42667 30.7054 4.14667 30.5988 3.88C30.4921 3.61333 30.3188 3.4 30.0788 3.24C29.8654 3.05333 29.5721 2.96 29.1988 2.96C28.5054 2.96 27.8654 3.25333 27.2788 3.84C26.7188 4.4 26.2121 5.16 25.7588 6.12C25.3054 7.05333 24.9054 8.12 24.5588 9.32C24.2121 10.52 23.9188 11.7467 23.6788 13C23.4654 14.2267 23.2921 15.44 23.1588 16.64C23.0521 17.84 22.9987 18.8933 22.9987 19.8C22.9987 20.0667 23.0121 20.4 23.0388 20.8C23.0654 21.2 23.1454 21.5867 23.2787 21.96C23.4121 22.3333 23.6121 22.6533 23.8788 22.92C24.1721 23.1867 24.5588 23.32 25.0388 23.32C25.8654 23.32 26.6654 22.8133 27.4388 21.8C28.2121 20.76 28.8921 18.92 29.4788 16.28H36.8788L35.2788 23.84Z" fill="#FF6A3E"/>
</svg>
