<svg width="42" height="39" viewBox="0 0 42 39" fill="none" xmlns="http://www.w3.org/2000/svg">
<path d="M21 0C20.7475 3.48201e-05 20.4976 0.0539114 20.2646 0.158511C20.0316 0.263111 19.8203 0.416355 19.6428 0.609375L0.387784 18.6741C0.267528 18.7695 0.169789 18.894 0.102435 19.0374C0.0350808 19.1809 -5.74196e-06 19.3393 7.0482e-10 19.5C7.04821e-10 19.7722 0.100568 20.0332 0.27958 20.2257C0.458592 20.4182 0.701384 20.5263 0.954545 20.5263H5.72727V36.9474C5.72727 38.0804 6.58255 39 7.63636 39H15.2727C16.3265 39 17.1818 38.0804 17.1818 36.9474V24.6316H24.8182V36.9474C24.8182 38.0804 25.6735 39 26.7273 39H34.3636C35.4175 39 36.2727 38.0804 36.2727 36.9474V20.5263H41.0455C41.2986 20.5263 41.5414 20.4182 41.7204 20.2257C41.8994 20.0332 42 19.7722 42 19.5C42 19.3393 41.9649 19.1809 41.8976 19.0374C41.8302 18.894 41.7325 18.7695 41.6122 18.6741L22.3684 0.621402C22.3647 0.617376 22.361 0.613367 22.3572 0.609375C22.1797 0.416355 21.9684 0.263111 21.7354 0.158511C21.5024 0.0539114 21.2525 3.48201e-05 21 0Z" fill="white"/>
</svg>
