<?xml version="1.0" encoding="UTF-8"?>
<svg width="60px" height="56px" viewBox="0 0 60 56" version="1.1" xmlns="http://www.w3.org/2000/svg" xmlns:xlink="http://www.w3.org/1999/xlink">
    <!-- Generator: Sketch 47.1 (45422) - http://www.bohemiancoding.com/sketch -->
    <title>graph</title>
    <desc>Created with Sketch.</desc>
    <defs></defs>
    <g id="Page-1" stroke="none" stroke-width="1" fill="none" fill-rule="evenodd">
        <g id="Главная-страница" transform="translate(-1080.000000, -3019.000000)" fill-rule="nonzero">
            <g id="Услуги-и-преимущества" transform="translate(0.000000, 2768.000000)">
                <g id="3" transform="translate(1001.000000, 196.000000)">
                    <g id="graph" transform="translate(79.000000, 55.000000)">
                        <rect id="Rectangle-path" fill="#7ED09E" x="3" y="40.5" width="10" height="14"></rect>
                        <rect id="Rectangle-path" fill="#71C285" x="18" y="31.5" width="10" height="23"></rect>
                        <rect id="Rectangle-path" fill="#4FBA6F" x="33" y="23.5" width="10" height="31"></rect>
                        <rect id="Rectangle-path" fill="#24AE5F" x="48" y="15.5" width="10" height="39"></rect>
                        <path d="M59,55.5 L1,55.5 C0.448,55.5 0,55.053 0,54.5 C0,53.947 0.448,53.5 1,53.5 L59,53.5 C59.552,53.5 60,53.947 60,54.5 C60,55.053 59.552,55.5 59,55.5 Z" id="Shape" fill="#F5EFCA"></path>
                        <path d="M8.03,25.83 C7.684,25.83 7.348,25.651 7.163,25.33 C6.887,24.851 7.051,24.24 7.529,23.964 L46.5,1.464 C46.978,1.187 47.589,1.352 47.866,1.83 C48.142,2.309 47.978,2.92 47.5,3.196 L8.529,25.696 C8.372,25.787 8.199,25.83 8.03,25.83 Z" id="Shape" fill="#FFFFFF"></path>
                        <path d="M47.001,3.33 C46.969,3.33 46.937,3.328 46.903,3.325 L38.341,2.495 C37.792,2.442 37.389,1.953 37.443,1.403 C37.496,0.854 37.98,0.449 38.535,0.505 L47.097,1.335 C47.646,1.388 48.049,1.877 47.995,2.427 C47.945,2.943 47.51,3.33 47.001,3.33 Z" id="Shape" fill="#FFFFFF"></path>
                        <path d="M43.437,11.16 C43.298,11.16 43.158,11.132 43.023,11.07 C42.52,10.841 42.298,10.249 42.527,9.746 L46.089,1.916 C46.318,1.413 46.911,1.189 47.413,1.42 C47.916,1.649 48.138,2.241 47.909,2.744 L44.347,10.574 C44.181,10.942 43.817,11.16 43.437,11.16 Z" id="Shape" fill="#FFFFFF"></path>
                    </g>
                </g>
            </g>
        </g>
    </g>
</svg>