<?xml version="1.0" encoding="iso-8859-1"?>
<!-- Generator: Adobe Illustrator 19.0.0, SVG Export Plug-In . SVG Version: 6.00 Build 0)  -->
<svg version="1.1" id="Capa_1" xmlns="http://www.w3.org/2000/svg" xmlns:xlink="http://www.w3.org/1999/xlink" x="0px" y="0px"
	 viewBox="0 0 496 496" style="enable-background:new 0 0 496 496;" xml:space="preserve">
<path d="M462.568,299.656l-18.728-3.12c-26.632-54.64-77.44-94.8-136.744-107.832l-3.44,15.624
	c55.888,12.288,103.584,50.776,127.568,102.952l2.032,4.424l4.856,0.232l21.816,3.512c11.632,1.92,20.072,11.88,20.072,23.664V392
	h-46.12c-11.744-14.608-29.72-24-49.88-24s-38.144,9.392-49.88,24H296v16h28.712c-3.016,7.416-4.712,15.512-4.712,24
	c0,2.712,0.224,5.376,0.552,8H175.448c0.328-2.624,0.552-5.288,0.552-8c0-8.488-1.696-16.584-4.712-24H280v-16H161.88
	c-11.744-14.608-29.72-24-49.88-24s-38.144,9.392-49.88,24H16v-16h8c13.232,0,24-10.768,24-24v-8
	c0-13.176-10.672-23.888-23.824-23.984c5.88-7.776,14.48-13.456,24.672-15.312l47.696-8.672l5.656,0.264l2.44-4.208
	c29.504-51.04,82.056-85.072,140.568-91.024l-1.624-15.912c-62.2,6.328-118.2,41.832-150.64,95.28l-46.952,8.536
	C27.8,292.272,13.2,304.208,5.648,320h-1.16l-1.496,6.104c-0.056,0.24-0.072,0.488-0.128,0.728C1.088,332.296,0,338.056,0,344.056
	v6.952V376v80h52.712c9.52,23.424,32.488,40,59.288,40s49.768-16.576,59.288-40h153.424c9.52,23.424,32.488,40,59.288,40
	s49.768-16.576,59.288-40H496V339.112C496,319.48,481.944,302.88,462.568,299.656z M32,344v8c0,4.408-3.584,8-8,8h-8v-8.992
	c0-5.024,0.432-10.048,1.272-15.008H24C28.416,336,32,339.592,32,344z M48.552,440H16v-32h36.712C49.696,415.416,48,423.512,48,432
	C48,434.712,48.224,437.376,48.552,440z M112,480c-26.472,0-48-21.528-48-48s21.528-48,48-48s48,21.528,48,48S138.472,480,112,480z
	 M384,480c-26.472,0-48-21.528-48-48s21.528-48,48-48s48,21.528,48,48S410.472,480,384,480z M480,440h-32.552
	c0.328-2.624,0.552-5.288,0.552-8c0-8.488-1.696-16.584-4.712-24H480V440z"/>
<path d="M129.288,290.232L128,292.224V328h272v-41.512l-1.488-2.08C368.016,241.576,318.432,216,265.872,216
	C210.504,216,159.448,243.752,129.288,290.232z M176,312h-32v-15.008c0.232-0.336,0.48-0.656,0.712-0.992H168c4.416,0,8,3.592,8,8
	V312z M304,237.12c31.712,8.56,60.112,27.584,80,54.52V312h-80V237.12z M265.872,232c7.464,0,14.848,0.632,22.128,1.752V312h-96v-8
	c0-13.232-10.768-24-24-24h-10.624C184.952,249.632,224.032,232,265.872,232z"/>
<path d="M112,400c-17.648,0-32,14.352-32,32s14.352,32,32,32s32-14.352,32-32S129.648,400,112,400z M112,448
	c-8.824,0-16-7.176-16-16s7.176-16,16-16s16,7.176,16,16S120.824,448,112,448z"/>
<path d="M384,400c-17.648,0-32,14.352-32,32s14.352,32,32,32s32-14.352,32-32S401.648,400,384,400z M384,448
	c-8.824,0-16-7.176-16-16s7.176-16,16-16s16,7.176,16,16S392.824,448,384,448z"/>
<circle style="fill:#F0BC5E;" cx="280" cy="104" r="104"/>
<rect x="208" y="96" width="16" height="16"/>
<path d="M280,64c8.824,0,16,7.176,16,16h16c0-14.864-10.232-27.288-24-30.864V32h-16v17.136c-13.768,3.576-24,16-24,30.864
	c0,17.648,14.352,32,32,32c8.824,0,16,7.176,16,16s-7.176,16-16,16s-16-7.176-16-16h-16c0,14.864,10.232,27.288,24,30.864V176h16
	v-17.136c13.768-3.576,24-16,24-30.864c0-17.648-14.352-32-32-32c-8.824,0-16-7.176-16-16S271.176,64,280,64z"/>
<rect x="336" y="96" width="16" height="16"/>
<g>
</g>
<g>
</g>
<g>
</g>
<g>
</g>
<g>
</g>
<g>
</g>
<g>
</g>
<g>
</g>
<g>
</g>
<g>
</g>
<g>
</g>
<g>
</g>
<g>
</g>
<g>
</g>
<g>
</g>
</svg>
