<svg width="50" height="50" viewBox="0 0 50 50" fill="none" xmlns="http://www.w3.org/2000/svg">
<path d="M25 1.8C24.6994 1.80004 24.4019 1.86418 24.1245 1.98871C23.8471 2.11323 23.5956 2.29567 23.3843 2.52546L0.461648 24.0313C0.318486 24.1449 0.20213 24.2931 0.121946 24.4638C0.0417629 24.6346 -6.83567e-06 24.8232 8.3907e-10 25.0145C8.39071e-10 25.3386 0.119724 25.6493 0.332833 25.8784C0.545943 26.1076 0.834981 26.2363 1.13636 26.2363H6.81818V45.7854C6.81818 47.1342 7.83637 48.229 9.09091 48.229H18.1818C19.4363 48.229 20.4545 47.1342 20.4545 45.7854V31.1236H29.5455V45.7854C29.5455 47.1342 30.5637 48.229 31.8182 48.229H40.909C42.1637 48.229 43.1818 47.1342 43.1818 45.7854V26.2363H48.8637C49.165 26.2363 49.454 26.1076 49.6671 25.8784C49.8802 25.6493 50 25.3386 50 25.0145C50 24.8232 49.9582 24.6346 49.8781 24.4638C49.7979 24.2931 49.6815 24.1449 49.5383 24.0313L26.629 2.53977C26.6246 2.53498 26.6202 2.53021 26.6157 2.52546C26.4044 2.29567 26.1529 2.11323 25.8755 1.98871C25.5981 1.86418 25.3006 1.80004 25 1.8Z" fill="#002A51"/>
</svg>
