<?xml version="1.0" encoding="UTF-8"?>
<svg width="64px" height="67px" viewBox="0 0 64 67" version="1.1" xmlns="http://www.w3.org/2000/svg" xmlns:xlink="http://www.w3.org/1999/xlink">
    <!-- Generator: Sketch 47.1 (45422) - http://www.bohemiancoding.com/sketch -->
    <title>like</title>
    <desc>Created with Sketch.</desc>
    <defs></defs>
    <g id="Page-1" stroke="none" stroke-width="1" fill="none" fill-rule="evenodd">
        <g id="Главная-страница" transform="translate(-688.000000, -3014.000000)" fill-rule="nonzero">
            <g id="Услуги-и-преимущества" transform="translate(0.000000, 2768.000000)">
                <g id="2" transform="translate(606.000000, 196.000000)">
                    <g id="like" transform="translate(82.000000, 50.000000)">
                        <rect id="Rectangle-path" fill="#4B6DAA" x="0.592592593" y="23.7037037" width="16.5925926" height="42.6666667"></rect>
                        <circle id="Oval" fill="#D8A852" cx="8.88888889" cy="55.7037037" r="4.74074074"></circle>
                        <path d="M62.2222222,30.8148148 C62.2222222,28.1967407 60.0995556,26.0740741 57.4814815,26.0740741 L46.8148148,26.0740741 L43.2592593,26.0740741 L38.9902222,26.0740741 L40.1611852,20.5997037 C41.0548148,16.4231111 40.8154074,11.3327407 40.2844444,7.75703704 C39.7534815,4.18133333 36.5511111,0 33.2005926,0 L32.9173333,0 C30.061037,0 29.037037,3.15140741 29.037037,7.11111111 C29.037037,26.3703704 19.5555556,26.0740741 19.5555556,26.0740741 L17.1851852,26.0740741 L17.1851852,64 L34.962963,64 L46.8148148,64 L51.5555556,64 C54.1736296,64 56.2962963,61.8773333 56.2962963,59.2592593 C56.2962963,56.6411852 54.1736296,54.5185185 51.5555556,54.5185185 L55.1111111,54.5185185 C57.7291852,54.5185185 59.8518519,52.3958519 59.8518519,49.7777778 C59.8518519,47.1597037 57.7291852,45.037037 55.1111111,45.037037 L58.6666667,45.037037 C61.2847407,45.037037 63.4074074,42.9143704 63.4074074,40.2962963 C63.4074074,37.3416296 61.4957037,36.2168889 58.6666667,35.7973333 C57.2882963,35.5922963 54.784,35.5555556 53.9259259,35.5555556 L57.4814815,35.5555556 C60.0995556,35.5555556 62.2222222,33.4328889 62.2222222,30.8148148 Z" id="Shape" fill="#FBCE9D"></path>
                        <path d="M60.5866667,34.3703704 L45.6296296,34.3703704 C44.9754074,34.3703704 44.4444444,34.9001481 44.4444444,35.5555556 C44.4444444,36.210963 44.9754074,36.7407407 45.6296296,36.7407407 L61.5774815,36.7407407 C60.7988148,36.2631111 59.8139259,35.9668148 58.6666667,35.7973333 C57.2882963,35.5922963 54.784,35.5555556 53.9259259,35.5555556 L57.4814815,35.5555556 C58.6761481,35.5555556 59.7534815,35.0992593 60.5866667,34.3703704 Z" id="Shape" fill="#F7B563"></path>
                        <path d="M61.7718519,43.8518519 L45.6296296,43.8518519 C44.9754074,43.8518519 44.4444444,44.3816296 44.4444444,45.037037 C44.4444444,45.6924444 44.9754074,46.2222222 45.6296296,46.2222222 L58.2174815,46.2222222 C57.3842963,45.4933333 56.3057778,45.037037 55.1111111,45.037037 L58.6666667,45.037037 C59.8613333,45.037037 60.9386667,44.5807407 61.7718519,43.8518519 Z" id="Shape" fill="#F7B563"></path>
                        <path d="M58.2162963,53.3333333 L43.2592593,53.3333333 C42.605037,53.3333333 42.0740741,53.8631111 42.0740741,54.5185185 C42.0740741,55.1739259 42.605037,55.7037037 43.2592593,55.7037037 L54.6619259,55.7037037 C53.8287407,54.9748148 52.7502222,54.5185185 51.5555556,54.5185185 L55.1111111,54.5185185 C56.3057778,54.5185185 57.3831111,54.0622222 58.2162963,53.3333333 Z" id="Shape" fill="#F7B563"></path>
                    </g>
                </g>
            </g>
        </g>
    </g>
</svg>