<?xml version="1.0" encoding="UTF-8"?>
<svg width="68px" height="68px" viewBox="0 0 68 68" version="1.1" xmlns="http://www.w3.org/2000/svg" xmlns:xlink="http://www.w3.org/1999/xlink">
    <!-- Generator: Sketch 47.1 (45422) - http://www.bohemiancoding.com/sketch -->
    <title>user</title>
    <desc>Created with Sketch.</desc>
    <defs></defs>
    <g id="Page-1" stroke="none" stroke-width="1" fill="none" fill-rule="evenodd">
        <g id="Главная-страница" transform="translate(-296.000000, -3013.000000)" fill-rule="nonzero">
            <g id="Услуги-и-преимущества" transform="translate(0.000000, 2768.000000)">
                <g id="1" transform="translate(208.000000, 196.000000)">
                    <g id="user" transform="translate(88.000000, 49.000000)">
                        <circle id="Oval" fill="#4FBA6F" cx="34" cy="34" r="34"></circle>
                        <path d="M62.0582069,53.1994483 C61.287931,45.7065517 54.958069,39.862069 47.2611724,39.862069 L40.29,39.862069 C39.406,39.862069 38.6896552,39.1457241 38.6896552,38.2617241 L38.6896552,37.5055172 C38.6896552,36.822 39.134,36.2369655 39.7741379,35.9966207 C46.5788276,33.4384138 51.238,22.2746897 50.2918621,14.3855172 C49.3984828,6.93951724 43.3441379,0.939103448 35.8922759,0.105517241 C35.2861379,0.0375172414 34.6858621,0.00468965517 34.0926207,0.00234482759 C34.0738621,0.00234482759 34.0551034,0.00117241379 34.0363448,0.00117241379 C24.9548276,-0.0187586207 17.5862069,7.33696552 17.5862069,16.4137931 C17.5862069,23.4764138 22.0495862,33.7127586 28.307931,36.0271034 C28.9211034,36.2533793 29.3103448,36.8630345 29.3103448,37.5172414 L29.3103448,38.2617241 C29.3103448,39.1457241 28.594,39.862069 27.71,39.862069 L20.7388276,39.862069 C13.041931,39.862069 6.71206897,45.7065517 5.9417931,53.1994483 C12.0676552,62.1355862 22.3473793,68 34,68 C45.6526207,68 55.9323448,62.1355862 62.0582069,53.1994483 Z" id="Shape" fill="#FBCE9D"></path>
                        <path d="M39.2664828,7.74965517 C43.622,8.94668966 47.7231034,11.6256552 50.3493103,15.1616552 C50.3305517,14.9025517 50.3223448,14.6375862 50.2918621,14.3843448 C49.3984828,6.93951724 43.3441379,0.939103448 35.8922759,0.105517241 C35.2861379,0.0375172414 34.6858621,0.00468965517 34.0926207,0.00234482759 C34.0738621,0.00234482759 34.0551034,0.00117241379 34.0363448,0.00117241379 C25.9232414,-0.0164137931 19.1935862,5.85737931 17.8476552,13.5812414 L17.8535172,13.5812414 C18.0633793,13.8766897 18.2685517,14.1756552 18.4924828,14.4605517 C18.5745517,14.3585517 18.6577931,14.2577241 18.7422069,14.158069 C21.0870345,11.3677241 25.004069,10.7217241 28.336069,12.1989655 C29.3502069,12.6468276 30.4733793,12.8965517 31.6551724,12.8965517 C35.1044138,12.8965517 38.0518621,10.7651034 39.2664828,7.74965517 Z" id="Shape" fill="#78540D"></path>
                        <rect id="Rectangle-path" fill="#424A60" x="21.1034483" y="39.862069" width="4.68965517" height="9.37931034"></rect>
                        <rect id="Rectangle-path" fill="#424A60" x="42.2068966" y="39.862069" width="4.68965517" height="9.37931034"></rect>
                        <path d="M16.4137931,59.0697241 L16.4137931,63.1028276 C21.5454483,66.2108966 27.5634483,68 34,68 C40.4365517,68 46.4545517,66.2108966 51.5862069,63.1028276 L51.5862069,59.0697241 L51.5862069,49.2413793 L16.4137931,49.2413793 L16.4137931,59.0697241 Z" id="Shape" fill="#556080"></path>
                    </g>
                </g>
            </g>
        </g>
    </g>
</svg>