<?xml version="1.0" encoding="UTF-8"?>
<svg width="69px" height="69px" viewBox="0 0 69 69" version="1.1" xmlns="http://www.w3.org/2000/svg" xmlns:xlink="http://www.w3.org/1999/xlink">
    <!-- Generator: Sketch 47.1 (45422) - http://www.bohemiancoding.com/sketch -->
    <title>piggy-bank</title>
    <desc>Created with Sketch.</desc>
    <defs></defs>
    <g id="Page-1" stroke="none" stroke-width="1" fill="none" fill-rule="evenodd">
        <g id="Главная-страница" transform="translate(-881.000000, -3314.000000)" fill-rule="nonzero">
            <g id="Услуги-и-преимущества" transform="translate(0.000000, 2768.000000)">
                <g id="5" transform="translate(749.000000, 497.000000)">
                    <g id="piggy-bank" transform="translate(132.000000, 49.000000)">
                        <path d="M61.5871667,40.1158333 C61.481,40.124 61.3783333,40.1473333 61.2698333,40.1473333 C59.0146667,40.1473333 57.1865,38.3191667 57.1865,36.064 C57.1865,34.3455 58.2505,32.8813333 59.7543333,32.2793333 C57.5365,26.341 53.3061667,21.9006667 48.0025,19.1065 C47.9978333,19.1041667 47.992,19.1041667 47.9873333,19.103 C47.2371667,20.9171667 46.1113333,22.5365 44.6915,23.8501667 C39.2536667,20.9895 32.6176667,21.2473333 27.391,24.6108333 C25.3003333,22.9915 23.7148333,20.7655 22.8666667,18.2035 C22.8386667,18.1346667 22.8025,18.0728333 22.7803333,17.9993333 C21.1015,18.5255 19.6268333,19.0435 18.6771667,19.4401667 C13.7853333,17.4533333 10.3705,16.5946667 7.37916667,16.9271667 C6.95333333,16.9738333 6.87283333,17.542 7.259,17.7275 C9.9785,19.0365 10.4545,22.5015 11.6771667,25.0938333 C8.12583333,28.5145 7.77816667,30.9995 7.15166667,35.4806667 L4.66666667,35.4806667 C1.31833333,35.4806667 0,38.1955 0,41.5438333 L0,45.752 C0,49.1003333 1.31833333,51.814 4.66666667,51.814 L6.19966667,51.814 C9.67866667,61.9336667 21.8936667,67.3493333 34.7083333,67.3493333 C50.3335,67.3493333 61.8531667,58.345 61.8531667,44.814 C61.8531667,43.1841667 61.7586667,41.6196667 61.5871667,40.1158333" id="XMLID_118_" fill="#F4ADC9"></path>
                        <path d="M18.6771667,33.7306667 C18.6771667,35.3418333 17.3716667,36.6473333 15.7605,36.6473333 C14.1493333,36.6473333 12.8438333,35.3418333 12.8438333,33.7306667 C12.8438333,32.1195 14.1493333,30.814 15.7605,30.814 C17.3716667,30.814 18.6771667,32.1195 18.6771667,33.7306667" id="XMLID_117_" fill="#FFFFFF"></path>
                        <path d="M61.8531667,44.814 C61.2091667,44.814 60.6865,44.2913333 60.6865,43.6473333 C60.6865,43.0033333 61.2091667,42.4806667 61.8531667,42.4806667 C64.4268333,42.4806667 66.5198333,40.3876667 66.5198333,37.814 C66.5198333,37.17 67.0425,36.6473333 67.6865,36.6473333 C68.3305,36.6473333 68.8531667,37.17 68.8531667,37.814 C68.8531667,41.6745 65.7136667,44.814 61.8531667,44.814" id="XMLID_116_" fill="#E685A5"></path>
                        <path d="M67.6865,38.9806667 C67.0425,38.9806667 66.5198333,38.458 66.5198333,37.814 C66.5198333,35.2403333 64.4268333,33.1473333 61.8531667,33.1473333 C61.2091667,33.1473333 60.6865,32.6246667 60.6865,31.9806667 C60.6865,31.3366667 61.2091667,30.814 61.8531667,30.814 C65.7136667,30.814 68.8531667,33.9535 68.8531667,37.814 C68.8531667,38.4591667 68.3305,38.9806667 67.6865,38.9806667" id="XMLID_115_" fill="#E685A5"></path>
                        <path d="M61.2698333,41.314 C58.3753333,41.314 56.0198333,38.9585 56.0198333,36.064 C56.0198333,33.1695 58.3753333,30.814 61.2698333,30.814 C64.1643333,30.814 66.5198333,33.1695 66.5198333,36.064 C66.5198333,38.9585 64.1643333,41.314 61.2698333,41.314 M61.2698333,33.1473333 C59.6621667,33.1473333 58.3531667,34.4563333 58.3531667,36.064 C58.3531667,37.6716667 59.6621667,38.9806667 61.2698333,38.9806667 C62.8775,38.9806667 64.1865,37.6716667 64.1865,36.064 C64.1865,34.4563333 62.8775,33.1473333 61.2698333,33.1473333" id="XMLID_112_" fill="#E685A5"></path>
                        <path d="M65.2878333,36.5983333 C65.1245,36.5983333 64.9588333,36.5645 64.8013333,36.4921667 C64.2156667,36.2226667 63.959,35.5296667 64.2285,34.944 C64.932,33.4145 64.9413333,31.6575 64.2541667,30.1221667 C63.9905,29.5341667 64.2541667,28.8446667 64.8421667,28.581 C65.4278333,28.315 66.1196667,28.5798333 66.3833333,29.169 C67.3458333,31.3191667 67.3318333,33.7785 66.3483333,35.9193333 C66.1535,36.3463333 65.7288333,36.5983333 65.2878333,36.5983333" id="XMLID_111_" fill="#E685A5"></path>
                        <path d="M56.8575,58.5141667 C54.0411667,61.7691667 50.1631667,64.2425 45.5385,65.7323333 L45.8838333,66.8815 C46.1288333,67.6993333 46.8825,68.2605 47.7365,68.2605 L54.7563333,68.2605 C57.4618333,68.2605 59.353,65.5853333 58.4535,63.035 L56.8575,58.5141667 Z" id="XMLID_110_" fill="#E685A5"></path>
                        <path d="M10.458,58.6436667 L8.57616667,63.35 C7.63466667,65.702 9.36716667,68.2605 11.9,68.2605 L19.7645,68.2605 C20.2755,68.2605 20.7363333,67.949 20.9265,67.473 L21.7723333,65.3566667 C17.3051667,63.896 13.3688333,61.6501667 10.458,58.6436667" id="XMLID_109_" fill="#E685A5"></path>
                        <path d="M33.1321667,63.728 C28.7781667,63.728 24.8185,62.8845 20.867,61.1356667 C20.2778333,60.8755 20.0118333,60.1871667 20.2731667,59.5968333 C20.5333333,59.0076667 21.2216667,58.7416667 21.812,59.0018333 C26.3795,61.0248333 30.7766667,61.7225 36.0768333,61.264 C36.7161667,61.1963333 37.2843333,61.684 37.3391667,62.3256667 C37.3951667,62.9685 36.9191667,63.5331667 36.2775,63.588 C35.2041667,63.6813333 34.1565,63.728 33.1321667,63.728" id="XMLID_108_" fill="#E685A5"></path>
                        <path d="M48.8588333,28.091 C48.5601667,28.091 48.2615,27.9766667 48.034,27.7491667 C41.776,21.4923333 31.5933333,21.4923333 25.3353333,27.7491667 C24.8791667,28.2053333 24.1406667,28.2053333 23.6856667,27.7491667 C23.2295,27.293 23.2295,26.5556667 23.6856667,26.0995 C30.8525,18.9315 42.5156667,18.9315 49.6836667,26.0995 C50.1398333,26.5556667 50.1398333,27.293 49.6836667,27.7491667 C49.4561667,27.9766667 49.1575,28.091 48.8588333,28.091" id="XMLID_107_" fill="#E685A5"></path>
                        <path d="M26.474,23.8151667 C32.186,19.9966667 39.5733333,19.7283333 45.528,22.995 C47.6851667,20.6173333 49.0105,17.4731667 49.0105,14.0093333 C49.0105,6.59866667 43.0033333,0.592666667 35.5938333,0.592666667 C28.1843333,0.592666667 22.1771667,6.59866667 22.1771667,14.0093333 C22.1771667,17.8896667 23.8396667,21.3675 26.474,23.8151667" id="XMLID_106_" fill="#FFD949"></path>
                        <path d="M31.255,21.5471667 C34.3175,20.6056667 37.5748333,20.489 40.691,21.1796667 C42.952,19.5976667 44.4336667,16.9796667 44.4336667,14.0105 C44.4336667,9.17816667 40.5171667,5.2605 35.6836667,5.2605 C30.8513333,5.2605 26.9336667,9.17816667 26.9336667,14.0105 C26.9336667,17.2246667 28.672,20.0258333 31.255,21.5471667" id="XMLID_105_" fill="#F4BF1A"></path>
                    </g>
                </g>
            </g>
        </g>
    </g>
</svg>