<svg width="50" height="50" viewBox="0 0 50 50" fill="none" xmlns="http://www.w3.org/2000/svg">
<g clip-path="url(#clip0)">
<path d="M40.944 50C40.9262 50 40.9085 50 40.8908 50C32.3497 49.7204 22.3437 41.4421 15.4496 34.5443C8.54645 27.6465 0.267317 17.6371 0.000968639 9.13703C-0.0966974 6.15415 7.2236 0.849874 7.29906 0.796604C9.19911 -0.526137 11.3077 -0.0556335 12.1733 1.14283C12.7594 1.95511 18.3084 10.3621 18.9121 11.3164C19.538 12.3062 19.4448 13.7799 18.6635 15.258C18.2329 16.0791 16.8035 18.5915 16.1331 19.7633C16.8567 20.7931 18.77 23.3187 22.721 27.2692C26.6764 31.2198 29.1978 33.1373 30.2322 33.8608C31.4041 33.1905 33.9168 31.7612 34.738 31.3307C36.1941 30.5583 37.659 30.4607 38.6578 31.0732C39.6789 31.6991 48.0646 37.2742 48.837 37.8112C49.4851 38.2684 49.9024 39.0497 49.9868 39.9596C50.0667 40.8784 49.7825 41.8505 49.1922 42.6983C49.1433 42.7693 43.9005 50 40.944 50Z" fill="#002A51"/>
</g>
<defs>
<clipPath id="clip0">
<rect width="50" height="50" fill="white"/>
</clipPath>
</defs>
</svg>
