<svg width="400" height="400" viewBox="0 0 400 400" fill="none" xmlns="http://www.w3.org/2000/svg">
<path d="M305.018 144.744L326.561 123.228C331.946 117.849 334.884 111.003 334.884 103.179C334.884 95.8439 331.946 88.5089 326.561 83.1299L316.279 72.861C310.894 67.482 304.039 64.548 296.206 64.548C288.862 64.548 281.518 67.482 276.132 72.861L254.59 94.3769C243.819 91.4429 231.579 94.3769 223.256 102.69L190.453 136.431C177.234 131.541 163.525 129.096 148.837 129.096C116.524 129.096 85.6794 141.81 62.6684 164.793C58.7516 168.705 58.7516 174.572 62.6684 178.484L105.263 221.027C90.5753 241.565 92.0441 269.927 110.649 288.509C120.93 298.778 134.149 303.668 147.368 303.668C158.14 303.668 168.911 300.245 178.213 293.399L220.808 335.942C222.766 337.898 225.214 338.876 227.662 338.876C230.11 338.876 232.558 337.898 234.517 335.942C257.528 312.959 270.257 282.641 270.257 249.878C270.257 235.697 267.809 221.516 262.913 208.313L296.206 175.061C305.018 167.727 307.956 155.502 305.018 144.744ZM290.331 87.0419C293.758 83.6189 299.143 83.6189 302.57 87.0419L312.852 97.3109C314.321 98.7779 315.3 101.223 315.3 103.179C315.3 105.624 314.321 107.58 312.852 109.047L294.737 127.14L272.705 105.135L290.331 87.0419ZM124.847 274.817C114.076 264.059 112.607 247.922 119.951 235.208L164.504 279.707C151.775 287.531 135.129 285.575 124.847 274.817ZM227.662 315.404L84.2106 172.127C102.326 156.969 125.337 148.656 149.327 148.656C176.744 148.656 202.203 159.414 221.298 178.484C240.392 197.555 251.163 223.472 251.163 250.367C250.673 274.817 242.84 297.311 227.662 315.404ZM282.987 162.348L254.59 190.709C249.204 181.418 242.84 172.617 235.006 165.282C227.173 157.458 218.85 151.101 209.547 145.722L237.944 117.36C242.35 112.959 249.694 112.47 255.08 116.382L284.455 145.722C287.883 150.123 287.393 157.458 282.987 162.348Z" fill="#2F7BED"/>
<path d="M351.04 301.223C352.999 303.179 355.447 304.157 357.895 304.157C360.343 304.157 362.791 303.179 364.749 301.223L388.25 277.751C395.594 270.416 400 260.147 400 249.878C400 239.12 396.083 229.34 388.25 222.005L334.884 168.215C332.925 166.259 330.477 165.281 328.029 165.281C325.581 165.281 323.133 166.259 321.175 168.215L276.622 212.714C272.705 216.626 272.705 222.494 276.622 226.406L351.04 301.223ZM328.029 189.242L374.541 235.697C378.458 239.609 380.416 244.499 380.416 249.878C380.416 255.257 378.458 260.147 374.541 264.059L357.895 280.685L297.185 220.049L328.029 189.242Z" fill="#2F7BED"/>
<path d="M179.682 126.161C182.13 126.161 184.578 125.183 186.536 123.227L231.09 78.7286C233.048 76.7726 234.027 74.3276 234.027 71.8826C234.027 69.4376 233.048 66.9927 231.09 65.0367L178.213 11.7359C170.38 4.40098 160.588 0 149.817 0C139.045 0 129.254 3.91198 121.91 11.7359L98.409 35.2078C94.4922 39.1198 94.4922 44.9878 98.409 48.8998L172.828 123.227C174.786 125.183 177.234 126.161 179.682 126.161ZM136.108 25.4279C140.025 21.5159 144.921 19.5599 150.306 19.5599C155.692 19.5599 160.588 21.5159 164.504 25.4279L211.016 71.8826L180.172 102.689L119.462 42.0538L136.108 25.4279Z" fill="#2F7BED"/>
<path d="M136.597 332.03C98.4087 332.03 67.5641 301.223 67.5641 263.081C67.5641 257.702 63.1578 253.301 57.7722 253.301C52.3867 253.301 47.9803 257.702 47.9803 263.081C47.9803 311.981 87.6376 351.59 136.597 351.59C141.983 351.59 146.389 347.189 146.389 341.81C146.389 336.431 141.983 332.03 136.597 332.03Z" fill="#2F7BED"/>
<path d="M136.597 380.44C71.9706 380.44 19.5838 328.118 19.5838 263.57C19.5838 258.191 15.1775 253.79 9.79192 253.79C4.40637 253.79 0 258.191 0 263.57C0 338.875 61.1995 400 136.597 400C141.983 400 146.389 395.599 146.389 390.22C146.389 384.841 141.983 380.44 136.597 380.44Z" fill="#2F7BED"/>
</svg>
