<?xml version="1.0" standalone="no"?>
<!DOCTYPE svg PUBLIC "-//W3C//DTD SVG 20010904//EN"
 "http://www.w3.org/TR/2001/REC-SVG-20010904/DTD/svg10.dtd">
<svg version="1.0" xmlns="http://www.w3.org/2000/svg"
 width="700.000000pt" height="700.000000pt" viewBox="0 0 700.000000 700.000000"
 preserveAspectRatio="xMidYMid meet">
<metadata>
Created by potrace 1.11, written by Peter Selinger 2001-2013
</metadata>
<g transform="translate(0.000000,700.000000) scale(0.100000,-0.100000)"
fill="#000000" stroke="none">
<path d="M2455 6980 c-168 -44 -213 -77 -510 -373 -274 -274 -283 -287 -270
-375 6 -46 15 -56 689 -729 665 -664 718 -713 773 -713 71 0 85 13 517 443
375 375 424 427 433 465 11 41 5 92 -13 125 -16 28 -937 957 -1004 1012 -73
60 -176 114 -265 140 -88 26 -261 28 -350 5z m323 -356 c50 -22 110 -78 486
-453 l429 -428 -271 -270 -270 -269 -531 531 -532 531 168 165 c92 92 183 174
200 183 98 50 222 54 321 10z"/>
<path d="M5061 5855 c-117 -33 -165 -68 -389 -290 -160 -157 -219 -209 -235
-208 -166 19 -278 3 -398 -57 -64 -32 -203 -165 -590 -567 l-115 -120 -50 17
c-125 43 -296 81 -449 99 -101 12 -450 6 -530 -8 -33 -7 -75 -14 -93 -16 -59
-9 -227 -54 -318 -86 -115 -40 -274 -115 -383 -180 -172 -103 -393 -285 -440
-361 -26 -42 -31 -111 -10 -150 6 -13 185 -197 396 -409 l386 -387 -22 -30
c-42 -60 -113 -218 -125 -282 -3 -14 -10 -52 -16 -85 -12 -58 -9 -259 4 -316
70 -310 273 -552 561 -670 17 -7 32 -13 35 -14 117 -36 185 -46 295 -46 55 0
109 2 120 5 11 2 40 7 65 11 74 12 194 60 276 109 42 25 79 46 82 46 4 0 182
-175 397 -389 360 -359 393 -389 431 -396 75 -12 110 2 177 69 34 34 80 83
102 110 22 27 48 58 59 70 86 99 250 392 309 551 51 137 98 319 113 435 2 19
8 64 13 100 9 71 7 395 -4 475 -16 124 -52 278 -105 446 -7 25 13 48 322 355
213 213 339 346 358 379 56 98 78 228 58 350 l-8 54 203 203 c217 217 251 259
287 353 39 101 32 315 -11 360 -5 5 -9 15 -9 21 0 44 -264 325 -364 388 -107
69 -266 93 -385 61z m192 -351 c45 -22 233 -213 251 -255 18 -44 12 -102 -13
-137 -11 -15 -90 -97 -176 -182 l-155 -155 -190 190 c-105 104 -190 193 -190
197 0 15 317 331 345 344 41 18 87 17 128 -2z m-845 -512 c32 -13 107 -82 308
-282 146 -146 273 -278 282 -295 24 -46 21 -141 -7 -196 -16 -32 -104 -127
-278 -300 -242 -240 -256 -253 -270 -234 -7 11 -37 56 -65 100 -138 216 -364
439 -610 601 l-101 67 269 266 c195 194 279 270 304 278 52 16 119 14 168 -5z
m-1578 -606 c14 -3 41 -8 60 -11 150 -19 327 -74 487 -150 293 -140 537 -352
723 -628 55 -83 147 -261 175 -337 47 -131 88 -290 100 -380 22 -177 25 -275
11 -415 -31 -311 -129 -593 -292 -835 -77 -114 -100 -143 -114 -138 -12 4
-2500 2489 -2500 2497 1 11 125 100 219 157 160 96 366 178 526 210 103 20
139 26 200 31 39 3 72 7 74 9 6 6 302 -3 331 -10z m-337 -1893 l388 -388 -68
-32 c-75 -35 -124 -45 -227 -48 -356 -9 -632 340 -550 695 13 55 55 160 64
160 2 0 179 -174 393 -387z"/>
<path d="M5686 4095 c-40 -14 -98 -70 -694 -668 -97 -97 -182 -190 -189 -205
-17 -39 -16 -98 3 -135 9 -18 287 -304 618 -635 781 -784 740 -745 781 -763
43 -19 111 -10 153 20 15 10 135 129 267 263 260 263 294 308 342 453 23 70
27 96 26 205 0 176 -41 301 -136 415 -36 43 -854 873 -975 989 -45 43 -104 76
-137 75 -11 0 -38 -6 -59 -14z m918 -1284 c67 -106 68 -253 3 -364 -14 -23
-97 -113 -184 -200 l-159 -158 -531 530 -532 530 270 269 270 270 420 -420
c231 -232 431 -437 443 -457z"/>
<path d="M945 2551 c-87 -40 -110 -93 -101 -234 7 -124 11 -155 36 -266 122
-545 539 -985 1081 -1142 139 -40 239 -55 374 -58 102 -2 126 4 171 45 78 71
70 195 -15 259 -38 27 -59 32 -176 39 -109 7 -190 22 -288 52 -88 28 -287 122
-287 136 0 4 -5 8 -11 8 -17 0 -126 88 -199 161 -150 149 -262 350 -311 554
-24 102 -26 120 -35 245 -7 102 -12 120 -53 164 -48 52 -122 67 -186 37z"/>
<path d="M108 2546 c-41 -18 -86 -65 -99 -103 -11 -33 -7 -225 7 -338 5 -44
34 -202 50 -275 50 -235 188 -546 342 -775 375 -555 984 -937 1637 -1030 23
-3 52 -7 65 -10 14 -3 90 -7 170 -11 139 -5 147 -5 189 18 113 60 120 228 13
291 -44 26 -41 25 -172 32 -95 4 -175 12 -219 20 -9 1 -36 6 -61 10 -25 3 -95
20 -156 36 -247 64 -457 162 -665 308 -456 322 -760 816 -843 1366 -2 17 -7
48 -10 70 -4 22 -8 93 -11 158 -5 134 -23 182 -83 219 -38 24 -115 31 -154 14z"/>
</g>
</svg>
