<?xml version="1.0" standalone="no"?>
<!DOCTYPE svg PUBLIC "-//W3C//DTD SVG 20010904//EN"
 "http://www.w3.org/TR/2001/REC-SVG-20010904/DTD/svg10.dtd">
<svg version="1.0" xmlns="http://www.w3.org/2000/svg"
 width="1280.000000pt" height="1280.000000pt" viewBox="0 0 1280.000000 1280.000000"
 preserveAspectRatio="xMidYMid meet">
<metadata>
Created by potrace 1.11, written by Peter Selinger 2001-2013
</metadata>
<g transform="translate(0.000000,1280.000000) scale(0.100000,-0.100000)"
fill="#000000" stroke="none">
<path d="M9237 10654 c-1 -1 -67 -5 -147 -8 -80 -3 -167 -8 -195 -11 -63 -5
-150 -14 -195 -20 -19 -2 -57 -7 -85 -10 -27 -3 -93 -13 -145 -21 -52 -9 -108
-18 -125 -20 -16 -3 -48 -9 -70 -14 -22 -5 -53 -11 -70 -14 -51 -10 -68 -13
-135 -31 -36 -10 -74 -19 -85 -21 -22 -3 -131 -33 -155 -42 -8 -3 -17 -6 -20
-7 -41 -10 -159 -48 -172 -55 -10 -6 -23 -10 -28 -10 -12 0 -258 -96 -335
-131 -27 -13 -53 -22 -57 -21 -5 1 -8 -2 -8 -8 0 -5 -5 -10 -10 -10 -6 0 -41
-14 -78 -31 -37 -18 -68 -30 -68 -28 -1 2 -10 -3 -20 -12 -11 -8 -41 -27 -69
-41 -80 -41 -139 -74 -183 -102 -23 -14 -44 -26 -47 -26 -4 0 -21 -11 -39 -25
-18 -14 -36 -25 -40 -25 -4 0 -22 -11 -40 -25 -18 -14 -36 -25 -39 -25 -4 0
-15 -7 -24 -15 -10 -8 -56 -41 -103 -74 -97 -69 -124 -88 -150 -110 -10 -9
-35 -29 -56 -46 -108 -88 -163 -135 -248 -217 -33 -32 -60 -58 -62 -58 -3 0
-74 -72 -74 -75 0 -2 -21 -25 -47 -52 -77 -79 -125 -134 -222 -252 -20 -25
-44 -53 -53 -63 -10 -10 -18 -22 -18 -28 0 -5 -6 -13 -12 -17 -7 -4 -17 -15
-23 -24 -26 -43 -150 -214 -157 -217 -4 -2 -8 -9 -8 -16 0 -7 -17 -37 -38 -67
-21 -30 -41 -61 -45 -69 -3 -8 -20 -37 -36 -65 -101 -168 -252 -486 -321 -675
-17 -47 -34 -94 -39 -105 -11 -24 -71 -203 -76 -225 -2 -8 -8 -27 -14 -42 -6
-16 -8 -28 -5 -28 4 0 1 -7 -6 -15 -7 -8 -9 -15 -6 -15 4 0 2 -8 -3 -18 -6
-11 -12 -30 -15 -43 -3 -13 -19 -78 -36 -144 -17 -66 -32 -129 -34 -140 -5
-25 -20 -97 -22 -107 -1 -5 -2 -9 -4 -10 -1 -2 -3 -12 -5 -23 -5 -37 -14 -90
-19 -115 -10 -55 -18 -107 -21 -135 -2 -16 -4 -30 -5 -30 -4 0 -10 -45 -15
-109 -3 -38 -7 -72 -9 -75 -2 -3 -7 -44 -11 -91 -4 -47 -9 -103 -11 -125 -26
-260 -20 -892 10 -1110 4 -22 8 -60 11 -85 6 -51 16 -125 21 -155 2 -11 6 -36
8 -55 5 -30 16 -86 43 -220 2 -14 5 -27 5 -30 0 -3 7 -27 15 -55 9 -27 17 -61
20 -74 7 -39 95 -305 104 -315 5 -6 9 -15 9 -22 0 -6 17 -47 37 -90 20 -44 37
-81 37 -84 2 -11 71 -140 110 -203 22 -37 46 -76 51 -85 15 -26 58 -85 72
-100 7 -7 13 -16 13 -20 0 -4 12 -20 26 -37 14 -16 47 -55 72 -85 55 -64 161
-169 215 -213 22 -18 53 -44 70 -59 18 -15 35 -28 38 -28 3 0 15 -8 27 -17 53
-45 63 -53 68 -53 4 0 27 -15 53 -33 49 -34 55 -38 141 -88 72 -43 300 -159
300 -154 0 3 17 -4 38 -14 50 -25 103 -48 127 -54 11 -3 65 -22 120 -41 96
-35 175 -59 265 -81 8 -2 15 -4 15 -6 0 -1 9 -3 20 -4 11 -2 46 -10 78 -19 32
-8 77 -18 100 -21 23 -4 45 -9 49 -11 4 -3 22 -7 40 -9 18 -3 44 -7 58 -10 14
-3 47 -8 74 -11 28 -3 53 -7 57 -9 8 -6 56 -13 129 -20 30 -3 71 -7 90 -9 199
-25 425 -36 710 -37 274 0 596 13 608 26 3 3 11 0 19 -6 7 -6 13 -7 13 -2 0 5
10 9 23 9 30 1 176 13 207 18 39 6 122 18 155 22 43 6 326 53 355 59 14 3 36
8 50 10 14 2 59 11 100 20 41 9 82 18 90 19 8 1 24 5 35 9 11 3 31 8 45 11 76
15 305 83 410 123 36 14 72 26 80 28 23 5 175 61 260 96 135 57 131 55 320
142 41 19 98 44 125 57 28 12 96 44 152 71 56 27 107 49 112 49 6 0 11 5 11
11 0 5 4 8 10 4 15 -9 50 32 50 60 0 32 1 35 10 61 5 11 11 36 14 55 3 19 8
45 11 59 3 14 9 43 14 65 15 69 40 189 45 215 12 55 45 209 61 280 9 41 18 86
20 100 2 14 10 54 19 90 8 36 18 81 21 100 3 19 10 51 15 70 5 19 12 49 14 65
3 17 17 82 31 145 14 63 27 124 29 135 11 67 29 152 34 165 3 8 7 22 8 30 4
32 15 87 24 120 5 19 12 51 15 70 10 54 13 73 20 100 4 14 8 35 10 47 2 11 6
30 9 41 8 24 13 51 22 106 3 22 8 44 10 47 6 10 43 203 40 207 -5 4 -2358 3
-2363 -2 -2 -2 -6 -17 -8 -32 -2 -16 -4 -29 -5 -29 -1 0 -3 -7 -5 -15 -2 -8
-8 -35 -14 -60 -15 -59 -16 -61 -40 -160 -11 -47 -34 -134 -50 -195 -17 -60
-37 -137 -46 -170 -9 -33 -19 -67 -22 -75 -3 -8 -7 -17 -8 -20 -1 -3 -4 -12
-8 -20 -3 -8 -20 -62 -38 -120 -18 -58 -36 -112 -40 -120 -4 -8 -17 -42 -29
-75 -77 -209 -199 -466 -267 -562 -13 -17 -23 -34 -23 -38 0 -8 -81 -114 -130
-169 -56 -64 -160 -165 -199 -194 -20 -15 -38 -30 -41 -33 -16 -22 -170 -101
-236 -123 -94 -30 -137 -37 -225 -37 -147 0 -292 56 -372 145 -67 73 -77 88
-116 159 -59 106 -98 225 -126 382 -7 41 -16 152 -19 258 -2 48 -6 90 -9 93
-3 4 -2 17 3 30 6 14 6 26 0 29 -6 3 -6 15 0 30 5 13 6 26 1 29 -4 3 -5 28 -1
55 4 30 2 55 -4 61 -6 6 -6 10 0 10 5 0 10 49 11 113 2 149 16 414 27 547 4
36 8 90 11 120 6 61 12 125 31 285 11 102 18 156 29 225 9 61 16 111 21 156 2
27 6 56 9 64 2 8 7 35 10 60 3 25 8 56 10 70 30 187 57 350 61 370 2 14 7 43
10 65 4 22 11 51 15 64 5 13 7 26 5 28 -3 3 -1 15 4 27 4 13 11 40 15 62 8 48
13 69 16 69 1 0 3 9 4 20 7 50 53 248 91 390 13 50 26 101 28 115 3 14 14 59
26 100 12 41 23 84 25 95 2 11 18 67 36 125 17 58 33 112 34 120 2 8 4 16 5
18 2 1 3 5 4 10 1 4 5 13 9 20 5 6 6 12 2 12 -3 0 -1 9 5 21 6 11 13 30 16 42
4 22 68 215 84 252 15 37 35 90 35 95 1 12 68 176 76 184 5 6 9 16 9 23 0 8
16 45 35 83 19 39 34 73 34 76 0 8 129 267 165 329 20 33 43 74 52 90 9 17 32
51 50 78 19 26 34 50 34 53 0 3 6 12 13 19 17 20 28 34 62 80 55 74 196 222
251 265 52 40 113 80 122 80 6 0 12 4 14 8 2 4 37 22 78 39 131 56 210 69 375
62 49 -2 154 -44 205 -82 93 -70 132 -120 181 -232 8 -17 33 -109 44 -156 24
-110 24 -560 0 -844 -2 -27 -7 -97 -10 -155 -7 -141 -12 -212 -21 -290 -4 -36
-8 -82 -8 -102 -1 -21 -3 -38 -6 -38 -3 0 -5 -15 -6 -33 -2 -56 -21 -310 -28
-352 -1 -7 389 -10 1153 -10 1146 0 1154 0 1157 20 2 11 6 36 10 55 4 19 8 44
10 55 1 11 8 43 14 70 6 28 14 64 16 80 2 17 6 41 9 55 12 58 19 95 20 100 3
12 16 77 19 100 3 14 5 25 6 25 1 0 3 11 5 25 3 30 13 80 26 140 6 25 13 63
15 84 3 22 7 43 9 47 3 4 7 24 10 45 4 22 8 46 10 54 2 8 7 29 10 45 2 17 7
41 10 55 4 14 8 39 11 55 4 26 11 61 28 150 2 11 7 31 10 45 6 28 15 75 20
105 2 11 6 34 10 50 9 42 15 73 21 116 3 20 10 51 15 69 5 18 7 36 5 41 -3 4
-1 10 5 14 6 4 8 10 6 14 -3 4 -1 25 5 46 6 21 12 52 14 69 2 17 4 31 5 31 3
0 18 75 25 125 1 14 10 59 19 100 8 41 17 87 20 103 3 15 7 35 10 45 6 23 18
91 19 121 2 21 -15 32 -148 100 -184 93 -371 181 -385 181 -5 0 -10 5 -10 10
0 6 -3 9 -7 8 -5 -1 -30 8 -58 21 -76 35 -212 90 -290 117 -38 14 -79 29 -90
33 -30 13 -211 72 -226 75 -14 2 -180 53 -209 63 -8 4 -24 8 -35 10 -11 2 -31
8 -45 13 -14 5 -37 12 -52 14 -15 3 -31 7 -36 10 -5 3 -24 8 -43 11 -19 3 -41
8 -49 10 -8 2 -26 6 -40 9 -14 3 -36 7 -50 10 -130 28 -355 67 -472 81 -21 3
-57 7 -80 10 -200 25 -416 36 -721 39 -131 1 -239 1 -240 0z"/>
<path d="M2958 10575 c-2 -2 -32 -6 -68 -10 -36 -4 -84 -11 -108 -16 -24 -5
-47 -7 -52 -4 -5 3 -11 1 -15 -5 -3 -5 -14 -10 -24 -10 -11 0 -56 -11 -102
-25 -46 -14 -91 -27 -99 -29 -37 -10 -152 -64 -230 -109 -176 -100 -324 -237
-402 -372 -27 -46 -108 -204 -108 -210 1 -10 -13 -60 -19 -70 -3 -5 -7 -18 -8
-27 -6 -34 -12 -63 -13 -63 -11 0 -22 -383 -12 -400 3 -5 7 -25 9 -45 6 -54
52 -198 85 -263 83 -165 219 -290 422 -386 78 -38 186 -77 235 -87 12 -3 51
-11 85 -19 33 -8 90 -17 126 -22 84 -10 389 -9 460 1 30 5 66 10 80 11 14 2
25 4 25 5 0 1 11 3 25 6 118 21 296 81 402 135 24 12 45 21 47 20 2 -2 7 1 10
6 3 5 30 24 59 42 30 19 60 41 68 48 8 8 14 12 14 10 0 -9 73 56 151 134 117
118 221 289 267 441 19 61 25 90 37 180 12 86 3 346 -12 371 -3 5 -7 22 -10
39 -13 86 -98 275 -138 308 -8 7 -15 16 -15 21 0 12 -63 74 -125 124 -28 22
-52 43 -55 46 -3 3 -30 19 -60 35 -30 16 -56 32 -58 37 -2 4 -8 7 -14 7 -5 0
-32 11 -59 25 -27 13 -49 22 -49 18 0 -3 -6 -1 -12 4 -12 9 -70 31 -101 37 -7
2 -19 6 -27 9 -13 5 -125 28 -220 44 -29 5 -387 12 -392 8z"/>
<path d="M1355 7890 c-7 -24 -25 -107 -31 -148 -3 -20 -9 -41 -12 -47 -3 -5
-7 -21 -8 -35 -1 -14 -7 -44 -13 -65 -5 -22 -13 -53 -15 -70 -3 -16 -8 -41
-11 -55 -3 -14 -8 -36 -11 -50 -4 -21 -11 -54 -20 -95 -15 -66 -36 -172 -37
-187 -1 -10 -4 -18 -7 -18 -3 0 -6 -8 -6 -17 -1 -10 -5 -34 -9 -53 -4 -19 -8
-42 -10 -50 -1 -8 -5 -28 -8 -45 -9 -36 -16 -71 -23 -105 -3 -14 -21 -99 -41
-190 -20 -91 -37 -174 -39 -185 -1 -11 -3 -20 -4 -20 -1 0 -4 -11 -5 -25 -2
-14 -9 -45 -15 -70 -7 -25 -13 -54 -14 -65 -2 -11 -6 -29 -9 -40 -3 -11 -8
-36 -11 -55 -3 -19 -14 -67 -24 -107 -10 -39 -14 -69 -9 -66 5 3 2 -8 -7 -25
-8 -16 -13 -31 -11 -34 3 -2 0 -20 -5 -39 -5 -19 -12 -46 -15 -61 -4 -25 -10
-52 -20 -98 -2 -8 -4 -15 -5 -15 -1 0 -3 -14 -5 -30 -3 -17 -16 -82 -30 -145
-14 -63 -27 -124 -29 -135 -15 -81 -104 -490 -106 -490 -1 0 -3 -13 -5 -30 -1
-16 -12 -73 -25 -125 -12 -52 -24 -105 -26 -117 -2 -13 -6 -35 -10 -50 -3 -16
-7 -41 -10 -58 -3 -16 -9 -43 -14 -60 -5 -16 -11 -43 -13 -60 -3 -16 -8 -37
-11 -45 -3 -8 -8 -33 -11 -55 -3 -22 -10 -56 -15 -75 -9 -34 -14 -58 -25 -117
-3 -16 -8 -41 -12 -58 -4 -16 -7 -32 -8 -35 0 -3 -4 -21 -8 -40 -4 -19 -10
-46 -13 -60 -3 -14 -7 -38 -10 -55 -3 -16 -8 -37 -11 -45 -3 -8 -7 -22 -8 -30
-4 -27 -34 -173 -50 -245 -9 -38 -18 -79 -20 -90 -8 -35 -14 -69 -20 -105 -3
-19 -9 -44 -12 -55 -4 -11 -7 -24 -8 -30 0 -5 -6 -35 -13 -65 -6 -30 -14 -66
-16 -80 -3 -14 -5 -25 -6 -25 -1 0 -3 -9 -5 -20 -3 -11 -18 -85 -35 -165 -29
-136 -35 -165 -45 -215 -8 -38 -14 -67 -19 -83 -3 -9 -7 -33 -10 -52 -3 -19
-8 -44 -10 -55 -15 -69 -27 -122 -32 -138 -4 -14 0 -17 23 -17 24 1 120 1 148
1 33 0 398 -2 423 -2 163 1 416 1 442 0 8 -1 38 0 65 0 48 2 93 2 330 0 61 0
116 0 123 0 163 1 416 1 442 0 8 -1 38 0 65 0 48 2 93 2 330 0 61 0 117 0 125
1 8 0 29 0 47 0 31 -1 43 14 48 60 1 8 7 40 14 70 6 30 13 64 16 75 11 53 67
312 71 330 3 11 7 31 10 45 4 23 14 69 20 95 11 45 36 164 38 180 2 11 6 27 9
35 5 13 19 78 42 198 2 13 7 32 10 42 6 20 10 39 19 91 3 19 10 49 15 67 5 17
8 32 6 32 -3 0 0 12 6 28 6 15 12 41 14 57 2 17 16 82 30 145 14 63 28 131 31
150 3 19 9 40 13 45 4 6 7 17 6 25 -1 8 3 29 7 45 5 17 11 44 14 60 2 17 7 38
10 47 5 16 9 35 19 88 10 53 14 72 19 88 3 9 8 29 11 45 10 52 16 83 36 176
12 51 23 103 25 115 3 11 7 32 10 46 2 14 7 36 11 50 3 14 7 30 9 35 4 19 16
80 19 100 2 11 4 20 5 20 1 0 3 7 5 16 1 10 10 48 19 87 9 39 19 87 22 109 3
21 8 42 11 47 3 4 7 20 8 35 2 14 10 55 19 91 8 36 17 76 20 90 2 14 20 97 40
185 41 188 47 215 50 235 1 8 8 38 14 65 17 76 61 277 66 305 2 14 5 25 6 25
1 0 3 9 5 20 4 23 18 87 20 95 3 11 26 118 30 141 3 13 14 65 25 114 11 50 22
101 25 115 2 14 13 63 24 110 11 47 23 101 26 120 3 19 14 73 25 120 12 47 22
94 24 105 2 11 6 34 10 50 3 17 8 39 11 50 2 11 13 61 24 110 12 50 23 106 26
125 3 19 11 53 17 75 6 22 12 49 13 60 2 11 8 40 14 65 6 25 11 47 11 50 0 3
-590 5 -1310 5 -1156 0 -1311 -2 -1315 -15z"/>
</g>
</svg>
