<svg width="50" height="50" viewBox="0 0 50 50" fill="none" xmlns="http://www.w3.org/2000/svg">
<path d="M39.0312 47C39.0156 47 39 47 38.9844 47C31.4688 46.7539 22.6641 39.4687 16.5977 33.3984C10.5234 27.3281 3.23828 18.5195 3.00391 11.0391C2.91797 8.41406 9.35938 3.7461 9.42578 3.69922C11.0977 2.53516 12.9531 2.94922 13.7148 4.00391C14.2305 4.71875 19.1133 12.1172 19.6445 12.957C20.1953 13.8281 20.1133 15.125 19.4258 16.4258C19.0469 17.1484 17.7891 19.3594 17.1992 20.3906C17.8359 21.2969 19.5195 23.5195 22.9961 26.9961C26.4766 30.4727 28.6953 32.1602 29.6055 32.7969C30.6367 32.207 32.8477 30.9492 33.5703 30.5703C34.8516 29.8906 36.1406 29.8047 37.0195 30.3437C37.918 30.8945 45.2969 35.8008 45.9766 36.2734C46.5469 36.6758 46.9141 37.3633 46.9883 38.1641C47.0586 38.9727 46.8086 39.8281 46.2891 40.5742C46.2461 40.6367 41.6328 47 39.0312 47V47Z" fill="white"/>
</svg>
