<?xml version="1.0" standalone="no"?>
<!DOCTYPE svg PUBLIC "-//W3C//DTD SVG 20010904//EN"
 "http://www.w3.org/TR/2001/REC-SVG-20010904/DTD/svg10.dtd">
<svg version="1.0" xmlns="http://www.w3.org/2000/svg"
 width="700.000000pt" height="700.000000pt" viewBox="0 0 700.000000 700.000000"
 preserveAspectRatio="xMidYMid meet">
<metadata>
Created by potrace 1.11, written by Peter Selinger 2001-2013
</metadata>
<g transform="translate(0.000000,700.000000) scale(0.100000,-0.100000)"
fill="#000000" stroke="none">
<path d="M4220 6980 c-199 -50 -218 -65 -783 -633 -269 -271 -495 -502 -504
-514 -24 -36 -32 -89 -20 -135 9 -38 59 -91 429 -461 238 -238 433 -424 451
-432 39 -16 112 -10 147 12 14 9 325 316 692 682 674 673 698 699 698 767 0
60 -33 101 -283 349 -271 269 -316 305 -452 351 -106 36 -264 42 -375 14z
m297 -355 c42 -19 91 -61 224 -192 l170 -167 -528 -528 c-290 -290 -531 -528
-534 -528 -4 0 -127 120 -275 266 l-267 266 429 429 c445 444 462 459 564 480
57 12 158 0 217 -26z"/>
<path d="M1691 5854 c-105 -28 -166 -71 -315 -219 -155 -155 -194 -213 -222
-331 -30 -127 -3 -278 70 -384 17 -25 122 -137 234 -249 l203 -204 -8 -46
c-20 -121 5 -274 62 -366 13 -22 173 -188 354 -370 l330 -330 -30 -90 c-31
-95 -73 -285 -86 -395 -15 -127 -8 -471 12 -570 3 -14 8 -41 11 -60 25 -159
111 -413 196 -578 70 -136 208 -343 267 -403 9 -8 40 -44 70 -78 92 -106 161
-132 246 -92 26 13 168 147 415 395 206 207 378 376 382 376 4 0 31 -15 61
-34 212 -136 472 -173 725 -105 301 80 550 334 633 644 28 104 34 308 12 410
-20 94 -68 216 -115 294 l-39 65 382 382 c210 210 388 393 395 406 40 77 16
148 -81 240 -398 373 -906 575 -1454 576 -244 0 -435 -28 -646 -95 l-89 -29
-136 140 c-436 450 -501 512 -580 550 -122 59 -255 77 -380 51 -21 -4 -53 24
-235 204 -143 142 -229 219 -271 243 -110 64 -254 84 -373 52z m182 -348 c18
-7 105 -88 193 -179 l162 -165 -189 -188 c-104 -104 -192 -190 -196 -191 -14
-5 -353 344 -354 363 -1 11 -3 30 -4 44 -2 14 3 40 11 58 16 39 204 232 249
255 37 20 86 21 128 3z m900 -521 c40 -19 110 -83 307 -281 163 -164 250 -259
241 -262 -19 -6 -211 -136 -236 -159 -11 -10 -47 -40 -80 -68 -152 -127 -321
-322 -419 -484 -21 -33 -40 -61 -44 -61 -3 0 -120 114 -259 252 -175 174 -259
266 -274 297 -28 61 -32 136 -10 186 28 61 536 565 593 587 62 24 120 22 181
-7z m1833 -598 c11 -3 39 -9 64 -12 201 -27 443 -116 640 -235 85 -51 209
-140 210 -150 0 -4 -2476 -2483 -2503 -2507 -1 -1 -35 42 -75 95 -84 112 -196
330 -242 472 -91 280 -118 611 -70 861 6 30 13 69 16 87 9 54 50 185 90 284
157 393 456 722 834 917 193 99 393 161 595 185 106 12 402 14 441 3z m340
-1608 c131 -384 -158 -771 -562 -753 -83 3 -121 13 -206 52 l-58 27 387 387
c320 320 390 385 401 375 7 -8 24 -47 38 -88z"/>
<path d="M1198 4093 c-46 -22 -34 -11 -593 -574 -258 -261 -476 -488 -496
-519 -120 -185 -141 -431 -55 -634 44 -104 95 -167 325 -399 130 -131 248
-247 263 -258 15 -11 47 -23 72 -28 61 -11 104 10 181 87 33 33 335 337 672
674 416 417 617 626 628 651 19 45 19 88 1 130 -15 35 -818 842 -860 864 -43
23 -97 25 -138 6z m347 -691 l253 -253 -531 -530 -531 -530 -163 163 c-130
130 -170 175 -193 223 -48 102 -47 217 4 315 15 30 166 188 447 471 400 401
425 424 443 410 10 -9 132 -130 271 -269z"/>
<path d="M5942 2561 c-32 -9 -89 -57 -106 -89 -7 -15 -17 -72 -20 -127 -9
-125 -12 -148 -41 -261 -125 -492 -578 -862 -1090 -890 -137 -7 -184 -26 -221
-90 -50 -86 -17 -197 72 -239 33 -16 147 -21 229 -11 100 13 143 21 225 42
657 170 1122 730 1166 1403 4 55 4 116 0 135 -17 88 -123 151 -214 127z"/>
<path d="M6779 2551 c-44 -14 -86 -51 -103 -90 -9 -22 -18 -81 -21 -151 -3
-63 -8 -130 -10 -147 -18 -126 -22 -150 -36 -213 -6 -25 -13 -56 -15 -70 -13
-67 -90 -275 -143 -383 -217 -443 -572 -785 -1021 -981 -47 -21 -94 -42 -105
-47 -37 -17 -265 -78 -347 -93 -113 -20 -164 -26 -292 -31 -59 -2 -118 -7
-130 -11 -91 -28 -140 -138 -102 -229 37 -88 86 -107 260 -100 130 5 144 6
241 20 306 44 663 175 925 341 484 306 843 774 1011 1314 18 58 34 107 34 110
1 3 8 39 18 80 45 201 69 489 48 568 -10 36 -76 111 -99 113 -4 0 -25 2 -47 4
-22 2 -52 0 -66 -4z"/>
</g>
</svg>
